M48
; DRILL file {KiCad 5.1.5-52549c5~84~ubuntu18.04.1} date Wed 29 Apr 2020 13:09:18 BST
; FORMAT={-:-/ absolute / metric / decimal}
; #@! TF.CreationDate,2020-04-29T13:09:18+01:00
; #@! TF.GenerationSoftware,Kicad,Pcbnew,5.1.5-52549c5~84~ubuntu18.04.1
; #@! TF.FileFunction,Plated,1,2,PTH
FMAT,2
METRIC
T1C0.800
T2C1.000
T3C1.300
%
G90
G05
T1
X128.524Y-113.538
X138.684Y-113.538
X158.75Y-121.92
X168.91Y-121.92
X143.51Y-117.094
X143.51Y-119.634
X143.51Y-122.174
X143.51Y-124.714
X151.13Y-117.094
X151.13Y-119.634
X151.13Y-122.174
X151.13Y-124.714
X173.99Y-102.362
X173.99Y-112.522
X169.164Y-102.362
X169.164Y-112.522
T2
X159.004Y-107.696
X161.544Y-107.696
X188.722Y-111.252
X188.722Y-113.792
X178.054Y-121.92
X178.054Y-124.46
X178.054Y-127.0
X132.588Y-100.584
X135.128Y-100.584
T3
X127.762Y-107.95
X143.002Y-107.95
X130.556Y-120.142
X130.556Y-125.142
X134.356Y-122.642
T0
M30
