G04 #@! TF.GenerationSoftware,KiCad,Pcbnew,5.1.5-52549c5~84~ubuntu18.04.1*
G04 #@! TF.CreationDate,2020-02-28T14:28:58+00:00*
G04 #@! TF.ProjectId,etl_driver_pcb,65746c5f-6472-4697-9665-725f7063622e,rev?*
G04 #@! TF.SameCoordinates,Original*
G04 #@! TF.FileFunction,Copper,L2,Bot*
G04 #@! TF.FilePolarity,Positive*
%FSLAX46Y46*%
G04 Gerber Fmt 4.6, Leading zero omitted, Abs format (unit mm)*
G04 Created by KiCad (PCBNEW 5.1.5-52549c5~84~ubuntu18.04.1) date 2020-02-28 14:28:58*
%MOMM*%
%LPD*%
G04 APERTURE LIST*
%ADD10R,1.700000X1.700000*%
%ADD11O,1.700000X1.700000*%
%ADD12R,1.800000X1.800000*%
%ADD13O,1.800000X1.800000*%
%ADD14C,1.600000*%
%ADD15O,1.600000X1.600000*%
%ADD16C,2.340000*%
%ADD17R,1.600000X1.600000*%
%ADD18C,0.250000*%
%ADD19C,0.254000*%
G04 APERTURE END LIST*
D10*
X134112000Y-101600000D03*
D11*
X134112000Y-99060000D03*
X161544000Y-107696000D03*
D10*
X159004000Y-107696000D03*
X188722000Y-111252000D03*
D11*
X188722000Y-113792000D03*
D12*
X178054000Y-127000000D03*
D13*
X178054000Y-124460000D03*
X178054000Y-121920000D03*
D14*
X139192000Y-109474000D03*
D15*
X129032000Y-109474000D03*
X158750000Y-121920000D03*
D14*
X168910000Y-121920000D03*
X169164000Y-112522000D03*
D15*
X169164000Y-102362000D03*
X173990000Y-102362000D03*
D14*
X173990000Y-112522000D03*
D16*
X131318000Y-124380000D03*
X135118000Y-121880000D03*
X131318000Y-119380000D03*
D17*
X143510000Y-117094000D03*
D15*
X151130000Y-124714000D03*
X143510000Y-119634000D03*
X151130000Y-122174000D03*
X143510000Y-122174000D03*
X151130000Y-119634000D03*
X143510000Y-124714000D03*
X151130000Y-117094000D03*
D18*
X168910000Y-121920000D02*
X178054000Y-121920000D01*
D19*
G36*
X192405996Y-129159000D02*
G01*
X125096004Y-129159000D01*
X125106472Y-127829602D01*
X125208463Y-128075831D01*
X125398337Y-128359998D01*
X125640002Y-128601663D01*
X125924169Y-128791537D01*
X126239919Y-128922325D01*
X126575117Y-128989000D01*
X126916883Y-128989000D01*
X127252081Y-128922325D01*
X127567831Y-128791537D01*
X127851998Y-128601663D01*
X128093663Y-128359998D01*
X128283537Y-128075831D01*
X128414325Y-127760081D01*
X128481000Y-127424883D01*
X128481000Y-127083117D01*
X128414325Y-126747919D01*
X128283537Y-126432169D01*
X128093663Y-126148002D01*
X127851998Y-125906337D01*
X127567831Y-125716463D01*
X127252081Y-125585675D01*
X126916883Y-125519000D01*
X126575117Y-125519000D01*
X126239919Y-125585675D01*
X125924169Y-125716463D01*
X125640002Y-125906337D01*
X125398337Y-126148002D01*
X125208463Y-126432169D01*
X125115712Y-126656090D01*
X125135033Y-124202223D01*
X129513000Y-124202223D01*
X129513000Y-124557777D01*
X129582365Y-124906499D01*
X129718429Y-125234988D01*
X129915965Y-125530621D01*
X130167379Y-125782035D01*
X130463012Y-125979571D01*
X130791501Y-126115635D01*
X131140223Y-126185000D01*
X131495777Y-126185000D01*
X131844499Y-126115635D01*
X132172988Y-125979571D01*
X132468621Y-125782035D01*
X132720035Y-125530621D01*
X132917571Y-125234988D01*
X133053635Y-124906499D01*
X133123000Y-124557777D01*
X133123000Y-124202223D01*
X133053635Y-123853501D01*
X132917571Y-123525012D01*
X132720035Y-123229379D01*
X132468621Y-122977965D01*
X132172988Y-122780429D01*
X131844499Y-122644365D01*
X131495777Y-122575000D01*
X131140223Y-122575000D01*
X130791501Y-122644365D01*
X130463012Y-122780429D01*
X130167379Y-122977965D01*
X129915965Y-123229379D01*
X129718429Y-123525012D01*
X129582365Y-123853501D01*
X129513000Y-124202223D01*
X125135033Y-124202223D01*
X125154718Y-121702223D01*
X133313000Y-121702223D01*
X133313000Y-122057777D01*
X133382365Y-122406499D01*
X133518429Y-122734988D01*
X133715965Y-123030621D01*
X133967379Y-123282035D01*
X134263012Y-123479571D01*
X134591501Y-123615635D01*
X134940223Y-123685000D01*
X135295777Y-123685000D01*
X135644499Y-123615635D01*
X135972988Y-123479571D01*
X136268621Y-123282035D01*
X136520035Y-123030621D01*
X136717571Y-122734988D01*
X136853635Y-122406499D01*
X136923000Y-122057777D01*
X136923000Y-121702223D01*
X136853635Y-121353501D01*
X136717571Y-121025012D01*
X136520035Y-120729379D01*
X136268621Y-120477965D01*
X135972988Y-120280429D01*
X135644499Y-120144365D01*
X135295777Y-120075000D01*
X134940223Y-120075000D01*
X134591501Y-120144365D01*
X134263012Y-120280429D01*
X133967379Y-120477965D01*
X133715965Y-120729379D01*
X133518429Y-121025012D01*
X133382365Y-121353501D01*
X133313000Y-121702223D01*
X125154718Y-121702223D01*
X125174403Y-119202223D01*
X129513000Y-119202223D01*
X129513000Y-119557777D01*
X129582365Y-119906499D01*
X129718429Y-120234988D01*
X129915965Y-120530621D01*
X130167379Y-120782035D01*
X130463012Y-120979571D01*
X130791501Y-121115635D01*
X131140223Y-121185000D01*
X131495777Y-121185000D01*
X131844499Y-121115635D01*
X132172988Y-120979571D01*
X132468621Y-120782035D01*
X132720035Y-120530621D01*
X132917571Y-120234988D01*
X133053635Y-119906499D01*
X133123000Y-119557777D01*
X133123000Y-119202223D01*
X133053635Y-118853501D01*
X132917571Y-118525012D01*
X132720035Y-118229379D01*
X132468621Y-117977965D01*
X132172988Y-117780429D01*
X131844499Y-117644365D01*
X131495777Y-117575000D01*
X131140223Y-117575000D01*
X130791501Y-117644365D01*
X130463012Y-117780429D01*
X130167379Y-117977965D01*
X129915965Y-118229379D01*
X129718429Y-118525012D01*
X129582365Y-118853501D01*
X129513000Y-119202223D01*
X125174403Y-119202223D01*
X125197302Y-116294000D01*
X142071928Y-116294000D01*
X142071928Y-117894000D01*
X142084188Y-118018482D01*
X142120498Y-118138180D01*
X142179463Y-118248494D01*
X142258815Y-118345185D01*
X142355506Y-118424537D01*
X142465820Y-118483502D01*
X142585518Y-118519812D01*
X142593961Y-118520643D01*
X142395363Y-118719241D01*
X142238320Y-118954273D01*
X142130147Y-119215426D01*
X142075000Y-119492665D01*
X142075000Y-119775335D01*
X142130147Y-120052574D01*
X142238320Y-120313727D01*
X142395363Y-120548759D01*
X142595241Y-120748637D01*
X142827759Y-120904000D01*
X142595241Y-121059363D01*
X142395363Y-121259241D01*
X142238320Y-121494273D01*
X142130147Y-121755426D01*
X142075000Y-122032665D01*
X142075000Y-122315335D01*
X142130147Y-122592574D01*
X142238320Y-122853727D01*
X142395363Y-123088759D01*
X142595241Y-123288637D01*
X142827759Y-123444000D01*
X142595241Y-123599363D01*
X142395363Y-123799241D01*
X142238320Y-124034273D01*
X142130147Y-124295426D01*
X142075000Y-124572665D01*
X142075000Y-124855335D01*
X142130147Y-125132574D01*
X142238320Y-125393727D01*
X142395363Y-125628759D01*
X142595241Y-125828637D01*
X142830273Y-125985680D01*
X143091426Y-126093853D01*
X143368665Y-126149000D01*
X143651335Y-126149000D01*
X143928574Y-126093853D01*
X144189727Y-125985680D01*
X144424759Y-125828637D01*
X144624637Y-125628759D01*
X144781680Y-125393727D01*
X144889853Y-125132574D01*
X144945000Y-124855335D01*
X144945000Y-124572665D01*
X144889853Y-124295426D01*
X144781680Y-124034273D01*
X144624637Y-123799241D01*
X144424759Y-123599363D01*
X144192241Y-123444000D01*
X144424759Y-123288637D01*
X144624637Y-123088759D01*
X144781680Y-122853727D01*
X144889853Y-122592574D01*
X144945000Y-122315335D01*
X144945000Y-122032665D01*
X149695000Y-122032665D01*
X149695000Y-122315335D01*
X149750147Y-122592574D01*
X149858320Y-122853727D01*
X150015363Y-123088759D01*
X150215241Y-123288637D01*
X150447759Y-123444000D01*
X150215241Y-123599363D01*
X150015363Y-123799241D01*
X149858320Y-124034273D01*
X149750147Y-124295426D01*
X149695000Y-124572665D01*
X149695000Y-124855335D01*
X149750147Y-125132574D01*
X149858320Y-125393727D01*
X150015363Y-125628759D01*
X150215241Y-125828637D01*
X150450273Y-125985680D01*
X150711426Y-126093853D01*
X150988665Y-126149000D01*
X151271335Y-126149000D01*
X151548574Y-126093853D01*
X151809727Y-125985680D01*
X152044759Y-125828637D01*
X152244637Y-125628759D01*
X152401680Y-125393727D01*
X152509853Y-125132574D01*
X152565000Y-124855335D01*
X152565000Y-124572665D01*
X152509853Y-124295426D01*
X152401680Y-124034273D01*
X152244637Y-123799241D01*
X152044759Y-123599363D01*
X151812241Y-123444000D01*
X152044759Y-123288637D01*
X152244637Y-123088759D01*
X152401680Y-122853727D01*
X152509853Y-122592574D01*
X152565000Y-122315335D01*
X152565000Y-122032665D01*
X152514476Y-121778665D01*
X157315000Y-121778665D01*
X157315000Y-122061335D01*
X157370147Y-122338574D01*
X157478320Y-122599727D01*
X157635363Y-122834759D01*
X157835241Y-123034637D01*
X158070273Y-123191680D01*
X158331426Y-123299853D01*
X158608665Y-123355000D01*
X158891335Y-123355000D01*
X159168574Y-123299853D01*
X159429727Y-123191680D01*
X159664759Y-123034637D01*
X159864637Y-122834759D01*
X160021680Y-122599727D01*
X160129853Y-122338574D01*
X160185000Y-122061335D01*
X160185000Y-121778665D01*
X167475000Y-121778665D01*
X167475000Y-122061335D01*
X167530147Y-122338574D01*
X167638320Y-122599727D01*
X167795363Y-122834759D01*
X167995241Y-123034637D01*
X168230273Y-123191680D01*
X168491426Y-123299853D01*
X168768665Y-123355000D01*
X169051335Y-123355000D01*
X169328574Y-123299853D01*
X169589727Y-123191680D01*
X169824759Y-123034637D01*
X170024637Y-122834759D01*
X170128043Y-122680000D01*
X176715687Y-122680000D01*
X176861688Y-122898505D01*
X177075495Y-123112312D01*
X177191763Y-123190000D01*
X177075495Y-123267688D01*
X176861688Y-123481495D01*
X176693701Y-123732905D01*
X176577989Y-124012257D01*
X176519000Y-124308816D01*
X176519000Y-124611184D01*
X176577989Y-124907743D01*
X176693701Y-125187095D01*
X176861688Y-125438505D01*
X176928127Y-125504944D01*
X176909820Y-125510498D01*
X176799506Y-125569463D01*
X176702815Y-125648815D01*
X176623463Y-125745506D01*
X176564498Y-125855820D01*
X176528188Y-125975518D01*
X176515928Y-126100000D01*
X176515928Y-127900000D01*
X176528188Y-128024482D01*
X176564498Y-128144180D01*
X176623463Y-128254494D01*
X176702815Y-128351185D01*
X176799506Y-128430537D01*
X176909820Y-128489502D01*
X177029518Y-128525812D01*
X177154000Y-128538072D01*
X178954000Y-128538072D01*
X179078482Y-128525812D01*
X179198180Y-128489502D01*
X179308494Y-128430537D01*
X179405185Y-128351185D01*
X179484537Y-128254494D01*
X179543502Y-128144180D01*
X179579812Y-128024482D01*
X179592072Y-127900000D01*
X179592072Y-127083117D01*
X188511000Y-127083117D01*
X188511000Y-127424883D01*
X188577675Y-127760081D01*
X188708463Y-128075831D01*
X188898337Y-128359998D01*
X189140002Y-128601663D01*
X189424169Y-128791537D01*
X189739919Y-128922325D01*
X190075117Y-128989000D01*
X190416883Y-128989000D01*
X190752081Y-128922325D01*
X191067831Y-128791537D01*
X191351998Y-128601663D01*
X191593663Y-128359998D01*
X191783537Y-128075831D01*
X191914325Y-127760081D01*
X191981000Y-127424883D01*
X191981000Y-127083117D01*
X191914325Y-126747919D01*
X191783537Y-126432169D01*
X191593663Y-126148002D01*
X191351998Y-125906337D01*
X191067831Y-125716463D01*
X190752081Y-125585675D01*
X190416883Y-125519000D01*
X190075117Y-125519000D01*
X189739919Y-125585675D01*
X189424169Y-125716463D01*
X189140002Y-125906337D01*
X188898337Y-126148002D01*
X188708463Y-126432169D01*
X188577675Y-126747919D01*
X188511000Y-127083117D01*
X179592072Y-127083117D01*
X179592072Y-126100000D01*
X179579812Y-125975518D01*
X179543502Y-125855820D01*
X179484537Y-125745506D01*
X179405185Y-125648815D01*
X179308494Y-125569463D01*
X179198180Y-125510498D01*
X179179873Y-125504944D01*
X179246312Y-125438505D01*
X179414299Y-125187095D01*
X179530011Y-124907743D01*
X179589000Y-124611184D01*
X179589000Y-124308816D01*
X179530011Y-124012257D01*
X179414299Y-123732905D01*
X179246312Y-123481495D01*
X179032505Y-123267688D01*
X178916237Y-123190000D01*
X179032505Y-123112312D01*
X179246312Y-122898505D01*
X179414299Y-122647095D01*
X179530011Y-122367743D01*
X179589000Y-122071184D01*
X179589000Y-121768816D01*
X179530011Y-121472257D01*
X179414299Y-121192905D01*
X179246312Y-120941495D01*
X179032505Y-120727688D01*
X178781095Y-120559701D01*
X178501743Y-120443989D01*
X178205184Y-120385000D01*
X177902816Y-120385000D01*
X177606257Y-120443989D01*
X177326905Y-120559701D01*
X177075495Y-120727688D01*
X176861688Y-120941495D01*
X176715687Y-121160000D01*
X170128043Y-121160000D01*
X170024637Y-121005241D01*
X169824759Y-120805363D01*
X169589727Y-120648320D01*
X169328574Y-120540147D01*
X169051335Y-120485000D01*
X168768665Y-120485000D01*
X168491426Y-120540147D01*
X168230273Y-120648320D01*
X167995241Y-120805363D01*
X167795363Y-121005241D01*
X167638320Y-121240273D01*
X167530147Y-121501426D01*
X167475000Y-121778665D01*
X160185000Y-121778665D01*
X160129853Y-121501426D01*
X160021680Y-121240273D01*
X159864637Y-121005241D01*
X159664759Y-120805363D01*
X159429727Y-120648320D01*
X159168574Y-120540147D01*
X158891335Y-120485000D01*
X158608665Y-120485000D01*
X158331426Y-120540147D01*
X158070273Y-120648320D01*
X157835241Y-120805363D01*
X157635363Y-121005241D01*
X157478320Y-121240273D01*
X157370147Y-121501426D01*
X157315000Y-121778665D01*
X152514476Y-121778665D01*
X152509853Y-121755426D01*
X152401680Y-121494273D01*
X152244637Y-121259241D01*
X152044759Y-121059363D01*
X151809727Y-120902320D01*
X151799135Y-120897933D01*
X151985131Y-120786385D01*
X152193519Y-120597414D01*
X152361037Y-120371420D01*
X152481246Y-120117087D01*
X152521904Y-119983039D01*
X152399915Y-119761000D01*
X151257000Y-119761000D01*
X151257000Y-119781000D01*
X151003000Y-119781000D01*
X151003000Y-119761000D01*
X149860085Y-119761000D01*
X149738096Y-119983039D01*
X149778754Y-120117087D01*
X149898963Y-120371420D01*
X150066481Y-120597414D01*
X150274869Y-120786385D01*
X150460865Y-120897933D01*
X150450273Y-120902320D01*
X150215241Y-121059363D01*
X150015363Y-121259241D01*
X149858320Y-121494273D01*
X149750147Y-121755426D01*
X149695000Y-122032665D01*
X144945000Y-122032665D01*
X144889853Y-121755426D01*
X144781680Y-121494273D01*
X144624637Y-121259241D01*
X144424759Y-121059363D01*
X144192241Y-120904000D01*
X144424759Y-120748637D01*
X144624637Y-120548759D01*
X144781680Y-120313727D01*
X144889853Y-120052574D01*
X144945000Y-119775335D01*
X144945000Y-119492665D01*
X144889853Y-119215426D01*
X144781680Y-118954273D01*
X144624637Y-118719241D01*
X144426039Y-118520643D01*
X144434482Y-118519812D01*
X144554180Y-118483502D01*
X144664494Y-118424537D01*
X144761185Y-118345185D01*
X144840537Y-118248494D01*
X144899502Y-118138180D01*
X144935812Y-118018482D01*
X144948072Y-117894000D01*
X144948072Y-116952665D01*
X149695000Y-116952665D01*
X149695000Y-117235335D01*
X149750147Y-117512574D01*
X149858320Y-117773727D01*
X150015363Y-118008759D01*
X150215241Y-118208637D01*
X150450273Y-118365680D01*
X150460865Y-118370067D01*
X150274869Y-118481615D01*
X150066481Y-118670586D01*
X149898963Y-118896580D01*
X149778754Y-119150913D01*
X149738096Y-119284961D01*
X149860085Y-119507000D01*
X151003000Y-119507000D01*
X151003000Y-119487000D01*
X151257000Y-119487000D01*
X151257000Y-119507000D01*
X152399915Y-119507000D01*
X152521904Y-119284961D01*
X152481246Y-119150913D01*
X152361037Y-118896580D01*
X152193519Y-118670586D01*
X151985131Y-118481615D01*
X151799135Y-118370067D01*
X151809727Y-118365680D01*
X152044759Y-118208637D01*
X152244637Y-118008759D01*
X152401680Y-117773727D01*
X152509853Y-117512574D01*
X152565000Y-117235335D01*
X152565000Y-116952665D01*
X152509853Y-116675426D01*
X152401680Y-116414273D01*
X152244637Y-116179241D01*
X152044759Y-115979363D01*
X151809727Y-115822320D01*
X151548574Y-115714147D01*
X151271335Y-115659000D01*
X150988665Y-115659000D01*
X150711426Y-115714147D01*
X150450273Y-115822320D01*
X150215241Y-115979363D01*
X150015363Y-116179241D01*
X149858320Y-116414273D01*
X149750147Y-116675426D01*
X149695000Y-116952665D01*
X144948072Y-116952665D01*
X144948072Y-116294000D01*
X144935812Y-116169518D01*
X144899502Y-116049820D01*
X144840537Y-115939506D01*
X144761185Y-115842815D01*
X144664494Y-115763463D01*
X144554180Y-115704498D01*
X144434482Y-115668188D01*
X144310000Y-115655928D01*
X142710000Y-115655928D01*
X142585518Y-115668188D01*
X142465820Y-115704498D01*
X142355506Y-115763463D01*
X142258815Y-115842815D01*
X142179463Y-115939506D01*
X142120498Y-116049820D01*
X142084188Y-116169518D01*
X142071928Y-116294000D01*
X125197302Y-116294000D01*
X125228115Y-112380665D01*
X167729000Y-112380665D01*
X167729000Y-112663335D01*
X167784147Y-112940574D01*
X167892320Y-113201727D01*
X168049363Y-113436759D01*
X168249241Y-113636637D01*
X168484273Y-113793680D01*
X168745426Y-113901853D01*
X169022665Y-113957000D01*
X169305335Y-113957000D01*
X169582574Y-113901853D01*
X169843727Y-113793680D01*
X170078759Y-113636637D01*
X170278637Y-113436759D01*
X170435680Y-113201727D01*
X170543853Y-112940574D01*
X170599000Y-112663335D01*
X170599000Y-112380665D01*
X172555000Y-112380665D01*
X172555000Y-112663335D01*
X172610147Y-112940574D01*
X172718320Y-113201727D01*
X172875363Y-113436759D01*
X173075241Y-113636637D01*
X173310273Y-113793680D01*
X173571426Y-113901853D01*
X173848665Y-113957000D01*
X174131335Y-113957000D01*
X174408574Y-113901853D01*
X174669727Y-113793680D01*
X174904759Y-113636637D01*
X175104637Y-113436759D01*
X175261680Y-113201727D01*
X175369853Y-112940574D01*
X175425000Y-112663335D01*
X175425000Y-112380665D01*
X175369853Y-112103426D01*
X175369263Y-112102000D01*
X187233928Y-112102000D01*
X187246188Y-112226482D01*
X187282498Y-112346180D01*
X187341463Y-112456494D01*
X187420815Y-112553185D01*
X187517506Y-112632537D01*
X187627820Y-112691502D01*
X187700380Y-112713513D01*
X187568525Y-112845368D01*
X187406010Y-113088589D01*
X187294068Y-113358842D01*
X187237000Y-113645740D01*
X187237000Y-113938260D01*
X187294068Y-114225158D01*
X187406010Y-114495411D01*
X187568525Y-114738632D01*
X187775368Y-114945475D01*
X188018589Y-115107990D01*
X188288842Y-115219932D01*
X188575740Y-115277000D01*
X188868260Y-115277000D01*
X189155158Y-115219932D01*
X189425411Y-115107990D01*
X189668632Y-114945475D01*
X189875475Y-114738632D01*
X190037990Y-114495411D01*
X190149932Y-114225158D01*
X190207000Y-113938260D01*
X190207000Y-113645740D01*
X190149932Y-113358842D01*
X190037990Y-113088589D01*
X189875475Y-112845368D01*
X189743620Y-112713513D01*
X189816180Y-112691502D01*
X189926494Y-112632537D01*
X190023185Y-112553185D01*
X190102537Y-112456494D01*
X190161502Y-112346180D01*
X190197812Y-112226482D01*
X190210072Y-112102000D01*
X190207000Y-111537750D01*
X190048250Y-111379000D01*
X188849000Y-111379000D01*
X188849000Y-111399000D01*
X188595000Y-111399000D01*
X188595000Y-111379000D01*
X187395750Y-111379000D01*
X187237000Y-111537750D01*
X187233928Y-112102000D01*
X175369263Y-112102000D01*
X175261680Y-111842273D01*
X175104637Y-111607241D01*
X174904759Y-111407363D01*
X174669727Y-111250320D01*
X174408574Y-111142147D01*
X174131335Y-111087000D01*
X173848665Y-111087000D01*
X173571426Y-111142147D01*
X173310273Y-111250320D01*
X173075241Y-111407363D01*
X172875363Y-111607241D01*
X172718320Y-111842273D01*
X172610147Y-112103426D01*
X172555000Y-112380665D01*
X170599000Y-112380665D01*
X170543853Y-112103426D01*
X170435680Y-111842273D01*
X170278637Y-111607241D01*
X170078759Y-111407363D01*
X169843727Y-111250320D01*
X169582574Y-111142147D01*
X169305335Y-111087000D01*
X169022665Y-111087000D01*
X168745426Y-111142147D01*
X168484273Y-111250320D01*
X168249241Y-111407363D01*
X168049363Y-111607241D01*
X167892320Y-111842273D01*
X167784147Y-112103426D01*
X167729000Y-112380665D01*
X125228115Y-112380665D01*
X125252116Y-109332665D01*
X127597000Y-109332665D01*
X127597000Y-109615335D01*
X127652147Y-109892574D01*
X127760320Y-110153727D01*
X127917363Y-110388759D01*
X128117241Y-110588637D01*
X128352273Y-110745680D01*
X128613426Y-110853853D01*
X128890665Y-110909000D01*
X129173335Y-110909000D01*
X129450574Y-110853853D01*
X129711727Y-110745680D01*
X129946759Y-110588637D01*
X130146637Y-110388759D01*
X130303680Y-110153727D01*
X130411853Y-109892574D01*
X130467000Y-109615335D01*
X130467000Y-109332665D01*
X137757000Y-109332665D01*
X137757000Y-109615335D01*
X137812147Y-109892574D01*
X137920320Y-110153727D01*
X138077363Y-110388759D01*
X138277241Y-110588637D01*
X138512273Y-110745680D01*
X138773426Y-110853853D01*
X139050665Y-110909000D01*
X139333335Y-110909000D01*
X139610574Y-110853853D01*
X139871727Y-110745680D01*
X140106759Y-110588637D01*
X140293396Y-110402000D01*
X187233928Y-110402000D01*
X187237000Y-110966250D01*
X187395750Y-111125000D01*
X188595000Y-111125000D01*
X188595000Y-109925750D01*
X188849000Y-109925750D01*
X188849000Y-111125000D01*
X190048250Y-111125000D01*
X190207000Y-110966250D01*
X190210072Y-110402000D01*
X190197812Y-110277518D01*
X190161502Y-110157820D01*
X190102537Y-110047506D01*
X190023185Y-109950815D01*
X189926494Y-109871463D01*
X189816180Y-109812498D01*
X189696482Y-109776188D01*
X189572000Y-109763928D01*
X189007750Y-109767000D01*
X188849000Y-109925750D01*
X188595000Y-109925750D01*
X188436250Y-109767000D01*
X187872000Y-109763928D01*
X187747518Y-109776188D01*
X187627820Y-109812498D01*
X187517506Y-109871463D01*
X187420815Y-109950815D01*
X187341463Y-110047506D01*
X187282498Y-110157820D01*
X187246188Y-110277518D01*
X187233928Y-110402000D01*
X140293396Y-110402000D01*
X140306637Y-110388759D01*
X140463680Y-110153727D01*
X140571853Y-109892574D01*
X140627000Y-109615335D01*
X140627000Y-109332665D01*
X140571853Y-109055426D01*
X140463680Y-108794273D01*
X140306637Y-108559241D01*
X140293396Y-108546000D01*
X157515928Y-108546000D01*
X157528188Y-108670482D01*
X157564498Y-108790180D01*
X157623463Y-108900494D01*
X157702815Y-108997185D01*
X157799506Y-109076537D01*
X157909820Y-109135502D01*
X158029518Y-109171812D01*
X158154000Y-109184072D01*
X158718250Y-109181000D01*
X158877000Y-109022250D01*
X158877000Y-107823000D01*
X157677750Y-107823000D01*
X157519000Y-107981750D01*
X157515928Y-108546000D01*
X140293396Y-108546000D01*
X140106759Y-108359363D01*
X139871727Y-108202320D01*
X139610574Y-108094147D01*
X139333335Y-108039000D01*
X139050665Y-108039000D01*
X138773426Y-108094147D01*
X138512273Y-108202320D01*
X138277241Y-108359363D01*
X138077363Y-108559241D01*
X137920320Y-108794273D01*
X137812147Y-109055426D01*
X137757000Y-109332665D01*
X130467000Y-109332665D01*
X130411853Y-109055426D01*
X130303680Y-108794273D01*
X130146637Y-108559241D01*
X129946759Y-108359363D01*
X129711727Y-108202320D01*
X129450574Y-108094147D01*
X129173335Y-108039000D01*
X128890665Y-108039000D01*
X128613426Y-108094147D01*
X128352273Y-108202320D01*
X128117241Y-108359363D01*
X127917363Y-108559241D01*
X127760320Y-108794273D01*
X127652147Y-109055426D01*
X127597000Y-109332665D01*
X125252116Y-109332665D01*
X125271696Y-106846000D01*
X157515928Y-106846000D01*
X157519000Y-107410250D01*
X157677750Y-107569000D01*
X158877000Y-107569000D01*
X158877000Y-106369750D01*
X159131000Y-106369750D01*
X159131000Y-107569000D01*
X159151000Y-107569000D01*
X159151000Y-107823000D01*
X159131000Y-107823000D01*
X159131000Y-109022250D01*
X159289750Y-109181000D01*
X159854000Y-109184072D01*
X159978482Y-109171812D01*
X160098180Y-109135502D01*
X160208494Y-109076537D01*
X160305185Y-108997185D01*
X160384537Y-108900494D01*
X160443502Y-108790180D01*
X160465513Y-108717620D01*
X160597368Y-108849475D01*
X160840589Y-109011990D01*
X161110842Y-109123932D01*
X161397740Y-109181000D01*
X161690260Y-109181000D01*
X161977158Y-109123932D01*
X162247411Y-109011990D01*
X162490632Y-108849475D01*
X162697475Y-108642632D01*
X162859990Y-108399411D01*
X162971932Y-108129158D01*
X163029000Y-107842260D01*
X163029000Y-107549740D01*
X162971932Y-107262842D01*
X162859990Y-106992589D01*
X162697475Y-106749368D01*
X162490632Y-106542525D01*
X162247411Y-106380010D01*
X161977158Y-106268068D01*
X161690260Y-106211000D01*
X161397740Y-106211000D01*
X161110842Y-106268068D01*
X160840589Y-106380010D01*
X160597368Y-106542525D01*
X160465513Y-106674380D01*
X160443502Y-106601820D01*
X160384537Y-106491506D01*
X160305185Y-106394815D01*
X160208494Y-106315463D01*
X160098180Y-106256498D01*
X159978482Y-106220188D01*
X159854000Y-106207928D01*
X159289750Y-106211000D01*
X159131000Y-106369750D01*
X158877000Y-106369750D01*
X158718250Y-106211000D01*
X158154000Y-106207928D01*
X158029518Y-106220188D01*
X157909820Y-106256498D01*
X157799506Y-106315463D01*
X157702815Y-106394815D01*
X157623463Y-106491506D01*
X157564498Y-106601820D01*
X157528188Y-106721518D01*
X157515928Y-106846000D01*
X125271696Y-106846000D01*
X125323181Y-100307519D01*
X125398337Y-100419998D01*
X125640002Y-100661663D01*
X125924169Y-100851537D01*
X126239919Y-100982325D01*
X126575117Y-101049000D01*
X126916883Y-101049000D01*
X127252081Y-100982325D01*
X127567831Y-100851537D01*
X127719792Y-100750000D01*
X132623928Y-100750000D01*
X132623928Y-102450000D01*
X132636188Y-102574482D01*
X132672498Y-102694180D01*
X132731463Y-102804494D01*
X132810815Y-102901185D01*
X132907506Y-102980537D01*
X133017820Y-103039502D01*
X133137518Y-103075812D01*
X133262000Y-103088072D01*
X134962000Y-103088072D01*
X135086482Y-103075812D01*
X135206180Y-103039502D01*
X135316494Y-102980537D01*
X135413185Y-102901185D01*
X135492537Y-102804494D01*
X135551502Y-102694180D01*
X135587812Y-102574482D01*
X135600072Y-102450000D01*
X135600072Y-102220665D01*
X167729000Y-102220665D01*
X167729000Y-102503335D01*
X167784147Y-102780574D01*
X167892320Y-103041727D01*
X168049363Y-103276759D01*
X168249241Y-103476637D01*
X168484273Y-103633680D01*
X168745426Y-103741853D01*
X169022665Y-103797000D01*
X169305335Y-103797000D01*
X169582574Y-103741853D01*
X169843727Y-103633680D01*
X170078759Y-103476637D01*
X170278637Y-103276759D01*
X170435680Y-103041727D01*
X170543853Y-102780574D01*
X170599000Y-102503335D01*
X170599000Y-102220665D01*
X172555000Y-102220665D01*
X172555000Y-102503335D01*
X172610147Y-102780574D01*
X172718320Y-103041727D01*
X172875363Y-103276759D01*
X173075241Y-103476637D01*
X173310273Y-103633680D01*
X173571426Y-103741853D01*
X173848665Y-103797000D01*
X174131335Y-103797000D01*
X174408574Y-103741853D01*
X174669727Y-103633680D01*
X174904759Y-103476637D01*
X175104637Y-103276759D01*
X175261680Y-103041727D01*
X175369853Y-102780574D01*
X175425000Y-102503335D01*
X175425000Y-102220665D01*
X175369853Y-101943426D01*
X175261680Y-101682273D01*
X175104637Y-101447241D01*
X174904759Y-101247363D01*
X174669727Y-101090320D01*
X174408574Y-100982147D01*
X174131335Y-100927000D01*
X173848665Y-100927000D01*
X173571426Y-100982147D01*
X173310273Y-101090320D01*
X173075241Y-101247363D01*
X172875363Y-101447241D01*
X172718320Y-101682273D01*
X172610147Y-101943426D01*
X172555000Y-102220665D01*
X170599000Y-102220665D01*
X170543853Y-101943426D01*
X170435680Y-101682273D01*
X170278637Y-101447241D01*
X170078759Y-101247363D01*
X169843727Y-101090320D01*
X169582574Y-100982147D01*
X169305335Y-100927000D01*
X169022665Y-100927000D01*
X168745426Y-100982147D01*
X168484273Y-101090320D01*
X168249241Y-101247363D01*
X168049363Y-101447241D01*
X167892320Y-101682273D01*
X167784147Y-101943426D01*
X167729000Y-102220665D01*
X135600072Y-102220665D01*
X135600072Y-100750000D01*
X135587812Y-100625518D01*
X135551502Y-100505820D01*
X135492537Y-100395506D01*
X135413185Y-100298815D01*
X135316494Y-100219463D01*
X135206180Y-100160498D01*
X135133620Y-100138487D01*
X135265475Y-100006632D01*
X135427990Y-99763411D01*
X135539932Y-99493158D01*
X135597000Y-99206260D01*
X135597000Y-99143117D01*
X188511000Y-99143117D01*
X188511000Y-99484883D01*
X188577675Y-99820081D01*
X188708463Y-100135831D01*
X188898337Y-100419998D01*
X189140002Y-100661663D01*
X189424169Y-100851537D01*
X189739919Y-100982325D01*
X190075117Y-101049000D01*
X190416883Y-101049000D01*
X190752081Y-100982325D01*
X191067831Y-100851537D01*
X191351998Y-100661663D01*
X191593663Y-100419998D01*
X191783537Y-100135831D01*
X191914325Y-99820081D01*
X191981000Y-99484883D01*
X191981000Y-99143117D01*
X191914325Y-98807919D01*
X191783537Y-98492169D01*
X191593663Y-98208002D01*
X191351998Y-97966337D01*
X191067831Y-97776463D01*
X190752081Y-97645675D01*
X190416883Y-97579000D01*
X190075117Y-97579000D01*
X189739919Y-97645675D01*
X189424169Y-97776463D01*
X189140002Y-97966337D01*
X188898337Y-98208002D01*
X188708463Y-98492169D01*
X188577675Y-98807919D01*
X188511000Y-99143117D01*
X135597000Y-99143117D01*
X135597000Y-98913740D01*
X135539932Y-98626842D01*
X135427990Y-98356589D01*
X135265475Y-98113368D01*
X135058632Y-97906525D01*
X134815411Y-97744010D01*
X134545158Y-97632068D01*
X134258260Y-97575000D01*
X133965740Y-97575000D01*
X133678842Y-97632068D01*
X133408589Y-97744010D01*
X133165368Y-97906525D01*
X132958525Y-98113368D01*
X132796010Y-98356589D01*
X132684068Y-98626842D01*
X132627000Y-98913740D01*
X132627000Y-99206260D01*
X132684068Y-99493158D01*
X132796010Y-99763411D01*
X132958525Y-100006632D01*
X133090380Y-100138487D01*
X133017820Y-100160498D01*
X132907506Y-100219463D01*
X132810815Y-100298815D01*
X132731463Y-100395506D01*
X132672498Y-100505820D01*
X132636188Y-100625518D01*
X132623928Y-100750000D01*
X127719792Y-100750000D01*
X127851998Y-100661663D01*
X128093663Y-100419998D01*
X128283537Y-100135831D01*
X128414325Y-99820081D01*
X128481000Y-99484883D01*
X128481000Y-99143117D01*
X128414325Y-98807919D01*
X128283537Y-98492169D01*
X128093663Y-98208002D01*
X127851998Y-97966337D01*
X127567831Y-97776463D01*
X127252081Y-97645675D01*
X126916883Y-97579000D01*
X126575117Y-97579000D01*
X126239919Y-97645675D01*
X125924169Y-97776463D01*
X125640002Y-97966337D01*
X125398337Y-98208002D01*
X125339014Y-98296786D01*
X125347807Y-97180000D01*
X192657799Y-97180000D01*
X192405996Y-129159000D01*
G37*
X192405996Y-129159000D02*
X125096004Y-129159000D01*
X125106472Y-127829602D01*
X125208463Y-128075831D01*
X125398337Y-128359998D01*
X125640002Y-128601663D01*
X125924169Y-128791537D01*
X126239919Y-128922325D01*
X126575117Y-128989000D01*
X126916883Y-128989000D01*
X127252081Y-128922325D01*
X127567831Y-128791537D01*
X127851998Y-128601663D01*
X128093663Y-128359998D01*
X128283537Y-128075831D01*
X128414325Y-127760081D01*
X128481000Y-127424883D01*
X128481000Y-127083117D01*
X128414325Y-126747919D01*
X128283537Y-126432169D01*
X128093663Y-126148002D01*
X127851998Y-125906337D01*
X127567831Y-125716463D01*
X127252081Y-125585675D01*
X126916883Y-125519000D01*
X126575117Y-125519000D01*
X126239919Y-125585675D01*
X125924169Y-125716463D01*
X125640002Y-125906337D01*
X125398337Y-126148002D01*
X125208463Y-126432169D01*
X125115712Y-126656090D01*
X125135033Y-124202223D01*
X129513000Y-124202223D01*
X129513000Y-124557777D01*
X129582365Y-124906499D01*
X129718429Y-125234988D01*
X129915965Y-125530621D01*
X130167379Y-125782035D01*
X130463012Y-125979571D01*
X130791501Y-126115635D01*
X131140223Y-126185000D01*
X131495777Y-126185000D01*
X131844499Y-126115635D01*
X132172988Y-125979571D01*
X132468621Y-125782035D01*
X132720035Y-125530621D01*
X132917571Y-125234988D01*
X133053635Y-124906499D01*
X133123000Y-124557777D01*
X133123000Y-124202223D01*
X133053635Y-123853501D01*
X132917571Y-123525012D01*
X132720035Y-123229379D01*
X132468621Y-122977965D01*
X132172988Y-122780429D01*
X131844499Y-122644365D01*
X131495777Y-122575000D01*
X131140223Y-122575000D01*
X130791501Y-122644365D01*
X130463012Y-122780429D01*
X130167379Y-122977965D01*
X129915965Y-123229379D01*
X129718429Y-123525012D01*
X129582365Y-123853501D01*
X129513000Y-124202223D01*
X125135033Y-124202223D01*
X125154718Y-121702223D01*
X133313000Y-121702223D01*
X133313000Y-122057777D01*
X133382365Y-122406499D01*
X133518429Y-122734988D01*
X133715965Y-123030621D01*
X133967379Y-123282035D01*
X134263012Y-123479571D01*
X134591501Y-123615635D01*
X134940223Y-123685000D01*
X135295777Y-123685000D01*
X135644499Y-123615635D01*
X135972988Y-123479571D01*
X136268621Y-123282035D01*
X136520035Y-123030621D01*
X136717571Y-122734988D01*
X136853635Y-122406499D01*
X136923000Y-122057777D01*
X136923000Y-121702223D01*
X136853635Y-121353501D01*
X136717571Y-121025012D01*
X136520035Y-120729379D01*
X136268621Y-120477965D01*
X135972988Y-120280429D01*
X135644499Y-120144365D01*
X135295777Y-120075000D01*
X134940223Y-120075000D01*
X134591501Y-120144365D01*
X134263012Y-120280429D01*
X133967379Y-120477965D01*
X133715965Y-120729379D01*
X133518429Y-121025012D01*
X133382365Y-121353501D01*
X133313000Y-121702223D01*
X125154718Y-121702223D01*
X125174403Y-119202223D01*
X129513000Y-119202223D01*
X129513000Y-119557777D01*
X129582365Y-119906499D01*
X129718429Y-120234988D01*
X129915965Y-120530621D01*
X130167379Y-120782035D01*
X130463012Y-120979571D01*
X130791501Y-121115635D01*
X131140223Y-121185000D01*
X131495777Y-121185000D01*
X131844499Y-121115635D01*
X132172988Y-120979571D01*
X132468621Y-120782035D01*
X132720035Y-120530621D01*
X132917571Y-120234988D01*
X133053635Y-119906499D01*
X133123000Y-119557777D01*
X133123000Y-119202223D01*
X133053635Y-118853501D01*
X132917571Y-118525012D01*
X132720035Y-118229379D01*
X132468621Y-117977965D01*
X132172988Y-117780429D01*
X131844499Y-117644365D01*
X131495777Y-117575000D01*
X131140223Y-117575000D01*
X130791501Y-117644365D01*
X130463012Y-117780429D01*
X130167379Y-117977965D01*
X129915965Y-118229379D01*
X129718429Y-118525012D01*
X129582365Y-118853501D01*
X129513000Y-119202223D01*
X125174403Y-119202223D01*
X125197302Y-116294000D01*
X142071928Y-116294000D01*
X142071928Y-117894000D01*
X142084188Y-118018482D01*
X142120498Y-118138180D01*
X142179463Y-118248494D01*
X142258815Y-118345185D01*
X142355506Y-118424537D01*
X142465820Y-118483502D01*
X142585518Y-118519812D01*
X142593961Y-118520643D01*
X142395363Y-118719241D01*
X142238320Y-118954273D01*
X142130147Y-119215426D01*
X142075000Y-119492665D01*
X142075000Y-119775335D01*
X142130147Y-120052574D01*
X142238320Y-120313727D01*
X142395363Y-120548759D01*
X142595241Y-120748637D01*
X142827759Y-120904000D01*
X142595241Y-121059363D01*
X142395363Y-121259241D01*
X142238320Y-121494273D01*
X142130147Y-121755426D01*
X142075000Y-122032665D01*
X142075000Y-122315335D01*
X142130147Y-122592574D01*
X142238320Y-122853727D01*
X142395363Y-123088759D01*
X142595241Y-123288637D01*
X142827759Y-123444000D01*
X142595241Y-123599363D01*
X142395363Y-123799241D01*
X142238320Y-124034273D01*
X142130147Y-124295426D01*
X142075000Y-124572665D01*
X142075000Y-124855335D01*
X142130147Y-125132574D01*
X142238320Y-125393727D01*
X142395363Y-125628759D01*
X142595241Y-125828637D01*
X142830273Y-125985680D01*
X143091426Y-126093853D01*
X143368665Y-126149000D01*
X143651335Y-126149000D01*
X143928574Y-126093853D01*
X144189727Y-125985680D01*
X144424759Y-125828637D01*
X144624637Y-125628759D01*
X144781680Y-125393727D01*
X144889853Y-125132574D01*
X144945000Y-124855335D01*
X144945000Y-124572665D01*
X144889853Y-124295426D01*
X144781680Y-124034273D01*
X144624637Y-123799241D01*
X144424759Y-123599363D01*
X144192241Y-123444000D01*
X144424759Y-123288637D01*
X144624637Y-123088759D01*
X144781680Y-122853727D01*
X144889853Y-122592574D01*
X144945000Y-122315335D01*
X144945000Y-122032665D01*
X149695000Y-122032665D01*
X149695000Y-122315335D01*
X149750147Y-122592574D01*
X149858320Y-122853727D01*
X150015363Y-123088759D01*
X150215241Y-123288637D01*
X150447759Y-123444000D01*
X150215241Y-123599363D01*
X150015363Y-123799241D01*
X149858320Y-124034273D01*
X149750147Y-124295426D01*
X149695000Y-124572665D01*
X149695000Y-124855335D01*
X149750147Y-125132574D01*
X149858320Y-125393727D01*
X150015363Y-125628759D01*
X150215241Y-125828637D01*
X150450273Y-125985680D01*
X150711426Y-126093853D01*
X150988665Y-126149000D01*
X151271335Y-126149000D01*
X151548574Y-126093853D01*
X151809727Y-125985680D01*
X152044759Y-125828637D01*
X152244637Y-125628759D01*
X152401680Y-125393727D01*
X152509853Y-125132574D01*
X152565000Y-124855335D01*
X152565000Y-124572665D01*
X152509853Y-124295426D01*
X152401680Y-124034273D01*
X152244637Y-123799241D01*
X152044759Y-123599363D01*
X151812241Y-123444000D01*
X152044759Y-123288637D01*
X152244637Y-123088759D01*
X152401680Y-122853727D01*
X152509853Y-122592574D01*
X152565000Y-122315335D01*
X152565000Y-122032665D01*
X152514476Y-121778665D01*
X157315000Y-121778665D01*
X157315000Y-122061335D01*
X157370147Y-122338574D01*
X157478320Y-122599727D01*
X157635363Y-122834759D01*
X157835241Y-123034637D01*
X158070273Y-123191680D01*
X158331426Y-123299853D01*
X158608665Y-123355000D01*
X158891335Y-123355000D01*
X159168574Y-123299853D01*
X159429727Y-123191680D01*
X159664759Y-123034637D01*
X159864637Y-122834759D01*
X160021680Y-122599727D01*
X160129853Y-122338574D01*
X160185000Y-122061335D01*
X160185000Y-121778665D01*
X167475000Y-121778665D01*
X167475000Y-122061335D01*
X167530147Y-122338574D01*
X167638320Y-122599727D01*
X167795363Y-122834759D01*
X167995241Y-123034637D01*
X168230273Y-123191680D01*
X168491426Y-123299853D01*
X168768665Y-123355000D01*
X169051335Y-123355000D01*
X169328574Y-123299853D01*
X169589727Y-123191680D01*
X169824759Y-123034637D01*
X170024637Y-122834759D01*
X170128043Y-122680000D01*
X176715687Y-122680000D01*
X176861688Y-122898505D01*
X177075495Y-123112312D01*
X177191763Y-123190000D01*
X177075495Y-123267688D01*
X176861688Y-123481495D01*
X176693701Y-123732905D01*
X176577989Y-124012257D01*
X176519000Y-124308816D01*
X176519000Y-124611184D01*
X176577989Y-124907743D01*
X176693701Y-125187095D01*
X176861688Y-125438505D01*
X176928127Y-125504944D01*
X176909820Y-125510498D01*
X176799506Y-125569463D01*
X176702815Y-125648815D01*
X176623463Y-125745506D01*
X176564498Y-125855820D01*
X176528188Y-125975518D01*
X176515928Y-126100000D01*
X176515928Y-127900000D01*
X176528188Y-128024482D01*
X176564498Y-128144180D01*
X176623463Y-128254494D01*
X176702815Y-128351185D01*
X176799506Y-128430537D01*
X176909820Y-128489502D01*
X177029518Y-128525812D01*
X177154000Y-128538072D01*
X178954000Y-128538072D01*
X179078482Y-128525812D01*
X179198180Y-128489502D01*
X179308494Y-128430537D01*
X179405185Y-128351185D01*
X179484537Y-128254494D01*
X179543502Y-128144180D01*
X179579812Y-128024482D01*
X179592072Y-127900000D01*
X179592072Y-127083117D01*
X188511000Y-127083117D01*
X188511000Y-127424883D01*
X188577675Y-127760081D01*
X188708463Y-128075831D01*
X188898337Y-128359998D01*
X189140002Y-128601663D01*
X189424169Y-128791537D01*
X189739919Y-128922325D01*
X190075117Y-128989000D01*
X190416883Y-128989000D01*
X190752081Y-128922325D01*
X191067831Y-128791537D01*
X191351998Y-128601663D01*
X191593663Y-128359998D01*
X191783537Y-128075831D01*
X191914325Y-127760081D01*
X191981000Y-127424883D01*
X191981000Y-127083117D01*
X191914325Y-126747919D01*
X191783537Y-126432169D01*
X191593663Y-126148002D01*
X191351998Y-125906337D01*
X191067831Y-125716463D01*
X190752081Y-125585675D01*
X190416883Y-125519000D01*
X190075117Y-125519000D01*
X189739919Y-125585675D01*
X189424169Y-125716463D01*
X189140002Y-125906337D01*
X188898337Y-126148002D01*
X188708463Y-126432169D01*
X188577675Y-126747919D01*
X188511000Y-127083117D01*
X179592072Y-127083117D01*
X179592072Y-126100000D01*
X179579812Y-125975518D01*
X179543502Y-125855820D01*
X179484537Y-125745506D01*
X179405185Y-125648815D01*
X179308494Y-125569463D01*
X179198180Y-125510498D01*
X179179873Y-125504944D01*
X179246312Y-125438505D01*
X179414299Y-125187095D01*
X179530011Y-124907743D01*
X179589000Y-124611184D01*
X179589000Y-124308816D01*
X179530011Y-124012257D01*
X179414299Y-123732905D01*
X179246312Y-123481495D01*
X179032505Y-123267688D01*
X178916237Y-123190000D01*
X179032505Y-123112312D01*
X179246312Y-122898505D01*
X179414299Y-122647095D01*
X179530011Y-122367743D01*
X179589000Y-122071184D01*
X179589000Y-121768816D01*
X179530011Y-121472257D01*
X179414299Y-121192905D01*
X179246312Y-120941495D01*
X179032505Y-120727688D01*
X178781095Y-120559701D01*
X178501743Y-120443989D01*
X178205184Y-120385000D01*
X177902816Y-120385000D01*
X177606257Y-120443989D01*
X177326905Y-120559701D01*
X177075495Y-120727688D01*
X176861688Y-120941495D01*
X176715687Y-121160000D01*
X170128043Y-121160000D01*
X170024637Y-121005241D01*
X169824759Y-120805363D01*
X169589727Y-120648320D01*
X169328574Y-120540147D01*
X169051335Y-120485000D01*
X168768665Y-120485000D01*
X168491426Y-120540147D01*
X168230273Y-120648320D01*
X167995241Y-120805363D01*
X167795363Y-121005241D01*
X167638320Y-121240273D01*
X167530147Y-121501426D01*
X167475000Y-121778665D01*
X160185000Y-121778665D01*
X160129853Y-121501426D01*
X160021680Y-121240273D01*
X159864637Y-121005241D01*
X159664759Y-120805363D01*
X159429727Y-120648320D01*
X159168574Y-120540147D01*
X158891335Y-120485000D01*
X158608665Y-120485000D01*
X158331426Y-120540147D01*
X158070273Y-120648320D01*
X157835241Y-120805363D01*
X157635363Y-121005241D01*
X157478320Y-121240273D01*
X157370147Y-121501426D01*
X157315000Y-121778665D01*
X152514476Y-121778665D01*
X152509853Y-121755426D01*
X152401680Y-121494273D01*
X152244637Y-121259241D01*
X152044759Y-121059363D01*
X151809727Y-120902320D01*
X151799135Y-120897933D01*
X151985131Y-120786385D01*
X152193519Y-120597414D01*
X152361037Y-120371420D01*
X152481246Y-120117087D01*
X152521904Y-119983039D01*
X152399915Y-119761000D01*
X151257000Y-119761000D01*
X151257000Y-119781000D01*
X151003000Y-119781000D01*
X151003000Y-119761000D01*
X149860085Y-119761000D01*
X149738096Y-119983039D01*
X149778754Y-120117087D01*
X149898963Y-120371420D01*
X150066481Y-120597414D01*
X150274869Y-120786385D01*
X150460865Y-120897933D01*
X150450273Y-120902320D01*
X150215241Y-121059363D01*
X150015363Y-121259241D01*
X149858320Y-121494273D01*
X149750147Y-121755426D01*
X149695000Y-122032665D01*
X144945000Y-122032665D01*
X144889853Y-121755426D01*
X144781680Y-121494273D01*
X144624637Y-121259241D01*
X144424759Y-121059363D01*
X144192241Y-120904000D01*
X144424759Y-120748637D01*
X144624637Y-120548759D01*
X144781680Y-120313727D01*
X144889853Y-120052574D01*
X144945000Y-119775335D01*
X144945000Y-119492665D01*
X144889853Y-119215426D01*
X144781680Y-118954273D01*
X144624637Y-118719241D01*
X144426039Y-118520643D01*
X144434482Y-118519812D01*
X144554180Y-118483502D01*
X144664494Y-118424537D01*
X144761185Y-118345185D01*
X144840537Y-118248494D01*
X144899502Y-118138180D01*
X144935812Y-118018482D01*
X144948072Y-117894000D01*
X144948072Y-116952665D01*
X149695000Y-116952665D01*
X149695000Y-117235335D01*
X149750147Y-117512574D01*
X149858320Y-117773727D01*
X150015363Y-118008759D01*
X150215241Y-118208637D01*
X150450273Y-118365680D01*
X150460865Y-118370067D01*
X150274869Y-118481615D01*
X150066481Y-118670586D01*
X149898963Y-118896580D01*
X149778754Y-119150913D01*
X149738096Y-119284961D01*
X149860085Y-119507000D01*
X151003000Y-119507000D01*
X151003000Y-119487000D01*
X151257000Y-119487000D01*
X151257000Y-119507000D01*
X152399915Y-119507000D01*
X152521904Y-119284961D01*
X152481246Y-119150913D01*
X152361037Y-118896580D01*
X152193519Y-118670586D01*
X151985131Y-118481615D01*
X151799135Y-118370067D01*
X151809727Y-118365680D01*
X152044759Y-118208637D01*
X152244637Y-118008759D01*
X152401680Y-117773727D01*
X152509853Y-117512574D01*
X152565000Y-117235335D01*
X152565000Y-116952665D01*
X152509853Y-116675426D01*
X152401680Y-116414273D01*
X152244637Y-116179241D01*
X152044759Y-115979363D01*
X151809727Y-115822320D01*
X151548574Y-115714147D01*
X151271335Y-115659000D01*
X150988665Y-115659000D01*
X150711426Y-115714147D01*
X150450273Y-115822320D01*
X150215241Y-115979363D01*
X150015363Y-116179241D01*
X149858320Y-116414273D01*
X149750147Y-116675426D01*
X149695000Y-116952665D01*
X144948072Y-116952665D01*
X144948072Y-116294000D01*
X144935812Y-116169518D01*
X144899502Y-116049820D01*
X144840537Y-115939506D01*
X144761185Y-115842815D01*
X144664494Y-115763463D01*
X144554180Y-115704498D01*
X144434482Y-115668188D01*
X144310000Y-115655928D01*
X142710000Y-115655928D01*
X142585518Y-115668188D01*
X142465820Y-115704498D01*
X142355506Y-115763463D01*
X142258815Y-115842815D01*
X142179463Y-115939506D01*
X142120498Y-116049820D01*
X142084188Y-116169518D01*
X142071928Y-116294000D01*
X125197302Y-116294000D01*
X125228115Y-112380665D01*
X167729000Y-112380665D01*
X167729000Y-112663335D01*
X167784147Y-112940574D01*
X167892320Y-113201727D01*
X168049363Y-113436759D01*
X168249241Y-113636637D01*
X168484273Y-113793680D01*
X168745426Y-113901853D01*
X169022665Y-113957000D01*
X169305335Y-113957000D01*
X169582574Y-113901853D01*
X169843727Y-113793680D01*
X170078759Y-113636637D01*
X170278637Y-113436759D01*
X170435680Y-113201727D01*
X170543853Y-112940574D01*
X170599000Y-112663335D01*
X170599000Y-112380665D01*
X172555000Y-112380665D01*
X172555000Y-112663335D01*
X172610147Y-112940574D01*
X172718320Y-113201727D01*
X172875363Y-113436759D01*
X173075241Y-113636637D01*
X173310273Y-113793680D01*
X173571426Y-113901853D01*
X173848665Y-113957000D01*
X174131335Y-113957000D01*
X174408574Y-113901853D01*
X174669727Y-113793680D01*
X174904759Y-113636637D01*
X175104637Y-113436759D01*
X175261680Y-113201727D01*
X175369853Y-112940574D01*
X175425000Y-112663335D01*
X175425000Y-112380665D01*
X175369853Y-112103426D01*
X175369263Y-112102000D01*
X187233928Y-112102000D01*
X187246188Y-112226482D01*
X187282498Y-112346180D01*
X187341463Y-112456494D01*
X187420815Y-112553185D01*
X187517506Y-112632537D01*
X187627820Y-112691502D01*
X187700380Y-112713513D01*
X187568525Y-112845368D01*
X187406010Y-113088589D01*
X187294068Y-113358842D01*
X187237000Y-113645740D01*
X187237000Y-113938260D01*
X187294068Y-114225158D01*
X187406010Y-114495411D01*
X187568525Y-114738632D01*
X187775368Y-114945475D01*
X188018589Y-115107990D01*
X188288842Y-115219932D01*
X188575740Y-115277000D01*
X188868260Y-115277000D01*
X189155158Y-115219932D01*
X189425411Y-115107990D01*
X189668632Y-114945475D01*
X189875475Y-114738632D01*
X190037990Y-114495411D01*
X190149932Y-114225158D01*
X190207000Y-113938260D01*
X190207000Y-113645740D01*
X190149932Y-113358842D01*
X190037990Y-113088589D01*
X189875475Y-112845368D01*
X189743620Y-112713513D01*
X189816180Y-112691502D01*
X189926494Y-112632537D01*
X190023185Y-112553185D01*
X190102537Y-112456494D01*
X190161502Y-112346180D01*
X190197812Y-112226482D01*
X190210072Y-112102000D01*
X190207000Y-111537750D01*
X190048250Y-111379000D01*
X188849000Y-111379000D01*
X188849000Y-111399000D01*
X188595000Y-111399000D01*
X188595000Y-111379000D01*
X187395750Y-111379000D01*
X187237000Y-111537750D01*
X187233928Y-112102000D01*
X175369263Y-112102000D01*
X175261680Y-111842273D01*
X175104637Y-111607241D01*
X174904759Y-111407363D01*
X174669727Y-111250320D01*
X174408574Y-111142147D01*
X174131335Y-111087000D01*
X173848665Y-111087000D01*
X173571426Y-111142147D01*
X173310273Y-111250320D01*
X173075241Y-111407363D01*
X172875363Y-111607241D01*
X172718320Y-111842273D01*
X172610147Y-112103426D01*
X172555000Y-112380665D01*
X170599000Y-112380665D01*
X170543853Y-112103426D01*
X170435680Y-111842273D01*
X170278637Y-111607241D01*
X170078759Y-111407363D01*
X169843727Y-111250320D01*
X169582574Y-111142147D01*
X169305335Y-111087000D01*
X169022665Y-111087000D01*
X168745426Y-111142147D01*
X168484273Y-111250320D01*
X168249241Y-111407363D01*
X168049363Y-111607241D01*
X167892320Y-111842273D01*
X167784147Y-112103426D01*
X167729000Y-112380665D01*
X125228115Y-112380665D01*
X125252116Y-109332665D01*
X127597000Y-109332665D01*
X127597000Y-109615335D01*
X127652147Y-109892574D01*
X127760320Y-110153727D01*
X127917363Y-110388759D01*
X128117241Y-110588637D01*
X128352273Y-110745680D01*
X128613426Y-110853853D01*
X128890665Y-110909000D01*
X129173335Y-110909000D01*
X129450574Y-110853853D01*
X129711727Y-110745680D01*
X129946759Y-110588637D01*
X130146637Y-110388759D01*
X130303680Y-110153727D01*
X130411853Y-109892574D01*
X130467000Y-109615335D01*
X130467000Y-109332665D01*
X137757000Y-109332665D01*
X137757000Y-109615335D01*
X137812147Y-109892574D01*
X137920320Y-110153727D01*
X138077363Y-110388759D01*
X138277241Y-110588637D01*
X138512273Y-110745680D01*
X138773426Y-110853853D01*
X139050665Y-110909000D01*
X139333335Y-110909000D01*
X139610574Y-110853853D01*
X139871727Y-110745680D01*
X140106759Y-110588637D01*
X140293396Y-110402000D01*
X187233928Y-110402000D01*
X187237000Y-110966250D01*
X187395750Y-111125000D01*
X188595000Y-111125000D01*
X188595000Y-109925750D01*
X188849000Y-109925750D01*
X188849000Y-111125000D01*
X190048250Y-111125000D01*
X190207000Y-110966250D01*
X190210072Y-110402000D01*
X190197812Y-110277518D01*
X190161502Y-110157820D01*
X190102537Y-110047506D01*
X190023185Y-109950815D01*
X189926494Y-109871463D01*
X189816180Y-109812498D01*
X189696482Y-109776188D01*
X189572000Y-109763928D01*
X189007750Y-109767000D01*
X188849000Y-109925750D01*
X188595000Y-109925750D01*
X188436250Y-109767000D01*
X187872000Y-109763928D01*
X187747518Y-109776188D01*
X187627820Y-109812498D01*
X187517506Y-109871463D01*
X187420815Y-109950815D01*
X187341463Y-110047506D01*
X187282498Y-110157820D01*
X187246188Y-110277518D01*
X187233928Y-110402000D01*
X140293396Y-110402000D01*
X140306637Y-110388759D01*
X140463680Y-110153727D01*
X140571853Y-109892574D01*
X140627000Y-109615335D01*
X140627000Y-109332665D01*
X140571853Y-109055426D01*
X140463680Y-108794273D01*
X140306637Y-108559241D01*
X140293396Y-108546000D01*
X157515928Y-108546000D01*
X157528188Y-108670482D01*
X157564498Y-108790180D01*
X157623463Y-108900494D01*
X157702815Y-108997185D01*
X157799506Y-109076537D01*
X157909820Y-109135502D01*
X158029518Y-109171812D01*
X158154000Y-109184072D01*
X158718250Y-109181000D01*
X158877000Y-109022250D01*
X158877000Y-107823000D01*
X157677750Y-107823000D01*
X157519000Y-107981750D01*
X157515928Y-108546000D01*
X140293396Y-108546000D01*
X140106759Y-108359363D01*
X139871727Y-108202320D01*
X139610574Y-108094147D01*
X139333335Y-108039000D01*
X139050665Y-108039000D01*
X138773426Y-108094147D01*
X138512273Y-108202320D01*
X138277241Y-108359363D01*
X138077363Y-108559241D01*
X137920320Y-108794273D01*
X137812147Y-109055426D01*
X137757000Y-109332665D01*
X130467000Y-109332665D01*
X130411853Y-109055426D01*
X130303680Y-108794273D01*
X130146637Y-108559241D01*
X129946759Y-108359363D01*
X129711727Y-108202320D01*
X129450574Y-108094147D01*
X129173335Y-108039000D01*
X128890665Y-108039000D01*
X128613426Y-108094147D01*
X128352273Y-108202320D01*
X128117241Y-108359363D01*
X127917363Y-108559241D01*
X127760320Y-108794273D01*
X127652147Y-109055426D01*
X127597000Y-109332665D01*
X125252116Y-109332665D01*
X125271696Y-106846000D01*
X157515928Y-106846000D01*
X157519000Y-107410250D01*
X157677750Y-107569000D01*
X158877000Y-107569000D01*
X158877000Y-106369750D01*
X159131000Y-106369750D01*
X159131000Y-107569000D01*
X159151000Y-107569000D01*
X159151000Y-107823000D01*
X159131000Y-107823000D01*
X159131000Y-109022250D01*
X159289750Y-109181000D01*
X159854000Y-109184072D01*
X159978482Y-109171812D01*
X160098180Y-109135502D01*
X160208494Y-109076537D01*
X160305185Y-108997185D01*
X160384537Y-108900494D01*
X160443502Y-108790180D01*
X160465513Y-108717620D01*
X160597368Y-108849475D01*
X160840589Y-109011990D01*
X161110842Y-109123932D01*
X161397740Y-109181000D01*
X161690260Y-109181000D01*
X161977158Y-109123932D01*
X162247411Y-109011990D01*
X162490632Y-108849475D01*
X162697475Y-108642632D01*
X162859990Y-108399411D01*
X162971932Y-108129158D01*
X163029000Y-107842260D01*
X163029000Y-107549740D01*
X162971932Y-107262842D01*
X162859990Y-106992589D01*
X162697475Y-106749368D01*
X162490632Y-106542525D01*
X162247411Y-106380010D01*
X161977158Y-106268068D01*
X161690260Y-106211000D01*
X161397740Y-106211000D01*
X161110842Y-106268068D01*
X160840589Y-106380010D01*
X160597368Y-106542525D01*
X160465513Y-106674380D01*
X160443502Y-106601820D01*
X160384537Y-106491506D01*
X160305185Y-106394815D01*
X160208494Y-106315463D01*
X160098180Y-106256498D01*
X159978482Y-106220188D01*
X159854000Y-106207928D01*
X159289750Y-106211000D01*
X159131000Y-106369750D01*
X158877000Y-106369750D01*
X158718250Y-106211000D01*
X158154000Y-106207928D01*
X158029518Y-106220188D01*
X157909820Y-106256498D01*
X157799506Y-106315463D01*
X157702815Y-106394815D01*
X157623463Y-106491506D01*
X157564498Y-106601820D01*
X157528188Y-106721518D01*
X157515928Y-106846000D01*
X125271696Y-106846000D01*
X125323181Y-100307519D01*
X125398337Y-100419998D01*
X125640002Y-100661663D01*
X125924169Y-100851537D01*
X126239919Y-100982325D01*
X126575117Y-101049000D01*
X126916883Y-101049000D01*
X127252081Y-100982325D01*
X127567831Y-100851537D01*
X127719792Y-100750000D01*
X132623928Y-100750000D01*
X132623928Y-102450000D01*
X132636188Y-102574482D01*
X132672498Y-102694180D01*
X132731463Y-102804494D01*
X132810815Y-102901185D01*
X132907506Y-102980537D01*
X133017820Y-103039502D01*
X133137518Y-103075812D01*
X133262000Y-103088072D01*
X134962000Y-103088072D01*
X135086482Y-103075812D01*
X135206180Y-103039502D01*
X135316494Y-102980537D01*
X135413185Y-102901185D01*
X135492537Y-102804494D01*
X135551502Y-102694180D01*
X135587812Y-102574482D01*
X135600072Y-102450000D01*
X135600072Y-102220665D01*
X167729000Y-102220665D01*
X167729000Y-102503335D01*
X167784147Y-102780574D01*
X167892320Y-103041727D01*
X168049363Y-103276759D01*
X168249241Y-103476637D01*
X168484273Y-103633680D01*
X168745426Y-103741853D01*
X169022665Y-103797000D01*
X169305335Y-103797000D01*
X169582574Y-103741853D01*
X169843727Y-103633680D01*
X170078759Y-103476637D01*
X170278637Y-103276759D01*
X170435680Y-103041727D01*
X170543853Y-102780574D01*
X170599000Y-102503335D01*
X170599000Y-102220665D01*
X172555000Y-102220665D01*
X172555000Y-102503335D01*
X172610147Y-102780574D01*
X172718320Y-103041727D01*
X172875363Y-103276759D01*
X173075241Y-103476637D01*
X173310273Y-103633680D01*
X173571426Y-103741853D01*
X173848665Y-103797000D01*
X174131335Y-103797000D01*
X174408574Y-103741853D01*
X174669727Y-103633680D01*
X174904759Y-103476637D01*
X175104637Y-103276759D01*
X175261680Y-103041727D01*
X175369853Y-102780574D01*
X175425000Y-102503335D01*
X175425000Y-102220665D01*
X175369853Y-101943426D01*
X175261680Y-101682273D01*
X175104637Y-101447241D01*
X174904759Y-101247363D01*
X174669727Y-101090320D01*
X174408574Y-100982147D01*
X174131335Y-100927000D01*
X173848665Y-100927000D01*
X173571426Y-100982147D01*
X173310273Y-101090320D01*
X173075241Y-101247363D01*
X172875363Y-101447241D01*
X172718320Y-101682273D01*
X172610147Y-101943426D01*
X172555000Y-102220665D01*
X170599000Y-102220665D01*
X170543853Y-101943426D01*
X170435680Y-101682273D01*
X170278637Y-101447241D01*
X170078759Y-101247363D01*
X169843727Y-101090320D01*
X169582574Y-100982147D01*
X169305335Y-100927000D01*
X169022665Y-100927000D01*
X168745426Y-100982147D01*
X168484273Y-101090320D01*
X168249241Y-101247363D01*
X168049363Y-101447241D01*
X167892320Y-101682273D01*
X167784147Y-101943426D01*
X167729000Y-102220665D01*
X135600072Y-102220665D01*
X135600072Y-100750000D01*
X135587812Y-100625518D01*
X135551502Y-100505820D01*
X135492537Y-100395506D01*
X135413185Y-100298815D01*
X135316494Y-100219463D01*
X135206180Y-100160498D01*
X135133620Y-100138487D01*
X135265475Y-100006632D01*
X135427990Y-99763411D01*
X135539932Y-99493158D01*
X135597000Y-99206260D01*
X135597000Y-99143117D01*
X188511000Y-99143117D01*
X188511000Y-99484883D01*
X188577675Y-99820081D01*
X188708463Y-100135831D01*
X188898337Y-100419998D01*
X189140002Y-100661663D01*
X189424169Y-100851537D01*
X189739919Y-100982325D01*
X190075117Y-101049000D01*
X190416883Y-101049000D01*
X190752081Y-100982325D01*
X191067831Y-100851537D01*
X191351998Y-100661663D01*
X191593663Y-100419998D01*
X191783537Y-100135831D01*
X191914325Y-99820081D01*
X191981000Y-99484883D01*
X191981000Y-99143117D01*
X191914325Y-98807919D01*
X191783537Y-98492169D01*
X191593663Y-98208002D01*
X191351998Y-97966337D01*
X191067831Y-97776463D01*
X190752081Y-97645675D01*
X190416883Y-97579000D01*
X190075117Y-97579000D01*
X189739919Y-97645675D01*
X189424169Y-97776463D01*
X189140002Y-97966337D01*
X188898337Y-98208002D01*
X188708463Y-98492169D01*
X188577675Y-98807919D01*
X188511000Y-99143117D01*
X135597000Y-99143117D01*
X135597000Y-98913740D01*
X135539932Y-98626842D01*
X135427990Y-98356589D01*
X135265475Y-98113368D01*
X135058632Y-97906525D01*
X134815411Y-97744010D01*
X134545158Y-97632068D01*
X134258260Y-97575000D01*
X133965740Y-97575000D01*
X133678842Y-97632068D01*
X133408589Y-97744010D01*
X133165368Y-97906525D01*
X132958525Y-98113368D01*
X132796010Y-98356589D01*
X132684068Y-98626842D01*
X132627000Y-98913740D01*
X132627000Y-99206260D01*
X132684068Y-99493158D01*
X132796010Y-99763411D01*
X132958525Y-100006632D01*
X133090380Y-100138487D01*
X133017820Y-100160498D01*
X132907506Y-100219463D01*
X132810815Y-100298815D01*
X132731463Y-100395506D01*
X132672498Y-100505820D01*
X132636188Y-100625518D01*
X132623928Y-100750000D01*
X127719792Y-100750000D01*
X127851998Y-100661663D01*
X128093663Y-100419998D01*
X128283537Y-100135831D01*
X128414325Y-99820081D01*
X128481000Y-99484883D01*
X128481000Y-99143117D01*
X128414325Y-98807919D01*
X128283537Y-98492169D01*
X128093663Y-98208002D01*
X127851998Y-97966337D01*
X127567831Y-97776463D01*
X127252081Y-97645675D01*
X126916883Y-97579000D01*
X126575117Y-97579000D01*
X126239919Y-97645675D01*
X125924169Y-97776463D01*
X125640002Y-97966337D01*
X125398337Y-98208002D01*
X125339014Y-98296786D01*
X125347807Y-97180000D01*
X192657799Y-97180000D01*
X192405996Y-129159000D01*
M02*
