G04 #@! TF.GenerationSoftware,KiCad,Pcbnew,5.1.5-52549c5~84~ubuntu18.04.1*
G04 #@! TF.CreationDate,2020-02-28T14:28:58+00:00*
G04 #@! TF.ProjectId,etl_driver_pcb,65746c5f-6472-4697-9665-725f7063622e,rev?*
G04 #@! TF.SameCoordinates,Original*
G04 #@! TF.FileFunction,Other,User*
%FSLAX46Y46*%
G04 Gerber Fmt 4.6, Leading zero omitted, Abs format (unit mm)*
G04 Created by KiCad (PCBNEW 5.1.5-52549c5~84~ubuntu18.04.1) date 2020-02-28 14:28:58*
%MOMM*%
%LPD*%
G04 APERTURE LIST*
%ADD10C,0.050000*%
G04 APERTURE END LIST*
D10*
X128896000Y-127254000D02*
G75*
G03X128896000Y-127254000I-2150000J0D01*
G01*
X128896000Y-99314000D02*
G75*
G03X128896000Y-99314000I-2150000J0D01*
G01*
X192396000Y-99314000D02*
G75*
G03X192396000Y-99314000I-2150000J0D01*
G01*
X192396000Y-127254000D02*
G75*
G03X192396000Y-127254000I-2150000J0D01*
G01*
X135912000Y-103400000D02*
X135912000Y-97250000D01*
X135912000Y-97250000D02*
X132312000Y-97250000D01*
X132312000Y-97250000D02*
X132312000Y-103400000D01*
X132312000Y-103400000D02*
X135912000Y-103400000D01*
X157204000Y-105896000D02*
X157204000Y-109496000D01*
X163354000Y-105896000D02*
X157204000Y-105896000D01*
X163354000Y-109496000D02*
X163354000Y-105896000D01*
X157204000Y-109496000D02*
X163354000Y-109496000D01*
X186922000Y-109452000D02*
X186922000Y-115602000D01*
X186922000Y-115602000D02*
X190522000Y-115602000D01*
X190522000Y-115602000D02*
X190522000Y-109452000D01*
X190522000Y-109452000D02*
X186922000Y-109452000D01*
X175804000Y-128710000D02*
X179554000Y-128710000D01*
X179554000Y-128710000D02*
X179554000Y-120210000D01*
X179554000Y-120210000D02*
X175804000Y-120210000D01*
X175804000Y-120210000D02*
X175804000Y-128710000D01*
X140242000Y-110974000D02*
X140242000Y-107974000D01*
X140242000Y-107974000D02*
X127982000Y-107974000D01*
X127982000Y-107974000D02*
X127982000Y-110974000D01*
X127982000Y-110974000D02*
X140242000Y-110974000D01*
X157700000Y-123420000D02*
X169960000Y-123420000D01*
X157700000Y-120420000D02*
X157700000Y-123420000D01*
X169960000Y-120420000D02*
X157700000Y-120420000D01*
X169960000Y-123420000D02*
X169960000Y-120420000D01*
X167664000Y-113572000D02*
X170664000Y-113572000D01*
X170664000Y-113572000D02*
X170664000Y-101312000D01*
X170664000Y-101312000D02*
X167664000Y-101312000D01*
X167664000Y-101312000D02*
X167664000Y-113572000D01*
X172490000Y-101312000D02*
X172490000Y-113572000D01*
X175490000Y-101312000D02*
X172490000Y-101312000D01*
X175490000Y-113572000D02*
X175490000Y-101312000D01*
X172490000Y-113572000D02*
X175490000Y-113572000D01*
X129868000Y-116680000D02*
X129868000Y-127030000D01*
X129868000Y-127030000D02*
X136568000Y-127030000D01*
X136568000Y-127030000D02*
X136568000Y-116680000D01*
X136568000Y-116680000D02*
X129868000Y-116680000D01*
X141960000Y-115494000D02*
X141960000Y-126294000D01*
X141960000Y-126294000D02*
X152660000Y-126294000D01*
X152660000Y-126294000D02*
X152660000Y-115494000D01*
X152660000Y-115494000D02*
X141960000Y-115494000D01*
M02*
