M48
; DRILL file {KiCad 5.1.5-52549c5~84~ubuntu18.04.1} date Fri 28 Feb 2020 14:29:02 GMT
; FORMAT={-:-/ absolute / metric / decimal}
; #@! TF.CreationDate,2020-02-28T14:29:02+00:00
; #@! TF.GenerationSoftware,Kicad,Pcbnew,5.1.5-52549c5~84~ubuntu18.04.1
; #@! TF.FileFunction,Plated,1,2,PTH
FMAT,2
METRIC
T1C0.800
T2C1.000
T3C1.300
%
G90
G05
T1
X168.91Y-121.92
X143.51Y-117.094
X143.51Y-119.634
X143.51Y-122.174
X143.51Y-124.714
X151.13Y-117.094
X151.13Y-119.634
X151.13Y-122.174
X151.13Y-124.714
X129.032Y-109.474
X139.192Y-109.474
X173.99Y-102.362
X173.99Y-112.522
X169.164Y-102.362
X169.164Y-112.522
X158.75Y-121.92
T2
X178.054Y-121.92
X178.054Y-124.46
X178.054Y-127.0
X134.112Y-99.06
X134.112Y-101.6
X159.004Y-107.696
X161.544Y-107.696
X188.722Y-111.252
X188.722Y-113.792
T3
X131.318Y-119.38
X131.318Y-124.38
X135.118Y-121.88
T0
M30
