G04 #@! TF.GenerationSoftware,KiCad,Pcbnew,5.1.5-52549c5~84~ubuntu18.04.1*
G04 #@! TF.CreationDate,2020-02-28T14:28:58+00:00*
G04 #@! TF.ProjectId,etl_driver_pcb,65746c5f-6472-4697-9665-725f7063622e,rev?*
G04 #@! TF.SameCoordinates,Original*
G04 #@! TF.FileFunction,Copper,L1,Top*
G04 #@! TF.FilePolarity,Positive*
%FSLAX46Y46*%
G04 Gerber Fmt 4.6, Leading zero omitted, Abs format (unit mm)*
G04 Created by KiCad (PCBNEW 5.1.5-52549c5~84~ubuntu18.04.1) date 2020-02-28 14:28:58*
%MOMM*%
%LPD*%
G04 APERTURE LIST*
%ADD10R,1.700000X1.700000*%
%ADD11O,1.700000X1.700000*%
%ADD12R,1.800000X1.800000*%
%ADD13O,1.800000X1.800000*%
%ADD14C,1.600000*%
%ADD15O,1.600000X1.600000*%
%ADD16C,2.340000*%
%ADD17R,1.600000X1.600000*%
%ADD18C,0.250000*%
%ADD19C,0.254000*%
G04 APERTURE END LIST*
D10*
X134112000Y-101600000D03*
D11*
X134112000Y-99060000D03*
X161544000Y-107696000D03*
D10*
X159004000Y-107696000D03*
X188722000Y-111252000D03*
D11*
X188722000Y-113792000D03*
D12*
X178054000Y-127000000D03*
D13*
X178054000Y-124460000D03*
X178054000Y-121920000D03*
D14*
X139192000Y-109474000D03*
D15*
X129032000Y-109474000D03*
X158750000Y-121920000D03*
D14*
X168910000Y-121920000D03*
X169164000Y-112522000D03*
D15*
X169164000Y-102362000D03*
X173990000Y-102362000D03*
D14*
X173990000Y-112522000D03*
D16*
X131318000Y-124380000D03*
X135118000Y-121880000D03*
X131318000Y-119380000D03*
D17*
X143510000Y-117094000D03*
D15*
X151130000Y-124714000D03*
X143510000Y-119634000D03*
X151130000Y-122174000D03*
X143510000Y-122174000D03*
X151130000Y-119634000D03*
X143510000Y-124714000D03*
X151130000Y-117094000D03*
D18*
X134112000Y-104394000D02*
X139192000Y-109474000D01*
X134112000Y-101600000D02*
X134112000Y-104394000D01*
X178054000Y-124460000D02*
X183642000Y-124460000D01*
X188722000Y-119380000D02*
X188722000Y-113792000D01*
X183642000Y-124460000D02*
X188722000Y-119380000D01*
X178054000Y-127000000D02*
X178308000Y-127000000D01*
X143510000Y-119634000D02*
X146558000Y-122682000D01*
X146558000Y-122682000D02*
X146558000Y-125730000D01*
X146558000Y-125730000D02*
X147828000Y-127000000D01*
X169926000Y-127000000D02*
X178054000Y-127000000D01*
X169926000Y-126492000D02*
X171958000Y-124460000D01*
X171958000Y-114554000D02*
X173990000Y-112522000D01*
X171450000Y-114808000D02*
X169164000Y-112522000D01*
X171958000Y-114808000D02*
X171450000Y-114808000D01*
X171958000Y-114808000D02*
X171958000Y-114554000D01*
X171958000Y-124460000D02*
X171958000Y-114808000D01*
X169926000Y-126492000D02*
X169418000Y-126492000D01*
X147828000Y-127000000D02*
X168910000Y-127000000D01*
X169418000Y-126492000D02*
X168910000Y-127000000D01*
X168910000Y-127000000D02*
X169926000Y-127000000D01*
X128232001Y-116294001D02*
X130148001Y-118210001D01*
X130148001Y-118210001D02*
X131318000Y-119380000D01*
X128232001Y-110273999D02*
X128232001Y-116294001D01*
X129032000Y-109474000D02*
X128232001Y-110273999D01*
X158496000Y-122174000D02*
X158750000Y-121920000D01*
X151130000Y-122174000D02*
X158496000Y-122174000D01*
X135412000Y-122174000D02*
X135118000Y-121880000D01*
X143510000Y-122174000D02*
X135412000Y-122174000D01*
D19*
G36*
X192405000Y-128651478D02*
G01*
X191271040Y-128655757D01*
X191351998Y-128601663D01*
X191593663Y-128359998D01*
X191783537Y-128075831D01*
X191914325Y-127760081D01*
X191981000Y-127424883D01*
X191981000Y-127083117D01*
X191914325Y-126747919D01*
X191783537Y-126432169D01*
X191593663Y-126148002D01*
X191351998Y-125906337D01*
X191067831Y-125716463D01*
X190752081Y-125585675D01*
X190416883Y-125519000D01*
X190075117Y-125519000D01*
X189739919Y-125585675D01*
X189424169Y-125716463D01*
X189140002Y-125906337D01*
X188898337Y-126148002D01*
X188708463Y-126432169D01*
X188577675Y-126747919D01*
X188511000Y-127083117D01*
X188511000Y-127424883D01*
X188577675Y-127760081D01*
X188708463Y-128075831D01*
X188898337Y-128359998D01*
X189140002Y-128601663D01*
X189232473Y-128663450D01*
X127312958Y-128897109D01*
X127567831Y-128791537D01*
X127851998Y-128601663D01*
X128093663Y-128359998D01*
X128283537Y-128075831D01*
X128414325Y-127760081D01*
X128481000Y-127424883D01*
X128481000Y-127083117D01*
X128414325Y-126747919D01*
X128283537Y-126432169D01*
X128093663Y-126148002D01*
X127851998Y-125906337D01*
X127567831Y-125716463D01*
X127375030Y-125636602D01*
X130241003Y-125636602D01*
X130357275Y-125918389D01*
X130675860Y-126076257D01*
X131019122Y-126168938D01*
X131373869Y-126192873D01*
X131726470Y-126147139D01*
X132063373Y-126033495D01*
X132278725Y-125918389D01*
X132394997Y-125636602D01*
X131318000Y-124559605D01*
X130241003Y-125636602D01*
X127375030Y-125636602D01*
X127252081Y-125585675D01*
X126916883Y-125519000D01*
X126575117Y-125519000D01*
X126239919Y-125585675D01*
X125924169Y-125716463D01*
X125640002Y-125906337D01*
X125398337Y-126148002D01*
X125349000Y-126221840D01*
X125349000Y-124435869D01*
X129505127Y-124435869D01*
X129550861Y-124788470D01*
X129664505Y-125125373D01*
X129779611Y-125340725D01*
X130061398Y-125456997D01*
X131138395Y-124380000D01*
X131497605Y-124380000D01*
X132574602Y-125456997D01*
X132856389Y-125340725D01*
X132993990Y-125063039D01*
X142118096Y-125063039D01*
X142158754Y-125197087D01*
X142278963Y-125451420D01*
X142446481Y-125677414D01*
X142654869Y-125866385D01*
X142896119Y-126011070D01*
X143160960Y-126105909D01*
X143383000Y-125984624D01*
X143383000Y-124841000D01*
X143637000Y-124841000D01*
X143637000Y-125984624D01*
X143859040Y-126105909D01*
X144123881Y-126011070D01*
X144365131Y-125866385D01*
X144573519Y-125677414D01*
X144741037Y-125451420D01*
X144861246Y-125197087D01*
X144901904Y-125063039D01*
X144779915Y-124841000D01*
X143637000Y-124841000D01*
X143383000Y-124841000D01*
X142240085Y-124841000D01*
X142118096Y-125063039D01*
X132993990Y-125063039D01*
X133014257Y-125022140D01*
X133106938Y-124678878D01*
X133130873Y-124324131D01*
X133085139Y-123971530D01*
X132971495Y-123634627D01*
X132856389Y-123419275D01*
X132574602Y-123303003D01*
X131497605Y-124380000D01*
X131138395Y-124380000D01*
X130061398Y-123303003D01*
X129779611Y-123419275D01*
X129621743Y-123737860D01*
X129529062Y-124081122D01*
X129505127Y-124435869D01*
X125349000Y-124435869D01*
X125349000Y-123123398D01*
X130241003Y-123123398D01*
X131318000Y-124200395D01*
X132394997Y-123123398D01*
X132278725Y-122841611D01*
X131960140Y-122683743D01*
X131616878Y-122591062D01*
X131262131Y-122567127D01*
X130909530Y-122612861D01*
X130572627Y-122726505D01*
X130357275Y-122841611D01*
X130241003Y-123123398D01*
X125349000Y-123123398D01*
X125349000Y-121702223D01*
X133313000Y-121702223D01*
X133313000Y-122057777D01*
X133382365Y-122406499D01*
X133518429Y-122734988D01*
X133715965Y-123030621D01*
X133967379Y-123282035D01*
X134263012Y-123479571D01*
X134591501Y-123615635D01*
X134940223Y-123685000D01*
X135295777Y-123685000D01*
X135644499Y-123615635D01*
X135972988Y-123479571D01*
X136268621Y-123282035D01*
X136520035Y-123030621D01*
X136584595Y-122934000D01*
X142291957Y-122934000D01*
X142395363Y-123088759D01*
X142595241Y-123288637D01*
X142830273Y-123445680D01*
X142840865Y-123450067D01*
X142654869Y-123561615D01*
X142446481Y-123750586D01*
X142278963Y-123976580D01*
X142158754Y-124230913D01*
X142118096Y-124364961D01*
X142240085Y-124587000D01*
X143383000Y-124587000D01*
X143383000Y-124567000D01*
X143637000Y-124567000D01*
X143637000Y-124587000D01*
X144779915Y-124587000D01*
X144901904Y-124364961D01*
X144861246Y-124230913D01*
X144741037Y-123976580D01*
X144573519Y-123750586D01*
X144365131Y-123561615D01*
X144179135Y-123450067D01*
X144189727Y-123445680D01*
X144424759Y-123288637D01*
X144624637Y-123088759D01*
X144781680Y-122853727D01*
X144889853Y-122592574D01*
X144945000Y-122315335D01*
X144945000Y-122143802D01*
X145798000Y-122996802D01*
X145798001Y-125692668D01*
X145794324Y-125730000D01*
X145808998Y-125878985D01*
X145852454Y-126022246D01*
X145923026Y-126154276D01*
X145993379Y-126240000D01*
X146018000Y-126270001D01*
X146046998Y-126293799D01*
X147264201Y-127511003D01*
X147287999Y-127540001D01*
X147403724Y-127634974D01*
X147535753Y-127705546D01*
X147679014Y-127749003D01*
X147790667Y-127760000D01*
X147790676Y-127760000D01*
X147827999Y-127763676D01*
X147865322Y-127760000D01*
X168872678Y-127760000D01*
X168910000Y-127763676D01*
X168947322Y-127760000D01*
X176515928Y-127760000D01*
X176515928Y-127900000D01*
X176528188Y-128024482D01*
X176564498Y-128144180D01*
X176623463Y-128254494D01*
X176702815Y-128351185D01*
X176799506Y-128430537D01*
X176909820Y-128489502D01*
X177029518Y-128525812D01*
X177154000Y-128538072D01*
X178954000Y-128538072D01*
X179078482Y-128525812D01*
X179198180Y-128489502D01*
X179308494Y-128430537D01*
X179405185Y-128351185D01*
X179484537Y-128254494D01*
X179543502Y-128144180D01*
X179579812Y-128024482D01*
X179592072Y-127900000D01*
X179592072Y-126100000D01*
X179579812Y-125975518D01*
X179543502Y-125855820D01*
X179484537Y-125745506D01*
X179405185Y-125648815D01*
X179308494Y-125569463D01*
X179198180Y-125510498D01*
X179179873Y-125504944D01*
X179246312Y-125438505D01*
X179392313Y-125220000D01*
X183604678Y-125220000D01*
X183642000Y-125223676D01*
X183679322Y-125220000D01*
X183679333Y-125220000D01*
X183790986Y-125209003D01*
X183934247Y-125165546D01*
X184066276Y-125094974D01*
X184182001Y-125000001D01*
X184205804Y-124970997D01*
X189233004Y-119943798D01*
X189262001Y-119920001D01*
X189288332Y-119887917D01*
X189356974Y-119804277D01*
X189427546Y-119672247D01*
X189462269Y-119557777D01*
X189471003Y-119528986D01*
X189482000Y-119417333D01*
X189482000Y-119417323D01*
X189485676Y-119380000D01*
X189482000Y-119342677D01*
X189482000Y-115070178D01*
X189668632Y-114945475D01*
X189875475Y-114738632D01*
X190037990Y-114495411D01*
X190149932Y-114225158D01*
X190207000Y-113938260D01*
X190207000Y-113645740D01*
X190149932Y-113358842D01*
X190037990Y-113088589D01*
X189875475Y-112845368D01*
X189743620Y-112713513D01*
X189816180Y-112691502D01*
X189926494Y-112632537D01*
X190023185Y-112553185D01*
X190102537Y-112456494D01*
X190161502Y-112346180D01*
X190197812Y-112226482D01*
X190210072Y-112102000D01*
X190210072Y-110402000D01*
X190197812Y-110277518D01*
X190161502Y-110157820D01*
X190102537Y-110047506D01*
X190023185Y-109950815D01*
X189926494Y-109871463D01*
X189816180Y-109812498D01*
X189696482Y-109776188D01*
X189572000Y-109763928D01*
X187872000Y-109763928D01*
X187747518Y-109776188D01*
X187627820Y-109812498D01*
X187517506Y-109871463D01*
X187420815Y-109950815D01*
X187341463Y-110047506D01*
X187282498Y-110157820D01*
X187246188Y-110277518D01*
X187233928Y-110402000D01*
X187233928Y-112102000D01*
X187246188Y-112226482D01*
X187282498Y-112346180D01*
X187341463Y-112456494D01*
X187420815Y-112553185D01*
X187517506Y-112632537D01*
X187627820Y-112691502D01*
X187700380Y-112713513D01*
X187568525Y-112845368D01*
X187406010Y-113088589D01*
X187294068Y-113358842D01*
X187237000Y-113645740D01*
X187237000Y-113938260D01*
X187294068Y-114225158D01*
X187406010Y-114495411D01*
X187568525Y-114738632D01*
X187775368Y-114945475D01*
X187962001Y-115070179D01*
X187962000Y-119065198D01*
X183327199Y-123700000D01*
X179392313Y-123700000D01*
X179246312Y-123481495D01*
X179032505Y-123267688D01*
X178916237Y-123190000D01*
X179032505Y-123112312D01*
X179246312Y-122898505D01*
X179414299Y-122647095D01*
X179530011Y-122367743D01*
X179589000Y-122071184D01*
X179589000Y-121768816D01*
X179530011Y-121472257D01*
X179414299Y-121192905D01*
X179246312Y-120941495D01*
X179032505Y-120727688D01*
X178781095Y-120559701D01*
X178501743Y-120443989D01*
X178205184Y-120385000D01*
X177902816Y-120385000D01*
X177606257Y-120443989D01*
X177326905Y-120559701D01*
X177075495Y-120727688D01*
X176861688Y-120941495D01*
X176693701Y-121192905D01*
X176577989Y-121472257D01*
X176519000Y-121768816D01*
X176519000Y-122071184D01*
X176577989Y-122367743D01*
X176693701Y-122647095D01*
X176861688Y-122898505D01*
X177075495Y-123112312D01*
X177191763Y-123190000D01*
X177075495Y-123267688D01*
X176861688Y-123481495D01*
X176693701Y-123732905D01*
X176577989Y-124012257D01*
X176519000Y-124308816D01*
X176519000Y-124611184D01*
X176577989Y-124907743D01*
X176693701Y-125187095D01*
X176861688Y-125438505D01*
X176928127Y-125504944D01*
X176909820Y-125510498D01*
X176799506Y-125569463D01*
X176702815Y-125648815D01*
X176623463Y-125745506D01*
X176564498Y-125855820D01*
X176528188Y-125975518D01*
X176515928Y-126100000D01*
X176515928Y-126240000D01*
X171252801Y-126240000D01*
X172469004Y-125023798D01*
X172498001Y-125000001D01*
X172525639Y-124966324D01*
X172592974Y-124884277D01*
X172663546Y-124752247D01*
X172663546Y-124752246D01*
X172707003Y-124608986D01*
X172718000Y-124497333D01*
X172718000Y-124497323D01*
X172721676Y-124460000D01*
X172718000Y-124422677D01*
X172718000Y-114868801D01*
X173666114Y-113920688D01*
X173848665Y-113957000D01*
X174131335Y-113957000D01*
X174408574Y-113901853D01*
X174669727Y-113793680D01*
X174904759Y-113636637D01*
X175104637Y-113436759D01*
X175261680Y-113201727D01*
X175369853Y-112940574D01*
X175425000Y-112663335D01*
X175425000Y-112380665D01*
X175369853Y-112103426D01*
X175261680Y-111842273D01*
X175104637Y-111607241D01*
X174904759Y-111407363D01*
X174669727Y-111250320D01*
X174408574Y-111142147D01*
X174131335Y-111087000D01*
X173848665Y-111087000D01*
X173571426Y-111142147D01*
X173310273Y-111250320D01*
X173075241Y-111407363D01*
X172875363Y-111607241D01*
X172718320Y-111842273D01*
X172610147Y-112103426D01*
X172555000Y-112380665D01*
X172555000Y-112663335D01*
X172591312Y-112845886D01*
X171577000Y-113860199D01*
X170562688Y-112845886D01*
X170599000Y-112663335D01*
X170599000Y-112380665D01*
X170543853Y-112103426D01*
X170435680Y-111842273D01*
X170278637Y-111607241D01*
X170078759Y-111407363D01*
X169843727Y-111250320D01*
X169582574Y-111142147D01*
X169305335Y-111087000D01*
X169022665Y-111087000D01*
X168745426Y-111142147D01*
X168484273Y-111250320D01*
X168249241Y-111407363D01*
X168049363Y-111607241D01*
X167892320Y-111842273D01*
X167784147Y-112103426D01*
X167729000Y-112380665D01*
X167729000Y-112663335D01*
X167784147Y-112940574D01*
X167892320Y-113201727D01*
X168049363Y-113436759D01*
X168249241Y-113636637D01*
X168484273Y-113793680D01*
X168745426Y-113901853D01*
X169022665Y-113957000D01*
X169305335Y-113957000D01*
X169487886Y-113920688D01*
X170886201Y-115319003D01*
X170909999Y-115348001D01*
X171025724Y-115442974D01*
X171157753Y-115513546D01*
X171198001Y-115525755D01*
X171198000Y-124145198D01*
X169611199Y-125732000D01*
X169455322Y-125732000D01*
X169417999Y-125728324D01*
X169380676Y-125732000D01*
X169380667Y-125732000D01*
X169269014Y-125742997D01*
X169125753Y-125786454D01*
X168993724Y-125857026D01*
X168877999Y-125951999D01*
X168854200Y-125980998D01*
X168595199Y-126240000D01*
X148142802Y-126240000D01*
X147318000Y-125415199D01*
X147318000Y-122719323D01*
X147321676Y-122682000D01*
X147318000Y-122644677D01*
X147318000Y-122644667D01*
X147307003Y-122533014D01*
X147263546Y-122389753D01*
X147227858Y-122322986D01*
X147192974Y-122257723D01*
X147121799Y-122170997D01*
X147098001Y-122141999D01*
X147069004Y-122118202D01*
X144908688Y-119957886D01*
X144945000Y-119775335D01*
X144945000Y-119492665D01*
X144889853Y-119215426D01*
X144781680Y-118954273D01*
X144624637Y-118719241D01*
X144426039Y-118520643D01*
X144434482Y-118519812D01*
X144554180Y-118483502D01*
X144664494Y-118424537D01*
X144761185Y-118345185D01*
X144840537Y-118248494D01*
X144899502Y-118138180D01*
X144935812Y-118018482D01*
X144948072Y-117894000D01*
X144948072Y-116952665D01*
X149695000Y-116952665D01*
X149695000Y-117235335D01*
X149750147Y-117512574D01*
X149858320Y-117773727D01*
X150015363Y-118008759D01*
X150215241Y-118208637D01*
X150447759Y-118364000D01*
X150215241Y-118519363D01*
X150015363Y-118719241D01*
X149858320Y-118954273D01*
X149750147Y-119215426D01*
X149695000Y-119492665D01*
X149695000Y-119775335D01*
X149750147Y-120052574D01*
X149858320Y-120313727D01*
X150015363Y-120548759D01*
X150215241Y-120748637D01*
X150447759Y-120904000D01*
X150215241Y-121059363D01*
X150015363Y-121259241D01*
X149858320Y-121494273D01*
X149750147Y-121755426D01*
X149695000Y-122032665D01*
X149695000Y-122315335D01*
X149750147Y-122592574D01*
X149858320Y-122853727D01*
X150015363Y-123088759D01*
X150215241Y-123288637D01*
X150447759Y-123444000D01*
X150215241Y-123599363D01*
X150015363Y-123799241D01*
X149858320Y-124034273D01*
X149750147Y-124295426D01*
X149695000Y-124572665D01*
X149695000Y-124855335D01*
X149750147Y-125132574D01*
X149858320Y-125393727D01*
X150015363Y-125628759D01*
X150215241Y-125828637D01*
X150450273Y-125985680D01*
X150711426Y-126093853D01*
X150988665Y-126149000D01*
X151271335Y-126149000D01*
X151548574Y-126093853D01*
X151809727Y-125985680D01*
X152044759Y-125828637D01*
X152244637Y-125628759D01*
X152401680Y-125393727D01*
X152509853Y-125132574D01*
X152565000Y-124855335D01*
X152565000Y-124572665D01*
X152509853Y-124295426D01*
X152401680Y-124034273D01*
X152244637Y-123799241D01*
X152044759Y-123599363D01*
X151812241Y-123444000D01*
X152044759Y-123288637D01*
X152244637Y-123088759D01*
X152348043Y-122934000D01*
X157734604Y-122934000D01*
X157835241Y-123034637D01*
X158070273Y-123191680D01*
X158331426Y-123299853D01*
X158608665Y-123355000D01*
X158891335Y-123355000D01*
X159168574Y-123299853D01*
X159429727Y-123191680D01*
X159664759Y-123034637D01*
X159864637Y-122834759D01*
X160021680Y-122599727D01*
X160129853Y-122338574D01*
X160185000Y-122061335D01*
X160185000Y-121778665D01*
X167475000Y-121778665D01*
X167475000Y-122061335D01*
X167530147Y-122338574D01*
X167638320Y-122599727D01*
X167795363Y-122834759D01*
X167995241Y-123034637D01*
X168230273Y-123191680D01*
X168491426Y-123299853D01*
X168768665Y-123355000D01*
X169051335Y-123355000D01*
X169328574Y-123299853D01*
X169589727Y-123191680D01*
X169824759Y-123034637D01*
X170024637Y-122834759D01*
X170181680Y-122599727D01*
X170289853Y-122338574D01*
X170345000Y-122061335D01*
X170345000Y-121778665D01*
X170289853Y-121501426D01*
X170181680Y-121240273D01*
X170024637Y-121005241D01*
X169824759Y-120805363D01*
X169589727Y-120648320D01*
X169328574Y-120540147D01*
X169051335Y-120485000D01*
X168768665Y-120485000D01*
X168491426Y-120540147D01*
X168230273Y-120648320D01*
X167995241Y-120805363D01*
X167795363Y-121005241D01*
X167638320Y-121240273D01*
X167530147Y-121501426D01*
X167475000Y-121778665D01*
X160185000Y-121778665D01*
X160129853Y-121501426D01*
X160021680Y-121240273D01*
X159864637Y-121005241D01*
X159664759Y-120805363D01*
X159429727Y-120648320D01*
X159168574Y-120540147D01*
X158891335Y-120485000D01*
X158608665Y-120485000D01*
X158331426Y-120540147D01*
X158070273Y-120648320D01*
X157835241Y-120805363D01*
X157635363Y-121005241D01*
X157478320Y-121240273D01*
X157406360Y-121414000D01*
X152348043Y-121414000D01*
X152244637Y-121259241D01*
X152044759Y-121059363D01*
X151812241Y-120904000D01*
X152044759Y-120748637D01*
X152244637Y-120548759D01*
X152401680Y-120313727D01*
X152509853Y-120052574D01*
X152565000Y-119775335D01*
X152565000Y-119492665D01*
X152509853Y-119215426D01*
X152401680Y-118954273D01*
X152244637Y-118719241D01*
X152044759Y-118519363D01*
X151812241Y-118364000D01*
X152044759Y-118208637D01*
X152244637Y-118008759D01*
X152401680Y-117773727D01*
X152509853Y-117512574D01*
X152565000Y-117235335D01*
X152565000Y-116952665D01*
X152509853Y-116675426D01*
X152401680Y-116414273D01*
X152244637Y-116179241D01*
X152044759Y-115979363D01*
X151809727Y-115822320D01*
X151548574Y-115714147D01*
X151271335Y-115659000D01*
X150988665Y-115659000D01*
X150711426Y-115714147D01*
X150450273Y-115822320D01*
X150215241Y-115979363D01*
X150015363Y-116179241D01*
X149858320Y-116414273D01*
X149750147Y-116675426D01*
X149695000Y-116952665D01*
X144948072Y-116952665D01*
X144948072Y-116294000D01*
X144935812Y-116169518D01*
X144899502Y-116049820D01*
X144840537Y-115939506D01*
X144761185Y-115842815D01*
X144664494Y-115763463D01*
X144554180Y-115704498D01*
X144434482Y-115668188D01*
X144310000Y-115655928D01*
X142710000Y-115655928D01*
X142585518Y-115668188D01*
X142465820Y-115704498D01*
X142355506Y-115763463D01*
X142258815Y-115842815D01*
X142179463Y-115939506D01*
X142120498Y-116049820D01*
X142084188Y-116169518D01*
X142071928Y-116294000D01*
X142071928Y-117894000D01*
X142084188Y-118018482D01*
X142120498Y-118138180D01*
X142179463Y-118248494D01*
X142258815Y-118345185D01*
X142355506Y-118424537D01*
X142465820Y-118483502D01*
X142585518Y-118519812D01*
X142593961Y-118520643D01*
X142395363Y-118719241D01*
X142238320Y-118954273D01*
X142130147Y-119215426D01*
X142075000Y-119492665D01*
X142075000Y-119775335D01*
X142130147Y-120052574D01*
X142238320Y-120313727D01*
X142395363Y-120548759D01*
X142595241Y-120748637D01*
X142827759Y-120904000D01*
X142595241Y-121059363D01*
X142395363Y-121259241D01*
X142291957Y-121414000D01*
X136865669Y-121414000D01*
X136853635Y-121353501D01*
X136717571Y-121025012D01*
X136520035Y-120729379D01*
X136268621Y-120477965D01*
X135972988Y-120280429D01*
X135644499Y-120144365D01*
X135295777Y-120075000D01*
X134940223Y-120075000D01*
X134591501Y-120144365D01*
X134263012Y-120280429D01*
X133967379Y-120477965D01*
X133715965Y-120729379D01*
X133518429Y-121025012D01*
X133382365Y-121353501D01*
X133313000Y-121702223D01*
X125349000Y-121702223D01*
X125349000Y-110273999D01*
X127468325Y-110273999D01*
X127472001Y-110311322D01*
X127472002Y-116256669D01*
X127468325Y-116294001D01*
X127482999Y-116442986D01*
X127526455Y-116586247D01*
X127597027Y-116718277D01*
X127668202Y-116805003D01*
X127692001Y-116834002D01*
X127720999Y-116857800D01*
X129621710Y-118758512D01*
X129582365Y-118853501D01*
X129513000Y-119202223D01*
X129513000Y-119557777D01*
X129582365Y-119906499D01*
X129718429Y-120234988D01*
X129915965Y-120530621D01*
X130167379Y-120782035D01*
X130463012Y-120979571D01*
X130791501Y-121115635D01*
X131140223Y-121185000D01*
X131495777Y-121185000D01*
X131844499Y-121115635D01*
X132172988Y-120979571D01*
X132468621Y-120782035D01*
X132720035Y-120530621D01*
X132917571Y-120234988D01*
X133053635Y-119906499D01*
X133123000Y-119557777D01*
X133123000Y-119202223D01*
X133053635Y-118853501D01*
X132917571Y-118525012D01*
X132720035Y-118229379D01*
X132468621Y-117977965D01*
X132172988Y-117780429D01*
X131844499Y-117644365D01*
X131495777Y-117575000D01*
X131140223Y-117575000D01*
X130791501Y-117644365D01*
X130696512Y-117683710D01*
X128992001Y-115979200D01*
X128992001Y-110909000D01*
X129173335Y-110909000D01*
X129450574Y-110853853D01*
X129711727Y-110745680D01*
X129946759Y-110588637D01*
X130146637Y-110388759D01*
X130303680Y-110153727D01*
X130411853Y-109892574D01*
X130467000Y-109615335D01*
X130467000Y-109332665D01*
X130411853Y-109055426D01*
X130303680Y-108794273D01*
X130146637Y-108559241D01*
X129946759Y-108359363D01*
X129711727Y-108202320D01*
X129450574Y-108094147D01*
X129173335Y-108039000D01*
X128890665Y-108039000D01*
X128613426Y-108094147D01*
X128352273Y-108202320D01*
X128117241Y-108359363D01*
X127917363Y-108559241D01*
X127760320Y-108794273D01*
X127652147Y-109055426D01*
X127597000Y-109332665D01*
X127597000Y-109615335D01*
X127634533Y-109804023D01*
X127597027Y-109849723D01*
X127542992Y-109950815D01*
X127526455Y-109981753D01*
X127482998Y-110125014D01*
X127472001Y-110236667D01*
X127472001Y-110236677D01*
X127468325Y-110273999D01*
X125349000Y-110273999D01*
X125349000Y-100346160D01*
X125398337Y-100419998D01*
X125640002Y-100661663D01*
X125924169Y-100851537D01*
X126239919Y-100982325D01*
X126575117Y-101049000D01*
X126916883Y-101049000D01*
X127252081Y-100982325D01*
X127567831Y-100851537D01*
X127719792Y-100750000D01*
X132623928Y-100750000D01*
X132623928Y-102450000D01*
X132636188Y-102574482D01*
X132672498Y-102694180D01*
X132731463Y-102804494D01*
X132810815Y-102901185D01*
X132907506Y-102980537D01*
X133017820Y-103039502D01*
X133137518Y-103075812D01*
X133262000Y-103088072D01*
X133352001Y-103088072D01*
X133352001Y-104356668D01*
X133348324Y-104394000D01*
X133362998Y-104542985D01*
X133406454Y-104686246D01*
X133477026Y-104818276D01*
X133548201Y-104905002D01*
X133572000Y-104934001D01*
X133600998Y-104957799D01*
X137793312Y-109150114D01*
X137757000Y-109332665D01*
X137757000Y-109615335D01*
X137812147Y-109892574D01*
X137920320Y-110153727D01*
X138077363Y-110388759D01*
X138277241Y-110588637D01*
X138512273Y-110745680D01*
X138773426Y-110853853D01*
X139050665Y-110909000D01*
X139333335Y-110909000D01*
X139610574Y-110853853D01*
X139871727Y-110745680D01*
X140106759Y-110588637D01*
X140306637Y-110388759D01*
X140463680Y-110153727D01*
X140571853Y-109892574D01*
X140627000Y-109615335D01*
X140627000Y-109332665D01*
X140571853Y-109055426D01*
X140463680Y-108794273D01*
X140306637Y-108559241D01*
X140106759Y-108359363D01*
X139871727Y-108202320D01*
X139610574Y-108094147D01*
X139333335Y-108039000D01*
X139050665Y-108039000D01*
X138868114Y-108075312D01*
X137638802Y-106846000D01*
X157515928Y-106846000D01*
X157515928Y-108546000D01*
X157528188Y-108670482D01*
X157564498Y-108790180D01*
X157623463Y-108900494D01*
X157702815Y-108997185D01*
X157799506Y-109076537D01*
X157909820Y-109135502D01*
X158029518Y-109171812D01*
X158154000Y-109184072D01*
X159854000Y-109184072D01*
X159978482Y-109171812D01*
X160098180Y-109135502D01*
X160208494Y-109076537D01*
X160305185Y-108997185D01*
X160384537Y-108900494D01*
X160443502Y-108790180D01*
X160467966Y-108709534D01*
X160543731Y-108793588D01*
X160777080Y-108967641D01*
X161039901Y-109092825D01*
X161187110Y-109137476D01*
X161417000Y-109016155D01*
X161417000Y-107823000D01*
X161671000Y-107823000D01*
X161671000Y-109016155D01*
X161900890Y-109137476D01*
X162048099Y-109092825D01*
X162310920Y-108967641D01*
X162544269Y-108793588D01*
X162739178Y-108577355D01*
X162888157Y-108327252D01*
X162985481Y-108052891D01*
X162864814Y-107823000D01*
X161671000Y-107823000D01*
X161417000Y-107823000D01*
X161397000Y-107823000D01*
X161397000Y-107569000D01*
X161417000Y-107569000D01*
X161417000Y-106375845D01*
X161671000Y-106375845D01*
X161671000Y-107569000D01*
X162864814Y-107569000D01*
X162985481Y-107339109D01*
X162888157Y-107064748D01*
X162739178Y-106814645D01*
X162544269Y-106598412D01*
X162310920Y-106424359D01*
X162048099Y-106299175D01*
X161900890Y-106254524D01*
X161671000Y-106375845D01*
X161417000Y-106375845D01*
X161187110Y-106254524D01*
X161039901Y-106299175D01*
X160777080Y-106424359D01*
X160543731Y-106598412D01*
X160467966Y-106682466D01*
X160443502Y-106601820D01*
X160384537Y-106491506D01*
X160305185Y-106394815D01*
X160208494Y-106315463D01*
X160098180Y-106256498D01*
X159978482Y-106220188D01*
X159854000Y-106207928D01*
X158154000Y-106207928D01*
X158029518Y-106220188D01*
X157909820Y-106256498D01*
X157799506Y-106315463D01*
X157702815Y-106394815D01*
X157623463Y-106491506D01*
X157564498Y-106601820D01*
X157528188Y-106721518D01*
X157515928Y-106846000D01*
X137638802Y-106846000D01*
X134872000Y-104079199D01*
X134872000Y-103088072D01*
X134962000Y-103088072D01*
X135086482Y-103075812D01*
X135206180Y-103039502D01*
X135316494Y-102980537D01*
X135413185Y-102901185D01*
X135492537Y-102804494D01*
X135542489Y-102711040D01*
X167772091Y-102711040D01*
X167866930Y-102975881D01*
X168011615Y-103217131D01*
X168200586Y-103425519D01*
X168426580Y-103593037D01*
X168680913Y-103713246D01*
X168814961Y-103753904D01*
X169037000Y-103631915D01*
X169037000Y-102489000D01*
X169291000Y-102489000D01*
X169291000Y-103631915D01*
X169513039Y-103753904D01*
X169647087Y-103713246D01*
X169901420Y-103593037D01*
X170127414Y-103425519D01*
X170316385Y-103217131D01*
X170461070Y-102975881D01*
X170555909Y-102711040D01*
X172598091Y-102711040D01*
X172692930Y-102975881D01*
X172837615Y-103217131D01*
X173026586Y-103425519D01*
X173252580Y-103593037D01*
X173506913Y-103713246D01*
X173640961Y-103753904D01*
X173863000Y-103631915D01*
X173863000Y-102489000D01*
X174117000Y-102489000D01*
X174117000Y-103631915D01*
X174339039Y-103753904D01*
X174473087Y-103713246D01*
X174727420Y-103593037D01*
X174953414Y-103425519D01*
X175142385Y-103217131D01*
X175287070Y-102975881D01*
X175381909Y-102711040D01*
X175260624Y-102489000D01*
X174117000Y-102489000D01*
X173863000Y-102489000D01*
X172719376Y-102489000D01*
X172598091Y-102711040D01*
X170555909Y-102711040D01*
X170434624Y-102489000D01*
X169291000Y-102489000D01*
X169037000Y-102489000D01*
X167893376Y-102489000D01*
X167772091Y-102711040D01*
X135542489Y-102711040D01*
X135551502Y-102694180D01*
X135587812Y-102574482D01*
X135600072Y-102450000D01*
X135600072Y-102012960D01*
X167772091Y-102012960D01*
X167893376Y-102235000D01*
X169037000Y-102235000D01*
X169037000Y-101092085D01*
X169291000Y-101092085D01*
X169291000Y-102235000D01*
X170434624Y-102235000D01*
X170555909Y-102012960D01*
X172598091Y-102012960D01*
X172719376Y-102235000D01*
X173863000Y-102235000D01*
X173863000Y-101092085D01*
X174117000Y-101092085D01*
X174117000Y-102235000D01*
X175260624Y-102235000D01*
X175381909Y-102012960D01*
X175287070Y-101748119D01*
X175142385Y-101506869D01*
X174953414Y-101298481D01*
X174727420Y-101130963D01*
X174473087Y-101010754D01*
X174339039Y-100970096D01*
X174117000Y-101092085D01*
X173863000Y-101092085D01*
X173640961Y-100970096D01*
X173506913Y-101010754D01*
X173252580Y-101130963D01*
X173026586Y-101298481D01*
X172837615Y-101506869D01*
X172692930Y-101748119D01*
X172598091Y-102012960D01*
X170555909Y-102012960D01*
X170461070Y-101748119D01*
X170316385Y-101506869D01*
X170127414Y-101298481D01*
X169901420Y-101130963D01*
X169647087Y-101010754D01*
X169513039Y-100970096D01*
X169291000Y-101092085D01*
X169037000Y-101092085D01*
X168814961Y-100970096D01*
X168680913Y-101010754D01*
X168426580Y-101130963D01*
X168200586Y-101298481D01*
X168011615Y-101506869D01*
X167866930Y-101748119D01*
X167772091Y-102012960D01*
X135600072Y-102012960D01*
X135600072Y-100750000D01*
X135587812Y-100625518D01*
X135551502Y-100505820D01*
X135492537Y-100395506D01*
X135413185Y-100298815D01*
X135316494Y-100219463D01*
X135206180Y-100160498D01*
X135125534Y-100136034D01*
X135209588Y-100060269D01*
X135383641Y-99826920D01*
X135508825Y-99564099D01*
X135553476Y-99416890D01*
X135432155Y-99187000D01*
X134239000Y-99187000D01*
X134239000Y-99207000D01*
X133985000Y-99207000D01*
X133985000Y-99187000D01*
X132791845Y-99187000D01*
X132670524Y-99416890D01*
X132715175Y-99564099D01*
X132840359Y-99826920D01*
X133014412Y-100060269D01*
X133098466Y-100136034D01*
X133017820Y-100160498D01*
X132907506Y-100219463D01*
X132810815Y-100298815D01*
X132731463Y-100395506D01*
X132672498Y-100505820D01*
X132636188Y-100625518D01*
X132623928Y-100750000D01*
X127719792Y-100750000D01*
X127851998Y-100661663D01*
X128093663Y-100419998D01*
X128283537Y-100135831D01*
X128414325Y-99820081D01*
X128481000Y-99484883D01*
X128481000Y-99143117D01*
X188511000Y-99143117D01*
X188511000Y-99484883D01*
X188577675Y-99820081D01*
X188708463Y-100135831D01*
X188898337Y-100419998D01*
X189140002Y-100661663D01*
X189424169Y-100851537D01*
X189739919Y-100982325D01*
X190075117Y-101049000D01*
X190416883Y-101049000D01*
X190752081Y-100982325D01*
X191067831Y-100851537D01*
X191351998Y-100661663D01*
X191593663Y-100419998D01*
X191783537Y-100135831D01*
X191914325Y-99820081D01*
X191981000Y-99484883D01*
X191981000Y-99143117D01*
X191914325Y-98807919D01*
X191783537Y-98492169D01*
X191593663Y-98208002D01*
X191351998Y-97966337D01*
X191067831Y-97776463D01*
X190752081Y-97645675D01*
X190416883Y-97579000D01*
X190075117Y-97579000D01*
X189739919Y-97645675D01*
X189424169Y-97776463D01*
X189140002Y-97966337D01*
X188898337Y-98208002D01*
X188708463Y-98492169D01*
X188577675Y-98807919D01*
X188511000Y-99143117D01*
X128481000Y-99143117D01*
X128414325Y-98807919D01*
X128370912Y-98703110D01*
X132670524Y-98703110D01*
X132791845Y-98933000D01*
X133985000Y-98933000D01*
X133985000Y-97739186D01*
X134239000Y-97739186D01*
X134239000Y-98933000D01*
X135432155Y-98933000D01*
X135553476Y-98703110D01*
X135508825Y-98555901D01*
X135383641Y-98293080D01*
X135209588Y-98059731D01*
X134993355Y-97864822D01*
X134743252Y-97715843D01*
X134468891Y-97618519D01*
X134239000Y-97739186D01*
X133985000Y-97739186D01*
X133755109Y-97618519D01*
X133480748Y-97715843D01*
X133230645Y-97864822D01*
X133014412Y-98059731D01*
X132840359Y-98293080D01*
X132715175Y-98555901D01*
X132670524Y-98703110D01*
X128370912Y-98703110D01*
X128283537Y-98492169D01*
X128093663Y-98208002D01*
X127851998Y-97966337D01*
X127567831Y-97776463D01*
X127252081Y-97645675D01*
X126916883Y-97579000D01*
X126575117Y-97579000D01*
X126239919Y-97645675D01*
X125924169Y-97776463D01*
X125640002Y-97966337D01*
X125398337Y-98208002D01*
X125349000Y-98281840D01*
X125349000Y-97180000D01*
X192405000Y-97180000D01*
X192405000Y-128651478D01*
G37*
X192405000Y-128651478D02*
X191271040Y-128655757D01*
X191351998Y-128601663D01*
X191593663Y-128359998D01*
X191783537Y-128075831D01*
X191914325Y-127760081D01*
X191981000Y-127424883D01*
X191981000Y-127083117D01*
X191914325Y-126747919D01*
X191783537Y-126432169D01*
X191593663Y-126148002D01*
X191351998Y-125906337D01*
X191067831Y-125716463D01*
X190752081Y-125585675D01*
X190416883Y-125519000D01*
X190075117Y-125519000D01*
X189739919Y-125585675D01*
X189424169Y-125716463D01*
X189140002Y-125906337D01*
X188898337Y-126148002D01*
X188708463Y-126432169D01*
X188577675Y-126747919D01*
X188511000Y-127083117D01*
X188511000Y-127424883D01*
X188577675Y-127760081D01*
X188708463Y-128075831D01*
X188898337Y-128359998D01*
X189140002Y-128601663D01*
X189232473Y-128663450D01*
X127312958Y-128897109D01*
X127567831Y-128791537D01*
X127851998Y-128601663D01*
X128093663Y-128359998D01*
X128283537Y-128075831D01*
X128414325Y-127760081D01*
X128481000Y-127424883D01*
X128481000Y-127083117D01*
X128414325Y-126747919D01*
X128283537Y-126432169D01*
X128093663Y-126148002D01*
X127851998Y-125906337D01*
X127567831Y-125716463D01*
X127375030Y-125636602D01*
X130241003Y-125636602D01*
X130357275Y-125918389D01*
X130675860Y-126076257D01*
X131019122Y-126168938D01*
X131373869Y-126192873D01*
X131726470Y-126147139D01*
X132063373Y-126033495D01*
X132278725Y-125918389D01*
X132394997Y-125636602D01*
X131318000Y-124559605D01*
X130241003Y-125636602D01*
X127375030Y-125636602D01*
X127252081Y-125585675D01*
X126916883Y-125519000D01*
X126575117Y-125519000D01*
X126239919Y-125585675D01*
X125924169Y-125716463D01*
X125640002Y-125906337D01*
X125398337Y-126148002D01*
X125349000Y-126221840D01*
X125349000Y-124435869D01*
X129505127Y-124435869D01*
X129550861Y-124788470D01*
X129664505Y-125125373D01*
X129779611Y-125340725D01*
X130061398Y-125456997D01*
X131138395Y-124380000D01*
X131497605Y-124380000D01*
X132574602Y-125456997D01*
X132856389Y-125340725D01*
X132993990Y-125063039D01*
X142118096Y-125063039D01*
X142158754Y-125197087D01*
X142278963Y-125451420D01*
X142446481Y-125677414D01*
X142654869Y-125866385D01*
X142896119Y-126011070D01*
X143160960Y-126105909D01*
X143383000Y-125984624D01*
X143383000Y-124841000D01*
X143637000Y-124841000D01*
X143637000Y-125984624D01*
X143859040Y-126105909D01*
X144123881Y-126011070D01*
X144365131Y-125866385D01*
X144573519Y-125677414D01*
X144741037Y-125451420D01*
X144861246Y-125197087D01*
X144901904Y-125063039D01*
X144779915Y-124841000D01*
X143637000Y-124841000D01*
X143383000Y-124841000D01*
X142240085Y-124841000D01*
X142118096Y-125063039D01*
X132993990Y-125063039D01*
X133014257Y-125022140D01*
X133106938Y-124678878D01*
X133130873Y-124324131D01*
X133085139Y-123971530D01*
X132971495Y-123634627D01*
X132856389Y-123419275D01*
X132574602Y-123303003D01*
X131497605Y-124380000D01*
X131138395Y-124380000D01*
X130061398Y-123303003D01*
X129779611Y-123419275D01*
X129621743Y-123737860D01*
X129529062Y-124081122D01*
X129505127Y-124435869D01*
X125349000Y-124435869D01*
X125349000Y-123123398D01*
X130241003Y-123123398D01*
X131318000Y-124200395D01*
X132394997Y-123123398D01*
X132278725Y-122841611D01*
X131960140Y-122683743D01*
X131616878Y-122591062D01*
X131262131Y-122567127D01*
X130909530Y-122612861D01*
X130572627Y-122726505D01*
X130357275Y-122841611D01*
X130241003Y-123123398D01*
X125349000Y-123123398D01*
X125349000Y-121702223D01*
X133313000Y-121702223D01*
X133313000Y-122057777D01*
X133382365Y-122406499D01*
X133518429Y-122734988D01*
X133715965Y-123030621D01*
X133967379Y-123282035D01*
X134263012Y-123479571D01*
X134591501Y-123615635D01*
X134940223Y-123685000D01*
X135295777Y-123685000D01*
X135644499Y-123615635D01*
X135972988Y-123479571D01*
X136268621Y-123282035D01*
X136520035Y-123030621D01*
X136584595Y-122934000D01*
X142291957Y-122934000D01*
X142395363Y-123088759D01*
X142595241Y-123288637D01*
X142830273Y-123445680D01*
X142840865Y-123450067D01*
X142654869Y-123561615D01*
X142446481Y-123750586D01*
X142278963Y-123976580D01*
X142158754Y-124230913D01*
X142118096Y-124364961D01*
X142240085Y-124587000D01*
X143383000Y-124587000D01*
X143383000Y-124567000D01*
X143637000Y-124567000D01*
X143637000Y-124587000D01*
X144779915Y-124587000D01*
X144901904Y-124364961D01*
X144861246Y-124230913D01*
X144741037Y-123976580D01*
X144573519Y-123750586D01*
X144365131Y-123561615D01*
X144179135Y-123450067D01*
X144189727Y-123445680D01*
X144424759Y-123288637D01*
X144624637Y-123088759D01*
X144781680Y-122853727D01*
X144889853Y-122592574D01*
X144945000Y-122315335D01*
X144945000Y-122143802D01*
X145798000Y-122996802D01*
X145798001Y-125692668D01*
X145794324Y-125730000D01*
X145808998Y-125878985D01*
X145852454Y-126022246D01*
X145923026Y-126154276D01*
X145993379Y-126240000D01*
X146018000Y-126270001D01*
X146046998Y-126293799D01*
X147264201Y-127511003D01*
X147287999Y-127540001D01*
X147403724Y-127634974D01*
X147535753Y-127705546D01*
X147679014Y-127749003D01*
X147790667Y-127760000D01*
X147790676Y-127760000D01*
X147827999Y-127763676D01*
X147865322Y-127760000D01*
X168872678Y-127760000D01*
X168910000Y-127763676D01*
X168947322Y-127760000D01*
X176515928Y-127760000D01*
X176515928Y-127900000D01*
X176528188Y-128024482D01*
X176564498Y-128144180D01*
X176623463Y-128254494D01*
X176702815Y-128351185D01*
X176799506Y-128430537D01*
X176909820Y-128489502D01*
X177029518Y-128525812D01*
X177154000Y-128538072D01*
X178954000Y-128538072D01*
X179078482Y-128525812D01*
X179198180Y-128489502D01*
X179308494Y-128430537D01*
X179405185Y-128351185D01*
X179484537Y-128254494D01*
X179543502Y-128144180D01*
X179579812Y-128024482D01*
X179592072Y-127900000D01*
X179592072Y-126100000D01*
X179579812Y-125975518D01*
X179543502Y-125855820D01*
X179484537Y-125745506D01*
X179405185Y-125648815D01*
X179308494Y-125569463D01*
X179198180Y-125510498D01*
X179179873Y-125504944D01*
X179246312Y-125438505D01*
X179392313Y-125220000D01*
X183604678Y-125220000D01*
X183642000Y-125223676D01*
X183679322Y-125220000D01*
X183679333Y-125220000D01*
X183790986Y-125209003D01*
X183934247Y-125165546D01*
X184066276Y-125094974D01*
X184182001Y-125000001D01*
X184205804Y-124970997D01*
X189233004Y-119943798D01*
X189262001Y-119920001D01*
X189288332Y-119887917D01*
X189356974Y-119804277D01*
X189427546Y-119672247D01*
X189462269Y-119557777D01*
X189471003Y-119528986D01*
X189482000Y-119417333D01*
X189482000Y-119417323D01*
X189485676Y-119380000D01*
X189482000Y-119342677D01*
X189482000Y-115070178D01*
X189668632Y-114945475D01*
X189875475Y-114738632D01*
X190037990Y-114495411D01*
X190149932Y-114225158D01*
X190207000Y-113938260D01*
X190207000Y-113645740D01*
X190149932Y-113358842D01*
X190037990Y-113088589D01*
X189875475Y-112845368D01*
X189743620Y-112713513D01*
X189816180Y-112691502D01*
X189926494Y-112632537D01*
X190023185Y-112553185D01*
X190102537Y-112456494D01*
X190161502Y-112346180D01*
X190197812Y-112226482D01*
X190210072Y-112102000D01*
X190210072Y-110402000D01*
X190197812Y-110277518D01*
X190161502Y-110157820D01*
X190102537Y-110047506D01*
X190023185Y-109950815D01*
X189926494Y-109871463D01*
X189816180Y-109812498D01*
X189696482Y-109776188D01*
X189572000Y-109763928D01*
X187872000Y-109763928D01*
X187747518Y-109776188D01*
X187627820Y-109812498D01*
X187517506Y-109871463D01*
X187420815Y-109950815D01*
X187341463Y-110047506D01*
X187282498Y-110157820D01*
X187246188Y-110277518D01*
X187233928Y-110402000D01*
X187233928Y-112102000D01*
X187246188Y-112226482D01*
X187282498Y-112346180D01*
X187341463Y-112456494D01*
X187420815Y-112553185D01*
X187517506Y-112632537D01*
X187627820Y-112691502D01*
X187700380Y-112713513D01*
X187568525Y-112845368D01*
X187406010Y-113088589D01*
X187294068Y-113358842D01*
X187237000Y-113645740D01*
X187237000Y-113938260D01*
X187294068Y-114225158D01*
X187406010Y-114495411D01*
X187568525Y-114738632D01*
X187775368Y-114945475D01*
X187962001Y-115070179D01*
X187962000Y-119065198D01*
X183327199Y-123700000D01*
X179392313Y-123700000D01*
X179246312Y-123481495D01*
X179032505Y-123267688D01*
X178916237Y-123190000D01*
X179032505Y-123112312D01*
X179246312Y-122898505D01*
X179414299Y-122647095D01*
X179530011Y-122367743D01*
X179589000Y-122071184D01*
X179589000Y-121768816D01*
X179530011Y-121472257D01*
X179414299Y-121192905D01*
X179246312Y-120941495D01*
X179032505Y-120727688D01*
X178781095Y-120559701D01*
X178501743Y-120443989D01*
X178205184Y-120385000D01*
X177902816Y-120385000D01*
X177606257Y-120443989D01*
X177326905Y-120559701D01*
X177075495Y-120727688D01*
X176861688Y-120941495D01*
X176693701Y-121192905D01*
X176577989Y-121472257D01*
X176519000Y-121768816D01*
X176519000Y-122071184D01*
X176577989Y-122367743D01*
X176693701Y-122647095D01*
X176861688Y-122898505D01*
X177075495Y-123112312D01*
X177191763Y-123190000D01*
X177075495Y-123267688D01*
X176861688Y-123481495D01*
X176693701Y-123732905D01*
X176577989Y-124012257D01*
X176519000Y-124308816D01*
X176519000Y-124611184D01*
X176577989Y-124907743D01*
X176693701Y-125187095D01*
X176861688Y-125438505D01*
X176928127Y-125504944D01*
X176909820Y-125510498D01*
X176799506Y-125569463D01*
X176702815Y-125648815D01*
X176623463Y-125745506D01*
X176564498Y-125855820D01*
X176528188Y-125975518D01*
X176515928Y-126100000D01*
X176515928Y-126240000D01*
X171252801Y-126240000D01*
X172469004Y-125023798D01*
X172498001Y-125000001D01*
X172525639Y-124966324D01*
X172592974Y-124884277D01*
X172663546Y-124752247D01*
X172663546Y-124752246D01*
X172707003Y-124608986D01*
X172718000Y-124497333D01*
X172718000Y-124497323D01*
X172721676Y-124460000D01*
X172718000Y-124422677D01*
X172718000Y-114868801D01*
X173666114Y-113920688D01*
X173848665Y-113957000D01*
X174131335Y-113957000D01*
X174408574Y-113901853D01*
X174669727Y-113793680D01*
X174904759Y-113636637D01*
X175104637Y-113436759D01*
X175261680Y-113201727D01*
X175369853Y-112940574D01*
X175425000Y-112663335D01*
X175425000Y-112380665D01*
X175369853Y-112103426D01*
X175261680Y-111842273D01*
X175104637Y-111607241D01*
X174904759Y-111407363D01*
X174669727Y-111250320D01*
X174408574Y-111142147D01*
X174131335Y-111087000D01*
X173848665Y-111087000D01*
X173571426Y-111142147D01*
X173310273Y-111250320D01*
X173075241Y-111407363D01*
X172875363Y-111607241D01*
X172718320Y-111842273D01*
X172610147Y-112103426D01*
X172555000Y-112380665D01*
X172555000Y-112663335D01*
X172591312Y-112845886D01*
X171577000Y-113860199D01*
X170562688Y-112845886D01*
X170599000Y-112663335D01*
X170599000Y-112380665D01*
X170543853Y-112103426D01*
X170435680Y-111842273D01*
X170278637Y-111607241D01*
X170078759Y-111407363D01*
X169843727Y-111250320D01*
X169582574Y-111142147D01*
X169305335Y-111087000D01*
X169022665Y-111087000D01*
X168745426Y-111142147D01*
X168484273Y-111250320D01*
X168249241Y-111407363D01*
X168049363Y-111607241D01*
X167892320Y-111842273D01*
X167784147Y-112103426D01*
X167729000Y-112380665D01*
X167729000Y-112663335D01*
X167784147Y-112940574D01*
X167892320Y-113201727D01*
X168049363Y-113436759D01*
X168249241Y-113636637D01*
X168484273Y-113793680D01*
X168745426Y-113901853D01*
X169022665Y-113957000D01*
X169305335Y-113957000D01*
X169487886Y-113920688D01*
X170886201Y-115319003D01*
X170909999Y-115348001D01*
X171025724Y-115442974D01*
X171157753Y-115513546D01*
X171198001Y-115525755D01*
X171198000Y-124145198D01*
X169611199Y-125732000D01*
X169455322Y-125732000D01*
X169417999Y-125728324D01*
X169380676Y-125732000D01*
X169380667Y-125732000D01*
X169269014Y-125742997D01*
X169125753Y-125786454D01*
X168993724Y-125857026D01*
X168877999Y-125951999D01*
X168854200Y-125980998D01*
X168595199Y-126240000D01*
X148142802Y-126240000D01*
X147318000Y-125415199D01*
X147318000Y-122719323D01*
X147321676Y-122682000D01*
X147318000Y-122644677D01*
X147318000Y-122644667D01*
X147307003Y-122533014D01*
X147263546Y-122389753D01*
X147227858Y-122322986D01*
X147192974Y-122257723D01*
X147121799Y-122170997D01*
X147098001Y-122141999D01*
X147069004Y-122118202D01*
X144908688Y-119957886D01*
X144945000Y-119775335D01*
X144945000Y-119492665D01*
X144889853Y-119215426D01*
X144781680Y-118954273D01*
X144624637Y-118719241D01*
X144426039Y-118520643D01*
X144434482Y-118519812D01*
X144554180Y-118483502D01*
X144664494Y-118424537D01*
X144761185Y-118345185D01*
X144840537Y-118248494D01*
X144899502Y-118138180D01*
X144935812Y-118018482D01*
X144948072Y-117894000D01*
X144948072Y-116952665D01*
X149695000Y-116952665D01*
X149695000Y-117235335D01*
X149750147Y-117512574D01*
X149858320Y-117773727D01*
X150015363Y-118008759D01*
X150215241Y-118208637D01*
X150447759Y-118364000D01*
X150215241Y-118519363D01*
X150015363Y-118719241D01*
X149858320Y-118954273D01*
X149750147Y-119215426D01*
X149695000Y-119492665D01*
X149695000Y-119775335D01*
X149750147Y-120052574D01*
X149858320Y-120313727D01*
X150015363Y-120548759D01*
X150215241Y-120748637D01*
X150447759Y-120904000D01*
X150215241Y-121059363D01*
X150015363Y-121259241D01*
X149858320Y-121494273D01*
X149750147Y-121755426D01*
X149695000Y-122032665D01*
X149695000Y-122315335D01*
X149750147Y-122592574D01*
X149858320Y-122853727D01*
X150015363Y-123088759D01*
X150215241Y-123288637D01*
X150447759Y-123444000D01*
X150215241Y-123599363D01*
X150015363Y-123799241D01*
X149858320Y-124034273D01*
X149750147Y-124295426D01*
X149695000Y-124572665D01*
X149695000Y-124855335D01*
X149750147Y-125132574D01*
X149858320Y-125393727D01*
X150015363Y-125628759D01*
X150215241Y-125828637D01*
X150450273Y-125985680D01*
X150711426Y-126093853D01*
X150988665Y-126149000D01*
X151271335Y-126149000D01*
X151548574Y-126093853D01*
X151809727Y-125985680D01*
X152044759Y-125828637D01*
X152244637Y-125628759D01*
X152401680Y-125393727D01*
X152509853Y-125132574D01*
X152565000Y-124855335D01*
X152565000Y-124572665D01*
X152509853Y-124295426D01*
X152401680Y-124034273D01*
X152244637Y-123799241D01*
X152044759Y-123599363D01*
X151812241Y-123444000D01*
X152044759Y-123288637D01*
X152244637Y-123088759D01*
X152348043Y-122934000D01*
X157734604Y-122934000D01*
X157835241Y-123034637D01*
X158070273Y-123191680D01*
X158331426Y-123299853D01*
X158608665Y-123355000D01*
X158891335Y-123355000D01*
X159168574Y-123299853D01*
X159429727Y-123191680D01*
X159664759Y-123034637D01*
X159864637Y-122834759D01*
X160021680Y-122599727D01*
X160129853Y-122338574D01*
X160185000Y-122061335D01*
X160185000Y-121778665D01*
X167475000Y-121778665D01*
X167475000Y-122061335D01*
X167530147Y-122338574D01*
X167638320Y-122599727D01*
X167795363Y-122834759D01*
X167995241Y-123034637D01*
X168230273Y-123191680D01*
X168491426Y-123299853D01*
X168768665Y-123355000D01*
X169051335Y-123355000D01*
X169328574Y-123299853D01*
X169589727Y-123191680D01*
X169824759Y-123034637D01*
X170024637Y-122834759D01*
X170181680Y-122599727D01*
X170289853Y-122338574D01*
X170345000Y-122061335D01*
X170345000Y-121778665D01*
X170289853Y-121501426D01*
X170181680Y-121240273D01*
X170024637Y-121005241D01*
X169824759Y-120805363D01*
X169589727Y-120648320D01*
X169328574Y-120540147D01*
X169051335Y-120485000D01*
X168768665Y-120485000D01*
X168491426Y-120540147D01*
X168230273Y-120648320D01*
X167995241Y-120805363D01*
X167795363Y-121005241D01*
X167638320Y-121240273D01*
X167530147Y-121501426D01*
X167475000Y-121778665D01*
X160185000Y-121778665D01*
X160129853Y-121501426D01*
X160021680Y-121240273D01*
X159864637Y-121005241D01*
X159664759Y-120805363D01*
X159429727Y-120648320D01*
X159168574Y-120540147D01*
X158891335Y-120485000D01*
X158608665Y-120485000D01*
X158331426Y-120540147D01*
X158070273Y-120648320D01*
X157835241Y-120805363D01*
X157635363Y-121005241D01*
X157478320Y-121240273D01*
X157406360Y-121414000D01*
X152348043Y-121414000D01*
X152244637Y-121259241D01*
X152044759Y-121059363D01*
X151812241Y-120904000D01*
X152044759Y-120748637D01*
X152244637Y-120548759D01*
X152401680Y-120313727D01*
X152509853Y-120052574D01*
X152565000Y-119775335D01*
X152565000Y-119492665D01*
X152509853Y-119215426D01*
X152401680Y-118954273D01*
X152244637Y-118719241D01*
X152044759Y-118519363D01*
X151812241Y-118364000D01*
X152044759Y-118208637D01*
X152244637Y-118008759D01*
X152401680Y-117773727D01*
X152509853Y-117512574D01*
X152565000Y-117235335D01*
X152565000Y-116952665D01*
X152509853Y-116675426D01*
X152401680Y-116414273D01*
X152244637Y-116179241D01*
X152044759Y-115979363D01*
X151809727Y-115822320D01*
X151548574Y-115714147D01*
X151271335Y-115659000D01*
X150988665Y-115659000D01*
X150711426Y-115714147D01*
X150450273Y-115822320D01*
X150215241Y-115979363D01*
X150015363Y-116179241D01*
X149858320Y-116414273D01*
X149750147Y-116675426D01*
X149695000Y-116952665D01*
X144948072Y-116952665D01*
X144948072Y-116294000D01*
X144935812Y-116169518D01*
X144899502Y-116049820D01*
X144840537Y-115939506D01*
X144761185Y-115842815D01*
X144664494Y-115763463D01*
X144554180Y-115704498D01*
X144434482Y-115668188D01*
X144310000Y-115655928D01*
X142710000Y-115655928D01*
X142585518Y-115668188D01*
X142465820Y-115704498D01*
X142355506Y-115763463D01*
X142258815Y-115842815D01*
X142179463Y-115939506D01*
X142120498Y-116049820D01*
X142084188Y-116169518D01*
X142071928Y-116294000D01*
X142071928Y-117894000D01*
X142084188Y-118018482D01*
X142120498Y-118138180D01*
X142179463Y-118248494D01*
X142258815Y-118345185D01*
X142355506Y-118424537D01*
X142465820Y-118483502D01*
X142585518Y-118519812D01*
X142593961Y-118520643D01*
X142395363Y-118719241D01*
X142238320Y-118954273D01*
X142130147Y-119215426D01*
X142075000Y-119492665D01*
X142075000Y-119775335D01*
X142130147Y-120052574D01*
X142238320Y-120313727D01*
X142395363Y-120548759D01*
X142595241Y-120748637D01*
X142827759Y-120904000D01*
X142595241Y-121059363D01*
X142395363Y-121259241D01*
X142291957Y-121414000D01*
X136865669Y-121414000D01*
X136853635Y-121353501D01*
X136717571Y-121025012D01*
X136520035Y-120729379D01*
X136268621Y-120477965D01*
X135972988Y-120280429D01*
X135644499Y-120144365D01*
X135295777Y-120075000D01*
X134940223Y-120075000D01*
X134591501Y-120144365D01*
X134263012Y-120280429D01*
X133967379Y-120477965D01*
X133715965Y-120729379D01*
X133518429Y-121025012D01*
X133382365Y-121353501D01*
X133313000Y-121702223D01*
X125349000Y-121702223D01*
X125349000Y-110273999D01*
X127468325Y-110273999D01*
X127472001Y-110311322D01*
X127472002Y-116256669D01*
X127468325Y-116294001D01*
X127482999Y-116442986D01*
X127526455Y-116586247D01*
X127597027Y-116718277D01*
X127668202Y-116805003D01*
X127692001Y-116834002D01*
X127720999Y-116857800D01*
X129621710Y-118758512D01*
X129582365Y-118853501D01*
X129513000Y-119202223D01*
X129513000Y-119557777D01*
X129582365Y-119906499D01*
X129718429Y-120234988D01*
X129915965Y-120530621D01*
X130167379Y-120782035D01*
X130463012Y-120979571D01*
X130791501Y-121115635D01*
X131140223Y-121185000D01*
X131495777Y-121185000D01*
X131844499Y-121115635D01*
X132172988Y-120979571D01*
X132468621Y-120782035D01*
X132720035Y-120530621D01*
X132917571Y-120234988D01*
X133053635Y-119906499D01*
X133123000Y-119557777D01*
X133123000Y-119202223D01*
X133053635Y-118853501D01*
X132917571Y-118525012D01*
X132720035Y-118229379D01*
X132468621Y-117977965D01*
X132172988Y-117780429D01*
X131844499Y-117644365D01*
X131495777Y-117575000D01*
X131140223Y-117575000D01*
X130791501Y-117644365D01*
X130696512Y-117683710D01*
X128992001Y-115979200D01*
X128992001Y-110909000D01*
X129173335Y-110909000D01*
X129450574Y-110853853D01*
X129711727Y-110745680D01*
X129946759Y-110588637D01*
X130146637Y-110388759D01*
X130303680Y-110153727D01*
X130411853Y-109892574D01*
X130467000Y-109615335D01*
X130467000Y-109332665D01*
X130411853Y-109055426D01*
X130303680Y-108794273D01*
X130146637Y-108559241D01*
X129946759Y-108359363D01*
X129711727Y-108202320D01*
X129450574Y-108094147D01*
X129173335Y-108039000D01*
X128890665Y-108039000D01*
X128613426Y-108094147D01*
X128352273Y-108202320D01*
X128117241Y-108359363D01*
X127917363Y-108559241D01*
X127760320Y-108794273D01*
X127652147Y-109055426D01*
X127597000Y-109332665D01*
X127597000Y-109615335D01*
X127634533Y-109804023D01*
X127597027Y-109849723D01*
X127542992Y-109950815D01*
X127526455Y-109981753D01*
X127482998Y-110125014D01*
X127472001Y-110236667D01*
X127472001Y-110236677D01*
X127468325Y-110273999D01*
X125349000Y-110273999D01*
X125349000Y-100346160D01*
X125398337Y-100419998D01*
X125640002Y-100661663D01*
X125924169Y-100851537D01*
X126239919Y-100982325D01*
X126575117Y-101049000D01*
X126916883Y-101049000D01*
X127252081Y-100982325D01*
X127567831Y-100851537D01*
X127719792Y-100750000D01*
X132623928Y-100750000D01*
X132623928Y-102450000D01*
X132636188Y-102574482D01*
X132672498Y-102694180D01*
X132731463Y-102804494D01*
X132810815Y-102901185D01*
X132907506Y-102980537D01*
X133017820Y-103039502D01*
X133137518Y-103075812D01*
X133262000Y-103088072D01*
X133352001Y-103088072D01*
X133352001Y-104356668D01*
X133348324Y-104394000D01*
X133362998Y-104542985D01*
X133406454Y-104686246D01*
X133477026Y-104818276D01*
X133548201Y-104905002D01*
X133572000Y-104934001D01*
X133600998Y-104957799D01*
X137793312Y-109150114D01*
X137757000Y-109332665D01*
X137757000Y-109615335D01*
X137812147Y-109892574D01*
X137920320Y-110153727D01*
X138077363Y-110388759D01*
X138277241Y-110588637D01*
X138512273Y-110745680D01*
X138773426Y-110853853D01*
X139050665Y-110909000D01*
X139333335Y-110909000D01*
X139610574Y-110853853D01*
X139871727Y-110745680D01*
X140106759Y-110588637D01*
X140306637Y-110388759D01*
X140463680Y-110153727D01*
X140571853Y-109892574D01*
X140627000Y-109615335D01*
X140627000Y-109332665D01*
X140571853Y-109055426D01*
X140463680Y-108794273D01*
X140306637Y-108559241D01*
X140106759Y-108359363D01*
X139871727Y-108202320D01*
X139610574Y-108094147D01*
X139333335Y-108039000D01*
X139050665Y-108039000D01*
X138868114Y-108075312D01*
X137638802Y-106846000D01*
X157515928Y-106846000D01*
X157515928Y-108546000D01*
X157528188Y-108670482D01*
X157564498Y-108790180D01*
X157623463Y-108900494D01*
X157702815Y-108997185D01*
X157799506Y-109076537D01*
X157909820Y-109135502D01*
X158029518Y-109171812D01*
X158154000Y-109184072D01*
X159854000Y-109184072D01*
X159978482Y-109171812D01*
X160098180Y-109135502D01*
X160208494Y-109076537D01*
X160305185Y-108997185D01*
X160384537Y-108900494D01*
X160443502Y-108790180D01*
X160467966Y-108709534D01*
X160543731Y-108793588D01*
X160777080Y-108967641D01*
X161039901Y-109092825D01*
X161187110Y-109137476D01*
X161417000Y-109016155D01*
X161417000Y-107823000D01*
X161671000Y-107823000D01*
X161671000Y-109016155D01*
X161900890Y-109137476D01*
X162048099Y-109092825D01*
X162310920Y-108967641D01*
X162544269Y-108793588D01*
X162739178Y-108577355D01*
X162888157Y-108327252D01*
X162985481Y-108052891D01*
X162864814Y-107823000D01*
X161671000Y-107823000D01*
X161417000Y-107823000D01*
X161397000Y-107823000D01*
X161397000Y-107569000D01*
X161417000Y-107569000D01*
X161417000Y-106375845D01*
X161671000Y-106375845D01*
X161671000Y-107569000D01*
X162864814Y-107569000D01*
X162985481Y-107339109D01*
X162888157Y-107064748D01*
X162739178Y-106814645D01*
X162544269Y-106598412D01*
X162310920Y-106424359D01*
X162048099Y-106299175D01*
X161900890Y-106254524D01*
X161671000Y-106375845D01*
X161417000Y-106375845D01*
X161187110Y-106254524D01*
X161039901Y-106299175D01*
X160777080Y-106424359D01*
X160543731Y-106598412D01*
X160467966Y-106682466D01*
X160443502Y-106601820D01*
X160384537Y-106491506D01*
X160305185Y-106394815D01*
X160208494Y-106315463D01*
X160098180Y-106256498D01*
X159978482Y-106220188D01*
X159854000Y-106207928D01*
X158154000Y-106207928D01*
X158029518Y-106220188D01*
X157909820Y-106256498D01*
X157799506Y-106315463D01*
X157702815Y-106394815D01*
X157623463Y-106491506D01*
X157564498Y-106601820D01*
X157528188Y-106721518D01*
X157515928Y-106846000D01*
X137638802Y-106846000D01*
X134872000Y-104079199D01*
X134872000Y-103088072D01*
X134962000Y-103088072D01*
X135086482Y-103075812D01*
X135206180Y-103039502D01*
X135316494Y-102980537D01*
X135413185Y-102901185D01*
X135492537Y-102804494D01*
X135542489Y-102711040D01*
X167772091Y-102711040D01*
X167866930Y-102975881D01*
X168011615Y-103217131D01*
X168200586Y-103425519D01*
X168426580Y-103593037D01*
X168680913Y-103713246D01*
X168814961Y-103753904D01*
X169037000Y-103631915D01*
X169037000Y-102489000D01*
X169291000Y-102489000D01*
X169291000Y-103631915D01*
X169513039Y-103753904D01*
X169647087Y-103713246D01*
X169901420Y-103593037D01*
X170127414Y-103425519D01*
X170316385Y-103217131D01*
X170461070Y-102975881D01*
X170555909Y-102711040D01*
X172598091Y-102711040D01*
X172692930Y-102975881D01*
X172837615Y-103217131D01*
X173026586Y-103425519D01*
X173252580Y-103593037D01*
X173506913Y-103713246D01*
X173640961Y-103753904D01*
X173863000Y-103631915D01*
X173863000Y-102489000D01*
X174117000Y-102489000D01*
X174117000Y-103631915D01*
X174339039Y-103753904D01*
X174473087Y-103713246D01*
X174727420Y-103593037D01*
X174953414Y-103425519D01*
X175142385Y-103217131D01*
X175287070Y-102975881D01*
X175381909Y-102711040D01*
X175260624Y-102489000D01*
X174117000Y-102489000D01*
X173863000Y-102489000D01*
X172719376Y-102489000D01*
X172598091Y-102711040D01*
X170555909Y-102711040D01*
X170434624Y-102489000D01*
X169291000Y-102489000D01*
X169037000Y-102489000D01*
X167893376Y-102489000D01*
X167772091Y-102711040D01*
X135542489Y-102711040D01*
X135551502Y-102694180D01*
X135587812Y-102574482D01*
X135600072Y-102450000D01*
X135600072Y-102012960D01*
X167772091Y-102012960D01*
X167893376Y-102235000D01*
X169037000Y-102235000D01*
X169037000Y-101092085D01*
X169291000Y-101092085D01*
X169291000Y-102235000D01*
X170434624Y-102235000D01*
X170555909Y-102012960D01*
X172598091Y-102012960D01*
X172719376Y-102235000D01*
X173863000Y-102235000D01*
X173863000Y-101092085D01*
X174117000Y-101092085D01*
X174117000Y-102235000D01*
X175260624Y-102235000D01*
X175381909Y-102012960D01*
X175287070Y-101748119D01*
X175142385Y-101506869D01*
X174953414Y-101298481D01*
X174727420Y-101130963D01*
X174473087Y-101010754D01*
X174339039Y-100970096D01*
X174117000Y-101092085D01*
X173863000Y-101092085D01*
X173640961Y-100970096D01*
X173506913Y-101010754D01*
X173252580Y-101130963D01*
X173026586Y-101298481D01*
X172837615Y-101506869D01*
X172692930Y-101748119D01*
X172598091Y-102012960D01*
X170555909Y-102012960D01*
X170461070Y-101748119D01*
X170316385Y-101506869D01*
X170127414Y-101298481D01*
X169901420Y-101130963D01*
X169647087Y-101010754D01*
X169513039Y-100970096D01*
X169291000Y-101092085D01*
X169037000Y-101092085D01*
X168814961Y-100970096D01*
X168680913Y-101010754D01*
X168426580Y-101130963D01*
X168200586Y-101298481D01*
X168011615Y-101506869D01*
X167866930Y-101748119D01*
X167772091Y-102012960D01*
X135600072Y-102012960D01*
X135600072Y-100750000D01*
X135587812Y-100625518D01*
X135551502Y-100505820D01*
X135492537Y-100395506D01*
X135413185Y-100298815D01*
X135316494Y-100219463D01*
X135206180Y-100160498D01*
X135125534Y-100136034D01*
X135209588Y-100060269D01*
X135383641Y-99826920D01*
X135508825Y-99564099D01*
X135553476Y-99416890D01*
X135432155Y-99187000D01*
X134239000Y-99187000D01*
X134239000Y-99207000D01*
X133985000Y-99207000D01*
X133985000Y-99187000D01*
X132791845Y-99187000D01*
X132670524Y-99416890D01*
X132715175Y-99564099D01*
X132840359Y-99826920D01*
X133014412Y-100060269D01*
X133098466Y-100136034D01*
X133017820Y-100160498D01*
X132907506Y-100219463D01*
X132810815Y-100298815D01*
X132731463Y-100395506D01*
X132672498Y-100505820D01*
X132636188Y-100625518D01*
X132623928Y-100750000D01*
X127719792Y-100750000D01*
X127851998Y-100661663D01*
X128093663Y-100419998D01*
X128283537Y-100135831D01*
X128414325Y-99820081D01*
X128481000Y-99484883D01*
X128481000Y-99143117D01*
X188511000Y-99143117D01*
X188511000Y-99484883D01*
X188577675Y-99820081D01*
X188708463Y-100135831D01*
X188898337Y-100419998D01*
X189140002Y-100661663D01*
X189424169Y-100851537D01*
X189739919Y-100982325D01*
X190075117Y-101049000D01*
X190416883Y-101049000D01*
X190752081Y-100982325D01*
X191067831Y-100851537D01*
X191351998Y-100661663D01*
X191593663Y-100419998D01*
X191783537Y-100135831D01*
X191914325Y-99820081D01*
X191981000Y-99484883D01*
X191981000Y-99143117D01*
X191914325Y-98807919D01*
X191783537Y-98492169D01*
X191593663Y-98208002D01*
X191351998Y-97966337D01*
X191067831Y-97776463D01*
X190752081Y-97645675D01*
X190416883Y-97579000D01*
X190075117Y-97579000D01*
X189739919Y-97645675D01*
X189424169Y-97776463D01*
X189140002Y-97966337D01*
X188898337Y-98208002D01*
X188708463Y-98492169D01*
X188577675Y-98807919D01*
X188511000Y-99143117D01*
X128481000Y-99143117D01*
X128414325Y-98807919D01*
X128370912Y-98703110D01*
X132670524Y-98703110D01*
X132791845Y-98933000D01*
X133985000Y-98933000D01*
X133985000Y-97739186D01*
X134239000Y-97739186D01*
X134239000Y-98933000D01*
X135432155Y-98933000D01*
X135553476Y-98703110D01*
X135508825Y-98555901D01*
X135383641Y-98293080D01*
X135209588Y-98059731D01*
X134993355Y-97864822D01*
X134743252Y-97715843D01*
X134468891Y-97618519D01*
X134239000Y-97739186D01*
X133985000Y-97739186D01*
X133755109Y-97618519D01*
X133480748Y-97715843D01*
X133230645Y-97864822D01*
X133014412Y-98059731D01*
X132840359Y-98293080D01*
X132715175Y-98555901D01*
X132670524Y-98703110D01*
X128370912Y-98703110D01*
X128283537Y-98492169D01*
X128093663Y-98208002D01*
X127851998Y-97966337D01*
X127567831Y-97776463D01*
X127252081Y-97645675D01*
X126916883Y-97579000D01*
X126575117Y-97579000D01*
X126239919Y-97645675D01*
X125924169Y-97776463D01*
X125640002Y-97966337D01*
X125398337Y-98208002D01*
X125349000Y-98281840D01*
X125349000Y-97180000D01*
X192405000Y-97180000D01*
X192405000Y-128651478D01*
M02*
