G04 #@! TF.GenerationSoftware,KiCad,Pcbnew,5.1.5-52549c5~84~ubuntu18.04.1*
G04 #@! TF.CreationDate,2020-04-29T13:09:13+01:00*
G04 #@! TF.ProjectId,etl_driver_pcb,65746c5f-6472-4697-9665-725f7063622e,rev?*
G04 #@! TF.SameCoordinates,Original*
G04 #@! TF.FileFunction,Copper,L2,Bot*
G04 #@! TF.FilePolarity,Positive*
%FSLAX46Y46*%
G04 Gerber Fmt 4.6, Leading zero omitted, Abs format (unit mm)*
G04 Created by KiCad (PCBNEW 5.1.5-52549c5~84~ubuntu18.04.1) date 2020-04-29 13:09:13*
%MOMM*%
%LPD*%
G04 APERTURE LIST*
%ADD10C,2.340000*%
%ADD11R,2.600000X2.600000*%
%ADD12O,2.600000X2.600000*%
%ADD13R,1.700000X1.700000*%
%ADD14O,1.700000X1.700000*%
%ADD15R,1.800000X1.800000*%
%ADD16O,1.800000X1.800000*%
%ADD17C,1.600000*%
%ADD18O,1.600000X1.600000*%
%ADD19R,1.600000X1.600000*%
%ADD20C,0.250000*%
%ADD21C,0.254000*%
G04 APERTURE END LIST*
D10*
X130556000Y-120142000D03*
X134356000Y-122642000D03*
X130556000Y-125142000D03*
D11*
X143002000Y-107950000D03*
D12*
X127762000Y-107950000D03*
D13*
X132588000Y-100584000D03*
D14*
X135128000Y-100584000D03*
X161544000Y-107696000D03*
D13*
X159004000Y-107696000D03*
X188722000Y-111252000D03*
D14*
X188722000Y-113792000D03*
D15*
X178054000Y-127000000D03*
D16*
X178054000Y-124460000D03*
X178054000Y-121920000D03*
D17*
X138684000Y-113538000D03*
D18*
X128524000Y-113538000D03*
X158750000Y-121920000D03*
D17*
X168910000Y-121920000D03*
X169164000Y-112522000D03*
D18*
X169164000Y-102362000D03*
X173990000Y-102362000D03*
D17*
X173990000Y-112522000D03*
D19*
X143510000Y-117094000D03*
D18*
X151130000Y-124714000D03*
X143510000Y-119634000D03*
X151130000Y-122174000D03*
X143510000Y-122174000D03*
X151130000Y-119634000D03*
X143510000Y-124714000D03*
X151130000Y-117094000D03*
D20*
X168910000Y-121920000D02*
X178054000Y-121920000D01*
D21*
G36*
X192405996Y-129159000D02*
G01*
X125096004Y-129159000D01*
X125106472Y-127829602D01*
X125208463Y-128075831D01*
X125398337Y-128359998D01*
X125640002Y-128601663D01*
X125924169Y-128791537D01*
X126239919Y-128922325D01*
X126575117Y-128989000D01*
X126916883Y-128989000D01*
X127252081Y-128922325D01*
X127567831Y-128791537D01*
X127851998Y-128601663D01*
X128093663Y-128359998D01*
X128283537Y-128075831D01*
X128414325Y-127760081D01*
X128481000Y-127424883D01*
X128481000Y-127083117D01*
X128414325Y-126747919D01*
X128283537Y-126432169D01*
X128093663Y-126148002D01*
X127851998Y-125906337D01*
X127567831Y-125716463D01*
X127252081Y-125585675D01*
X126916883Y-125519000D01*
X126575117Y-125519000D01*
X126239919Y-125585675D01*
X125924169Y-125716463D01*
X125640002Y-125906337D01*
X125398337Y-126148002D01*
X125208463Y-126432169D01*
X125115712Y-126656090D01*
X125129033Y-124964223D01*
X128751000Y-124964223D01*
X128751000Y-125319777D01*
X128820365Y-125668499D01*
X128956429Y-125996988D01*
X129153965Y-126292621D01*
X129405379Y-126544035D01*
X129701012Y-126741571D01*
X130029501Y-126877635D01*
X130378223Y-126947000D01*
X130733777Y-126947000D01*
X131082499Y-126877635D01*
X131410988Y-126741571D01*
X131706621Y-126544035D01*
X131958035Y-126292621D01*
X132155571Y-125996988D01*
X132291635Y-125668499D01*
X132361000Y-125319777D01*
X132361000Y-124964223D01*
X132291635Y-124615501D01*
X132155571Y-124287012D01*
X131958035Y-123991379D01*
X131706621Y-123739965D01*
X131410988Y-123542429D01*
X131082499Y-123406365D01*
X130733777Y-123337000D01*
X130378223Y-123337000D01*
X130029501Y-123406365D01*
X129701012Y-123542429D01*
X129405379Y-123739965D01*
X129153965Y-123991379D01*
X128956429Y-124287012D01*
X128820365Y-124615501D01*
X128751000Y-124964223D01*
X125129033Y-124964223D01*
X125148718Y-122464223D01*
X132551000Y-122464223D01*
X132551000Y-122819777D01*
X132620365Y-123168499D01*
X132756429Y-123496988D01*
X132953965Y-123792621D01*
X133205379Y-124044035D01*
X133501012Y-124241571D01*
X133829501Y-124377635D01*
X134178223Y-124447000D01*
X134533777Y-124447000D01*
X134882499Y-124377635D01*
X135210988Y-124241571D01*
X135506621Y-124044035D01*
X135758035Y-123792621D01*
X135955571Y-123496988D01*
X136091635Y-123168499D01*
X136161000Y-122819777D01*
X136161000Y-122464223D01*
X136091635Y-122115501D01*
X135955571Y-121787012D01*
X135758035Y-121491379D01*
X135506621Y-121239965D01*
X135210988Y-121042429D01*
X134882499Y-120906365D01*
X134533777Y-120837000D01*
X134178223Y-120837000D01*
X133829501Y-120906365D01*
X133501012Y-121042429D01*
X133205379Y-121239965D01*
X132953965Y-121491379D01*
X132756429Y-121787012D01*
X132620365Y-122115501D01*
X132551000Y-122464223D01*
X125148718Y-122464223D01*
X125168403Y-119964223D01*
X128751000Y-119964223D01*
X128751000Y-120319777D01*
X128820365Y-120668499D01*
X128956429Y-120996988D01*
X129153965Y-121292621D01*
X129405379Y-121544035D01*
X129701012Y-121741571D01*
X130029501Y-121877635D01*
X130378223Y-121947000D01*
X130733777Y-121947000D01*
X131082499Y-121877635D01*
X131410988Y-121741571D01*
X131706621Y-121544035D01*
X131958035Y-121292621D01*
X132155571Y-120996988D01*
X132291635Y-120668499D01*
X132361000Y-120319777D01*
X132361000Y-119964223D01*
X132291635Y-119615501D01*
X132155571Y-119287012D01*
X131958035Y-118991379D01*
X131706621Y-118739965D01*
X131410988Y-118542429D01*
X131082499Y-118406365D01*
X130733777Y-118337000D01*
X130378223Y-118337000D01*
X130029501Y-118406365D01*
X129701012Y-118542429D01*
X129405379Y-118739965D01*
X129153965Y-118991379D01*
X128956429Y-119287012D01*
X128820365Y-119615501D01*
X128751000Y-119964223D01*
X125168403Y-119964223D01*
X125197302Y-116294000D01*
X142071928Y-116294000D01*
X142071928Y-117894000D01*
X142084188Y-118018482D01*
X142120498Y-118138180D01*
X142179463Y-118248494D01*
X142258815Y-118345185D01*
X142355506Y-118424537D01*
X142465820Y-118483502D01*
X142585518Y-118519812D01*
X142593961Y-118520643D01*
X142395363Y-118719241D01*
X142238320Y-118954273D01*
X142130147Y-119215426D01*
X142075000Y-119492665D01*
X142075000Y-119775335D01*
X142130147Y-120052574D01*
X142238320Y-120313727D01*
X142395363Y-120548759D01*
X142595241Y-120748637D01*
X142827759Y-120904000D01*
X142595241Y-121059363D01*
X142395363Y-121259241D01*
X142238320Y-121494273D01*
X142130147Y-121755426D01*
X142075000Y-122032665D01*
X142075000Y-122315335D01*
X142130147Y-122592574D01*
X142238320Y-122853727D01*
X142395363Y-123088759D01*
X142595241Y-123288637D01*
X142827759Y-123444000D01*
X142595241Y-123599363D01*
X142395363Y-123799241D01*
X142238320Y-124034273D01*
X142130147Y-124295426D01*
X142075000Y-124572665D01*
X142075000Y-124855335D01*
X142130147Y-125132574D01*
X142238320Y-125393727D01*
X142395363Y-125628759D01*
X142595241Y-125828637D01*
X142830273Y-125985680D01*
X143091426Y-126093853D01*
X143368665Y-126149000D01*
X143651335Y-126149000D01*
X143928574Y-126093853D01*
X144189727Y-125985680D01*
X144424759Y-125828637D01*
X144624637Y-125628759D01*
X144781680Y-125393727D01*
X144889853Y-125132574D01*
X144945000Y-124855335D01*
X144945000Y-124572665D01*
X144889853Y-124295426D01*
X144781680Y-124034273D01*
X144624637Y-123799241D01*
X144424759Y-123599363D01*
X144192241Y-123444000D01*
X144424759Y-123288637D01*
X144624637Y-123088759D01*
X144781680Y-122853727D01*
X144889853Y-122592574D01*
X144945000Y-122315335D01*
X144945000Y-122032665D01*
X149695000Y-122032665D01*
X149695000Y-122315335D01*
X149750147Y-122592574D01*
X149858320Y-122853727D01*
X150015363Y-123088759D01*
X150215241Y-123288637D01*
X150447759Y-123444000D01*
X150215241Y-123599363D01*
X150015363Y-123799241D01*
X149858320Y-124034273D01*
X149750147Y-124295426D01*
X149695000Y-124572665D01*
X149695000Y-124855335D01*
X149750147Y-125132574D01*
X149858320Y-125393727D01*
X150015363Y-125628759D01*
X150215241Y-125828637D01*
X150450273Y-125985680D01*
X150711426Y-126093853D01*
X150988665Y-126149000D01*
X151271335Y-126149000D01*
X151548574Y-126093853D01*
X151809727Y-125985680D01*
X152044759Y-125828637D01*
X152244637Y-125628759D01*
X152401680Y-125393727D01*
X152509853Y-125132574D01*
X152565000Y-124855335D01*
X152565000Y-124572665D01*
X152509853Y-124295426D01*
X152401680Y-124034273D01*
X152244637Y-123799241D01*
X152044759Y-123599363D01*
X151812241Y-123444000D01*
X152044759Y-123288637D01*
X152244637Y-123088759D01*
X152401680Y-122853727D01*
X152509853Y-122592574D01*
X152565000Y-122315335D01*
X152565000Y-122032665D01*
X152514476Y-121778665D01*
X157315000Y-121778665D01*
X157315000Y-122061335D01*
X157370147Y-122338574D01*
X157478320Y-122599727D01*
X157635363Y-122834759D01*
X157835241Y-123034637D01*
X158070273Y-123191680D01*
X158331426Y-123299853D01*
X158608665Y-123355000D01*
X158891335Y-123355000D01*
X159168574Y-123299853D01*
X159429727Y-123191680D01*
X159664759Y-123034637D01*
X159864637Y-122834759D01*
X160021680Y-122599727D01*
X160129853Y-122338574D01*
X160185000Y-122061335D01*
X160185000Y-121778665D01*
X167475000Y-121778665D01*
X167475000Y-122061335D01*
X167530147Y-122338574D01*
X167638320Y-122599727D01*
X167795363Y-122834759D01*
X167995241Y-123034637D01*
X168230273Y-123191680D01*
X168491426Y-123299853D01*
X168768665Y-123355000D01*
X169051335Y-123355000D01*
X169328574Y-123299853D01*
X169589727Y-123191680D01*
X169824759Y-123034637D01*
X170024637Y-122834759D01*
X170128043Y-122680000D01*
X176715687Y-122680000D01*
X176861688Y-122898505D01*
X177075495Y-123112312D01*
X177191763Y-123190000D01*
X177075495Y-123267688D01*
X176861688Y-123481495D01*
X176693701Y-123732905D01*
X176577989Y-124012257D01*
X176519000Y-124308816D01*
X176519000Y-124611184D01*
X176577989Y-124907743D01*
X176693701Y-125187095D01*
X176861688Y-125438505D01*
X176928127Y-125504944D01*
X176909820Y-125510498D01*
X176799506Y-125569463D01*
X176702815Y-125648815D01*
X176623463Y-125745506D01*
X176564498Y-125855820D01*
X176528188Y-125975518D01*
X176515928Y-126100000D01*
X176515928Y-127900000D01*
X176528188Y-128024482D01*
X176564498Y-128144180D01*
X176623463Y-128254494D01*
X176702815Y-128351185D01*
X176799506Y-128430537D01*
X176909820Y-128489502D01*
X177029518Y-128525812D01*
X177154000Y-128538072D01*
X178954000Y-128538072D01*
X179078482Y-128525812D01*
X179198180Y-128489502D01*
X179308494Y-128430537D01*
X179405185Y-128351185D01*
X179484537Y-128254494D01*
X179543502Y-128144180D01*
X179579812Y-128024482D01*
X179592072Y-127900000D01*
X179592072Y-127083117D01*
X188511000Y-127083117D01*
X188511000Y-127424883D01*
X188577675Y-127760081D01*
X188708463Y-128075831D01*
X188898337Y-128359998D01*
X189140002Y-128601663D01*
X189424169Y-128791537D01*
X189739919Y-128922325D01*
X190075117Y-128989000D01*
X190416883Y-128989000D01*
X190752081Y-128922325D01*
X191067831Y-128791537D01*
X191351998Y-128601663D01*
X191593663Y-128359998D01*
X191783537Y-128075831D01*
X191914325Y-127760081D01*
X191981000Y-127424883D01*
X191981000Y-127083117D01*
X191914325Y-126747919D01*
X191783537Y-126432169D01*
X191593663Y-126148002D01*
X191351998Y-125906337D01*
X191067831Y-125716463D01*
X190752081Y-125585675D01*
X190416883Y-125519000D01*
X190075117Y-125519000D01*
X189739919Y-125585675D01*
X189424169Y-125716463D01*
X189140002Y-125906337D01*
X188898337Y-126148002D01*
X188708463Y-126432169D01*
X188577675Y-126747919D01*
X188511000Y-127083117D01*
X179592072Y-127083117D01*
X179592072Y-126100000D01*
X179579812Y-125975518D01*
X179543502Y-125855820D01*
X179484537Y-125745506D01*
X179405185Y-125648815D01*
X179308494Y-125569463D01*
X179198180Y-125510498D01*
X179179873Y-125504944D01*
X179246312Y-125438505D01*
X179414299Y-125187095D01*
X179530011Y-124907743D01*
X179589000Y-124611184D01*
X179589000Y-124308816D01*
X179530011Y-124012257D01*
X179414299Y-123732905D01*
X179246312Y-123481495D01*
X179032505Y-123267688D01*
X178916237Y-123190000D01*
X179032505Y-123112312D01*
X179246312Y-122898505D01*
X179414299Y-122647095D01*
X179530011Y-122367743D01*
X179589000Y-122071184D01*
X179589000Y-121768816D01*
X179530011Y-121472257D01*
X179414299Y-121192905D01*
X179246312Y-120941495D01*
X179032505Y-120727688D01*
X178781095Y-120559701D01*
X178501743Y-120443989D01*
X178205184Y-120385000D01*
X177902816Y-120385000D01*
X177606257Y-120443989D01*
X177326905Y-120559701D01*
X177075495Y-120727688D01*
X176861688Y-120941495D01*
X176715687Y-121160000D01*
X170128043Y-121160000D01*
X170024637Y-121005241D01*
X169824759Y-120805363D01*
X169589727Y-120648320D01*
X169328574Y-120540147D01*
X169051335Y-120485000D01*
X168768665Y-120485000D01*
X168491426Y-120540147D01*
X168230273Y-120648320D01*
X167995241Y-120805363D01*
X167795363Y-121005241D01*
X167638320Y-121240273D01*
X167530147Y-121501426D01*
X167475000Y-121778665D01*
X160185000Y-121778665D01*
X160129853Y-121501426D01*
X160021680Y-121240273D01*
X159864637Y-121005241D01*
X159664759Y-120805363D01*
X159429727Y-120648320D01*
X159168574Y-120540147D01*
X158891335Y-120485000D01*
X158608665Y-120485000D01*
X158331426Y-120540147D01*
X158070273Y-120648320D01*
X157835241Y-120805363D01*
X157635363Y-121005241D01*
X157478320Y-121240273D01*
X157370147Y-121501426D01*
X157315000Y-121778665D01*
X152514476Y-121778665D01*
X152509853Y-121755426D01*
X152401680Y-121494273D01*
X152244637Y-121259241D01*
X152044759Y-121059363D01*
X151809727Y-120902320D01*
X151799135Y-120897933D01*
X151985131Y-120786385D01*
X152193519Y-120597414D01*
X152361037Y-120371420D01*
X152481246Y-120117087D01*
X152521904Y-119983039D01*
X152399915Y-119761000D01*
X151257000Y-119761000D01*
X151257000Y-119781000D01*
X151003000Y-119781000D01*
X151003000Y-119761000D01*
X149860085Y-119761000D01*
X149738096Y-119983039D01*
X149778754Y-120117087D01*
X149898963Y-120371420D01*
X150066481Y-120597414D01*
X150274869Y-120786385D01*
X150460865Y-120897933D01*
X150450273Y-120902320D01*
X150215241Y-121059363D01*
X150015363Y-121259241D01*
X149858320Y-121494273D01*
X149750147Y-121755426D01*
X149695000Y-122032665D01*
X144945000Y-122032665D01*
X144889853Y-121755426D01*
X144781680Y-121494273D01*
X144624637Y-121259241D01*
X144424759Y-121059363D01*
X144192241Y-120904000D01*
X144424759Y-120748637D01*
X144624637Y-120548759D01*
X144781680Y-120313727D01*
X144889853Y-120052574D01*
X144945000Y-119775335D01*
X144945000Y-119492665D01*
X144889853Y-119215426D01*
X144781680Y-118954273D01*
X144624637Y-118719241D01*
X144426039Y-118520643D01*
X144434482Y-118519812D01*
X144554180Y-118483502D01*
X144664494Y-118424537D01*
X144761185Y-118345185D01*
X144840537Y-118248494D01*
X144899502Y-118138180D01*
X144935812Y-118018482D01*
X144948072Y-117894000D01*
X144948072Y-116952665D01*
X149695000Y-116952665D01*
X149695000Y-117235335D01*
X149750147Y-117512574D01*
X149858320Y-117773727D01*
X150015363Y-118008759D01*
X150215241Y-118208637D01*
X150450273Y-118365680D01*
X150460865Y-118370067D01*
X150274869Y-118481615D01*
X150066481Y-118670586D01*
X149898963Y-118896580D01*
X149778754Y-119150913D01*
X149738096Y-119284961D01*
X149860085Y-119507000D01*
X151003000Y-119507000D01*
X151003000Y-119487000D01*
X151257000Y-119487000D01*
X151257000Y-119507000D01*
X152399915Y-119507000D01*
X152521904Y-119284961D01*
X152481246Y-119150913D01*
X152361037Y-118896580D01*
X152193519Y-118670586D01*
X151985131Y-118481615D01*
X151799135Y-118370067D01*
X151809727Y-118365680D01*
X152044759Y-118208637D01*
X152244637Y-118008759D01*
X152401680Y-117773727D01*
X152509853Y-117512574D01*
X152565000Y-117235335D01*
X152565000Y-116952665D01*
X152509853Y-116675426D01*
X152401680Y-116414273D01*
X152244637Y-116179241D01*
X152044759Y-115979363D01*
X151809727Y-115822320D01*
X151548574Y-115714147D01*
X151271335Y-115659000D01*
X150988665Y-115659000D01*
X150711426Y-115714147D01*
X150450273Y-115822320D01*
X150215241Y-115979363D01*
X150015363Y-116179241D01*
X149858320Y-116414273D01*
X149750147Y-116675426D01*
X149695000Y-116952665D01*
X144948072Y-116952665D01*
X144948072Y-116294000D01*
X144935812Y-116169518D01*
X144899502Y-116049820D01*
X144840537Y-115939506D01*
X144761185Y-115842815D01*
X144664494Y-115763463D01*
X144554180Y-115704498D01*
X144434482Y-115668188D01*
X144310000Y-115655928D01*
X142710000Y-115655928D01*
X142585518Y-115668188D01*
X142465820Y-115704498D01*
X142355506Y-115763463D01*
X142258815Y-115842815D01*
X142179463Y-115939506D01*
X142120498Y-116049820D01*
X142084188Y-116169518D01*
X142071928Y-116294000D01*
X125197302Y-116294000D01*
X125220116Y-113396665D01*
X127089000Y-113396665D01*
X127089000Y-113679335D01*
X127144147Y-113956574D01*
X127252320Y-114217727D01*
X127409363Y-114452759D01*
X127609241Y-114652637D01*
X127844273Y-114809680D01*
X128105426Y-114917853D01*
X128382665Y-114973000D01*
X128665335Y-114973000D01*
X128942574Y-114917853D01*
X129203727Y-114809680D01*
X129438759Y-114652637D01*
X129638637Y-114452759D01*
X129795680Y-114217727D01*
X129903853Y-113956574D01*
X129959000Y-113679335D01*
X129959000Y-113396665D01*
X137249000Y-113396665D01*
X137249000Y-113679335D01*
X137304147Y-113956574D01*
X137412320Y-114217727D01*
X137569363Y-114452759D01*
X137769241Y-114652637D01*
X138004273Y-114809680D01*
X138265426Y-114917853D01*
X138542665Y-114973000D01*
X138825335Y-114973000D01*
X139102574Y-114917853D01*
X139363727Y-114809680D01*
X139598759Y-114652637D01*
X139798637Y-114452759D01*
X139955680Y-114217727D01*
X140063853Y-113956574D01*
X140119000Y-113679335D01*
X140119000Y-113396665D01*
X140063853Y-113119426D01*
X139955680Y-112858273D01*
X139798637Y-112623241D01*
X139598759Y-112423363D01*
X139534857Y-112380665D01*
X167729000Y-112380665D01*
X167729000Y-112663335D01*
X167784147Y-112940574D01*
X167892320Y-113201727D01*
X168049363Y-113436759D01*
X168249241Y-113636637D01*
X168484273Y-113793680D01*
X168745426Y-113901853D01*
X169022665Y-113957000D01*
X169305335Y-113957000D01*
X169582574Y-113901853D01*
X169843727Y-113793680D01*
X170078759Y-113636637D01*
X170278637Y-113436759D01*
X170435680Y-113201727D01*
X170543853Y-112940574D01*
X170599000Y-112663335D01*
X170599000Y-112380665D01*
X172555000Y-112380665D01*
X172555000Y-112663335D01*
X172610147Y-112940574D01*
X172718320Y-113201727D01*
X172875363Y-113436759D01*
X173075241Y-113636637D01*
X173310273Y-113793680D01*
X173571426Y-113901853D01*
X173848665Y-113957000D01*
X174131335Y-113957000D01*
X174408574Y-113901853D01*
X174669727Y-113793680D01*
X174904759Y-113636637D01*
X175104637Y-113436759D01*
X175261680Y-113201727D01*
X175369853Y-112940574D01*
X175425000Y-112663335D01*
X175425000Y-112380665D01*
X175369853Y-112103426D01*
X175369263Y-112102000D01*
X187233928Y-112102000D01*
X187246188Y-112226482D01*
X187282498Y-112346180D01*
X187341463Y-112456494D01*
X187420815Y-112553185D01*
X187517506Y-112632537D01*
X187627820Y-112691502D01*
X187700380Y-112713513D01*
X187568525Y-112845368D01*
X187406010Y-113088589D01*
X187294068Y-113358842D01*
X187237000Y-113645740D01*
X187237000Y-113938260D01*
X187294068Y-114225158D01*
X187406010Y-114495411D01*
X187568525Y-114738632D01*
X187775368Y-114945475D01*
X188018589Y-115107990D01*
X188288842Y-115219932D01*
X188575740Y-115277000D01*
X188868260Y-115277000D01*
X189155158Y-115219932D01*
X189425411Y-115107990D01*
X189668632Y-114945475D01*
X189875475Y-114738632D01*
X190037990Y-114495411D01*
X190149932Y-114225158D01*
X190207000Y-113938260D01*
X190207000Y-113645740D01*
X190149932Y-113358842D01*
X190037990Y-113088589D01*
X189875475Y-112845368D01*
X189743620Y-112713513D01*
X189816180Y-112691502D01*
X189926494Y-112632537D01*
X190023185Y-112553185D01*
X190102537Y-112456494D01*
X190161502Y-112346180D01*
X190197812Y-112226482D01*
X190210072Y-112102000D01*
X190207000Y-111537750D01*
X190048250Y-111379000D01*
X188849000Y-111379000D01*
X188849000Y-111399000D01*
X188595000Y-111399000D01*
X188595000Y-111379000D01*
X187395750Y-111379000D01*
X187237000Y-111537750D01*
X187233928Y-112102000D01*
X175369263Y-112102000D01*
X175261680Y-111842273D01*
X175104637Y-111607241D01*
X174904759Y-111407363D01*
X174669727Y-111250320D01*
X174408574Y-111142147D01*
X174131335Y-111087000D01*
X173848665Y-111087000D01*
X173571426Y-111142147D01*
X173310273Y-111250320D01*
X173075241Y-111407363D01*
X172875363Y-111607241D01*
X172718320Y-111842273D01*
X172610147Y-112103426D01*
X172555000Y-112380665D01*
X170599000Y-112380665D01*
X170543853Y-112103426D01*
X170435680Y-111842273D01*
X170278637Y-111607241D01*
X170078759Y-111407363D01*
X169843727Y-111250320D01*
X169582574Y-111142147D01*
X169305335Y-111087000D01*
X169022665Y-111087000D01*
X168745426Y-111142147D01*
X168484273Y-111250320D01*
X168249241Y-111407363D01*
X168049363Y-111607241D01*
X167892320Y-111842273D01*
X167784147Y-112103426D01*
X167729000Y-112380665D01*
X139534857Y-112380665D01*
X139363727Y-112266320D01*
X139102574Y-112158147D01*
X138825335Y-112103000D01*
X138542665Y-112103000D01*
X138265426Y-112158147D01*
X138004273Y-112266320D01*
X137769241Y-112423363D01*
X137569363Y-112623241D01*
X137412320Y-112858273D01*
X137304147Y-113119426D01*
X137249000Y-113396665D01*
X129959000Y-113396665D01*
X129903853Y-113119426D01*
X129795680Y-112858273D01*
X129638637Y-112623241D01*
X129438759Y-112423363D01*
X129203727Y-112266320D01*
X128942574Y-112158147D01*
X128665335Y-112103000D01*
X128382665Y-112103000D01*
X128105426Y-112158147D01*
X127844273Y-112266320D01*
X127609241Y-112423363D01*
X127409363Y-112623241D01*
X127252320Y-112858273D01*
X127144147Y-113119426D01*
X127089000Y-113396665D01*
X125220116Y-113396665D01*
X125243696Y-110402000D01*
X187233928Y-110402000D01*
X187237000Y-110966250D01*
X187395750Y-111125000D01*
X188595000Y-111125000D01*
X188595000Y-109925750D01*
X188849000Y-109925750D01*
X188849000Y-111125000D01*
X190048250Y-111125000D01*
X190207000Y-110966250D01*
X190210072Y-110402000D01*
X190197812Y-110277518D01*
X190161502Y-110157820D01*
X190102537Y-110047506D01*
X190023185Y-109950815D01*
X189926494Y-109871463D01*
X189816180Y-109812498D01*
X189696482Y-109776188D01*
X189572000Y-109763928D01*
X189007750Y-109767000D01*
X188849000Y-109925750D01*
X188595000Y-109925750D01*
X188436250Y-109767000D01*
X187872000Y-109763928D01*
X187747518Y-109776188D01*
X187627820Y-109812498D01*
X187517506Y-109871463D01*
X187420815Y-109950815D01*
X187341463Y-110047506D01*
X187282498Y-110157820D01*
X187246188Y-110277518D01*
X187233928Y-110402000D01*
X125243696Y-110402000D01*
X125264504Y-107759419D01*
X125827000Y-107759419D01*
X125827000Y-108140581D01*
X125901361Y-108514419D01*
X126047225Y-108866566D01*
X126258987Y-109183491D01*
X126528509Y-109453013D01*
X126845434Y-109664775D01*
X127197581Y-109810639D01*
X127571419Y-109885000D01*
X127952581Y-109885000D01*
X128326419Y-109810639D01*
X128678566Y-109664775D01*
X128995491Y-109453013D01*
X129265013Y-109183491D01*
X129476775Y-108866566D01*
X129622639Y-108514419D01*
X129697000Y-108140581D01*
X129697000Y-107759419D01*
X129622639Y-107385581D01*
X129476775Y-107033434D01*
X129265013Y-106716509D01*
X129198504Y-106650000D01*
X141063928Y-106650000D01*
X141063928Y-109250000D01*
X141076188Y-109374482D01*
X141112498Y-109494180D01*
X141171463Y-109604494D01*
X141250815Y-109701185D01*
X141347506Y-109780537D01*
X141457820Y-109839502D01*
X141577518Y-109875812D01*
X141702000Y-109888072D01*
X144302000Y-109888072D01*
X144426482Y-109875812D01*
X144546180Y-109839502D01*
X144656494Y-109780537D01*
X144753185Y-109701185D01*
X144832537Y-109604494D01*
X144891502Y-109494180D01*
X144927812Y-109374482D01*
X144940072Y-109250000D01*
X144940072Y-108546000D01*
X157515928Y-108546000D01*
X157528188Y-108670482D01*
X157564498Y-108790180D01*
X157623463Y-108900494D01*
X157702815Y-108997185D01*
X157799506Y-109076537D01*
X157909820Y-109135502D01*
X158029518Y-109171812D01*
X158154000Y-109184072D01*
X158718250Y-109181000D01*
X158877000Y-109022250D01*
X158877000Y-107823000D01*
X157677750Y-107823000D01*
X157519000Y-107981750D01*
X157515928Y-108546000D01*
X144940072Y-108546000D01*
X144940072Y-106846000D01*
X157515928Y-106846000D01*
X157519000Y-107410250D01*
X157677750Y-107569000D01*
X158877000Y-107569000D01*
X158877000Y-106369750D01*
X159131000Y-106369750D01*
X159131000Y-107569000D01*
X159151000Y-107569000D01*
X159151000Y-107823000D01*
X159131000Y-107823000D01*
X159131000Y-109022250D01*
X159289750Y-109181000D01*
X159854000Y-109184072D01*
X159978482Y-109171812D01*
X160098180Y-109135502D01*
X160208494Y-109076537D01*
X160305185Y-108997185D01*
X160384537Y-108900494D01*
X160443502Y-108790180D01*
X160465513Y-108717620D01*
X160597368Y-108849475D01*
X160840589Y-109011990D01*
X161110842Y-109123932D01*
X161397740Y-109181000D01*
X161690260Y-109181000D01*
X161977158Y-109123932D01*
X162247411Y-109011990D01*
X162490632Y-108849475D01*
X162697475Y-108642632D01*
X162859990Y-108399411D01*
X162971932Y-108129158D01*
X163029000Y-107842260D01*
X163029000Y-107549740D01*
X162971932Y-107262842D01*
X162859990Y-106992589D01*
X162697475Y-106749368D01*
X162490632Y-106542525D01*
X162247411Y-106380010D01*
X161977158Y-106268068D01*
X161690260Y-106211000D01*
X161397740Y-106211000D01*
X161110842Y-106268068D01*
X160840589Y-106380010D01*
X160597368Y-106542525D01*
X160465513Y-106674380D01*
X160443502Y-106601820D01*
X160384537Y-106491506D01*
X160305185Y-106394815D01*
X160208494Y-106315463D01*
X160098180Y-106256498D01*
X159978482Y-106220188D01*
X159854000Y-106207928D01*
X159289750Y-106211000D01*
X159131000Y-106369750D01*
X158877000Y-106369750D01*
X158718250Y-106211000D01*
X158154000Y-106207928D01*
X158029518Y-106220188D01*
X157909820Y-106256498D01*
X157799506Y-106315463D01*
X157702815Y-106394815D01*
X157623463Y-106491506D01*
X157564498Y-106601820D01*
X157528188Y-106721518D01*
X157515928Y-106846000D01*
X144940072Y-106846000D01*
X144940072Y-106650000D01*
X144927812Y-106525518D01*
X144891502Y-106405820D01*
X144832537Y-106295506D01*
X144753185Y-106198815D01*
X144656494Y-106119463D01*
X144546180Y-106060498D01*
X144426482Y-106024188D01*
X144302000Y-106011928D01*
X141702000Y-106011928D01*
X141577518Y-106024188D01*
X141457820Y-106060498D01*
X141347506Y-106119463D01*
X141250815Y-106198815D01*
X141171463Y-106295506D01*
X141112498Y-106405820D01*
X141076188Y-106525518D01*
X141063928Y-106650000D01*
X129198504Y-106650000D01*
X128995491Y-106446987D01*
X128678566Y-106235225D01*
X128326419Y-106089361D01*
X127952581Y-106015000D01*
X127571419Y-106015000D01*
X127197581Y-106089361D01*
X126845434Y-106235225D01*
X126528509Y-106446987D01*
X126258987Y-106716509D01*
X126047225Y-107033434D01*
X125901361Y-107385581D01*
X125827000Y-107759419D01*
X125264504Y-107759419D01*
X125308116Y-102220665D01*
X167729000Y-102220665D01*
X167729000Y-102503335D01*
X167784147Y-102780574D01*
X167892320Y-103041727D01*
X168049363Y-103276759D01*
X168249241Y-103476637D01*
X168484273Y-103633680D01*
X168745426Y-103741853D01*
X169022665Y-103797000D01*
X169305335Y-103797000D01*
X169582574Y-103741853D01*
X169843727Y-103633680D01*
X170078759Y-103476637D01*
X170278637Y-103276759D01*
X170435680Y-103041727D01*
X170543853Y-102780574D01*
X170599000Y-102503335D01*
X170599000Y-102220665D01*
X172555000Y-102220665D01*
X172555000Y-102503335D01*
X172610147Y-102780574D01*
X172718320Y-103041727D01*
X172875363Y-103276759D01*
X173075241Y-103476637D01*
X173310273Y-103633680D01*
X173571426Y-103741853D01*
X173848665Y-103797000D01*
X174131335Y-103797000D01*
X174408574Y-103741853D01*
X174669727Y-103633680D01*
X174904759Y-103476637D01*
X175104637Y-103276759D01*
X175261680Y-103041727D01*
X175369853Y-102780574D01*
X175425000Y-102503335D01*
X175425000Y-102220665D01*
X175369853Y-101943426D01*
X175261680Y-101682273D01*
X175104637Y-101447241D01*
X174904759Y-101247363D01*
X174669727Y-101090320D01*
X174408574Y-100982147D01*
X174131335Y-100927000D01*
X173848665Y-100927000D01*
X173571426Y-100982147D01*
X173310273Y-101090320D01*
X173075241Y-101247363D01*
X172875363Y-101447241D01*
X172718320Y-101682273D01*
X172610147Y-101943426D01*
X172555000Y-102220665D01*
X170599000Y-102220665D01*
X170543853Y-101943426D01*
X170435680Y-101682273D01*
X170278637Y-101447241D01*
X170078759Y-101247363D01*
X169843727Y-101090320D01*
X169582574Y-100982147D01*
X169305335Y-100927000D01*
X169022665Y-100927000D01*
X168745426Y-100982147D01*
X168484273Y-101090320D01*
X168249241Y-101247363D01*
X168049363Y-101447241D01*
X167892320Y-101682273D01*
X167784147Y-101943426D01*
X167729000Y-102220665D01*
X125308116Y-102220665D01*
X125323181Y-100307519D01*
X125398337Y-100419998D01*
X125640002Y-100661663D01*
X125924169Y-100851537D01*
X126239919Y-100982325D01*
X126575117Y-101049000D01*
X126916883Y-101049000D01*
X127252081Y-100982325D01*
X127567831Y-100851537D01*
X127851998Y-100661663D01*
X128093663Y-100419998D01*
X128283537Y-100135831D01*
X128414325Y-99820081D01*
X128431447Y-99734000D01*
X131099928Y-99734000D01*
X131099928Y-101434000D01*
X131112188Y-101558482D01*
X131148498Y-101678180D01*
X131207463Y-101788494D01*
X131286815Y-101885185D01*
X131383506Y-101964537D01*
X131493820Y-102023502D01*
X131613518Y-102059812D01*
X131738000Y-102072072D01*
X133438000Y-102072072D01*
X133562482Y-102059812D01*
X133682180Y-102023502D01*
X133792494Y-101964537D01*
X133889185Y-101885185D01*
X133968537Y-101788494D01*
X134027502Y-101678180D01*
X134049513Y-101605620D01*
X134181368Y-101737475D01*
X134424589Y-101899990D01*
X134694842Y-102011932D01*
X134981740Y-102069000D01*
X135274260Y-102069000D01*
X135561158Y-102011932D01*
X135831411Y-101899990D01*
X136074632Y-101737475D01*
X136281475Y-101530632D01*
X136443990Y-101287411D01*
X136555932Y-101017158D01*
X136613000Y-100730260D01*
X136613000Y-100437740D01*
X136555932Y-100150842D01*
X136443990Y-99880589D01*
X136281475Y-99637368D01*
X136074632Y-99430525D01*
X135831411Y-99268010D01*
X135561158Y-99156068D01*
X135496050Y-99143117D01*
X188511000Y-99143117D01*
X188511000Y-99484883D01*
X188577675Y-99820081D01*
X188708463Y-100135831D01*
X188898337Y-100419998D01*
X189140002Y-100661663D01*
X189424169Y-100851537D01*
X189739919Y-100982325D01*
X190075117Y-101049000D01*
X190416883Y-101049000D01*
X190752081Y-100982325D01*
X191067831Y-100851537D01*
X191351998Y-100661663D01*
X191593663Y-100419998D01*
X191783537Y-100135831D01*
X191914325Y-99820081D01*
X191981000Y-99484883D01*
X191981000Y-99143117D01*
X191914325Y-98807919D01*
X191783537Y-98492169D01*
X191593663Y-98208002D01*
X191351998Y-97966337D01*
X191067831Y-97776463D01*
X190752081Y-97645675D01*
X190416883Y-97579000D01*
X190075117Y-97579000D01*
X189739919Y-97645675D01*
X189424169Y-97776463D01*
X189140002Y-97966337D01*
X188898337Y-98208002D01*
X188708463Y-98492169D01*
X188577675Y-98807919D01*
X188511000Y-99143117D01*
X135496050Y-99143117D01*
X135274260Y-99099000D01*
X134981740Y-99099000D01*
X134694842Y-99156068D01*
X134424589Y-99268010D01*
X134181368Y-99430525D01*
X134049513Y-99562380D01*
X134027502Y-99489820D01*
X133968537Y-99379506D01*
X133889185Y-99282815D01*
X133792494Y-99203463D01*
X133682180Y-99144498D01*
X133562482Y-99108188D01*
X133438000Y-99095928D01*
X131738000Y-99095928D01*
X131613518Y-99108188D01*
X131493820Y-99144498D01*
X131383506Y-99203463D01*
X131286815Y-99282815D01*
X131207463Y-99379506D01*
X131148498Y-99489820D01*
X131112188Y-99609518D01*
X131099928Y-99734000D01*
X128431447Y-99734000D01*
X128481000Y-99484883D01*
X128481000Y-99143117D01*
X128414325Y-98807919D01*
X128283537Y-98492169D01*
X128093663Y-98208002D01*
X127851998Y-97966337D01*
X127567831Y-97776463D01*
X127252081Y-97645675D01*
X126916883Y-97579000D01*
X126575117Y-97579000D01*
X126239919Y-97645675D01*
X125924169Y-97776463D01*
X125640002Y-97966337D01*
X125398337Y-98208002D01*
X125339014Y-98296786D01*
X125347807Y-97180000D01*
X192657799Y-97180000D01*
X192405996Y-129159000D01*
G37*
X192405996Y-129159000D02*
X125096004Y-129159000D01*
X125106472Y-127829602D01*
X125208463Y-128075831D01*
X125398337Y-128359998D01*
X125640002Y-128601663D01*
X125924169Y-128791537D01*
X126239919Y-128922325D01*
X126575117Y-128989000D01*
X126916883Y-128989000D01*
X127252081Y-128922325D01*
X127567831Y-128791537D01*
X127851998Y-128601663D01*
X128093663Y-128359998D01*
X128283537Y-128075831D01*
X128414325Y-127760081D01*
X128481000Y-127424883D01*
X128481000Y-127083117D01*
X128414325Y-126747919D01*
X128283537Y-126432169D01*
X128093663Y-126148002D01*
X127851998Y-125906337D01*
X127567831Y-125716463D01*
X127252081Y-125585675D01*
X126916883Y-125519000D01*
X126575117Y-125519000D01*
X126239919Y-125585675D01*
X125924169Y-125716463D01*
X125640002Y-125906337D01*
X125398337Y-126148002D01*
X125208463Y-126432169D01*
X125115712Y-126656090D01*
X125129033Y-124964223D01*
X128751000Y-124964223D01*
X128751000Y-125319777D01*
X128820365Y-125668499D01*
X128956429Y-125996988D01*
X129153965Y-126292621D01*
X129405379Y-126544035D01*
X129701012Y-126741571D01*
X130029501Y-126877635D01*
X130378223Y-126947000D01*
X130733777Y-126947000D01*
X131082499Y-126877635D01*
X131410988Y-126741571D01*
X131706621Y-126544035D01*
X131958035Y-126292621D01*
X132155571Y-125996988D01*
X132291635Y-125668499D01*
X132361000Y-125319777D01*
X132361000Y-124964223D01*
X132291635Y-124615501D01*
X132155571Y-124287012D01*
X131958035Y-123991379D01*
X131706621Y-123739965D01*
X131410988Y-123542429D01*
X131082499Y-123406365D01*
X130733777Y-123337000D01*
X130378223Y-123337000D01*
X130029501Y-123406365D01*
X129701012Y-123542429D01*
X129405379Y-123739965D01*
X129153965Y-123991379D01*
X128956429Y-124287012D01*
X128820365Y-124615501D01*
X128751000Y-124964223D01*
X125129033Y-124964223D01*
X125148718Y-122464223D01*
X132551000Y-122464223D01*
X132551000Y-122819777D01*
X132620365Y-123168499D01*
X132756429Y-123496988D01*
X132953965Y-123792621D01*
X133205379Y-124044035D01*
X133501012Y-124241571D01*
X133829501Y-124377635D01*
X134178223Y-124447000D01*
X134533777Y-124447000D01*
X134882499Y-124377635D01*
X135210988Y-124241571D01*
X135506621Y-124044035D01*
X135758035Y-123792621D01*
X135955571Y-123496988D01*
X136091635Y-123168499D01*
X136161000Y-122819777D01*
X136161000Y-122464223D01*
X136091635Y-122115501D01*
X135955571Y-121787012D01*
X135758035Y-121491379D01*
X135506621Y-121239965D01*
X135210988Y-121042429D01*
X134882499Y-120906365D01*
X134533777Y-120837000D01*
X134178223Y-120837000D01*
X133829501Y-120906365D01*
X133501012Y-121042429D01*
X133205379Y-121239965D01*
X132953965Y-121491379D01*
X132756429Y-121787012D01*
X132620365Y-122115501D01*
X132551000Y-122464223D01*
X125148718Y-122464223D01*
X125168403Y-119964223D01*
X128751000Y-119964223D01*
X128751000Y-120319777D01*
X128820365Y-120668499D01*
X128956429Y-120996988D01*
X129153965Y-121292621D01*
X129405379Y-121544035D01*
X129701012Y-121741571D01*
X130029501Y-121877635D01*
X130378223Y-121947000D01*
X130733777Y-121947000D01*
X131082499Y-121877635D01*
X131410988Y-121741571D01*
X131706621Y-121544035D01*
X131958035Y-121292621D01*
X132155571Y-120996988D01*
X132291635Y-120668499D01*
X132361000Y-120319777D01*
X132361000Y-119964223D01*
X132291635Y-119615501D01*
X132155571Y-119287012D01*
X131958035Y-118991379D01*
X131706621Y-118739965D01*
X131410988Y-118542429D01*
X131082499Y-118406365D01*
X130733777Y-118337000D01*
X130378223Y-118337000D01*
X130029501Y-118406365D01*
X129701012Y-118542429D01*
X129405379Y-118739965D01*
X129153965Y-118991379D01*
X128956429Y-119287012D01*
X128820365Y-119615501D01*
X128751000Y-119964223D01*
X125168403Y-119964223D01*
X125197302Y-116294000D01*
X142071928Y-116294000D01*
X142071928Y-117894000D01*
X142084188Y-118018482D01*
X142120498Y-118138180D01*
X142179463Y-118248494D01*
X142258815Y-118345185D01*
X142355506Y-118424537D01*
X142465820Y-118483502D01*
X142585518Y-118519812D01*
X142593961Y-118520643D01*
X142395363Y-118719241D01*
X142238320Y-118954273D01*
X142130147Y-119215426D01*
X142075000Y-119492665D01*
X142075000Y-119775335D01*
X142130147Y-120052574D01*
X142238320Y-120313727D01*
X142395363Y-120548759D01*
X142595241Y-120748637D01*
X142827759Y-120904000D01*
X142595241Y-121059363D01*
X142395363Y-121259241D01*
X142238320Y-121494273D01*
X142130147Y-121755426D01*
X142075000Y-122032665D01*
X142075000Y-122315335D01*
X142130147Y-122592574D01*
X142238320Y-122853727D01*
X142395363Y-123088759D01*
X142595241Y-123288637D01*
X142827759Y-123444000D01*
X142595241Y-123599363D01*
X142395363Y-123799241D01*
X142238320Y-124034273D01*
X142130147Y-124295426D01*
X142075000Y-124572665D01*
X142075000Y-124855335D01*
X142130147Y-125132574D01*
X142238320Y-125393727D01*
X142395363Y-125628759D01*
X142595241Y-125828637D01*
X142830273Y-125985680D01*
X143091426Y-126093853D01*
X143368665Y-126149000D01*
X143651335Y-126149000D01*
X143928574Y-126093853D01*
X144189727Y-125985680D01*
X144424759Y-125828637D01*
X144624637Y-125628759D01*
X144781680Y-125393727D01*
X144889853Y-125132574D01*
X144945000Y-124855335D01*
X144945000Y-124572665D01*
X144889853Y-124295426D01*
X144781680Y-124034273D01*
X144624637Y-123799241D01*
X144424759Y-123599363D01*
X144192241Y-123444000D01*
X144424759Y-123288637D01*
X144624637Y-123088759D01*
X144781680Y-122853727D01*
X144889853Y-122592574D01*
X144945000Y-122315335D01*
X144945000Y-122032665D01*
X149695000Y-122032665D01*
X149695000Y-122315335D01*
X149750147Y-122592574D01*
X149858320Y-122853727D01*
X150015363Y-123088759D01*
X150215241Y-123288637D01*
X150447759Y-123444000D01*
X150215241Y-123599363D01*
X150015363Y-123799241D01*
X149858320Y-124034273D01*
X149750147Y-124295426D01*
X149695000Y-124572665D01*
X149695000Y-124855335D01*
X149750147Y-125132574D01*
X149858320Y-125393727D01*
X150015363Y-125628759D01*
X150215241Y-125828637D01*
X150450273Y-125985680D01*
X150711426Y-126093853D01*
X150988665Y-126149000D01*
X151271335Y-126149000D01*
X151548574Y-126093853D01*
X151809727Y-125985680D01*
X152044759Y-125828637D01*
X152244637Y-125628759D01*
X152401680Y-125393727D01*
X152509853Y-125132574D01*
X152565000Y-124855335D01*
X152565000Y-124572665D01*
X152509853Y-124295426D01*
X152401680Y-124034273D01*
X152244637Y-123799241D01*
X152044759Y-123599363D01*
X151812241Y-123444000D01*
X152044759Y-123288637D01*
X152244637Y-123088759D01*
X152401680Y-122853727D01*
X152509853Y-122592574D01*
X152565000Y-122315335D01*
X152565000Y-122032665D01*
X152514476Y-121778665D01*
X157315000Y-121778665D01*
X157315000Y-122061335D01*
X157370147Y-122338574D01*
X157478320Y-122599727D01*
X157635363Y-122834759D01*
X157835241Y-123034637D01*
X158070273Y-123191680D01*
X158331426Y-123299853D01*
X158608665Y-123355000D01*
X158891335Y-123355000D01*
X159168574Y-123299853D01*
X159429727Y-123191680D01*
X159664759Y-123034637D01*
X159864637Y-122834759D01*
X160021680Y-122599727D01*
X160129853Y-122338574D01*
X160185000Y-122061335D01*
X160185000Y-121778665D01*
X167475000Y-121778665D01*
X167475000Y-122061335D01*
X167530147Y-122338574D01*
X167638320Y-122599727D01*
X167795363Y-122834759D01*
X167995241Y-123034637D01*
X168230273Y-123191680D01*
X168491426Y-123299853D01*
X168768665Y-123355000D01*
X169051335Y-123355000D01*
X169328574Y-123299853D01*
X169589727Y-123191680D01*
X169824759Y-123034637D01*
X170024637Y-122834759D01*
X170128043Y-122680000D01*
X176715687Y-122680000D01*
X176861688Y-122898505D01*
X177075495Y-123112312D01*
X177191763Y-123190000D01*
X177075495Y-123267688D01*
X176861688Y-123481495D01*
X176693701Y-123732905D01*
X176577989Y-124012257D01*
X176519000Y-124308816D01*
X176519000Y-124611184D01*
X176577989Y-124907743D01*
X176693701Y-125187095D01*
X176861688Y-125438505D01*
X176928127Y-125504944D01*
X176909820Y-125510498D01*
X176799506Y-125569463D01*
X176702815Y-125648815D01*
X176623463Y-125745506D01*
X176564498Y-125855820D01*
X176528188Y-125975518D01*
X176515928Y-126100000D01*
X176515928Y-127900000D01*
X176528188Y-128024482D01*
X176564498Y-128144180D01*
X176623463Y-128254494D01*
X176702815Y-128351185D01*
X176799506Y-128430537D01*
X176909820Y-128489502D01*
X177029518Y-128525812D01*
X177154000Y-128538072D01*
X178954000Y-128538072D01*
X179078482Y-128525812D01*
X179198180Y-128489502D01*
X179308494Y-128430537D01*
X179405185Y-128351185D01*
X179484537Y-128254494D01*
X179543502Y-128144180D01*
X179579812Y-128024482D01*
X179592072Y-127900000D01*
X179592072Y-127083117D01*
X188511000Y-127083117D01*
X188511000Y-127424883D01*
X188577675Y-127760081D01*
X188708463Y-128075831D01*
X188898337Y-128359998D01*
X189140002Y-128601663D01*
X189424169Y-128791537D01*
X189739919Y-128922325D01*
X190075117Y-128989000D01*
X190416883Y-128989000D01*
X190752081Y-128922325D01*
X191067831Y-128791537D01*
X191351998Y-128601663D01*
X191593663Y-128359998D01*
X191783537Y-128075831D01*
X191914325Y-127760081D01*
X191981000Y-127424883D01*
X191981000Y-127083117D01*
X191914325Y-126747919D01*
X191783537Y-126432169D01*
X191593663Y-126148002D01*
X191351998Y-125906337D01*
X191067831Y-125716463D01*
X190752081Y-125585675D01*
X190416883Y-125519000D01*
X190075117Y-125519000D01*
X189739919Y-125585675D01*
X189424169Y-125716463D01*
X189140002Y-125906337D01*
X188898337Y-126148002D01*
X188708463Y-126432169D01*
X188577675Y-126747919D01*
X188511000Y-127083117D01*
X179592072Y-127083117D01*
X179592072Y-126100000D01*
X179579812Y-125975518D01*
X179543502Y-125855820D01*
X179484537Y-125745506D01*
X179405185Y-125648815D01*
X179308494Y-125569463D01*
X179198180Y-125510498D01*
X179179873Y-125504944D01*
X179246312Y-125438505D01*
X179414299Y-125187095D01*
X179530011Y-124907743D01*
X179589000Y-124611184D01*
X179589000Y-124308816D01*
X179530011Y-124012257D01*
X179414299Y-123732905D01*
X179246312Y-123481495D01*
X179032505Y-123267688D01*
X178916237Y-123190000D01*
X179032505Y-123112312D01*
X179246312Y-122898505D01*
X179414299Y-122647095D01*
X179530011Y-122367743D01*
X179589000Y-122071184D01*
X179589000Y-121768816D01*
X179530011Y-121472257D01*
X179414299Y-121192905D01*
X179246312Y-120941495D01*
X179032505Y-120727688D01*
X178781095Y-120559701D01*
X178501743Y-120443989D01*
X178205184Y-120385000D01*
X177902816Y-120385000D01*
X177606257Y-120443989D01*
X177326905Y-120559701D01*
X177075495Y-120727688D01*
X176861688Y-120941495D01*
X176715687Y-121160000D01*
X170128043Y-121160000D01*
X170024637Y-121005241D01*
X169824759Y-120805363D01*
X169589727Y-120648320D01*
X169328574Y-120540147D01*
X169051335Y-120485000D01*
X168768665Y-120485000D01*
X168491426Y-120540147D01*
X168230273Y-120648320D01*
X167995241Y-120805363D01*
X167795363Y-121005241D01*
X167638320Y-121240273D01*
X167530147Y-121501426D01*
X167475000Y-121778665D01*
X160185000Y-121778665D01*
X160129853Y-121501426D01*
X160021680Y-121240273D01*
X159864637Y-121005241D01*
X159664759Y-120805363D01*
X159429727Y-120648320D01*
X159168574Y-120540147D01*
X158891335Y-120485000D01*
X158608665Y-120485000D01*
X158331426Y-120540147D01*
X158070273Y-120648320D01*
X157835241Y-120805363D01*
X157635363Y-121005241D01*
X157478320Y-121240273D01*
X157370147Y-121501426D01*
X157315000Y-121778665D01*
X152514476Y-121778665D01*
X152509853Y-121755426D01*
X152401680Y-121494273D01*
X152244637Y-121259241D01*
X152044759Y-121059363D01*
X151809727Y-120902320D01*
X151799135Y-120897933D01*
X151985131Y-120786385D01*
X152193519Y-120597414D01*
X152361037Y-120371420D01*
X152481246Y-120117087D01*
X152521904Y-119983039D01*
X152399915Y-119761000D01*
X151257000Y-119761000D01*
X151257000Y-119781000D01*
X151003000Y-119781000D01*
X151003000Y-119761000D01*
X149860085Y-119761000D01*
X149738096Y-119983039D01*
X149778754Y-120117087D01*
X149898963Y-120371420D01*
X150066481Y-120597414D01*
X150274869Y-120786385D01*
X150460865Y-120897933D01*
X150450273Y-120902320D01*
X150215241Y-121059363D01*
X150015363Y-121259241D01*
X149858320Y-121494273D01*
X149750147Y-121755426D01*
X149695000Y-122032665D01*
X144945000Y-122032665D01*
X144889853Y-121755426D01*
X144781680Y-121494273D01*
X144624637Y-121259241D01*
X144424759Y-121059363D01*
X144192241Y-120904000D01*
X144424759Y-120748637D01*
X144624637Y-120548759D01*
X144781680Y-120313727D01*
X144889853Y-120052574D01*
X144945000Y-119775335D01*
X144945000Y-119492665D01*
X144889853Y-119215426D01*
X144781680Y-118954273D01*
X144624637Y-118719241D01*
X144426039Y-118520643D01*
X144434482Y-118519812D01*
X144554180Y-118483502D01*
X144664494Y-118424537D01*
X144761185Y-118345185D01*
X144840537Y-118248494D01*
X144899502Y-118138180D01*
X144935812Y-118018482D01*
X144948072Y-117894000D01*
X144948072Y-116952665D01*
X149695000Y-116952665D01*
X149695000Y-117235335D01*
X149750147Y-117512574D01*
X149858320Y-117773727D01*
X150015363Y-118008759D01*
X150215241Y-118208637D01*
X150450273Y-118365680D01*
X150460865Y-118370067D01*
X150274869Y-118481615D01*
X150066481Y-118670586D01*
X149898963Y-118896580D01*
X149778754Y-119150913D01*
X149738096Y-119284961D01*
X149860085Y-119507000D01*
X151003000Y-119507000D01*
X151003000Y-119487000D01*
X151257000Y-119487000D01*
X151257000Y-119507000D01*
X152399915Y-119507000D01*
X152521904Y-119284961D01*
X152481246Y-119150913D01*
X152361037Y-118896580D01*
X152193519Y-118670586D01*
X151985131Y-118481615D01*
X151799135Y-118370067D01*
X151809727Y-118365680D01*
X152044759Y-118208637D01*
X152244637Y-118008759D01*
X152401680Y-117773727D01*
X152509853Y-117512574D01*
X152565000Y-117235335D01*
X152565000Y-116952665D01*
X152509853Y-116675426D01*
X152401680Y-116414273D01*
X152244637Y-116179241D01*
X152044759Y-115979363D01*
X151809727Y-115822320D01*
X151548574Y-115714147D01*
X151271335Y-115659000D01*
X150988665Y-115659000D01*
X150711426Y-115714147D01*
X150450273Y-115822320D01*
X150215241Y-115979363D01*
X150015363Y-116179241D01*
X149858320Y-116414273D01*
X149750147Y-116675426D01*
X149695000Y-116952665D01*
X144948072Y-116952665D01*
X144948072Y-116294000D01*
X144935812Y-116169518D01*
X144899502Y-116049820D01*
X144840537Y-115939506D01*
X144761185Y-115842815D01*
X144664494Y-115763463D01*
X144554180Y-115704498D01*
X144434482Y-115668188D01*
X144310000Y-115655928D01*
X142710000Y-115655928D01*
X142585518Y-115668188D01*
X142465820Y-115704498D01*
X142355506Y-115763463D01*
X142258815Y-115842815D01*
X142179463Y-115939506D01*
X142120498Y-116049820D01*
X142084188Y-116169518D01*
X142071928Y-116294000D01*
X125197302Y-116294000D01*
X125220116Y-113396665D01*
X127089000Y-113396665D01*
X127089000Y-113679335D01*
X127144147Y-113956574D01*
X127252320Y-114217727D01*
X127409363Y-114452759D01*
X127609241Y-114652637D01*
X127844273Y-114809680D01*
X128105426Y-114917853D01*
X128382665Y-114973000D01*
X128665335Y-114973000D01*
X128942574Y-114917853D01*
X129203727Y-114809680D01*
X129438759Y-114652637D01*
X129638637Y-114452759D01*
X129795680Y-114217727D01*
X129903853Y-113956574D01*
X129959000Y-113679335D01*
X129959000Y-113396665D01*
X137249000Y-113396665D01*
X137249000Y-113679335D01*
X137304147Y-113956574D01*
X137412320Y-114217727D01*
X137569363Y-114452759D01*
X137769241Y-114652637D01*
X138004273Y-114809680D01*
X138265426Y-114917853D01*
X138542665Y-114973000D01*
X138825335Y-114973000D01*
X139102574Y-114917853D01*
X139363727Y-114809680D01*
X139598759Y-114652637D01*
X139798637Y-114452759D01*
X139955680Y-114217727D01*
X140063853Y-113956574D01*
X140119000Y-113679335D01*
X140119000Y-113396665D01*
X140063853Y-113119426D01*
X139955680Y-112858273D01*
X139798637Y-112623241D01*
X139598759Y-112423363D01*
X139534857Y-112380665D01*
X167729000Y-112380665D01*
X167729000Y-112663335D01*
X167784147Y-112940574D01*
X167892320Y-113201727D01*
X168049363Y-113436759D01*
X168249241Y-113636637D01*
X168484273Y-113793680D01*
X168745426Y-113901853D01*
X169022665Y-113957000D01*
X169305335Y-113957000D01*
X169582574Y-113901853D01*
X169843727Y-113793680D01*
X170078759Y-113636637D01*
X170278637Y-113436759D01*
X170435680Y-113201727D01*
X170543853Y-112940574D01*
X170599000Y-112663335D01*
X170599000Y-112380665D01*
X172555000Y-112380665D01*
X172555000Y-112663335D01*
X172610147Y-112940574D01*
X172718320Y-113201727D01*
X172875363Y-113436759D01*
X173075241Y-113636637D01*
X173310273Y-113793680D01*
X173571426Y-113901853D01*
X173848665Y-113957000D01*
X174131335Y-113957000D01*
X174408574Y-113901853D01*
X174669727Y-113793680D01*
X174904759Y-113636637D01*
X175104637Y-113436759D01*
X175261680Y-113201727D01*
X175369853Y-112940574D01*
X175425000Y-112663335D01*
X175425000Y-112380665D01*
X175369853Y-112103426D01*
X175369263Y-112102000D01*
X187233928Y-112102000D01*
X187246188Y-112226482D01*
X187282498Y-112346180D01*
X187341463Y-112456494D01*
X187420815Y-112553185D01*
X187517506Y-112632537D01*
X187627820Y-112691502D01*
X187700380Y-112713513D01*
X187568525Y-112845368D01*
X187406010Y-113088589D01*
X187294068Y-113358842D01*
X187237000Y-113645740D01*
X187237000Y-113938260D01*
X187294068Y-114225158D01*
X187406010Y-114495411D01*
X187568525Y-114738632D01*
X187775368Y-114945475D01*
X188018589Y-115107990D01*
X188288842Y-115219932D01*
X188575740Y-115277000D01*
X188868260Y-115277000D01*
X189155158Y-115219932D01*
X189425411Y-115107990D01*
X189668632Y-114945475D01*
X189875475Y-114738632D01*
X190037990Y-114495411D01*
X190149932Y-114225158D01*
X190207000Y-113938260D01*
X190207000Y-113645740D01*
X190149932Y-113358842D01*
X190037990Y-113088589D01*
X189875475Y-112845368D01*
X189743620Y-112713513D01*
X189816180Y-112691502D01*
X189926494Y-112632537D01*
X190023185Y-112553185D01*
X190102537Y-112456494D01*
X190161502Y-112346180D01*
X190197812Y-112226482D01*
X190210072Y-112102000D01*
X190207000Y-111537750D01*
X190048250Y-111379000D01*
X188849000Y-111379000D01*
X188849000Y-111399000D01*
X188595000Y-111399000D01*
X188595000Y-111379000D01*
X187395750Y-111379000D01*
X187237000Y-111537750D01*
X187233928Y-112102000D01*
X175369263Y-112102000D01*
X175261680Y-111842273D01*
X175104637Y-111607241D01*
X174904759Y-111407363D01*
X174669727Y-111250320D01*
X174408574Y-111142147D01*
X174131335Y-111087000D01*
X173848665Y-111087000D01*
X173571426Y-111142147D01*
X173310273Y-111250320D01*
X173075241Y-111407363D01*
X172875363Y-111607241D01*
X172718320Y-111842273D01*
X172610147Y-112103426D01*
X172555000Y-112380665D01*
X170599000Y-112380665D01*
X170543853Y-112103426D01*
X170435680Y-111842273D01*
X170278637Y-111607241D01*
X170078759Y-111407363D01*
X169843727Y-111250320D01*
X169582574Y-111142147D01*
X169305335Y-111087000D01*
X169022665Y-111087000D01*
X168745426Y-111142147D01*
X168484273Y-111250320D01*
X168249241Y-111407363D01*
X168049363Y-111607241D01*
X167892320Y-111842273D01*
X167784147Y-112103426D01*
X167729000Y-112380665D01*
X139534857Y-112380665D01*
X139363727Y-112266320D01*
X139102574Y-112158147D01*
X138825335Y-112103000D01*
X138542665Y-112103000D01*
X138265426Y-112158147D01*
X138004273Y-112266320D01*
X137769241Y-112423363D01*
X137569363Y-112623241D01*
X137412320Y-112858273D01*
X137304147Y-113119426D01*
X137249000Y-113396665D01*
X129959000Y-113396665D01*
X129903853Y-113119426D01*
X129795680Y-112858273D01*
X129638637Y-112623241D01*
X129438759Y-112423363D01*
X129203727Y-112266320D01*
X128942574Y-112158147D01*
X128665335Y-112103000D01*
X128382665Y-112103000D01*
X128105426Y-112158147D01*
X127844273Y-112266320D01*
X127609241Y-112423363D01*
X127409363Y-112623241D01*
X127252320Y-112858273D01*
X127144147Y-113119426D01*
X127089000Y-113396665D01*
X125220116Y-113396665D01*
X125243696Y-110402000D01*
X187233928Y-110402000D01*
X187237000Y-110966250D01*
X187395750Y-111125000D01*
X188595000Y-111125000D01*
X188595000Y-109925750D01*
X188849000Y-109925750D01*
X188849000Y-111125000D01*
X190048250Y-111125000D01*
X190207000Y-110966250D01*
X190210072Y-110402000D01*
X190197812Y-110277518D01*
X190161502Y-110157820D01*
X190102537Y-110047506D01*
X190023185Y-109950815D01*
X189926494Y-109871463D01*
X189816180Y-109812498D01*
X189696482Y-109776188D01*
X189572000Y-109763928D01*
X189007750Y-109767000D01*
X188849000Y-109925750D01*
X188595000Y-109925750D01*
X188436250Y-109767000D01*
X187872000Y-109763928D01*
X187747518Y-109776188D01*
X187627820Y-109812498D01*
X187517506Y-109871463D01*
X187420815Y-109950815D01*
X187341463Y-110047506D01*
X187282498Y-110157820D01*
X187246188Y-110277518D01*
X187233928Y-110402000D01*
X125243696Y-110402000D01*
X125264504Y-107759419D01*
X125827000Y-107759419D01*
X125827000Y-108140581D01*
X125901361Y-108514419D01*
X126047225Y-108866566D01*
X126258987Y-109183491D01*
X126528509Y-109453013D01*
X126845434Y-109664775D01*
X127197581Y-109810639D01*
X127571419Y-109885000D01*
X127952581Y-109885000D01*
X128326419Y-109810639D01*
X128678566Y-109664775D01*
X128995491Y-109453013D01*
X129265013Y-109183491D01*
X129476775Y-108866566D01*
X129622639Y-108514419D01*
X129697000Y-108140581D01*
X129697000Y-107759419D01*
X129622639Y-107385581D01*
X129476775Y-107033434D01*
X129265013Y-106716509D01*
X129198504Y-106650000D01*
X141063928Y-106650000D01*
X141063928Y-109250000D01*
X141076188Y-109374482D01*
X141112498Y-109494180D01*
X141171463Y-109604494D01*
X141250815Y-109701185D01*
X141347506Y-109780537D01*
X141457820Y-109839502D01*
X141577518Y-109875812D01*
X141702000Y-109888072D01*
X144302000Y-109888072D01*
X144426482Y-109875812D01*
X144546180Y-109839502D01*
X144656494Y-109780537D01*
X144753185Y-109701185D01*
X144832537Y-109604494D01*
X144891502Y-109494180D01*
X144927812Y-109374482D01*
X144940072Y-109250000D01*
X144940072Y-108546000D01*
X157515928Y-108546000D01*
X157528188Y-108670482D01*
X157564498Y-108790180D01*
X157623463Y-108900494D01*
X157702815Y-108997185D01*
X157799506Y-109076537D01*
X157909820Y-109135502D01*
X158029518Y-109171812D01*
X158154000Y-109184072D01*
X158718250Y-109181000D01*
X158877000Y-109022250D01*
X158877000Y-107823000D01*
X157677750Y-107823000D01*
X157519000Y-107981750D01*
X157515928Y-108546000D01*
X144940072Y-108546000D01*
X144940072Y-106846000D01*
X157515928Y-106846000D01*
X157519000Y-107410250D01*
X157677750Y-107569000D01*
X158877000Y-107569000D01*
X158877000Y-106369750D01*
X159131000Y-106369750D01*
X159131000Y-107569000D01*
X159151000Y-107569000D01*
X159151000Y-107823000D01*
X159131000Y-107823000D01*
X159131000Y-109022250D01*
X159289750Y-109181000D01*
X159854000Y-109184072D01*
X159978482Y-109171812D01*
X160098180Y-109135502D01*
X160208494Y-109076537D01*
X160305185Y-108997185D01*
X160384537Y-108900494D01*
X160443502Y-108790180D01*
X160465513Y-108717620D01*
X160597368Y-108849475D01*
X160840589Y-109011990D01*
X161110842Y-109123932D01*
X161397740Y-109181000D01*
X161690260Y-109181000D01*
X161977158Y-109123932D01*
X162247411Y-109011990D01*
X162490632Y-108849475D01*
X162697475Y-108642632D01*
X162859990Y-108399411D01*
X162971932Y-108129158D01*
X163029000Y-107842260D01*
X163029000Y-107549740D01*
X162971932Y-107262842D01*
X162859990Y-106992589D01*
X162697475Y-106749368D01*
X162490632Y-106542525D01*
X162247411Y-106380010D01*
X161977158Y-106268068D01*
X161690260Y-106211000D01*
X161397740Y-106211000D01*
X161110842Y-106268068D01*
X160840589Y-106380010D01*
X160597368Y-106542525D01*
X160465513Y-106674380D01*
X160443502Y-106601820D01*
X160384537Y-106491506D01*
X160305185Y-106394815D01*
X160208494Y-106315463D01*
X160098180Y-106256498D01*
X159978482Y-106220188D01*
X159854000Y-106207928D01*
X159289750Y-106211000D01*
X159131000Y-106369750D01*
X158877000Y-106369750D01*
X158718250Y-106211000D01*
X158154000Y-106207928D01*
X158029518Y-106220188D01*
X157909820Y-106256498D01*
X157799506Y-106315463D01*
X157702815Y-106394815D01*
X157623463Y-106491506D01*
X157564498Y-106601820D01*
X157528188Y-106721518D01*
X157515928Y-106846000D01*
X144940072Y-106846000D01*
X144940072Y-106650000D01*
X144927812Y-106525518D01*
X144891502Y-106405820D01*
X144832537Y-106295506D01*
X144753185Y-106198815D01*
X144656494Y-106119463D01*
X144546180Y-106060498D01*
X144426482Y-106024188D01*
X144302000Y-106011928D01*
X141702000Y-106011928D01*
X141577518Y-106024188D01*
X141457820Y-106060498D01*
X141347506Y-106119463D01*
X141250815Y-106198815D01*
X141171463Y-106295506D01*
X141112498Y-106405820D01*
X141076188Y-106525518D01*
X141063928Y-106650000D01*
X129198504Y-106650000D01*
X128995491Y-106446987D01*
X128678566Y-106235225D01*
X128326419Y-106089361D01*
X127952581Y-106015000D01*
X127571419Y-106015000D01*
X127197581Y-106089361D01*
X126845434Y-106235225D01*
X126528509Y-106446987D01*
X126258987Y-106716509D01*
X126047225Y-107033434D01*
X125901361Y-107385581D01*
X125827000Y-107759419D01*
X125264504Y-107759419D01*
X125308116Y-102220665D01*
X167729000Y-102220665D01*
X167729000Y-102503335D01*
X167784147Y-102780574D01*
X167892320Y-103041727D01*
X168049363Y-103276759D01*
X168249241Y-103476637D01*
X168484273Y-103633680D01*
X168745426Y-103741853D01*
X169022665Y-103797000D01*
X169305335Y-103797000D01*
X169582574Y-103741853D01*
X169843727Y-103633680D01*
X170078759Y-103476637D01*
X170278637Y-103276759D01*
X170435680Y-103041727D01*
X170543853Y-102780574D01*
X170599000Y-102503335D01*
X170599000Y-102220665D01*
X172555000Y-102220665D01*
X172555000Y-102503335D01*
X172610147Y-102780574D01*
X172718320Y-103041727D01*
X172875363Y-103276759D01*
X173075241Y-103476637D01*
X173310273Y-103633680D01*
X173571426Y-103741853D01*
X173848665Y-103797000D01*
X174131335Y-103797000D01*
X174408574Y-103741853D01*
X174669727Y-103633680D01*
X174904759Y-103476637D01*
X175104637Y-103276759D01*
X175261680Y-103041727D01*
X175369853Y-102780574D01*
X175425000Y-102503335D01*
X175425000Y-102220665D01*
X175369853Y-101943426D01*
X175261680Y-101682273D01*
X175104637Y-101447241D01*
X174904759Y-101247363D01*
X174669727Y-101090320D01*
X174408574Y-100982147D01*
X174131335Y-100927000D01*
X173848665Y-100927000D01*
X173571426Y-100982147D01*
X173310273Y-101090320D01*
X173075241Y-101247363D01*
X172875363Y-101447241D01*
X172718320Y-101682273D01*
X172610147Y-101943426D01*
X172555000Y-102220665D01*
X170599000Y-102220665D01*
X170543853Y-101943426D01*
X170435680Y-101682273D01*
X170278637Y-101447241D01*
X170078759Y-101247363D01*
X169843727Y-101090320D01*
X169582574Y-100982147D01*
X169305335Y-100927000D01*
X169022665Y-100927000D01*
X168745426Y-100982147D01*
X168484273Y-101090320D01*
X168249241Y-101247363D01*
X168049363Y-101447241D01*
X167892320Y-101682273D01*
X167784147Y-101943426D01*
X167729000Y-102220665D01*
X125308116Y-102220665D01*
X125323181Y-100307519D01*
X125398337Y-100419998D01*
X125640002Y-100661663D01*
X125924169Y-100851537D01*
X126239919Y-100982325D01*
X126575117Y-101049000D01*
X126916883Y-101049000D01*
X127252081Y-100982325D01*
X127567831Y-100851537D01*
X127851998Y-100661663D01*
X128093663Y-100419998D01*
X128283537Y-100135831D01*
X128414325Y-99820081D01*
X128431447Y-99734000D01*
X131099928Y-99734000D01*
X131099928Y-101434000D01*
X131112188Y-101558482D01*
X131148498Y-101678180D01*
X131207463Y-101788494D01*
X131286815Y-101885185D01*
X131383506Y-101964537D01*
X131493820Y-102023502D01*
X131613518Y-102059812D01*
X131738000Y-102072072D01*
X133438000Y-102072072D01*
X133562482Y-102059812D01*
X133682180Y-102023502D01*
X133792494Y-101964537D01*
X133889185Y-101885185D01*
X133968537Y-101788494D01*
X134027502Y-101678180D01*
X134049513Y-101605620D01*
X134181368Y-101737475D01*
X134424589Y-101899990D01*
X134694842Y-102011932D01*
X134981740Y-102069000D01*
X135274260Y-102069000D01*
X135561158Y-102011932D01*
X135831411Y-101899990D01*
X136074632Y-101737475D01*
X136281475Y-101530632D01*
X136443990Y-101287411D01*
X136555932Y-101017158D01*
X136613000Y-100730260D01*
X136613000Y-100437740D01*
X136555932Y-100150842D01*
X136443990Y-99880589D01*
X136281475Y-99637368D01*
X136074632Y-99430525D01*
X135831411Y-99268010D01*
X135561158Y-99156068D01*
X135496050Y-99143117D01*
X188511000Y-99143117D01*
X188511000Y-99484883D01*
X188577675Y-99820081D01*
X188708463Y-100135831D01*
X188898337Y-100419998D01*
X189140002Y-100661663D01*
X189424169Y-100851537D01*
X189739919Y-100982325D01*
X190075117Y-101049000D01*
X190416883Y-101049000D01*
X190752081Y-100982325D01*
X191067831Y-100851537D01*
X191351998Y-100661663D01*
X191593663Y-100419998D01*
X191783537Y-100135831D01*
X191914325Y-99820081D01*
X191981000Y-99484883D01*
X191981000Y-99143117D01*
X191914325Y-98807919D01*
X191783537Y-98492169D01*
X191593663Y-98208002D01*
X191351998Y-97966337D01*
X191067831Y-97776463D01*
X190752081Y-97645675D01*
X190416883Y-97579000D01*
X190075117Y-97579000D01*
X189739919Y-97645675D01*
X189424169Y-97776463D01*
X189140002Y-97966337D01*
X188898337Y-98208002D01*
X188708463Y-98492169D01*
X188577675Y-98807919D01*
X188511000Y-99143117D01*
X135496050Y-99143117D01*
X135274260Y-99099000D01*
X134981740Y-99099000D01*
X134694842Y-99156068D01*
X134424589Y-99268010D01*
X134181368Y-99430525D01*
X134049513Y-99562380D01*
X134027502Y-99489820D01*
X133968537Y-99379506D01*
X133889185Y-99282815D01*
X133792494Y-99203463D01*
X133682180Y-99144498D01*
X133562482Y-99108188D01*
X133438000Y-99095928D01*
X131738000Y-99095928D01*
X131613518Y-99108188D01*
X131493820Y-99144498D01*
X131383506Y-99203463D01*
X131286815Y-99282815D01*
X131207463Y-99379506D01*
X131148498Y-99489820D01*
X131112188Y-99609518D01*
X131099928Y-99734000D01*
X128431447Y-99734000D01*
X128481000Y-99484883D01*
X128481000Y-99143117D01*
X128414325Y-98807919D01*
X128283537Y-98492169D01*
X128093663Y-98208002D01*
X127851998Y-97966337D01*
X127567831Y-97776463D01*
X127252081Y-97645675D01*
X126916883Y-97579000D01*
X126575117Y-97579000D01*
X126239919Y-97645675D01*
X125924169Y-97776463D01*
X125640002Y-97966337D01*
X125398337Y-98208002D01*
X125339014Y-98296786D01*
X125347807Y-97180000D01*
X192657799Y-97180000D01*
X192405996Y-129159000D01*
M02*
