G04 #@! TF.GenerationSoftware,KiCad,Pcbnew,5.1.5-52549c5~84~ubuntu18.04.1*
G04 #@! TF.CreationDate,2020-04-29T13:09:13+01:00*
G04 #@! TF.ProjectId,etl_driver_pcb,65746c5f-6472-4697-9665-725f7063622e,rev?*
G04 #@! TF.SameCoordinates,Original*
G04 #@! TF.FileFunction,Soldermask,Bot*
G04 #@! TF.FilePolarity,Negative*
%FSLAX46Y46*%
G04 Gerber Fmt 4.6, Leading zero omitted, Abs format (unit mm)*
G04 Created by KiCad (PCBNEW 5.1.5-52549c5~84~ubuntu18.04.1) date 2020-04-29 13:09:13*
%MOMM*%
%LPD*%
G04 APERTURE LIST*
%ADD10C,0.100000*%
G04 APERTURE END LIST*
D10*
G36*
X190470549Y-126125116D02*
G01*
X190581734Y-126147232D01*
X190729850Y-126208584D01*
X190767158Y-126224037D01*
X190791203Y-126233997D01*
X190979720Y-126359960D01*
X191140040Y-126520280D01*
X191266003Y-126708797D01*
X191352768Y-126918266D01*
X191397000Y-127140636D01*
X191397000Y-127367364D01*
X191352768Y-127589734D01*
X191266003Y-127799203D01*
X191140040Y-127987720D01*
X190979720Y-128148040D01*
X190791203Y-128274003D01*
X190581734Y-128360768D01*
X190470549Y-128382884D01*
X190359365Y-128405000D01*
X190132635Y-128405000D01*
X190021451Y-128382884D01*
X189910266Y-128360768D01*
X189700797Y-128274003D01*
X189512280Y-128148040D01*
X189351960Y-127987720D01*
X189225997Y-127799203D01*
X189139232Y-127589734D01*
X189095000Y-127367364D01*
X189095000Y-127140636D01*
X189139232Y-126918266D01*
X189225997Y-126708797D01*
X189351960Y-126520280D01*
X189512280Y-126359960D01*
X189700797Y-126233997D01*
X189724843Y-126224037D01*
X189762150Y-126208584D01*
X189910266Y-126147232D01*
X190021451Y-126125116D01*
X190132635Y-126103000D01*
X190359365Y-126103000D01*
X190470549Y-126125116D01*
G37*
G36*
X126970549Y-126125116D02*
G01*
X127081734Y-126147232D01*
X127229850Y-126208584D01*
X127267158Y-126224037D01*
X127291203Y-126233997D01*
X127479720Y-126359960D01*
X127640040Y-126520280D01*
X127766003Y-126708797D01*
X127852768Y-126918266D01*
X127897000Y-127140636D01*
X127897000Y-127367364D01*
X127852768Y-127589734D01*
X127766003Y-127799203D01*
X127640040Y-127987720D01*
X127479720Y-128148040D01*
X127291203Y-128274003D01*
X127081734Y-128360768D01*
X126970549Y-128382884D01*
X126859365Y-128405000D01*
X126632635Y-128405000D01*
X126521451Y-128382884D01*
X126410266Y-128360768D01*
X126200797Y-128274003D01*
X126012280Y-128148040D01*
X125851960Y-127987720D01*
X125725997Y-127799203D01*
X125639232Y-127589734D01*
X125595000Y-127367364D01*
X125595000Y-127140636D01*
X125639232Y-126918266D01*
X125725997Y-126708797D01*
X125851960Y-126520280D01*
X126012280Y-126359960D01*
X126200797Y-126233997D01*
X126224843Y-126224037D01*
X126262150Y-126208584D01*
X126410266Y-126147232D01*
X126521451Y-126125116D01*
X126632635Y-126103000D01*
X126859365Y-126103000D01*
X126970549Y-126125116D01*
G37*
G36*
X179005000Y-127951000D02*
G01*
X177103000Y-127951000D01*
X177103000Y-126049000D01*
X179005000Y-126049000D01*
X179005000Y-127951000D01*
G37*
G36*
X130794205Y-123944461D02*
G01*
X130912153Y-123967922D01*
X131004194Y-124006047D01*
X131134359Y-124059963D01*
X131334342Y-124193587D01*
X131504413Y-124363658D01*
X131638037Y-124563641D01*
X131665600Y-124630184D01*
X131730078Y-124785847D01*
X131777000Y-125021742D01*
X131777000Y-125262258D01*
X131736047Y-125468147D01*
X131730078Y-125498152D01*
X131638037Y-125720359D01*
X131504413Y-125920342D01*
X131334342Y-126090413D01*
X131134359Y-126224037D01*
X131004194Y-126277953D01*
X130912153Y-126316078D01*
X130794205Y-126339539D01*
X130676259Y-126363000D01*
X130435741Y-126363000D01*
X130317795Y-126339539D01*
X130199847Y-126316078D01*
X130107806Y-126277953D01*
X129977641Y-126224037D01*
X129777658Y-126090413D01*
X129607587Y-125920342D01*
X129473963Y-125720359D01*
X129381922Y-125498152D01*
X129375954Y-125468147D01*
X129335000Y-125262258D01*
X129335000Y-125021742D01*
X129381922Y-124785847D01*
X129446400Y-124630184D01*
X129473963Y-124563641D01*
X129607587Y-124363658D01*
X129777658Y-124193587D01*
X129977641Y-124059963D01*
X130107806Y-124006047D01*
X130199847Y-123967922D01*
X130317795Y-123944461D01*
X130435741Y-123921000D01*
X130676259Y-123921000D01*
X130794205Y-123944461D01*
G37*
G36*
X143758228Y-123895703D02*
G01*
X143913100Y-123959853D01*
X144052481Y-124052985D01*
X144171015Y-124171519D01*
X144264147Y-124310900D01*
X144328297Y-124465772D01*
X144361000Y-124630184D01*
X144361000Y-124797816D01*
X144328297Y-124962228D01*
X144264147Y-125117100D01*
X144171015Y-125256481D01*
X144052481Y-125375015D01*
X143913100Y-125468147D01*
X143758228Y-125532297D01*
X143593816Y-125565000D01*
X143426184Y-125565000D01*
X143261772Y-125532297D01*
X143106900Y-125468147D01*
X142967519Y-125375015D01*
X142848985Y-125256481D01*
X142755853Y-125117100D01*
X142691703Y-124962228D01*
X142659000Y-124797816D01*
X142659000Y-124630184D01*
X142691703Y-124465772D01*
X142755853Y-124310900D01*
X142848985Y-124171519D01*
X142967519Y-124052985D01*
X143106900Y-123959853D01*
X143261772Y-123895703D01*
X143426184Y-123863000D01*
X143593816Y-123863000D01*
X143758228Y-123895703D01*
G37*
G36*
X151378228Y-123895703D02*
G01*
X151533100Y-123959853D01*
X151672481Y-124052985D01*
X151791015Y-124171519D01*
X151884147Y-124310900D01*
X151948297Y-124465772D01*
X151981000Y-124630184D01*
X151981000Y-124797816D01*
X151948297Y-124962228D01*
X151884147Y-125117100D01*
X151791015Y-125256481D01*
X151672481Y-125375015D01*
X151533100Y-125468147D01*
X151378228Y-125532297D01*
X151213816Y-125565000D01*
X151046184Y-125565000D01*
X150881772Y-125532297D01*
X150726900Y-125468147D01*
X150587519Y-125375015D01*
X150468985Y-125256481D01*
X150375853Y-125117100D01*
X150311703Y-124962228D01*
X150279000Y-124797816D01*
X150279000Y-124630184D01*
X150311703Y-124465772D01*
X150375853Y-124310900D01*
X150468985Y-124171519D01*
X150587519Y-124052985D01*
X150726900Y-123959853D01*
X150881772Y-123895703D01*
X151046184Y-123863000D01*
X151213816Y-123863000D01*
X151378228Y-123895703D01*
G37*
G36*
X178331395Y-123545546D02*
G01*
X178504466Y-123617234D01*
X178504467Y-123617235D01*
X178660227Y-123721310D01*
X178792690Y-123853773D01*
X178820708Y-123895705D01*
X178896766Y-124009534D01*
X178968454Y-124182605D01*
X179005000Y-124366333D01*
X179005000Y-124553667D01*
X178968454Y-124737395D01*
X178896766Y-124910466D01*
X178896765Y-124910467D01*
X178792690Y-125066227D01*
X178660227Y-125198690D01*
X178581818Y-125251081D01*
X178504466Y-125302766D01*
X178331395Y-125374454D01*
X178147667Y-125411000D01*
X177960333Y-125411000D01*
X177776605Y-125374454D01*
X177603534Y-125302766D01*
X177526182Y-125251081D01*
X177447773Y-125198690D01*
X177315310Y-125066227D01*
X177211235Y-124910467D01*
X177211234Y-124910466D01*
X177139546Y-124737395D01*
X177103000Y-124553667D01*
X177103000Y-124366333D01*
X177139546Y-124182605D01*
X177211234Y-124009534D01*
X177287292Y-123895705D01*
X177315310Y-123853773D01*
X177447773Y-123721310D01*
X177603533Y-123617235D01*
X177603534Y-123617234D01*
X177776605Y-123545546D01*
X177960333Y-123509000D01*
X178147667Y-123509000D01*
X178331395Y-123545546D01*
G37*
G36*
X134594205Y-121444461D02*
G01*
X134712153Y-121467922D01*
X134804194Y-121506047D01*
X134934359Y-121559963D01*
X135134342Y-121693587D01*
X135304413Y-121863658D01*
X135438037Y-122063641D01*
X135481358Y-122168228D01*
X135518467Y-122257815D01*
X135530078Y-122285848D01*
X135577000Y-122521741D01*
X135577000Y-122762259D01*
X135562528Y-122835015D01*
X135530078Y-122998153D01*
X135491953Y-123090194D01*
X135438037Y-123220359D01*
X135304413Y-123420342D01*
X135134342Y-123590413D01*
X134934359Y-123724037D01*
X134804194Y-123777953D01*
X134712153Y-123816078D01*
X134476259Y-123863000D01*
X134235741Y-123863000D01*
X133999847Y-123816078D01*
X133907806Y-123777953D01*
X133777641Y-123724037D01*
X133577658Y-123590413D01*
X133407587Y-123420342D01*
X133273963Y-123220359D01*
X133220047Y-123090194D01*
X133181922Y-122998153D01*
X133149472Y-122835015D01*
X133135000Y-122762259D01*
X133135000Y-122521741D01*
X133181922Y-122285848D01*
X133193534Y-122257815D01*
X133230642Y-122168228D01*
X133273963Y-122063641D01*
X133407587Y-121863658D01*
X133577658Y-121693587D01*
X133777641Y-121559963D01*
X133907806Y-121506047D01*
X133999847Y-121467922D01*
X134117795Y-121444461D01*
X134235741Y-121421000D01*
X134476259Y-121421000D01*
X134594205Y-121444461D01*
G37*
G36*
X151378228Y-121355703D02*
G01*
X151533100Y-121419853D01*
X151672481Y-121512985D01*
X151791015Y-121631519D01*
X151884147Y-121770900D01*
X151948297Y-121925772D01*
X151981000Y-122090184D01*
X151981000Y-122257816D01*
X151948297Y-122422228D01*
X151884147Y-122577100D01*
X151791015Y-122716481D01*
X151672481Y-122835015D01*
X151533100Y-122928147D01*
X151378228Y-122992297D01*
X151213816Y-123025000D01*
X151046184Y-123025000D01*
X150881772Y-122992297D01*
X150726900Y-122928147D01*
X150587519Y-122835015D01*
X150468985Y-122716481D01*
X150375853Y-122577100D01*
X150311703Y-122422228D01*
X150279000Y-122257816D01*
X150279000Y-122090184D01*
X150311703Y-121925772D01*
X150375853Y-121770900D01*
X150468985Y-121631519D01*
X150587519Y-121512985D01*
X150726900Y-121419853D01*
X150881772Y-121355703D01*
X151046184Y-121323000D01*
X151213816Y-121323000D01*
X151378228Y-121355703D01*
G37*
G36*
X143758228Y-121355703D02*
G01*
X143913100Y-121419853D01*
X144052481Y-121512985D01*
X144171015Y-121631519D01*
X144264147Y-121770900D01*
X144328297Y-121925772D01*
X144361000Y-122090184D01*
X144361000Y-122257816D01*
X144328297Y-122422228D01*
X144264147Y-122577100D01*
X144171015Y-122716481D01*
X144052481Y-122835015D01*
X143913100Y-122928147D01*
X143758228Y-122992297D01*
X143593816Y-123025000D01*
X143426184Y-123025000D01*
X143261772Y-122992297D01*
X143106900Y-122928147D01*
X142967519Y-122835015D01*
X142848985Y-122716481D01*
X142755853Y-122577100D01*
X142691703Y-122422228D01*
X142659000Y-122257816D01*
X142659000Y-122090184D01*
X142691703Y-121925772D01*
X142755853Y-121770900D01*
X142848985Y-121631519D01*
X142967519Y-121512985D01*
X143106900Y-121419853D01*
X143261772Y-121355703D01*
X143426184Y-121323000D01*
X143593816Y-121323000D01*
X143758228Y-121355703D01*
G37*
G36*
X178331395Y-121005546D02*
G01*
X178504466Y-121077234D01*
X178541086Y-121101703D01*
X178660227Y-121181310D01*
X178792690Y-121313773D01*
X178835284Y-121377520D01*
X178896766Y-121469534D01*
X178968454Y-121642605D01*
X179005000Y-121826333D01*
X179005000Y-122013667D01*
X178968454Y-122197395D01*
X178896766Y-122370466D01*
X178896765Y-122370467D01*
X178792690Y-122526227D01*
X178660227Y-122658690D01*
X178637092Y-122674148D01*
X178504466Y-122762766D01*
X178331395Y-122834454D01*
X178147667Y-122871000D01*
X177960333Y-122871000D01*
X177776605Y-122834454D01*
X177603534Y-122762766D01*
X177470908Y-122674148D01*
X177447773Y-122658690D01*
X177315310Y-122526227D01*
X177211235Y-122370467D01*
X177211234Y-122370466D01*
X177139546Y-122197395D01*
X177103000Y-122013667D01*
X177103000Y-121826333D01*
X177139546Y-121642605D01*
X177211234Y-121469534D01*
X177272716Y-121377520D01*
X177315310Y-121313773D01*
X177447773Y-121181310D01*
X177566914Y-121101703D01*
X177603534Y-121077234D01*
X177776605Y-121005546D01*
X177960333Y-120969000D01*
X178147667Y-120969000D01*
X178331395Y-121005546D01*
G37*
G36*
X169158228Y-121101703D02*
G01*
X169313100Y-121165853D01*
X169452481Y-121258985D01*
X169571015Y-121377519D01*
X169664147Y-121516900D01*
X169728297Y-121671772D01*
X169761000Y-121836184D01*
X169761000Y-122003816D01*
X169728297Y-122168228D01*
X169664147Y-122323100D01*
X169571015Y-122462481D01*
X169452481Y-122581015D01*
X169313100Y-122674147D01*
X169158228Y-122738297D01*
X168993816Y-122771000D01*
X168826184Y-122771000D01*
X168661772Y-122738297D01*
X168506900Y-122674147D01*
X168367519Y-122581015D01*
X168248985Y-122462481D01*
X168155853Y-122323100D01*
X168091703Y-122168228D01*
X168059000Y-122003816D01*
X168059000Y-121836184D01*
X168091703Y-121671772D01*
X168155853Y-121516900D01*
X168248985Y-121377519D01*
X168367519Y-121258985D01*
X168506900Y-121165853D01*
X168661772Y-121101703D01*
X168826184Y-121069000D01*
X168993816Y-121069000D01*
X169158228Y-121101703D01*
G37*
G36*
X158998228Y-121101703D02*
G01*
X159153100Y-121165853D01*
X159292481Y-121258985D01*
X159411015Y-121377519D01*
X159504147Y-121516900D01*
X159568297Y-121671772D01*
X159601000Y-121836184D01*
X159601000Y-122003816D01*
X159568297Y-122168228D01*
X159504147Y-122323100D01*
X159411015Y-122462481D01*
X159292481Y-122581015D01*
X159153100Y-122674147D01*
X158998228Y-122738297D01*
X158833816Y-122771000D01*
X158666184Y-122771000D01*
X158501772Y-122738297D01*
X158346900Y-122674147D01*
X158207519Y-122581015D01*
X158088985Y-122462481D01*
X157995853Y-122323100D01*
X157931703Y-122168228D01*
X157899000Y-122003816D01*
X157899000Y-121836184D01*
X157931703Y-121671772D01*
X157995853Y-121516900D01*
X158088985Y-121377519D01*
X158207519Y-121258985D01*
X158346900Y-121165853D01*
X158501772Y-121101703D01*
X158666184Y-121069000D01*
X158833816Y-121069000D01*
X158998228Y-121101703D01*
G37*
G36*
X130794205Y-118944461D02*
G01*
X130912153Y-118967922D01*
X131004194Y-119006047D01*
X131134359Y-119059963D01*
X131334342Y-119193587D01*
X131504413Y-119363658D01*
X131638037Y-119563641D01*
X131730078Y-119785848D01*
X131777000Y-120021741D01*
X131777000Y-120262259D01*
X131730078Y-120498152D01*
X131638037Y-120720359D01*
X131504413Y-120920342D01*
X131334342Y-121090413D01*
X131134359Y-121224037D01*
X131004194Y-121277953D01*
X130912153Y-121316078D01*
X130877353Y-121323000D01*
X130676259Y-121363000D01*
X130435741Y-121363000D01*
X130234647Y-121323000D01*
X130199847Y-121316078D01*
X130107806Y-121277953D01*
X129977641Y-121224037D01*
X129777658Y-121090413D01*
X129607587Y-120920342D01*
X129473963Y-120720359D01*
X129381922Y-120498152D01*
X129335000Y-120262259D01*
X129335000Y-120021741D01*
X129381922Y-119785848D01*
X129473963Y-119563641D01*
X129607587Y-119363658D01*
X129777658Y-119193587D01*
X129977641Y-119059963D01*
X130107806Y-119006047D01*
X130199847Y-118967922D01*
X130317795Y-118944461D01*
X130435741Y-118921000D01*
X130676259Y-118921000D01*
X130794205Y-118944461D01*
G37*
G36*
X151378228Y-118815703D02*
G01*
X151533100Y-118879853D01*
X151672481Y-118972985D01*
X151791015Y-119091519D01*
X151884147Y-119230900D01*
X151948297Y-119385772D01*
X151981000Y-119550184D01*
X151981000Y-119717816D01*
X151948297Y-119882228D01*
X151884147Y-120037100D01*
X151791015Y-120176481D01*
X151672481Y-120295015D01*
X151533100Y-120388147D01*
X151378228Y-120452297D01*
X151213816Y-120485000D01*
X151046184Y-120485000D01*
X150881772Y-120452297D01*
X150726900Y-120388147D01*
X150587519Y-120295015D01*
X150468985Y-120176481D01*
X150375853Y-120037100D01*
X150311703Y-119882228D01*
X150279000Y-119717816D01*
X150279000Y-119550184D01*
X150311703Y-119385772D01*
X150375853Y-119230900D01*
X150468985Y-119091519D01*
X150587519Y-118972985D01*
X150726900Y-118879853D01*
X150881772Y-118815703D01*
X151046184Y-118783000D01*
X151213816Y-118783000D01*
X151378228Y-118815703D01*
G37*
G36*
X143758228Y-118815703D02*
G01*
X143913100Y-118879853D01*
X144052481Y-118972985D01*
X144171015Y-119091519D01*
X144264147Y-119230900D01*
X144328297Y-119385772D01*
X144361000Y-119550184D01*
X144361000Y-119717816D01*
X144328297Y-119882228D01*
X144264147Y-120037100D01*
X144171015Y-120176481D01*
X144052481Y-120295015D01*
X143913100Y-120388147D01*
X143758228Y-120452297D01*
X143593816Y-120485000D01*
X143426184Y-120485000D01*
X143261772Y-120452297D01*
X143106900Y-120388147D01*
X142967519Y-120295015D01*
X142848985Y-120176481D01*
X142755853Y-120037100D01*
X142691703Y-119882228D01*
X142659000Y-119717816D01*
X142659000Y-119550184D01*
X142691703Y-119385772D01*
X142755853Y-119230900D01*
X142848985Y-119091519D01*
X142967519Y-118972985D01*
X143106900Y-118879853D01*
X143261772Y-118815703D01*
X143426184Y-118783000D01*
X143593816Y-118783000D01*
X143758228Y-118815703D01*
G37*
G36*
X144361000Y-117945000D02*
G01*
X142659000Y-117945000D01*
X142659000Y-116243000D01*
X144361000Y-116243000D01*
X144361000Y-117945000D01*
G37*
G36*
X151378228Y-116275703D02*
G01*
X151533100Y-116339853D01*
X151672481Y-116432985D01*
X151791015Y-116551519D01*
X151884147Y-116690900D01*
X151948297Y-116845772D01*
X151981000Y-117010184D01*
X151981000Y-117177816D01*
X151948297Y-117342228D01*
X151884147Y-117497100D01*
X151791015Y-117636481D01*
X151672481Y-117755015D01*
X151533100Y-117848147D01*
X151378228Y-117912297D01*
X151213816Y-117945000D01*
X151046184Y-117945000D01*
X150881772Y-117912297D01*
X150726900Y-117848147D01*
X150587519Y-117755015D01*
X150468985Y-117636481D01*
X150375853Y-117497100D01*
X150311703Y-117342228D01*
X150279000Y-117177816D01*
X150279000Y-117010184D01*
X150311703Y-116845772D01*
X150375853Y-116690900D01*
X150468985Y-116551519D01*
X150587519Y-116432985D01*
X150726900Y-116339853D01*
X150881772Y-116275703D01*
X151046184Y-116243000D01*
X151213816Y-116243000D01*
X151378228Y-116275703D01*
G37*
G36*
X188835512Y-112895927D02*
G01*
X188984812Y-112925624D01*
X189148784Y-112993544D01*
X189296354Y-113092147D01*
X189421853Y-113217646D01*
X189520456Y-113365216D01*
X189588376Y-113529188D01*
X189623000Y-113703259D01*
X189623000Y-113880741D01*
X189588376Y-114054812D01*
X189520456Y-114218784D01*
X189421853Y-114366354D01*
X189296354Y-114491853D01*
X189148784Y-114590456D01*
X188984812Y-114658376D01*
X188835512Y-114688073D01*
X188810742Y-114693000D01*
X188633258Y-114693000D01*
X188608488Y-114688073D01*
X188459188Y-114658376D01*
X188295216Y-114590456D01*
X188147646Y-114491853D01*
X188022147Y-114366354D01*
X187923544Y-114218784D01*
X187855624Y-114054812D01*
X187821000Y-113880741D01*
X187821000Y-113703259D01*
X187855624Y-113529188D01*
X187923544Y-113365216D01*
X188022147Y-113217646D01*
X188147646Y-113092147D01*
X188295216Y-112993544D01*
X188459188Y-112925624D01*
X188608488Y-112895927D01*
X188633258Y-112891000D01*
X188810742Y-112891000D01*
X188835512Y-112895927D01*
G37*
G36*
X128772228Y-112719703D02*
G01*
X128927100Y-112783853D01*
X129066481Y-112876985D01*
X129185015Y-112995519D01*
X129278147Y-113134900D01*
X129342297Y-113289772D01*
X129375000Y-113454184D01*
X129375000Y-113621816D01*
X129342297Y-113786228D01*
X129278147Y-113941100D01*
X129185015Y-114080481D01*
X129066481Y-114199015D01*
X128927100Y-114292147D01*
X128772228Y-114356297D01*
X128607816Y-114389000D01*
X128440184Y-114389000D01*
X128275772Y-114356297D01*
X128120900Y-114292147D01*
X127981519Y-114199015D01*
X127862985Y-114080481D01*
X127769853Y-113941100D01*
X127705703Y-113786228D01*
X127673000Y-113621816D01*
X127673000Y-113454184D01*
X127705703Y-113289772D01*
X127769853Y-113134900D01*
X127862985Y-112995519D01*
X127981519Y-112876985D01*
X128120900Y-112783853D01*
X128275772Y-112719703D01*
X128440184Y-112687000D01*
X128607816Y-112687000D01*
X128772228Y-112719703D01*
G37*
G36*
X138932228Y-112719703D02*
G01*
X139087100Y-112783853D01*
X139226481Y-112876985D01*
X139345015Y-112995519D01*
X139438147Y-113134900D01*
X139502297Y-113289772D01*
X139535000Y-113454184D01*
X139535000Y-113621816D01*
X139502297Y-113786228D01*
X139438147Y-113941100D01*
X139345015Y-114080481D01*
X139226481Y-114199015D01*
X139087100Y-114292147D01*
X138932228Y-114356297D01*
X138767816Y-114389000D01*
X138600184Y-114389000D01*
X138435772Y-114356297D01*
X138280900Y-114292147D01*
X138141519Y-114199015D01*
X138022985Y-114080481D01*
X137929853Y-113941100D01*
X137865703Y-113786228D01*
X137833000Y-113621816D01*
X137833000Y-113454184D01*
X137865703Y-113289772D01*
X137929853Y-113134900D01*
X138022985Y-112995519D01*
X138141519Y-112876985D01*
X138280900Y-112783853D01*
X138435772Y-112719703D01*
X138600184Y-112687000D01*
X138767816Y-112687000D01*
X138932228Y-112719703D01*
G37*
G36*
X169412228Y-111703703D02*
G01*
X169567100Y-111767853D01*
X169706481Y-111860985D01*
X169825015Y-111979519D01*
X169918147Y-112118900D01*
X169982297Y-112273772D01*
X170015000Y-112438184D01*
X170015000Y-112605816D01*
X169982297Y-112770228D01*
X169918147Y-112925100D01*
X169825015Y-113064481D01*
X169706481Y-113183015D01*
X169567100Y-113276147D01*
X169412228Y-113340297D01*
X169247816Y-113373000D01*
X169080184Y-113373000D01*
X168915772Y-113340297D01*
X168760900Y-113276147D01*
X168621519Y-113183015D01*
X168502985Y-113064481D01*
X168409853Y-112925100D01*
X168345703Y-112770228D01*
X168313000Y-112605816D01*
X168313000Y-112438184D01*
X168345703Y-112273772D01*
X168409853Y-112118900D01*
X168502985Y-111979519D01*
X168621519Y-111860985D01*
X168760900Y-111767853D01*
X168915772Y-111703703D01*
X169080184Y-111671000D01*
X169247816Y-111671000D01*
X169412228Y-111703703D01*
G37*
G36*
X174238228Y-111703703D02*
G01*
X174393100Y-111767853D01*
X174532481Y-111860985D01*
X174651015Y-111979519D01*
X174744147Y-112118900D01*
X174808297Y-112273772D01*
X174841000Y-112438184D01*
X174841000Y-112605816D01*
X174808297Y-112770228D01*
X174744147Y-112925100D01*
X174651015Y-113064481D01*
X174532481Y-113183015D01*
X174393100Y-113276147D01*
X174238228Y-113340297D01*
X174073816Y-113373000D01*
X173906184Y-113373000D01*
X173741772Y-113340297D01*
X173586900Y-113276147D01*
X173447519Y-113183015D01*
X173328985Y-113064481D01*
X173235853Y-112925100D01*
X173171703Y-112770228D01*
X173139000Y-112605816D01*
X173139000Y-112438184D01*
X173171703Y-112273772D01*
X173235853Y-112118900D01*
X173328985Y-111979519D01*
X173447519Y-111860985D01*
X173586900Y-111767853D01*
X173741772Y-111703703D01*
X173906184Y-111671000D01*
X174073816Y-111671000D01*
X174238228Y-111703703D01*
G37*
G36*
X189623000Y-112153000D02*
G01*
X187821000Y-112153000D01*
X187821000Y-110351000D01*
X189623000Y-110351000D01*
X189623000Y-112153000D01*
G37*
G36*
X144353000Y-109301000D02*
G01*
X141651000Y-109301000D01*
X141651000Y-106599000D01*
X144353000Y-106599000D01*
X144353000Y-109301000D01*
G37*
G36*
X128156072Y-106650918D02*
G01*
X128401939Y-106752759D01*
X128513328Y-106827187D01*
X128618624Y-106897544D01*
X128623212Y-106900610D01*
X128811390Y-107088788D01*
X128959241Y-107310061D01*
X129061082Y-107555928D01*
X129113000Y-107816938D01*
X129113000Y-108083062D01*
X129061082Y-108344072D01*
X128959241Y-108589939D01*
X128811390Y-108811212D01*
X128623212Y-108999390D01*
X128401939Y-109147241D01*
X128401938Y-109147242D01*
X128401937Y-109147242D01*
X128156072Y-109249082D01*
X127895063Y-109301000D01*
X127628937Y-109301000D01*
X127367928Y-109249082D01*
X127122063Y-109147242D01*
X127122062Y-109147242D01*
X127122061Y-109147241D01*
X126900788Y-108999390D01*
X126712610Y-108811212D01*
X126564759Y-108589939D01*
X126462918Y-108344072D01*
X126411000Y-108083062D01*
X126411000Y-107816938D01*
X126462918Y-107555928D01*
X126564759Y-107310061D01*
X126712610Y-107088788D01*
X126900788Y-106900610D01*
X126905377Y-106897544D01*
X127010672Y-106827187D01*
X127122061Y-106752759D01*
X127367928Y-106650918D01*
X127628937Y-106599000D01*
X127895063Y-106599000D01*
X128156072Y-106650918D01*
G37*
G36*
X159905000Y-108597000D02*
G01*
X158103000Y-108597000D01*
X158103000Y-106795000D01*
X159905000Y-106795000D01*
X159905000Y-108597000D01*
G37*
G36*
X161657512Y-106799927D02*
G01*
X161806812Y-106829624D01*
X161970784Y-106897544D01*
X162118354Y-106996147D01*
X162243853Y-107121646D01*
X162342456Y-107269216D01*
X162410376Y-107433188D01*
X162445000Y-107607259D01*
X162445000Y-107784741D01*
X162410376Y-107958812D01*
X162342456Y-108122784D01*
X162243853Y-108270354D01*
X162118354Y-108395853D01*
X161970784Y-108494456D01*
X161806812Y-108562376D01*
X161668250Y-108589937D01*
X161632742Y-108597000D01*
X161455258Y-108597000D01*
X161419750Y-108589937D01*
X161281188Y-108562376D01*
X161117216Y-108494456D01*
X160969646Y-108395853D01*
X160844147Y-108270354D01*
X160745544Y-108122784D01*
X160677624Y-107958812D01*
X160643000Y-107784741D01*
X160643000Y-107607259D01*
X160677624Y-107433188D01*
X160745544Y-107269216D01*
X160844147Y-107121646D01*
X160969646Y-106996147D01*
X161117216Y-106897544D01*
X161281188Y-106829624D01*
X161430488Y-106799927D01*
X161455258Y-106795000D01*
X161632742Y-106795000D01*
X161657512Y-106799927D01*
G37*
G36*
X174238228Y-101543703D02*
G01*
X174393100Y-101607853D01*
X174532481Y-101700985D01*
X174651015Y-101819519D01*
X174744147Y-101958900D01*
X174808297Y-102113772D01*
X174841000Y-102278184D01*
X174841000Y-102445816D01*
X174808297Y-102610228D01*
X174744147Y-102765100D01*
X174651015Y-102904481D01*
X174532481Y-103023015D01*
X174393100Y-103116147D01*
X174238228Y-103180297D01*
X174073816Y-103213000D01*
X173906184Y-103213000D01*
X173741772Y-103180297D01*
X173586900Y-103116147D01*
X173447519Y-103023015D01*
X173328985Y-102904481D01*
X173235853Y-102765100D01*
X173171703Y-102610228D01*
X173139000Y-102445816D01*
X173139000Y-102278184D01*
X173171703Y-102113772D01*
X173235853Y-101958900D01*
X173328985Y-101819519D01*
X173447519Y-101700985D01*
X173586900Y-101607853D01*
X173741772Y-101543703D01*
X173906184Y-101511000D01*
X174073816Y-101511000D01*
X174238228Y-101543703D01*
G37*
G36*
X169412228Y-101543703D02*
G01*
X169567100Y-101607853D01*
X169706481Y-101700985D01*
X169825015Y-101819519D01*
X169918147Y-101958900D01*
X169982297Y-102113772D01*
X170015000Y-102278184D01*
X170015000Y-102445816D01*
X169982297Y-102610228D01*
X169918147Y-102765100D01*
X169825015Y-102904481D01*
X169706481Y-103023015D01*
X169567100Y-103116147D01*
X169412228Y-103180297D01*
X169247816Y-103213000D01*
X169080184Y-103213000D01*
X168915772Y-103180297D01*
X168760900Y-103116147D01*
X168621519Y-103023015D01*
X168502985Y-102904481D01*
X168409853Y-102765100D01*
X168345703Y-102610228D01*
X168313000Y-102445816D01*
X168313000Y-102278184D01*
X168345703Y-102113772D01*
X168409853Y-101958900D01*
X168502985Y-101819519D01*
X168621519Y-101700985D01*
X168760900Y-101607853D01*
X168915772Y-101543703D01*
X169080184Y-101511000D01*
X169247816Y-101511000D01*
X169412228Y-101543703D01*
G37*
G36*
X133489000Y-101485000D02*
G01*
X131687000Y-101485000D01*
X131687000Y-99683000D01*
X133489000Y-99683000D01*
X133489000Y-101485000D01*
G37*
G36*
X135241512Y-99687927D02*
G01*
X135390812Y-99717624D01*
X135554784Y-99785544D01*
X135702354Y-99884147D01*
X135827853Y-100009646D01*
X135926456Y-100157216D01*
X135994376Y-100321188D01*
X136029000Y-100495259D01*
X136029000Y-100672741D01*
X135994376Y-100846812D01*
X135926456Y-101010784D01*
X135827853Y-101158354D01*
X135702354Y-101283853D01*
X135554784Y-101382456D01*
X135390812Y-101450376D01*
X135241512Y-101480073D01*
X135216742Y-101485000D01*
X135039258Y-101485000D01*
X135014488Y-101480073D01*
X134865188Y-101450376D01*
X134701216Y-101382456D01*
X134553646Y-101283853D01*
X134428147Y-101158354D01*
X134329544Y-101010784D01*
X134261624Y-100846812D01*
X134227000Y-100672741D01*
X134227000Y-100495259D01*
X134261624Y-100321188D01*
X134329544Y-100157216D01*
X134428147Y-100009646D01*
X134553646Y-99884147D01*
X134701216Y-99785544D01*
X134865188Y-99717624D01*
X135014488Y-99687927D01*
X135039258Y-99683000D01*
X135216742Y-99683000D01*
X135241512Y-99687927D01*
G37*
G36*
X126970549Y-98185116D02*
G01*
X127081734Y-98207232D01*
X127291203Y-98293997D01*
X127479720Y-98419960D01*
X127640040Y-98580280D01*
X127766003Y-98768797D01*
X127852768Y-98978266D01*
X127897000Y-99200636D01*
X127897000Y-99427364D01*
X127852768Y-99649734D01*
X127766003Y-99859203D01*
X127640040Y-100047720D01*
X127479720Y-100208040D01*
X127291203Y-100334003D01*
X127081734Y-100420768D01*
X126970549Y-100442884D01*
X126859365Y-100465000D01*
X126632635Y-100465000D01*
X126521451Y-100442884D01*
X126410266Y-100420768D01*
X126200797Y-100334003D01*
X126012280Y-100208040D01*
X125851960Y-100047720D01*
X125725997Y-99859203D01*
X125639232Y-99649734D01*
X125595000Y-99427364D01*
X125595000Y-99200636D01*
X125639232Y-98978266D01*
X125725997Y-98768797D01*
X125851960Y-98580280D01*
X126012280Y-98419960D01*
X126200797Y-98293997D01*
X126410266Y-98207232D01*
X126521451Y-98185116D01*
X126632635Y-98163000D01*
X126859365Y-98163000D01*
X126970549Y-98185116D01*
G37*
G36*
X190470549Y-98185116D02*
G01*
X190581734Y-98207232D01*
X190791203Y-98293997D01*
X190979720Y-98419960D01*
X191140040Y-98580280D01*
X191266003Y-98768797D01*
X191352768Y-98978266D01*
X191397000Y-99200636D01*
X191397000Y-99427364D01*
X191352768Y-99649734D01*
X191266003Y-99859203D01*
X191140040Y-100047720D01*
X190979720Y-100208040D01*
X190791203Y-100334003D01*
X190581734Y-100420768D01*
X190470549Y-100442884D01*
X190359365Y-100465000D01*
X190132635Y-100465000D01*
X190021451Y-100442884D01*
X189910266Y-100420768D01*
X189700797Y-100334003D01*
X189512280Y-100208040D01*
X189351960Y-100047720D01*
X189225997Y-99859203D01*
X189139232Y-99649734D01*
X189095000Y-99427364D01*
X189095000Y-99200636D01*
X189139232Y-98978266D01*
X189225997Y-98768797D01*
X189351960Y-98580280D01*
X189512280Y-98419960D01*
X189700797Y-98293997D01*
X189910266Y-98207232D01*
X190021451Y-98185116D01*
X190132635Y-98163000D01*
X190359365Y-98163000D01*
X190470549Y-98185116D01*
G37*
M02*
