G04 #@! TF.GenerationSoftware,KiCad,Pcbnew,5.1.5-52549c5~84~ubuntu18.04.1*
G04 #@! TF.CreationDate,2020-02-28T14:28:58+00:00*
G04 #@! TF.ProjectId,etl_driver_pcb,65746c5f-6472-4697-9665-725f7063622e,rev?*
G04 #@! TF.SameCoordinates,Original*
G04 #@! TF.FileFunction,Legend,Top*
G04 #@! TF.FilePolarity,Positive*
%FSLAX46Y46*%
G04 Gerber Fmt 4.6, Leading zero omitted, Abs format (unit mm)*
G04 Created by KiCad (PCBNEW 5.1.5-52549c5~84~ubuntu18.04.1) date 2020-02-28 14:28:58*
%MOMM*%
%LPD*%
G04 APERTURE LIST*
%ADD10C,0.150000*%
%ADD11C,0.010000*%
%ADD12C,0.120000*%
G04 APERTURE END LIST*
D10*
X136271047Y-99131428D02*
X137032952Y-99131428D01*
X136271047Y-101671428D02*
X137032952Y-101671428D01*
X136652000Y-102052380D02*
X136652000Y-101290476D01*
X185293047Y-113863428D02*
X186054952Y-113863428D01*
X185293047Y-111323428D02*
X186054952Y-111323428D01*
X185674000Y-111704380D02*
X185674000Y-110942476D01*
X161417047Y-110307428D02*
X162178952Y-110307428D01*
X158623047Y-110307428D02*
X159384952Y-110307428D01*
X159004000Y-110688380D02*
X159004000Y-109926476D01*
X138543047Y-128976380D02*
X138543047Y-127976380D01*
X138971619Y-128976380D02*
X138971619Y-128452571D01*
X138924000Y-128357333D01*
X138828761Y-128309714D01*
X138685904Y-128309714D01*
X138590666Y-128357333D01*
X138543047Y-128404952D01*
X139304952Y-128309714D02*
X139685904Y-128309714D01*
X139447809Y-127976380D02*
X139447809Y-128833523D01*
X139495428Y-128928761D01*
X139590666Y-128976380D01*
X139685904Y-128976380D01*
X139876380Y-128309714D02*
X140257333Y-128309714D01*
X140019238Y-127976380D02*
X140019238Y-128833523D01*
X140066857Y-128928761D01*
X140162095Y-128976380D01*
X140257333Y-128976380D01*
X140590666Y-128309714D02*
X140590666Y-129309714D01*
X140590666Y-128357333D02*
X140685904Y-128309714D01*
X140876380Y-128309714D01*
X140971619Y-128357333D01*
X141019238Y-128404952D01*
X141066857Y-128500190D01*
X141066857Y-128785904D01*
X141019238Y-128881142D01*
X140971619Y-128928761D01*
X140876380Y-128976380D01*
X140685904Y-128976380D01*
X140590666Y-128928761D01*
X141447809Y-128928761D02*
X141543047Y-128976380D01*
X141733523Y-128976380D01*
X141828761Y-128928761D01*
X141876380Y-128833523D01*
X141876380Y-128785904D01*
X141828761Y-128690666D01*
X141733523Y-128643047D01*
X141590666Y-128643047D01*
X141495428Y-128595428D01*
X141447809Y-128500190D01*
X141447809Y-128452571D01*
X141495428Y-128357333D01*
X141590666Y-128309714D01*
X141733523Y-128309714D01*
X141828761Y-128357333D01*
X142304952Y-128881142D02*
X142352571Y-128928761D01*
X142304952Y-128976380D01*
X142257333Y-128928761D01*
X142304952Y-128881142D01*
X142304952Y-128976380D01*
X142304952Y-128357333D02*
X142352571Y-128404952D01*
X142304952Y-128452571D01*
X142257333Y-128404952D01*
X142304952Y-128357333D01*
X142304952Y-128452571D01*
X143495428Y-127928761D02*
X142638285Y-129214476D01*
X144543047Y-127928761D02*
X143685904Y-129214476D01*
X145304952Y-128309714D02*
X145304952Y-129119238D01*
X145257333Y-129214476D01*
X145209714Y-129262095D01*
X145114476Y-129309714D01*
X144971619Y-129309714D01*
X144876380Y-129262095D01*
X145304952Y-128928761D02*
X145209714Y-128976380D01*
X145019238Y-128976380D01*
X144924000Y-128928761D01*
X144876380Y-128881142D01*
X144828761Y-128785904D01*
X144828761Y-128500190D01*
X144876380Y-128404952D01*
X144924000Y-128357333D01*
X145019238Y-128309714D01*
X145209714Y-128309714D01*
X145304952Y-128357333D01*
X145781142Y-128976380D02*
X145781142Y-128309714D01*
X145781142Y-127976380D02*
X145733523Y-128024000D01*
X145781142Y-128071619D01*
X145828761Y-128024000D01*
X145781142Y-127976380D01*
X145781142Y-128071619D01*
X146114476Y-128309714D02*
X146495428Y-128309714D01*
X146257333Y-127976380D02*
X146257333Y-128833523D01*
X146304952Y-128928761D01*
X146400190Y-128976380D01*
X146495428Y-128976380D01*
X146828761Y-128976380D02*
X146828761Y-127976380D01*
X147257333Y-128976380D02*
X147257333Y-128452571D01*
X147209714Y-128357333D01*
X147114476Y-128309714D01*
X146971619Y-128309714D01*
X146876380Y-128357333D01*
X146828761Y-128404952D01*
X148162095Y-128309714D02*
X148162095Y-128976380D01*
X147733523Y-128309714D02*
X147733523Y-128833523D01*
X147781142Y-128928761D01*
X147876380Y-128976380D01*
X148019238Y-128976380D01*
X148114476Y-128928761D01*
X148162095Y-128881142D01*
X148638285Y-128976380D02*
X148638285Y-127976380D01*
X148638285Y-128357333D02*
X148733523Y-128309714D01*
X148924000Y-128309714D01*
X149019238Y-128357333D01*
X149066857Y-128404952D01*
X149114476Y-128500190D01*
X149114476Y-128785904D01*
X149066857Y-128881142D01*
X149019238Y-128928761D01*
X148924000Y-128976380D01*
X148733523Y-128976380D01*
X148638285Y-128928761D01*
X149543047Y-128881142D02*
X149590666Y-128928761D01*
X149543047Y-128976380D01*
X149495428Y-128928761D01*
X149543047Y-128881142D01*
X149543047Y-128976380D01*
X150447809Y-128928761D02*
X150352571Y-128976380D01*
X150162095Y-128976380D01*
X150066857Y-128928761D01*
X150019238Y-128881142D01*
X149971619Y-128785904D01*
X149971619Y-128500190D01*
X150019238Y-128404952D01*
X150066857Y-128357333D01*
X150162095Y-128309714D01*
X150352571Y-128309714D01*
X150447809Y-128357333D01*
X151019238Y-128976380D02*
X150924000Y-128928761D01*
X150876380Y-128881142D01*
X150828761Y-128785904D01*
X150828761Y-128500190D01*
X150876380Y-128404952D01*
X150924000Y-128357333D01*
X151019238Y-128309714D01*
X151162095Y-128309714D01*
X151257333Y-128357333D01*
X151304952Y-128404952D01*
X151352571Y-128500190D01*
X151352571Y-128785904D01*
X151304952Y-128881142D01*
X151257333Y-128928761D01*
X151162095Y-128976380D01*
X151019238Y-128976380D01*
X151781142Y-128976380D02*
X151781142Y-128309714D01*
X151781142Y-128404952D02*
X151828761Y-128357333D01*
X151924000Y-128309714D01*
X152066857Y-128309714D01*
X152162095Y-128357333D01*
X152209714Y-128452571D01*
X152209714Y-128976380D01*
X152209714Y-128452571D02*
X152257333Y-128357333D01*
X152352571Y-128309714D01*
X152495428Y-128309714D01*
X152590666Y-128357333D01*
X152638285Y-128452571D01*
X152638285Y-128976380D01*
X153828761Y-127928761D02*
X152971619Y-129214476D01*
X154495428Y-128452571D02*
X154638285Y-128500190D01*
X154685904Y-128547809D01*
X154733523Y-128643047D01*
X154733523Y-128785904D01*
X154685904Y-128881142D01*
X154638285Y-128928761D01*
X154543047Y-128976380D01*
X154162095Y-128976380D01*
X154162095Y-127976380D01*
X154495428Y-127976380D01*
X154590666Y-128024000D01*
X154638285Y-128071619D01*
X154685904Y-128166857D01*
X154685904Y-128262095D01*
X154638285Y-128357333D01*
X154590666Y-128404952D01*
X154495428Y-128452571D01*
X154162095Y-128452571D01*
X155590666Y-128976380D02*
X155590666Y-128452571D01*
X155543047Y-128357333D01*
X155447809Y-128309714D01*
X155257333Y-128309714D01*
X155162095Y-128357333D01*
X155590666Y-128928761D02*
X155495428Y-128976380D01*
X155257333Y-128976380D01*
X155162095Y-128928761D01*
X155114476Y-128833523D01*
X155114476Y-128738285D01*
X155162095Y-128643047D01*
X155257333Y-128595428D01*
X155495428Y-128595428D01*
X155590666Y-128547809D01*
X156495428Y-128976380D02*
X156495428Y-127976380D01*
X156495428Y-128928761D02*
X156400190Y-128976380D01*
X156209714Y-128976380D01*
X156114476Y-128928761D01*
X156066857Y-128881142D01*
X156019238Y-128785904D01*
X156019238Y-128500190D01*
X156066857Y-128404952D01*
X156114476Y-128357333D01*
X156209714Y-128309714D01*
X156400190Y-128309714D01*
X156495428Y-128357333D01*
X157352571Y-128928761D02*
X157257333Y-128976380D01*
X157066857Y-128976380D01*
X156971619Y-128928761D01*
X156924000Y-128833523D01*
X156924000Y-128452571D01*
X156971619Y-128357333D01*
X157066857Y-128309714D01*
X157257333Y-128309714D01*
X157352571Y-128357333D01*
X157400190Y-128452571D01*
X157400190Y-128547809D01*
X156924000Y-128643047D01*
X157828761Y-128309714D02*
X157828761Y-128976380D01*
X157828761Y-128404952D02*
X157876380Y-128357333D01*
X157971619Y-128309714D01*
X158114476Y-128309714D01*
X158209714Y-128357333D01*
X158257333Y-128452571D01*
X158257333Y-128976380D01*
X159209714Y-128976380D02*
X158733523Y-128976380D01*
X158733523Y-127976380D01*
X159971619Y-128976380D02*
X159971619Y-128452571D01*
X159924000Y-128357333D01*
X159828761Y-128309714D01*
X159638285Y-128309714D01*
X159543047Y-128357333D01*
X159971619Y-128928761D02*
X159876380Y-128976380D01*
X159638285Y-128976380D01*
X159543047Y-128928761D01*
X159495428Y-128833523D01*
X159495428Y-128738285D01*
X159543047Y-128643047D01*
X159638285Y-128595428D01*
X159876380Y-128595428D01*
X159971619Y-128547809D01*
X160447809Y-128976380D02*
X160447809Y-127976380D01*
X160447809Y-128357333D02*
X160543047Y-128309714D01*
X160733523Y-128309714D01*
X160828761Y-128357333D01*
X160876380Y-128404952D01*
X160924000Y-128500190D01*
X160924000Y-128785904D01*
X160876380Y-128881142D01*
X160828761Y-128928761D01*
X160733523Y-128976380D01*
X160543047Y-128976380D01*
X160447809Y-128928761D01*
X162066857Y-127928761D02*
X161209714Y-129214476D01*
X162400190Y-128976380D02*
X162400190Y-127976380D01*
X162638285Y-127976380D01*
X162781142Y-128024000D01*
X162876380Y-128119238D01*
X162924000Y-128214476D01*
X162971619Y-128404952D01*
X162971619Y-128547809D01*
X162924000Y-128738285D01*
X162876380Y-128833523D01*
X162781142Y-128928761D01*
X162638285Y-128976380D01*
X162400190Y-128976380D01*
X163733523Y-128452571D02*
X163876380Y-128500190D01*
X163924000Y-128547809D01*
X163971619Y-128643047D01*
X163971619Y-128785904D01*
X163924000Y-128881142D01*
X163876380Y-128928761D01*
X163781142Y-128976380D01*
X163400190Y-128976380D01*
X163400190Y-127976380D01*
X163733523Y-127976380D01*
X163828761Y-128024000D01*
X163876380Y-128071619D01*
X163924000Y-128166857D01*
X163924000Y-128262095D01*
X163876380Y-128357333D01*
X163828761Y-128404952D01*
X163733523Y-128452571D01*
X163400190Y-128452571D01*
X164590666Y-127976380D02*
X164781142Y-127976380D01*
X164876380Y-128024000D01*
X164971619Y-128119238D01*
X165019238Y-128309714D01*
X165019238Y-128643047D01*
X164971619Y-128833523D01*
X164876380Y-128928761D01*
X164781142Y-128976380D01*
X164590666Y-128976380D01*
X164495428Y-128928761D01*
X164400190Y-128833523D01*
X164352571Y-128643047D01*
X164352571Y-128309714D01*
X164400190Y-128119238D01*
X164495428Y-128024000D01*
X164590666Y-127976380D01*
X165400190Y-128928761D02*
X165495428Y-128976380D01*
X165685904Y-128976380D01*
X165781142Y-128928761D01*
X165828761Y-128833523D01*
X165828761Y-128785904D01*
X165781142Y-128690666D01*
X165685904Y-128643047D01*
X165543047Y-128643047D01*
X165447809Y-128595428D01*
X165400190Y-128500190D01*
X165400190Y-128452571D01*
X165447809Y-128357333D01*
X165543047Y-128309714D01*
X165685904Y-128309714D01*
X165781142Y-128357333D01*
X166685904Y-128928761D02*
X166590666Y-128976380D01*
X166400190Y-128976380D01*
X166304952Y-128928761D01*
X166257333Y-128881142D01*
X166209714Y-128785904D01*
X166209714Y-128500190D01*
X166257333Y-128404952D01*
X166304952Y-128357333D01*
X166400190Y-128309714D01*
X166590666Y-128309714D01*
X166685904Y-128357333D01*
X167257333Y-128976380D02*
X167162095Y-128928761D01*
X167114476Y-128881142D01*
X167066857Y-128785904D01*
X167066857Y-128500190D01*
X167114476Y-128404952D01*
X167162095Y-128357333D01*
X167257333Y-128309714D01*
X167400190Y-128309714D01*
X167495428Y-128357333D01*
X167543047Y-128404952D01*
X167590666Y-128500190D01*
X167590666Y-128785904D01*
X167543047Y-128881142D01*
X167495428Y-128928761D01*
X167400190Y-128976380D01*
X167257333Y-128976380D01*
X168019238Y-128309714D02*
X168019238Y-129309714D01*
X168019238Y-128357333D02*
X168114476Y-128309714D01*
X168304952Y-128309714D01*
X168400190Y-128357333D01*
X168447809Y-128404952D01*
X168495428Y-128500190D01*
X168495428Y-128785904D01*
X168447809Y-128881142D01*
X168400190Y-128928761D01*
X168304952Y-128976380D01*
X168114476Y-128976380D01*
X168019238Y-128928761D01*
X169304952Y-128928761D02*
X169209714Y-128976380D01*
X169019238Y-128976380D01*
X168924000Y-128928761D01*
X168876380Y-128833523D01*
X168876380Y-128452571D01*
X168924000Y-128357333D01*
X169019238Y-128309714D01*
X169209714Y-128309714D01*
X169304952Y-128357333D01*
X169352571Y-128452571D01*
X169352571Y-128547809D01*
X168876380Y-128643047D01*
X164616952Y-98941380D02*
X164616952Y-97941380D01*
X164855047Y-97941380D01*
X164997904Y-97989000D01*
X165093142Y-98084238D01*
X165140761Y-98179476D01*
X165188380Y-98369952D01*
X165188380Y-98512809D01*
X165140761Y-98703285D01*
X165093142Y-98798523D01*
X164997904Y-98893761D01*
X164855047Y-98941380D01*
X164616952Y-98941380D01*
X165997904Y-98893761D02*
X165902666Y-98941380D01*
X165712190Y-98941380D01*
X165616952Y-98893761D01*
X165569333Y-98798523D01*
X165569333Y-98417571D01*
X165616952Y-98322333D01*
X165712190Y-98274714D01*
X165902666Y-98274714D01*
X165997904Y-98322333D01*
X166045523Y-98417571D01*
X166045523Y-98512809D01*
X165569333Y-98608047D01*
X166474095Y-98941380D02*
X166474095Y-98274714D01*
X166474095Y-98465190D02*
X166521714Y-98369952D01*
X166569333Y-98322333D01*
X166664571Y-98274714D01*
X166759809Y-98274714D01*
X167093142Y-98941380D02*
X167093142Y-98274714D01*
X167093142Y-97941380D02*
X167045523Y-97989000D01*
X167093142Y-98036619D01*
X167140761Y-97989000D01*
X167093142Y-97941380D01*
X167093142Y-98036619D01*
X167474095Y-98274714D02*
X167712190Y-98941380D01*
X167950285Y-98274714D01*
X168712190Y-98893761D02*
X168616952Y-98941380D01*
X168426476Y-98941380D01*
X168331238Y-98893761D01*
X168283619Y-98798523D01*
X168283619Y-98417571D01*
X168331238Y-98322333D01*
X168426476Y-98274714D01*
X168616952Y-98274714D01*
X168712190Y-98322333D01*
X168759809Y-98417571D01*
X168759809Y-98512809D01*
X168283619Y-98608047D01*
X169616952Y-98941380D02*
X169616952Y-97941380D01*
X169616952Y-98893761D02*
X169521714Y-98941380D01*
X169331238Y-98941380D01*
X169236000Y-98893761D01*
X169188380Y-98846142D01*
X169140761Y-98750904D01*
X169140761Y-98465190D01*
X169188380Y-98369952D01*
X169236000Y-98322333D01*
X169331238Y-98274714D01*
X169521714Y-98274714D01*
X169616952Y-98322333D01*
X170712190Y-98274714D02*
X171093142Y-98274714D01*
X170855047Y-98941380D02*
X170855047Y-98084238D01*
X170902666Y-97989000D01*
X170997904Y-97941380D01*
X171093142Y-97941380D01*
X171426476Y-98941380D02*
X171426476Y-98274714D01*
X171426476Y-98465190D02*
X171474095Y-98369952D01*
X171521714Y-98322333D01*
X171616952Y-98274714D01*
X171712190Y-98274714D01*
X172188380Y-98941380D02*
X172093142Y-98893761D01*
X172045523Y-98846142D01*
X171997904Y-98750904D01*
X171997904Y-98465190D01*
X172045523Y-98369952D01*
X172093142Y-98322333D01*
X172188380Y-98274714D01*
X172331238Y-98274714D01*
X172426476Y-98322333D01*
X172474095Y-98369952D01*
X172521714Y-98465190D01*
X172521714Y-98750904D01*
X172474095Y-98846142D01*
X172426476Y-98893761D01*
X172331238Y-98941380D01*
X172188380Y-98941380D01*
X172950285Y-98941380D02*
X172950285Y-98274714D01*
X172950285Y-98369952D02*
X172997904Y-98322333D01*
X173093142Y-98274714D01*
X173236000Y-98274714D01*
X173331238Y-98322333D01*
X173378857Y-98417571D01*
X173378857Y-98941380D01*
X173378857Y-98417571D02*
X173426476Y-98322333D01*
X173521714Y-98274714D01*
X173664571Y-98274714D01*
X173759809Y-98322333D01*
X173807428Y-98417571D01*
X173807428Y-98941380D01*
X175045523Y-98941380D02*
X175045523Y-97941380D01*
X175283619Y-97941380D01*
X175426476Y-97989000D01*
X175521714Y-98084238D01*
X175569333Y-98179476D01*
X175616952Y-98369952D01*
X175616952Y-98512809D01*
X175569333Y-98703285D01*
X175521714Y-98798523D01*
X175426476Y-98893761D01*
X175283619Y-98941380D01*
X175045523Y-98941380D01*
X176378857Y-98417571D02*
X176521714Y-98465190D01*
X176569333Y-98512809D01*
X176616952Y-98608047D01*
X176616952Y-98750904D01*
X176569333Y-98846142D01*
X176521714Y-98893761D01*
X176426476Y-98941380D01*
X176045523Y-98941380D01*
X176045523Y-97941380D01*
X176378857Y-97941380D01*
X176474095Y-97989000D01*
X176521714Y-98036619D01*
X176569333Y-98131857D01*
X176569333Y-98227095D01*
X176521714Y-98322333D01*
X176474095Y-98369952D01*
X176378857Y-98417571D01*
X176045523Y-98417571D01*
X177236000Y-97941380D02*
X177426476Y-97941380D01*
X177521714Y-97989000D01*
X177616952Y-98084238D01*
X177664571Y-98274714D01*
X177664571Y-98608047D01*
X177616952Y-98798523D01*
X177521714Y-98893761D01*
X177426476Y-98941380D01*
X177236000Y-98941380D01*
X177140761Y-98893761D01*
X177045523Y-98798523D01*
X176997904Y-98608047D01*
X176997904Y-98274714D01*
X177045523Y-98084238D01*
X177140761Y-97989000D01*
X177236000Y-97941380D01*
X178807428Y-98893761D02*
X178950285Y-98941380D01*
X179188380Y-98941380D01*
X179283619Y-98893761D01*
X179331238Y-98846142D01*
X179378857Y-98750904D01*
X179378857Y-98655666D01*
X179331238Y-98560428D01*
X179283619Y-98512809D01*
X179188380Y-98465190D01*
X178997904Y-98417571D01*
X178902666Y-98369952D01*
X178855047Y-98322333D01*
X178807428Y-98227095D01*
X178807428Y-98131857D01*
X178855047Y-98036619D01*
X178902666Y-97989000D01*
X178997904Y-97941380D01*
X179236000Y-97941380D01*
X179378857Y-97989000D01*
X180236000Y-98893761D02*
X180140761Y-98941380D01*
X179950285Y-98941380D01*
X179855047Y-98893761D01*
X179807428Y-98846142D01*
X179759809Y-98750904D01*
X179759809Y-98465190D01*
X179807428Y-98369952D01*
X179855047Y-98322333D01*
X179950285Y-98274714D01*
X180140761Y-98274714D01*
X180236000Y-98322333D01*
X180807428Y-98941380D02*
X180712190Y-98893761D01*
X180664571Y-98846142D01*
X180616952Y-98750904D01*
X180616952Y-98465190D01*
X180664571Y-98369952D01*
X180712190Y-98322333D01*
X180807428Y-98274714D01*
X180950285Y-98274714D01*
X181045523Y-98322333D01*
X181093142Y-98369952D01*
X181140761Y-98465190D01*
X181140761Y-98750904D01*
X181093142Y-98846142D01*
X181045523Y-98893761D01*
X180950285Y-98941380D01*
X180807428Y-98941380D01*
X181569333Y-98274714D02*
X181569333Y-99274714D01*
X181569333Y-98322333D02*
X181664571Y-98274714D01*
X181855047Y-98274714D01*
X181950285Y-98322333D01*
X181997904Y-98369952D01*
X182045523Y-98465190D01*
X182045523Y-98750904D01*
X181997904Y-98846142D01*
X181950285Y-98893761D01*
X181855047Y-98941380D01*
X181664571Y-98941380D01*
X181569333Y-98893761D01*
X182855047Y-98893761D02*
X182759809Y-98941380D01*
X182569333Y-98941380D01*
X182474095Y-98893761D01*
X182426476Y-98798523D01*
X182426476Y-98417571D01*
X182474095Y-98322333D01*
X182569333Y-98274714D01*
X182759809Y-98274714D01*
X182855047Y-98322333D01*
X182902666Y-98417571D01*
X182902666Y-98512809D01*
X182426476Y-98608047D01*
X166497904Y-100591380D02*
X166497904Y-99591380D01*
X166497904Y-99972333D02*
X166593142Y-99924714D01*
X166783619Y-99924714D01*
X166878857Y-99972333D01*
X166926476Y-100019952D01*
X166974095Y-100115190D01*
X166974095Y-100400904D01*
X166926476Y-100496142D01*
X166878857Y-100543761D01*
X166783619Y-100591380D01*
X166593142Y-100591380D01*
X166497904Y-100543761D01*
X167307428Y-99924714D02*
X167545523Y-100591380D01*
X167783619Y-99924714D02*
X167545523Y-100591380D01*
X167450285Y-100829476D01*
X167402666Y-100877095D01*
X167307428Y-100924714D01*
X169259809Y-100067571D02*
X168926476Y-100067571D01*
X168926476Y-100591380D02*
X168926476Y-99591380D01*
X169402666Y-99591380D01*
X169783619Y-100591380D02*
X169783619Y-99591380D01*
X170355047Y-100591380D02*
X169926476Y-100019952D01*
X170355047Y-99591380D02*
X169783619Y-100162809D01*
X171831238Y-99591380D02*
X171831238Y-100305666D01*
X171783619Y-100448523D01*
X171688380Y-100543761D01*
X171545523Y-100591380D01*
X171450285Y-100591380D01*
X172736000Y-100591380D02*
X172736000Y-100067571D01*
X172688380Y-99972333D01*
X172593142Y-99924714D01*
X172402666Y-99924714D01*
X172307428Y-99972333D01*
X172736000Y-100543761D02*
X172640761Y-100591380D01*
X172402666Y-100591380D01*
X172307428Y-100543761D01*
X172259809Y-100448523D01*
X172259809Y-100353285D01*
X172307428Y-100258047D01*
X172402666Y-100210428D01*
X172640761Y-100210428D01*
X172736000Y-100162809D01*
X173212190Y-99924714D02*
X173212190Y-100591380D01*
X173212190Y-100019952D02*
X173259809Y-99972333D01*
X173355047Y-99924714D01*
X173497904Y-99924714D01*
X173593142Y-99972333D01*
X173640761Y-100067571D01*
X173640761Y-100591380D01*
X174116952Y-100591380D02*
X174116952Y-99924714D01*
X174116952Y-99591380D02*
X174069333Y-99639000D01*
X174116952Y-99686619D01*
X174164571Y-99639000D01*
X174116952Y-99591380D01*
X174116952Y-99686619D01*
X175021714Y-100591380D02*
X175021714Y-100067571D01*
X174974095Y-99972333D01*
X174878857Y-99924714D01*
X174688380Y-99924714D01*
X174593142Y-99972333D01*
X175021714Y-100543761D02*
X174926476Y-100591380D01*
X174688380Y-100591380D01*
X174593142Y-100543761D01*
X174545523Y-100448523D01*
X174545523Y-100353285D01*
X174593142Y-100258047D01*
X174688380Y-100210428D01*
X174926476Y-100210428D01*
X175021714Y-100162809D01*
X175497904Y-100591380D02*
X175497904Y-99591380D01*
X175593142Y-100210428D02*
X175878857Y-100591380D01*
X175878857Y-99924714D02*
X175497904Y-100305666D01*
X177450285Y-100543761D02*
X177355047Y-100591380D01*
X177164571Y-100591380D01*
X177069333Y-100543761D01*
X177021714Y-100448523D01*
X177021714Y-100067571D01*
X177069333Y-99972333D01*
X177164571Y-99924714D01*
X177355047Y-99924714D01*
X177450285Y-99972333D01*
X177497904Y-100067571D01*
X177497904Y-100162809D01*
X177021714Y-100258047D01*
X177783619Y-99924714D02*
X178164571Y-99924714D01*
X177926476Y-99591380D02*
X177926476Y-100448523D01*
X177974095Y-100543761D01*
X178069333Y-100591380D01*
X178164571Y-100591380D01*
X179688380Y-100591380D02*
X179688380Y-100067571D01*
X179640761Y-99972333D01*
X179545523Y-99924714D01*
X179355047Y-99924714D01*
X179259809Y-99972333D01*
X179688380Y-100543761D02*
X179593142Y-100591380D01*
X179355047Y-100591380D01*
X179259809Y-100543761D01*
X179212190Y-100448523D01*
X179212190Y-100353285D01*
X179259809Y-100258047D01*
X179355047Y-100210428D01*
X179593142Y-100210428D01*
X179688380Y-100162809D01*
X180307428Y-100591380D02*
X180212190Y-100543761D01*
X180164571Y-100448523D01*
X180164571Y-99591380D01*
X150241619Y-99291142D02*
X150194000Y-99338761D01*
X150051142Y-99386380D01*
X149955904Y-99386380D01*
X149813047Y-99338761D01*
X149717809Y-99243523D01*
X149670190Y-99148285D01*
X149622571Y-98957809D01*
X149622571Y-98814952D01*
X149670190Y-98624476D01*
X149717809Y-98529238D01*
X149813047Y-98434000D01*
X149955904Y-98386380D01*
X150051142Y-98386380D01*
X150194000Y-98434000D01*
X150241619Y-98481619D01*
X150670190Y-98862571D02*
X151003523Y-98862571D01*
X151146380Y-99386380D02*
X150670190Y-99386380D01*
X150670190Y-98386380D01*
X151146380Y-98386380D01*
X152146380Y-99386380D02*
X151813047Y-98910190D01*
X151574952Y-99386380D02*
X151574952Y-98386380D01*
X151955904Y-98386380D01*
X152051142Y-98434000D01*
X152098761Y-98481619D01*
X152146380Y-98576857D01*
X152146380Y-98719714D01*
X152098761Y-98814952D01*
X152051142Y-98862571D01*
X151955904Y-98910190D01*
X151574952Y-98910190D01*
X152574952Y-99386380D02*
X152574952Y-98386380D01*
X153146380Y-99386380D01*
X153146380Y-98386380D01*
X154574952Y-98386380D02*
X154765428Y-98386380D01*
X154860666Y-98434000D01*
X154955904Y-98529238D01*
X155003523Y-98719714D01*
X155003523Y-99053047D01*
X154955904Y-99243523D01*
X154860666Y-99338761D01*
X154765428Y-99386380D01*
X154574952Y-99386380D01*
X154479714Y-99338761D01*
X154384476Y-99243523D01*
X154336857Y-99053047D01*
X154336857Y-98719714D01*
X154384476Y-98529238D01*
X154479714Y-98434000D01*
X154574952Y-98386380D01*
X155432095Y-99386380D02*
X155432095Y-98386380D01*
X155432095Y-98862571D02*
X156003523Y-98862571D01*
X156003523Y-99386380D02*
X156003523Y-98386380D01*
X156955904Y-99386380D02*
X156479714Y-99386380D01*
X156479714Y-98386380D01*
X157955904Y-98719714D02*
X158194000Y-99386380D01*
X158432095Y-98719714D01*
X159336857Y-99386380D02*
X158765428Y-99386380D01*
X159051142Y-99386380D02*
X159051142Y-98386380D01*
X158955904Y-98529238D01*
X158860666Y-98624476D01*
X158765428Y-98672095D01*
X159765428Y-99291142D02*
X159813047Y-99338761D01*
X159765428Y-99386380D01*
X159717809Y-99338761D01*
X159765428Y-99291142D01*
X159765428Y-99386380D01*
X160193999Y-98481619D02*
X160241619Y-98434000D01*
X160336857Y-98386380D01*
X160574952Y-98386380D01*
X160670190Y-98434000D01*
X160717809Y-98481619D01*
X160765428Y-98576857D01*
X160765428Y-98672095D01*
X160717809Y-98814952D01*
X160146380Y-99386380D01*
X160765428Y-99386380D01*
X151574952Y-100131619D02*
X151622571Y-100084000D01*
X151717809Y-100036380D01*
X151955904Y-100036380D01*
X152051142Y-100084000D01*
X152098761Y-100131619D01*
X152146380Y-100226857D01*
X152146380Y-100322095D01*
X152098761Y-100464952D01*
X151527333Y-101036380D01*
X152146380Y-101036380D01*
X152765428Y-100036380D02*
X152860666Y-100036380D01*
X152955904Y-100084000D01*
X153003523Y-100131619D01*
X153051142Y-100226857D01*
X153098761Y-100417333D01*
X153098761Y-100655428D01*
X153051142Y-100845904D01*
X153003523Y-100941142D01*
X152955904Y-100988761D01*
X152860666Y-101036380D01*
X152765428Y-101036380D01*
X152670190Y-100988761D01*
X152622571Y-100941142D01*
X152574952Y-100845904D01*
X152527333Y-100655428D01*
X152527333Y-100417333D01*
X152574952Y-100226857D01*
X152622571Y-100131619D01*
X152670190Y-100084000D01*
X152765428Y-100036380D01*
X153479714Y-100131619D02*
X153527333Y-100084000D01*
X153622571Y-100036380D01*
X153860666Y-100036380D01*
X153955904Y-100084000D01*
X154003523Y-100131619D01*
X154051142Y-100226857D01*
X154051142Y-100322095D01*
X154003523Y-100464952D01*
X153432095Y-101036380D01*
X154051142Y-101036380D01*
X154670190Y-100036380D02*
X154765428Y-100036380D01*
X154860666Y-100084000D01*
X154908285Y-100131619D01*
X154955904Y-100226857D01*
X155003523Y-100417333D01*
X155003523Y-100655428D01*
X154955904Y-100845904D01*
X154908285Y-100941142D01*
X154860666Y-100988761D01*
X154765428Y-101036380D01*
X154670190Y-101036380D01*
X154574952Y-100988761D01*
X154527333Y-100941142D01*
X154479714Y-100845904D01*
X154432095Y-100655428D01*
X154432095Y-100417333D01*
X154479714Y-100226857D01*
X154527333Y-100131619D01*
X154574952Y-100084000D01*
X154670190Y-100036380D01*
X155622571Y-100036380D02*
X155717809Y-100036380D01*
X155813047Y-100084000D01*
X155860666Y-100131619D01*
X155908285Y-100226857D01*
X155955904Y-100417333D01*
X155955904Y-100655428D01*
X155908285Y-100845904D01*
X155860666Y-100941142D01*
X155813047Y-100988761D01*
X155717809Y-101036380D01*
X155622571Y-101036380D01*
X155527333Y-100988761D01*
X155479714Y-100941142D01*
X155432095Y-100845904D01*
X155384476Y-100655428D01*
X155384476Y-100417333D01*
X155432095Y-100226857D01*
X155479714Y-100131619D01*
X155527333Y-100084000D01*
X155622571Y-100036380D01*
X156336857Y-100131619D02*
X156384476Y-100084000D01*
X156479714Y-100036380D01*
X156717809Y-100036380D01*
X156813047Y-100084000D01*
X156860666Y-100131619D01*
X156908285Y-100226857D01*
X156908285Y-100322095D01*
X156860666Y-100464952D01*
X156289238Y-101036380D01*
X156908285Y-101036380D01*
X157289238Y-100131619D02*
X157336857Y-100084000D01*
X157432095Y-100036380D01*
X157670190Y-100036380D01*
X157765428Y-100084000D01*
X157813047Y-100131619D01*
X157860666Y-100226857D01*
X157860666Y-100322095D01*
X157813047Y-100464952D01*
X157241619Y-101036380D01*
X157860666Y-101036380D01*
X158432095Y-100464952D02*
X158336857Y-100417333D01*
X158289238Y-100369714D01*
X158241619Y-100274476D01*
X158241619Y-100226857D01*
X158289238Y-100131619D01*
X158336857Y-100084000D01*
X158432095Y-100036380D01*
X158622571Y-100036380D01*
X158717809Y-100084000D01*
X158765428Y-100131619D01*
X158813047Y-100226857D01*
X158813047Y-100274476D01*
X158765428Y-100369714D01*
X158717809Y-100417333D01*
X158622571Y-100464952D01*
X158432095Y-100464952D01*
X158336857Y-100512571D01*
X158289238Y-100560190D01*
X158241619Y-100655428D01*
X158241619Y-100845904D01*
X158289238Y-100941142D01*
X158336857Y-100988761D01*
X158432095Y-101036380D01*
X158622571Y-101036380D01*
X158717809Y-100988761D01*
X158765428Y-100941142D01*
X158813047Y-100845904D01*
X158813047Y-100655428D01*
X158765428Y-100560190D01*
X158717809Y-100512571D01*
X158622571Y-100464952D01*
X151289238Y-102400666D02*
X151765428Y-102400666D01*
X151194000Y-102686380D02*
X151527333Y-101686380D01*
X151860666Y-102686380D01*
X152194000Y-102686380D02*
X152194000Y-101686380D01*
X152527333Y-102400666D01*
X152860666Y-101686380D01*
X152860666Y-102686380D01*
X154670190Y-102591142D02*
X154622571Y-102638761D01*
X154479714Y-102686380D01*
X154384476Y-102686380D01*
X154241619Y-102638761D01*
X154146380Y-102543523D01*
X154098761Y-102448285D01*
X154051142Y-102257809D01*
X154051142Y-102114952D01*
X154098761Y-101924476D01*
X154146380Y-101829238D01*
X154241619Y-101734000D01*
X154384476Y-101686380D01*
X154479714Y-101686380D01*
X154622571Y-101734000D01*
X154670190Y-101781619D01*
X155098761Y-102686380D02*
X155098761Y-101686380D01*
X155527333Y-102686380D02*
X155527333Y-102162571D01*
X155479714Y-102067333D01*
X155384476Y-102019714D01*
X155241619Y-102019714D01*
X155146380Y-102067333D01*
X155098761Y-102114952D01*
X156432095Y-102686380D02*
X156432095Y-102162571D01*
X156384476Y-102067333D01*
X156289238Y-102019714D01*
X156098761Y-102019714D01*
X156003523Y-102067333D01*
X156432095Y-102638761D02*
X156336857Y-102686380D01*
X156098761Y-102686380D01*
X156003523Y-102638761D01*
X155955904Y-102543523D01*
X155955904Y-102448285D01*
X156003523Y-102353047D01*
X156098761Y-102305428D01*
X156336857Y-102305428D01*
X156432095Y-102257809D01*
X157336857Y-102019714D02*
X157336857Y-102829238D01*
X157289238Y-102924476D01*
X157241619Y-102972095D01*
X157146380Y-103019714D01*
X157003523Y-103019714D01*
X156908285Y-102972095D01*
X157336857Y-102638761D02*
X157241619Y-102686380D01*
X157051142Y-102686380D01*
X156955904Y-102638761D01*
X156908285Y-102591142D01*
X156860666Y-102495904D01*
X156860666Y-102210190D01*
X156908285Y-102114952D01*
X156955904Y-102067333D01*
X157051142Y-102019714D01*
X157241619Y-102019714D01*
X157336857Y-102067333D01*
X158241619Y-102686380D02*
X158241619Y-102162571D01*
X158194000Y-102067333D01*
X158098761Y-102019714D01*
X157908285Y-102019714D01*
X157813047Y-102067333D01*
X158241619Y-102638761D02*
X158146380Y-102686380D01*
X157908285Y-102686380D01*
X157813047Y-102638761D01*
X157765428Y-102543523D01*
X157765428Y-102448285D01*
X157813047Y-102353047D01*
X157908285Y-102305428D01*
X158146380Y-102305428D01*
X158241619Y-102257809D01*
X158670190Y-102638761D02*
X158765428Y-102686380D01*
X158955904Y-102686380D01*
X159051142Y-102638761D01*
X159098761Y-102543523D01*
X159098761Y-102495904D01*
X159051142Y-102400666D01*
X158955904Y-102353047D01*
X158813047Y-102353047D01*
X158717809Y-102305428D01*
X158670190Y-102210190D01*
X158670190Y-102162571D01*
X158717809Y-102067333D01*
X158813047Y-102019714D01*
X158955904Y-102019714D01*
X159051142Y-102067333D01*
D11*
G36*
X144629910Y-98080348D02*
G01*
X144708454Y-98080778D01*
X144765298Y-98081942D01*
X144804105Y-98084207D01*
X144828538Y-98087940D01*
X144842262Y-98093506D01*
X144848940Y-98101273D01*
X144852236Y-98111605D01*
X144852556Y-98112943D01*
X144857562Y-98137079D01*
X144866829Y-98184701D01*
X144879392Y-98250741D01*
X144894287Y-98330128D01*
X144910551Y-98417796D01*
X144911119Y-98420875D01*
X144927410Y-98506789D01*
X144942652Y-98582696D01*
X144955861Y-98644045D01*
X144966054Y-98686282D01*
X144972248Y-98704855D01*
X144972543Y-98705184D01*
X144990788Y-98714253D01*
X145028405Y-98729367D01*
X145077271Y-98747262D01*
X145077543Y-98747358D01*
X145139093Y-98770493D01*
X145211657Y-98799965D01*
X145280057Y-98829597D01*
X145283294Y-98831062D01*
X145394702Y-98881626D01*
X145641399Y-98713160D01*
X145717077Y-98661803D01*
X145785631Y-98615889D01*
X145843088Y-98578030D01*
X145885476Y-98550837D01*
X145908825Y-98536921D01*
X145911042Y-98535889D01*
X145928010Y-98540484D01*
X145959701Y-98562655D01*
X146007352Y-98603447D01*
X146072198Y-98663905D01*
X146138397Y-98728227D01*
X146202214Y-98791612D01*
X146259329Y-98849451D01*
X146306305Y-98898175D01*
X146339703Y-98934210D01*
X146356085Y-98953984D01*
X146356694Y-98955002D01*
X146358505Y-98968572D01*
X146351683Y-98990733D01*
X146334540Y-99024478D01*
X146305393Y-99072800D01*
X146262555Y-99138692D01*
X146205448Y-99223517D01*
X146154766Y-99298177D01*
X146109461Y-99365140D01*
X146072150Y-99420516D01*
X146045452Y-99460420D01*
X146031985Y-99480962D01*
X146031137Y-99482356D01*
X146032781Y-99502038D01*
X146045245Y-99540293D01*
X146066048Y-99589889D01*
X146073462Y-99605728D01*
X146105814Y-99676290D01*
X146140328Y-99756353D01*
X146168365Y-99825629D01*
X146188568Y-99877045D01*
X146204615Y-99916119D01*
X146213888Y-99936541D01*
X146215041Y-99938114D01*
X146232096Y-99940721D01*
X146272298Y-99947863D01*
X146330302Y-99958523D01*
X146400763Y-99971685D01*
X146478335Y-99986333D01*
X146557672Y-100001449D01*
X146633431Y-100016018D01*
X146700264Y-100029022D01*
X146752828Y-100039445D01*
X146785776Y-100046270D01*
X146793857Y-100048199D01*
X146802205Y-100052962D01*
X146808506Y-100063718D01*
X146813045Y-100084098D01*
X146816104Y-100117734D01*
X146817967Y-100168255D01*
X146818918Y-100239292D01*
X146819240Y-100334476D01*
X146819257Y-100373492D01*
X146819257Y-100690799D01*
X146743057Y-100705839D01*
X146700663Y-100713995D01*
X146637400Y-100725899D01*
X146560962Y-100740116D01*
X146479043Y-100755210D01*
X146456400Y-100759355D01*
X146380806Y-100774053D01*
X146314953Y-100788505D01*
X146264366Y-100801375D01*
X146234574Y-100811322D01*
X146229612Y-100814287D01*
X146217426Y-100835283D01*
X146199953Y-100875967D01*
X146180577Y-100928322D01*
X146176734Y-100939600D01*
X146151339Y-101009523D01*
X146119817Y-101088418D01*
X146088969Y-101159266D01*
X146088817Y-101159595D01*
X146037447Y-101270733D01*
X146206399Y-101519253D01*
X146375352Y-101767772D01*
X146158429Y-101985058D01*
X146092819Y-102049726D01*
X146032979Y-102106733D01*
X145982267Y-102153033D01*
X145944046Y-102185584D01*
X145921675Y-102201343D01*
X145918466Y-102202343D01*
X145899626Y-102194469D01*
X145861180Y-102172578D01*
X145807330Y-102139267D01*
X145742276Y-102097131D01*
X145671940Y-102049943D01*
X145600555Y-102001810D01*
X145536908Y-101959928D01*
X145485041Y-101926871D01*
X145448995Y-101905218D01*
X145432867Y-101897543D01*
X145413189Y-101904037D01*
X145375875Y-101921150D01*
X145328621Y-101945326D01*
X145323612Y-101948013D01*
X145259977Y-101979927D01*
X145216341Y-101995579D01*
X145189202Y-101995745D01*
X145175057Y-101981204D01*
X145174975Y-101981000D01*
X145167905Y-101963779D01*
X145151042Y-101922899D01*
X145125695Y-101861525D01*
X145093171Y-101782819D01*
X145054778Y-101689947D01*
X145011822Y-101586072D01*
X144970222Y-101485502D01*
X144924504Y-101374516D01*
X144882526Y-101271703D01*
X144845548Y-101180215D01*
X144814827Y-101103201D01*
X144791622Y-101043815D01*
X144777190Y-101005209D01*
X144772743Y-100990800D01*
X144783896Y-100974272D01*
X144813069Y-100947930D01*
X144851971Y-100918887D01*
X144962757Y-100827039D01*
X145049351Y-100721759D01*
X145110716Y-100605266D01*
X145145815Y-100479776D01*
X145153608Y-100347507D01*
X145147943Y-100286457D01*
X145117078Y-100159795D01*
X145063920Y-100047941D01*
X144991767Y-99952001D01*
X144903917Y-99873076D01*
X144803665Y-99812270D01*
X144694310Y-99770687D01*
X144579147Y-99749428D01*
X144461475Y-99749599D01*
X144344590Y-99772301D01*
X144231789Y-99818638D01*
X144126369Y-99889713D01*
X144082368Y-99929911D01*
X143997979Y-100033129D01*
X143939222Y-100145925D01*
X143905704Y-100265010D01*
X143897035Y-100387095D01*
X143912823Y-100508893D01*
X143952678Y-100627116D01*
X144016207Y-100738475D01*
X144103021Y-100839684D01*
X144200029Y-100918887D01*
X144240437Y-100949162D01*
X144268982Y-100975219D01*
X144279257Y-100990825D01*
X144273877Y-101007843D01*
X144258575Y-101048500D01*
X144234612Y-101109642D01*
X144203244Y-101188119D01*
X144165732Y-101280780D01*
X144123333Y-101384472D01*
X144081663Y-101485526D01*
X144035690Y-101596607D01*
X143993107Y-101699541D01*
X143955221Y-101791165D01*
X143923340Y-101868316D01*
X143898771Y-101927831D01*
X143882820Y-101966544D01*
X143876910Y-101981000D01*
X143862948Y-101995685D01*
X143835940Y-101995642D01*
X143792413Y-101980099D01*
X143728890Y-101948284D01*
X143728388Y-101948013D01*
X143680560Y-101923323D01*
X143641897Y-101905338D01*
X143620095Y-101897614D01*
X143619133Y-101897543D01*
X143602721Y-101905378D01*
X143566487Y-101927165D01*
X143514474Y-101960328D01*
X143450725Y-102002291D01*
X143380060Y-102049943D01*
X143308116Y-102098191D01*
X143243274Y-102140151D01*
X143189735Y-102173227D01*
X143151697Y-102194821D01*
X143133533Y-102202343D01*
X143116808Y-102192457D01*
X143083180Y-102164826D01*
X143036010Y-102122495D01*
X142978658Y-102068505D01*
X142914484Y-102005899D01*
X142893497Y-101984983D01*
X142676499Y-101767623D01*
X142841668Y-101525220D01*
X142891864Y-101450781D01*
X142935919Y-101383972D01*
X142971362Y-101328665D01*
X142995719Y-101288729D01*
X143006522Y-101268036D01*
X143006838Y-101266563D01*
X143001143Y-101247058D01*
X142985826Y-101207822D01*
X142963537Y-101155430D01*
X142947893Y-101120355D01*
X142918641Y-101053201D01*
X142891094Y-100985358D01*
X142869737Y-100928034D01*
X142863935Y-100910572D01*
X142847452Y-100863938D01*
X142831340Y-100827905D01*
X142822490Y-100814287D01*
X142802960Y-100805952D01*
X142760334Y-100794137D01*
X142700145Y-100780181D01*
X142627922Y-100765422D01*
X142595600Y-100759355D01*
X142513522Y-100744273D01*
X142434795Y-100729669D01*
X142367109Y-100716980D01*
X142318160Y-100707642D01*
X142308943Y-100705839D01*
X142232743Y-100690799D01*
X142232743Y-100373492D01*
X142232914Y-100269154D01*
X142233616Y-100190213D01*
X142235134Y-100133038D01*
X142237749Y-100093999D01*
X142241746Y-100069465D01*
X142247409Y-100055805D01*
X142255020Y-100049389D01*
X142258143Y-100048199D01*
X142276978Y-100043980D01*
X142318588Y-100035562D01*
X142377630Y-100023961D01*
X142448757Y-100010195D01*
X142526625Y-99995280D01*
X142605887Y-99980232D01*
X142681198Y-99966069D01*
X142747213Y-99953806D01*
X142798587Y-99944461D01*
X142829975Y-99939050D01*
X142836959Y-99938114D01*
X142843285Y-99925596D01*
X142857290Y-99892246D01*
X142876355Y-99844377D01*
X142883634Y-99825629D01*
X142912996Y-99753195D01*
X142947571Y-99673170D01*
X142978537Y-99605728D01*
X143001323Y-99554159D01*
X143016482Y-99511785D01*
X143021542Y-99485834D01*
X143020736Y-99482356D01*
X143010041Y-99465936D01*
X142985620Y-99429417D01*
X142950095Y-99376687D01*
X142906087Y-99311635D01*
X142856217Y-99238151D01*
X142846356Y-99223645D01*
X142788492Y-99137704D01*
X142745956Y-99072261D01*
X142717054Y-99024304D01*
X142700090Y-98990820D01*
X142693367Y-98968795D01*
X142695190Y-98955217D01*
X142695236Y-98955131D01*
X142709586Y-98937297D01*
X142741323Y-98902817D01*
X142787010Y-98855268D01*
X142843204Y-98798222D01*
X142906468Y-98735255D01*
X142913602Y-98728227D01*
X142993330Y-98651020D01*
X143054857Y-98594330D01*
X143099421Y-98557110D01*
X143128257Y-98538315D01*
X143140958Y-98535889D01*
X143159494Y-98546471D01*
X143197961Y-98570916D01*
X143252386Y-98606612D01*
X143318798Y-98650947D01*
X143393225Y-98701311D01*
X143410601Y-98713160D01*
X143657297Y-98881626D01*
X143768706Y-98831062D01*
X143836457Y-98801595D01*
X143909183Y-98771959D01*
X143971703Y-98748330D01*
X143974457Y-98747358D01*
X144023360Y-98729457D01*
X144061057Y-98714320D01*
X144079425Y-98705210D01*
X144079456Y-98705184D01*
X144085285Y-98688717D01*
X144095192Y-98648219D01*
X144108195Y-98588242D01*
X144123309Y-98513340D01*
X144139552Y-98428064D01*
X144140881Y-98420875D01*
X144157175Y-98333014D01*
X144172133Y-98253260D01*
X144184791Y-98186681D01*
X144194186Y-98138347D01*
X144199354Y-98113325D01*
X144199444Y-98112943D01*
X144202589Y-98102299D01*
X144208704Y-98094262D01*
X144221453Y-98088467D01*
X144244500Y-98084547D01*
X144281509Y-98082135D01*
X144336144Y-98080865D01*
X144412067Y-98080371D01*
X144512944Y-98080286D01*
X144526000Y-98080286D01*
X144629910Y-98080348D01*
G37*
X144629910Y-98080348D02*
X144708454Y-98080778D01*
X144765298Y-98081942D01*
X144804105Y-98084207D01*
X144828538Y-98087940D01*
X144842262Y-98093506D01*
X144848940Y-98101273D01*
X144852236Y-98111605D01*
X144852556Y-98112943D01*
X144857562Y-98137079D01*
X144866829Y-98184701D01*
X144879392Y-98250741D01*
X144894287Y-98330128D01*
X144910551Y-98417796D01*
X144911119Y-98420875D01*
X144927410Y-98506789D01*
X144942652Y-98582696D01*
X144955861Y-98644045D01*
X144966054Y-98686282D01*
X144972248Y-98704855D01*
X144972543Y-98705184D01*
X144990788Y-98714253D01*
X145028405Y-98729367D01*
X145077271Y-98747262D01*
X145077543Y-98747358D01*
X145139093Y-98770493D01*
X145211657Y-98799965D01*
X145280057Y-98829597D01*
X145283294Y-98831062D01*
X145394702Y-98881626D01*
X145641399Y-98713160D01*
X145717077Y-98661803D01*
X145785631Y-98615889D01*
X145843088Y-98578030D01*
X145885476Y-98550837D01*
X145908825Y-98536921D01*
X145911042Y-98535889D01*
X145928010Y-98540484D01*
X145959701Y-98562655D01*
X146007352Y-98603447D01*
X146072198Y-98663905D01*
X146138397Y-98728227D01*
X146202214Y-98791612D01*
X146259329Y-98849451D01*
X146306305Y-98898175D01*
X146339703Y-98934210D01*
X146356085Y-98953984D01*
X146356694Y-98955002D01*
X146358505Y-98968572D01*
X146351683Y-98990733D01*
X146334540Y-99024478D01*
X146305393Y-99072800D01*
X146262555Y-99138692D01*
X146205448Y-99223517D01*
X146154766Y-99298177D01*
X146109461Y-99365140D01*
X146072150Y-99420516D01*
X146045452Y-99460420D01*
X146031985Y-99480962D01*
X146031137Y-99482356D01*
X146032781Y-99502038D01*
X146045245Y-99540293D01*
X146066048Y-99589889D01*
X146073462Y-99605728D01*
X146105814Y-99676290D01*
X146140328Y-99756353D01*
X146168365Y-99825629D01*
X146188568Y-99877045D01*
X146204615Y-99916119D01*
X146213888Y-99936541D01*
X146215041Y-99938114D01*
X146232096Y-99940721D01*
X146272298Y-99947863D01*
X146330302Y-99958523D01*
X146400763Y-99971685D01*
X146478335Y-99986333D01*
X146557672Y-100001449D01*
X146633431Y-100016018D01*
X146700264Y-100029022D01*
X146752828Y-100039445D01*
X146785776Y-100046270D01*
X146793857Y-100048199D01*
X146802205Y-100052962D01*
X146808506Y-100063718D01*
X146813045Y-100084098D01*
X146816104Y-100117734D01*
X146817967Y-100168255D01*
X146818918Y-100239292D01*
X146819240Y-100334476D01*
X146819257Y-100373492D01*
X146819257Y-100690799D01*
X146743057Y-100705839D01*
X146700663Y-100713995D01*
X146637400Y-100725899D01*
X146560962Y-100740116D01*
X146479043Y-100755210D01*
X146456400Y-100759355D01*
X146380806Y-100774053D01*
X146314953Y-100788505D01*
X146264366Y-100801375D01*
X146234574Y-100811322D01*
X146229612Y-100814287D01*
X146217426Y-100835283D01*
X146199953Y-100875967D01*
X146180577Y-100928322D01*
X146176734Y-100939600D01*
X146151339Y-101009523D01*
X146119817Y-101088418D01*
X146088969Y-101159266D01*
X146088817Y-101159595D01*
X146037447Y-101270733D01*
X146206399Y-101519253D01*
X146375352Y-101767772D01*
X146158429Y-101985058D01*
X146092819Y-102049726D01*
X146032979Y-102106733D01*
X145982267Y-102153033D01*
X145944046Y-102185584D01*
X145921675Y-102201343D01*
X145918466Y-102202343D01*
X145899626Y-102194469D01*
X145861180Y-102172578D01*
X145807330Y-102139267D01*
X145742276Y-102097131D01*
X145671940Y-102049943D01*
X145600555Y-102001810D01*
X145536908Y-101959928D01*
X145485041Y-101926871D01*
X145448995Y-101905218D01*
X145432867Y-101897543D01*
X145413189Y-101904037D01*
X145375875Y-101921150D01*
X145328621Y-101945326D01*
X145323612Y-101948013D01*
X145259977Y-101979927D01*
X145216341Y-101995579D01*
X145189202Y-101995745D01*
X145175057Y-101981204D01*
X145174975Y-101981000D01*
X145167905Y-101963779D01*
X145151042Y-101922899D01*
X145125695Y-101861525D01*
X145093171Y-101782819D01*
X145054778Y-101689947D01*
X145011822Y-101586072D01*
X144970222Y-101485502D01*
X144924504Y-101374516D01*
X144882526Y-101271703D01*
X144845548Y-101180215D01*
X144814827Y-101103201D01*
X144791622Y-101043815D01*
X144777190Y-101005209D01*
X144772743Y-100990800D01*
X144783896Y-100974272D01*
X144813069Y-100947930D01*
X144851971Y-100918887D01*
X144962757Y-100827039D01*
X145049351Y-100721759D01*
X145110716Y-100605266D01*
X145145815Y-100479776D01*
X145153608Y-100347507D01*
X145147943Y-100286457D01*
X145117078Y-100159795D01*
X145063920Y-100047941D01*
X144991767Y-99952001D01*
X144903917Y-99873076D01*
X144803665Y-99812270D01*
X144694310Y-99770687D01*
X144579147Y-99749428D01*
X144461475Y-99749599D01*
X144344590Y-99772301D01*
X144231789Y-99818638D01*
X144126369Y-99889713D01*
X144082368Y-99929911D01*
X143997979Y-100033129D01*
X143939222Y-100145925D01*
X143905704Y-100265010D01*
X143897035Y-100387095D01*
X143912823Y-100508893D01*
X143952678Y-100627116D01*
X144016207Y-100738475D01*
X144103021Y-100839684D01*
X144200029Y-100918887D01*
X144240437Y-100949162D01*
X144268982Y-100975219D01*
X144279257Y-100990825D01*
X144273877Y-101007843D01*
X144258575Y-101048500D01*
X144234612Y-101109642D01*
X144203244Y-101188119D01*
X144165732Y-101280780D01*
X144123333Y-101384472D01*
X144081663Y-101485526D01*
X144035690Y-101596607D01*
X143993107Y-101699541D01*
X143955221Y-101791165D01*
X143923340Y-101868316D01*
X143898771Y-101927831D01*
X143882820Y-101966544D01*
X143876910Y-101981000D01*
X143862948Y-101995685D01*
X143835940Y-101995642D01*
X143792413Y-101980099D01*
X143728890Y-101948284D01*
X143728388Y-101948013D01*
X143680560Y-101923323D01*
X143641897Y-101905338D01*
X143620095Y-101897614D01*
X143619133Y-101897543D01*
X143602721Y-101905378D01*
X143566487Y-101927165D01*
X143514474Y-101960328D01*
X143450725Y-102002291D01*
X143380060Y-102049943D01*
X143308116Y-102098191D01*
X143243274Y-102140151D01*
X143189735Y-102173227D01*
X143151697Y-102194821D01*
X143133533Y-102202343D01*
X143116808Y-102192457D01*
X143083180Y-102164826D01*
X143036010Y-102122495D01*
X142978658Y-102068505D01*
X142914484Y-102005899D01*
X142893497Y-101984983D01*
X142676499Y-101767623D01*
X142841668Y-101525220D01*
X142891864Y-101450781D01*
X142935919Y-101383972D01*
X142971362Y-101328665D01*
X142995719Y-101288729D01*
X143006522Y-101268036D01*
X143006838Y-101266563D01*
X143001143Y-101247058D01*
X142985826Y-101207822D01*
X142963537Y-101155430D01*
X142947893Y-101120355D01*
X142918641Y-101053201D01*
X142891094Y-100985358D01*
X142869737Y-100928034D01*
X142863935Y-100910572D01*
X142847452Y-100863938D01*
X142831340Y-100827905D01*
X142822490Y-100814287D01*
X142802960Y-100805952D01*
X142760334Y-100794137D01*
X142700145Y-100780181D01*
X142627922Y-100765422D01*
X142595600Y-100759355D01*
X142513522Y-100744273D01*
X142434795Y-100729669D01*
X142367109Y-100716980D01*
X142318160Y-100707642D01*
X142308943Y-100705839D01*
X142232743Y-100690799D01*
X142232743Y-100373492D01*
X142232914Y-100269154D01*
X142233616Y-100190213D01*
X142235134Y-100133038D01*
X142237749Y-100093999D01*
X142241746Y-100069465D01*
X142247409Y-100055805D01*
X142255020Y-100049389D01*
X142258143Y-100048199D01*
X142276978Y-100043980D01*
X142318588Y-100035562D01*
X142377630Y-100023961D01*
X142448757Y-100010195D01*
X142526625Y-99995280D01*
X142605887Y-99980232D01*
X142681198Y-99966069D01*
X142747213Y-99953806D01*
X142798587Y-99944461D01*
X142829975Y-99939050D01*
X142836959Y-99938114D01*
X142843285Y-99925596D01*
X142857290Y-99892246D01*
X142876355Y-99844377D01*
X142883634Y-99825629D01*
X142912996Y-99753195D01*
X142947571Y-99673170D01*
X142978537Y-99605728D01*
X143001323Y-99554159D01*
X143016482Y-99511785D01*
X143021542Y-99485834D01*
X143020736Y-99482356D01*
X143010041Y-99465936D01*
X142985620Y-99429417D01*
X142950095Y-99376687D01*
X142906087Y-99311635D01*
X142856217Y-99238151D01*
X142846356Y-99223645D01*
X142788492Y-99137704D01*
X142745956Y-99072261D01*
X142717054Y-99024304D01*
X142700090Y-98990820D01*
X142693367Y-98968795D01*
X142695190Y-98955217D01*
X142695236Y-98955131D01*
X142709586Y-98937297D01*
X142741323Y-98902817D01*
X142787010Y-98855268D01*
X142843204Y-98798222D01*
X142906468Y-98735255D01*
X142913602Y-98728227D01*
X142993330Y-98651020D01*
X143054857Y-98594330D01*
X143099421Y-98557110D01*
X143128257Y-98538315D01*
X143140958Y-98535889D01*
X143159494Y-98546471D01*
X143197961Y-98570916D01*
X143252386Y-98606612D01*
X143318798Y-98650947D01*
X143393225Y-98701311D01*
X143410601Y-98713160D01*
X143657297Y-98881626D01*
X143768706Y-98831062D01*
X143836457Y-98801595D01*
X143909183Y-98771959D01*
X143971703Y-98748330D01*
X143974457Y-98747358D01*
X144023360Y-98729457D01*
X144061057Y-98714320D01*
X144079425Y-98705210D01*
X144079456Y-98705184D01*
X144085285Y-98688717D01*
X144095192Y-98648219D01*
X144108195Y-98588242D01*
X144123309Y-98513340D01*
X144139552Y-98428064D01*
X144140881Y-98420875D01*
X144157175Y-98333014D01*
X144172133Y-98253260D01*
X144184791Y-98186681D01*
X144194186Y-98138347D01*
X144199354Y-98113325D01*
X144199444Y-98112943D01*
X144202589Y-98102299D01*
X144208704Y-98094262D01*
X144221453Y-98088467D01*
X144244500Y-98084547D01*
X144281509Y-98082135D01*
X144336144Y-98080865D01*
X144412067Y-98080371D01*
X144512944Y-98080286D01*
X144526000Y-98080286D01*
X144629910Y-98080348D01*
G36*
X147679595Y-102804966D02*
G01*
X147737021Y-102842497D01*
X147764719Y-102876096D01*
X147786662Y-102937064D01*
X147788405Y-102985308D01*
X147784457Y-103049816D01*
X147635686Y-103114934D01*
X147563349Y-103148202D01*
X147516084Y-103174964D01*
X147491507Y-103198144D01*
X147487237Y-103220667D01*
X147500889Y-103245455D01*
X147515943Y-103261886D01*
X147559746Y-103288235D01*
X147607389Y-103290081D01*
X147651145Y-103269546D01*
X147683289Y-103228752D01*
X147689038Y-103214347D01*
X147716576Y-103169356D01*
X147748258Y-103150182D01*
X147791714Y-103133779D01*
X147791714Y-103195966D01*
X147787872Y-103238283D01*
X147772823Y-103273969D01*
X147741280Y-103314943D01*
X147736592Y-103320267D01*
X147701506Y-103356720D01*
X147671347Y-103376283D01*
X147633615Y-103385283D01*
X147602335Y-103388230D01*
X147546385Y-103388965D01*
X147506555Y-103379660D01*
X147481708Y-103365846D01*
X147442656Y-103335467D01*
X147415625Y-103302613D01*
X147398517Y-103261294D01*
X147389238Y-103205521D01*
X147385693Y-103129305D01*
X147385410Y-103090622D01*
X147386372Y-103044247D01*
X147474007Y-103044247D01*
X147475023Y-103069126D01*
X147477556Y-103073200D01*
X147494274Y-103067665D01*
X147530249Y-103053017D01*
X147578331Y-103032190D01*
X147588386Y-103027714D01*
X147649152Y-102996814D01*
X147682632Y-102969657D01*
X147689990Y-102944220D01*
X147672391Y-102918481D01*
X147657856Y-102907109D01*
X147605410Y-102884364D01*
X147556322Y-102888122D01*
X147515227Y-102915884D01*
X147486758Y-102965152D01*
X147477631Y-103004257D01*
X147474007Y-103044247D01*
X147386372Y-103044247D01*
X147387285Y-103000249D01*
X147394196Y-102933384D01*
X147407884Y-102884695D01*
X147430096Y-102848849D01*
X147462574Y-102820513D01*
X147476733Y-102811355D01*
X147541053Y-102787507D01*
X147611473Y-102786006D01*
X147679595Y-102804966D01*
G37*
X147679595Y-102804966D02*
X147737021Y-102842497D01*
X147764719Y-102876096D01*
X147786662Y-102937064D01*
X147788405Y-102985308D01*
X147784457Y-103049816D01*
X147635686Y-103114934D01*
X147563349Y-103148202D01*
X147516084Y-103174964D01*
X147491507Y-103198144D01*
X147487237Y-103220667D01*
X147500889Y-103245455D01*
X147515943Y-103261886D01*
X147559746Y-103288235D01*
X147607389Y-103290081D01*
X147651145Y-103269546D01*
X147683289Y-103228752D01*
X147689038Y-103214347D01*
X147716576Y-103169356D01*
X147748258Y-103150182D01*
X147791714Y-103133779D01*
X147791714Y-103195966D01*
X147787872Y-103238283D01*
X147772823Y-103273969D01*
X147741280Y-103314943D01*
X147736592Y-103320267D01*
X147701506Y-103356720D01*
X147671347Y-103376283D01*
X147633615Y-103385283D01*
X147602335Y-103388230D01*
X147546385Y-103388965D01*
X147506555Y-103379660D01*
X147481708Y-103365846D01*
X147442656Y-103335467D01*
X147415625Y-103302613D01*
X147398517Y-103261294D01*
X147389238Y-103205521D01*
X147385693Y-103129305D01*
X147385410Y-103090622D01*
X147386372Y-103044247D01*
X147474007Y-103044247D01*
X147475023Y-103069126D01*
X147477556Y-103073200D01*
X147494274Y-103067665D01*
X147530249Y-103053017D01*
X147578331Y-103032190D01*
X147588386Y-103027714D01*
X147649152Y-102996814D01*
X147682632Y-102969657D01*
X147689990Y-102944220D01*
X147672391Y-102918481D01*
X147657856Y-102907109D01*
X147605410Y-102884364D01*
X147556322Y-102888122D01*
X147515227Y-102915884D01*
X147486758Y-102965152D01*
X147477631Y-103004257D01*
X147474007Y-103044247D01*
X147386372Y-103044247D01*
X147387285Y-103000249D01*
X147394196Y-102933384D01*
X147407884Y-102884695D01*
X147430096Y-102848849D01*
X147462574Y-102820513D01*
X147476733Y-102811355D01*
X147541053Y-102787507D01*
X147611473Y-102786006D01*
X147679595Y-102804966D01*
G36*
X147178600Y-102796752D02*
G01*
X147195948Y-102804334D01*
X147237356Y-102837128D01*
X147272765Y-102884547D01*
X147294664Y-102935151D01*
X147298229Y-102960098D01*
X147286279Y-102994927D01*
X147260067Y-103013357D01*
X147231964Y-103024516D01*
X147219095Y-103026572D01*
X147212829Y-103011649D01*
X147200456Y-102979175D01*
X147195028Y-102964502D01*
X147164590Y-102913744D01*
X147120520Y-102888427D01*
X147064010Y-102889206D01*
X147059825Y-102890203D01*
X147029655Y-102904507D01*
X147007476Y-102932393D01*
X146992327Y-102977287D01*
X146983250Y-103042615D01*
X146979286Y-103131804D01*
X146978914Y-103179261D01*
X146978730Y-103254071D01*
X146977522Y-103305069D01*
X146974309Y-103337471D01*
X146968109Y-103356495D01*
X146957940Y-103367356D01*
X146942819Y-103375272D01*
X146941946Y-103375670D01*
X146912828Y-103387981D01*
X146898403Y-103392514D01*
X146896186Y-103378809D01*
X146894289Y-103340925D01*
X146892847Y-103283715D01*
X146891998Y-103212027D01*
X146891829Y-103159565D01*
X146892692Y-103058047D01*
X146896070Y-102981032D01*
X146903142Y-102924023D01*
X146915088Y-102882526D01*
X146933090Y-102852043D01*
X146958327Y-102828080D01*
X146983247Y-102811355D01*
X147043171Y-102789097D01*
X147112911Y-102784076D01*
X147178600Y-102796752D01*
G37*
X147178600Y-102796752D02*
X147195948Y-102804334D01*
X147237356Y-102837128D01*
X147272765Y-102884547D01*
X147294664Y-102935151D01*
X147298229Y-102960098D01*
X147286279Y-102994927D01*
X147260067Y-103013357D01*
X147231964Y-103024516D01*
X147219095Y-103026572D01*
X147212829Y-103011649D01*
X147200456Y-102979175D01*
X147195028Y-102964502D01*
X147164590Y-102913744D01*
X147120520Y-102888427D01*
X147064010Y-102889206D01*
X147059825Y-102890203D01*
X147029655Y-102904507D01*
X147007476Y-102932393D01*
X146992327Y-102977287D01*
X146983250Y-103042615D01*
X146979286Y-103131804D01*
X146978914Y-103179261D01*
X146978730Y-103254071D01*
X146977522Y-103305069D01*
X146974309Y-103337471D01*
X146968109Y-103356495D01*
X146957940Y-103367356D01*
X146942819Y-103375272D01*
X146941946Y-103375670D01*
X146912828Y-103387981D01*
X146898403Y-103392514D01*
X146896186Y-103378809D01*
X146894289Y-103340925D01*
X146892847Y-103283715D01*
X146891998Y-103212027D01*
X146891829Y-103159565D01*
X146892692Y-103058047D01*
X146896070Y-102981032D01*
X146903142Y-102924023D01*
X146915088Y-102882526D01*
X146933090Y-102852043D01*
X146958327Y-102828080D01*
X146983247Y-102811355D01*
X147043171Y-102789097D01*
X147112911Y-102784076D01*
X147178600Y-102796752D01*
G36*
X146670876Y-102794335D02*
G01*
X146712667Y-102813344D01*
X146745469Y-102836378D01*
X146769503Y-102862133D01*
X146786097Y-102895358D01*
X146796577Y-102940800D01*
X146802271Y-103003207D01*
X146804507Y-103087327D01*
X146804743Y-103142721D01*
X146804743Y-103358826D01*
X146767774Y-103375670D01*
X146738656Y-103387981D01*
X146724231Y-103392514D01*
X146721472Y-103379025D01*
X146719282Y-103342653D01*
X146717942Y-103289542D01*
X146717657Y-103247372D01*
X146716434Y-103186447D01*
X146713136Y-103138115D01*
X146708321Y-103108518D01*
X146704496Y-103102229D01*
X146678783Y-103108652D01*
X146638418Y-103125125D01*
X146591679Y-103147458D01*
X146546845Y-103171457D01*
X146512193Y-103192930D01*
X146496002Y-103207685D01*
X146495938Y-103207845D01*
X146497330Y-103235152D01*
X146509818Y-103261219D01*
X146531743Y-103282392D01*
X146563743Y-103289474D01*
X146591092Y-103288649D01*
X146629826Y-103288042D01*
X146650158Y-103297116D01*
X146662369Y-103321092D01*
X146663909Y-103325613D01*
X146669203Y-103359806D01*
X146655047Y-103380568D01*
X146618148Y-103390462D01*
X146578289Y-103392292D01*
X146506562Y-103378727D01*
X146469432Y-103359355D01*
X146423576Y-103313845D01*
X146399256Y-103257983D01*
X146397073Y-103198957D01*
X146417629Y-103143953D01*
X146448549Y-103109486D01*
X146479420Y-103090189D01*
X146527942Y-103065759D01*
X146584485Y-103040985D01*
X146593910Y-103037199D01*
X146656019Y-103009791D01*
X146691822Y-102985634D01*
X146703337Y-102961619D01*
X146692580Y-102934635D01*
X146674114Y-102913543D01*
X146630469Y-102887572D01*
X146582446Y-102885624D01*
X146538406Y-102905637D01*
X146506709Y-102945551D01*
X146502549Y-102955848D01*
X146478327Y-102993724D01*
X146442965Y-103021842D01*
X146398343Y-103044917D01*
X146398343Y-102979485D01*
X146400969Y-102939506D01*
X146412230Y-102907997D01*
X146437199Y-102874378D01*
X146461169Y-102848484D01*
X146498441Y-102811817D01*
X146527401Y-102792121D01*
X146558505Y-102784220D01*
X146593713Y-102782914D01*
X146670876Y-102794335D01*
G37*
X146670876Y-102794335D02*
X146712667Y-102813344D01*
X146745469Y-102836378D01*
X146769503Y-102862133D01*
X146786097Y-102895358D01*
X146796577Y-102940800D01*
X146802271Y-103003207D01*
X146804507Y-103087327D01*
X146804743Y-103142721D01*
X146804743Y-103358826D01*
X146767774Y-103375670D01*
X146738656Y-103387981D01*
X146724231Y-103392514D01*
X146721472Y-103379025D01*
X146719282Y-103342653D01*
X146717942Y-103289542D01*
X146717657Y-103247372D01*
X146716434Y-103186447D01*
X146713136Y-103138115D01*
X146708321Y-103108518D01*
X146704496Y-103102229D01*
X146678783Y-103108652D01*
X146638418Y-103125125D01*
X146591679Y-103147458D01*
X146546845Y-103171457D01*
X146512193Y-103192930D01*
X146496002Y-103207685D01*
X146495938Y-103207845D01*
X146497330Y-103235152D01*
X146509818Y-103261219D01*
X146531743Y-103282392D01*
X146563743Y-103289474D01*
X146591092Y-103288649D01*
X146629826Y-103288042D01*
X146650158Y-103297116D01*
X146662369Y-103321092D01*
X146663909Y-103325613D01*
X146669203Y-103359806D01*
X146655047Y-103380568D01*
X146618148Y-103390462D01*
X146578289Y-103392292D01*
X146506562Y-103378727D01*
X146469432Y-103359355D01*
X146423576Y-103313845D01*
X146399256Y-103257983D01*
X146397073Y-103198957D01*
X146417629Y-103143953D01*
X146448549Y-103109486D01*
X146479420Y-103090189D01*
X146527942Y-103065759D01*
X146584485Y-103040985D01*
X146593910Y-103037199D01*
X146656019Y-103009791D01*
X146691822Y-102985634D01*
X146703337Y-102961619D01*
X146692580Y-102934635D01*
X146674114Y-102913543D01*
X146630469Y-102887572D01*
X146582446Y-102885624D01*
X146538406Y-102905637D01*
X146506709Y-102945551D01*
X146502549Y-102955848D01*
X146478327Y-102993724D01*
X146442965Y-103021842D01*
X146398343Y-103044917D01*
X146398343Y-102979485D01*
X146400969Y-102939506D01*
X146412230Y-102907997D01*
X146437199Y-102874378D01*
X146461169Y-102848484D01*
X146498441Y-102811817D01*
X146527401Y-102792121D01*
X146558505Y-102784220D01*
X146593713Y-102782914D01*
X146670876Y-102794335D01*
G36*
X146305833Y-102796663D02*
G01*
X146308048Y-102834850D01*
X146309784Y-102892886D01*
X146310899Y-102966180D01*
X146311257Y-103043055D01*
X146311257Y-103303196D01*
X146265326Y-103349127D01*
X146233675Y-103377429D01*
X146205890Y-103388893D01*
X146167915Y-103388168D01*
X146152840Y-103386321D01*
X146105726Y-103380948D01*
X146066756Y-103377869D01*
X146057257Y-103377585D01*
X146025233Y-103379445D01*
X145979432Y-103384114D01*
X145961674Y-103386321D01*
X145918057Y-103389735D01*
X145888745Y-103382320D01*
X145859680Y-103359427D01*
X145849188Y-103349127D01*
X145803257Y-103303196D01*
X145803257Y-102816602D01*
X145840226Y-102799758D01*
X145872059Y-102787282D01*
X145890683Y-102782914D01*
X145895458Y-102796718D01*
X145899921Y-102835286D01*
X145903775Y-102894356D01*
X145906722Y-102969663D01*
X145908143Y-103033286D01*
X145912114Y-103283657D01*
X145946759Y-103288556D01*
X145978268Y-103285131D01*
X145993708Y-103274041D01*
X145998023Y-103253308D01*
X146001708Y-103209145D01*
X146004469Y-103147146D01*
X146006012Y-103072909D01*
X146006235Y-103034706D01*
X146006457Y-102814783D01*
X146052166Y-102798849D01*
X146084518Y-102788015D01*
X146102115Y-102782962D01*
X146102623Y-102782914D01*
X146104388Y-102796648D01*
X146106329Y-102834730D01*
X146108282Y-102892482D01*
X146110084Y-102965227D01*
X146111343Y-103033286D01*
X146115314Y-103283657D01*
X146202400Y-103283657D01*
X146206396Y-103055240D01*
X146210392Y-102826822D01*
X146252847Y-102804868D01*
X146284192Y-102789793D01*
X146302744Y-102782951D01*
X146303279Y-102782914D01*
X146305833Y-102796663D01*
G37*
X146305833Y-102796663D02*
X146308048Y-102834850D01*
X146309784Y-102892886D01*
X146310899Y-102966180D01*
X146311257Y-103043055D01*
X146311257Y-103303196D01*
X146265326Y-103349127D01*
X146233675Y-103377429D01*
X146205890Y-103388893D01*
X146167915Y-103388168D01*
X146152840Y-103386321D01*
X146105726Y-103380948D01*
X146066756Y-103377869D01*
X146057257Y-103377585D01*
X146025233Y-103379445D01*
X145979432Y-103384114D01*
X145961674Y-103386321D01*
X145918057Y-103389735D01*
X145888745Y-103382320D01*
X145859680Y-103359427D01*
X145849188Y-103349127D01*
X145803257Y-103303196D01*
X145803257Y-102816602D01*
X145840226Y-102799758D01*
X145872059Y-102787282D01*
X145890683Y-102782914D01*
X145895458Y-102796718D01*
X145899921Y-102835286D01*
X145903775Y-102894356D01*
X145906722Y-102969663D01*
X145908143Y-103033286D01*
X145912114Y-103283657D01*
X145946759Y-103288556D01*
X145978268Y-103285131D01*
X145993708Y-103274041D01*
X145998023Y-103253308D01*
X146001708Y-103209145D01*
X146004469Y-103147146D01*
X146006012Y-103072909D01*
X146006235Y-103034706D01*
X146006457Y-102814783D01*
X146052166Y-102798849D01*
X146084518Y-102788015D01*
X146102115Y-102782962D01*
X146102623Y-102782914D01*
X146104388Y-102796648D01*
X146106329Y-102834730D01*
X146108282Y-102892482D01*
X146110084Y-102965227D01*
X146111343Y-103033286D01*
X146115314Y-103283657D01*
X146202400Y-103283657D01*
X146206396Y-103055240D01*
X146210392Y-102826822D01*
X146252847Y-102804868D01*
X146284192Y-102789793D01*
X146302744Y-102782951D01*
X146303279Y-102782914D01*
X146305833Y-102796663D01*
G36*
X145716117Y-102903358D02*
G01*
X145715933Y-103011837D01*
X145715219Y-103095287D01*
X145713675Y-103157704D01*
X145711001Y-103203085D01*
X145706894Y-103235429D01*
X145701055Y-103258733D01*
X145693182Y-103276995D01*
X145687221Y-103287418D01*
X145637855Y-103343945D01*
X145575264Y-103379377D01*
X145506013Y-103392090D01*
X145436668Y-103380463D01*
X145395375Y-103359568D01*
X145352025Y-103323422D01*
X145322481Y-103279276D01*
X145304655Y-103221462D01*
X145296463Y-103144313D01*
X145295302Y-103087714D01*
X145295458Y-103083647D01*
X145396857Y-103083647D01*
X145397476Y-103148550D01*
X145400314Y-103191514D01*
X145406840Y-103219622D01*
X145418523Y-103239953D01*
X145432483Y-103255288D01*
X145479365Y-103284890D01*
X145529701Y-103287419D01*
X145577276Y-103262705D01*
X145580979Y-103259356D01*
X145596783Y-103241935D01*
X145606693Y-103221209D01*
X145612058Y-103190362D01*
X145614228Y-103142577D01*
X145614571Y-103089748D01*
X145613827Y-103023381D01*
X145610748Y-102979106D01*
X145604061Y-102950009D01*
X145592496Y-102929173D01*
X145583013Y-102918107D01*
X145538960Y-102890198D01*
X145488224Y-102886843D01*
X145439796Y-102908159D01*
X145430450Y-102916073D01*
X145414540Y-102933647D01*
X145404610Y-102954587D01*
X145399278Y-102985782D01*
X145397163Y-103034122D01*
X145396857Y-103083647D01*
X145295458Y-103083647D01*
X145298810Y-102996568D01*
X145310726Y-102928086D01*
X145333135Y-102876600D01*
X145368124Y-102836443D01*
X145395375Y-102815861D01*
X145444907Y-102793625D01*
X145502316Y-102783304D01*
X145555682Y-102786067D01*
X145585543Y-102797212D01*
X145597261Y-102800383D01*
X145605037Y-102788557D01*
X145610465Y-102756866D01*
X145614571Y-102708593D01*
X145619067Y-102654829D01*
X145625313Y-102622482D01*
X145636676Y-102603985D01*
X145656528Y-102591770D01*
X145669000Y-102586362D01*
X145716171Y-102566601D01*
X145716117Y-102903358D01*
G37*
X145716117Y-102903358D02*
X145715933Y-103011837D01*
X145715219Y-103095287D01*
X145713675Y-103157704D01*
X145711001Y-103203085D01*
X145706894Y-103235429D01*
X145701055Y-103258733D01*
X145693182Y-103276995D01*
X145687221Y-103287418D01*
X145637855Y-103343945D01*
X145575264Y-103379377D01*
X145506013Y-103392090D01*
X145436668Y-103380463D01*
X145395375Y-103359568D01*
X145352025Y-103323422D01*
X145322481Y-103279276D01*
X145304655Y-103221462D01*
X145296463Y-103144313D01*
X145295302Y-103087714D01*
X145295458Y-103083647D01*
X145396857Y-103083647D01*
X145397476Y-103148550D01*
X145400314Y-103191514D01*
X145406840Y-103219622D01*
X145418523Y-103239953D01*
X145432483Y-103255288D01*
X145479365Y-103284890D01*
X145529701Y-103287419D01*
X145577276Y-103262705D01*
X145580979Y-103259356D01*
X145596783Y-103241935D01*
X145606693Y-103221209D01*
X145612058Y-103190362D01*
X145614228Y-103142577D01*
X145614571Y-103089748D01*
X145613827Y-103023381D01*
X145610748Y-102979106D01*
X145604061Y-102950009D01*
X145592496Y-102929173D01*
X145583013Y-102918107D01*
X145538960Y-102890198D01*
X145488224Y-102886843D01*
X145439796Y-102908159D01*
X145430450Y-102916073D01*
X145414540Y-102933647D01*
X145404610Y-102954587D01*
X145399278Y-102985782D01*
X145397163Y-103034122D01*
X145396857Y-103083647D01*
X145295458Y-103083647D01*
X145298810Y-102996568D01*
X145310726Y-102928086D01*
X145333135Y-102876600D01*
X145368124Y-102836443D01*
X145395375Y-102815861D01*
X145444907Y-102793625D01*
X145502316Y-102783304D01*
X145555682Y-102786067D01*
X145585543Y-102797212D01*
X145597261Y-102800383D01*
X145605037Y-102788557D01*
X145610465Y-102756866D01*
X145614571Y-102708593D01*
X145619067Y-102654829D01*
X145625313Y-102622482D01*
X145636676Y-102603985D01*
X145656528Y-102591770D01*
X145669000Y-102586362D01*
X145716171Y-102566601D01*
X145716117Y-102903358D01*
G36*
X145055926Y-102787755D02*
G01*
X145121858Y-102812084D01*
X145175273Y-102855117D01*
X145196164Y-102885409D01*
X145218939Y-102940994D01*
X145218466Y-102981186D01*
X145194562Y-103008217D01*
X145185717Y-103012813D01*
X145147530Y-103027144D01*
X145128028Y-103023472D01*
X145121422Y-102999407D01*
X145121086Y-102986114D01*
X145108992Y-102937210D01*
X145077471Y-102902999D01*
X145033659Y-102886476D01*
X144984695Y-102890634D01*
X144944894Y-102912227D01*
X144931450Y-102924544D01*
X144921921Y-102939487D01*
X144915485Y-102962075D01*
X144911317Y-102997328D01*
X144908597Y-103050266D01*
X144906502Y-103125907D01*
X144905960Y-103149857D01*
X144903981Y-103231790D01*
X144901731Y-103289455D01*
X144898357Y-103327608D01*
X144893006Y-103351004D01*
X144884824Y-103364398D01*
X144872959Y-103372545D01*
X144865362Y-103376144D01*
X144833102Y-103388452D01*
X144814111Y-103392514D01*
X144807836Y-103378948D01*
X144804006Y-103337934D01*
X144802600Y-103268999D01*
X144803598Y-103171669D01*
X144803908Y-103156657D01*
X144806101Y-103067859D01*
X144808693Y-103003019D01*
X144812382Y-102957067D01*
X144817864Y-102924935D01*
X144825835Y-102901553D01*
X144836993Y-102881852D01*
X144842830Y-102873410D01*
X144876296Y-102836057D01*
X144913727Y-102807003D01*
X144918309Y-102804467D01*
X144985426Y-102784443D01*
X145055926Y-102787755D01*
G37*
X145055926Y-102787755D02*
X145121858Y-102812084D01*
X145175273Y-102855117D01*
X145196164Y-102885409D01*
X145218939Y-102940994D01*
X145218466Y-102981186D01*
X145194562Y-103008217D01*
X145185717Y-103012813D01*
X145147530Y-103027144D01*
X145128028Y-103023472D01*
X145121422Y-102999407D01*
X145121086Y-102986114D01*
X145108992Y-102937210D01*
X145077471Y-102902999D01*
X145033659Y-102886476D01*
X144984695Y-102890634D01*
X144944894Y-102912227D01*
X144931450Y-102924544D01*
X144921921Y-102939487D01*
X144915485Y-102962075D01*
X144911317Y-102997328D01*
X144908597Y-103050266D01*
X144906502Y-103125907D01*
X144905960Y-103149857D01*
X144903981Y-103231790D01*
X144901731Y-103289455D01*
X144898357Y-103327608D01*
X144893006Y-103351004D01*
X144884824Y-103364398D01*
X144872959Y-103372545D01*
X144865362Y-103376144D01*
X144833102Y-103388452D01*
X144814111Y-103392514D01*
X144807836Y-103378948D01*
X144804006Y-103337934D01*
X144802600Y-103268999D01*
X144803598Y-103171669D01*
X144803908Y-103156657D01*
X144806101Y-103067859D01*
X144808693Y-103003019D01*
X144812382Y-102957067D01*
X144817864Y-102924935D01*
X144825835Y-102901553D01*
X144836993Y-102881852D01*
X144842830Y-102873410D01*
X144876296Y-102836057D01*
X144913727Y-102807003D01*
X144918309Y-102804467D01*
X144985426Y-102784443D01*
X145055926Y-102787755D01*
G36*
X144565744Y-102788968D02*
G01*
X144622616Y-102810087D01*
X144623267Y-102810493D01*
X144658440Y-102836380D01*
X144684407Y-102866633D01*
X144702670Y-102906058D01*
X144714732Y-102959462D01*
X144722096Y-103031651D01*
X144726264Y-103127432D01*
X144726629Y-103141078D01*
X144731876Y-103346842D01*
X144687716Y-103369678D01*
X144655763Y-103385110D01*
X144636470Y-103392423D01*
X144635578Y-103392514D01*
X144632239Y-103379022D01*
X144629587Y-103342626D01*
X144627956Y-103289452D01*
X144627600Y-103246393D01*
X144627592Y-103176641D01*
X144624403Y-103132837D01*
X144613288Y-103111944D01*
X144589501Y-103110925D01*
X144548296Y-103126741D01*
X144486086Y-103155815D01*
X144440341Y-103179963D01*
X144416813Y-103200913D01*
X144409896Y-103223747D01*
X144409886Y-103224877D01*
X144421299Y-103264212D01*
X144455092Y-103285462D01*
X144506809Y-103288539D01*
X144544061Y-103288006D01*
X144563703Y-103298735D01*
X144575952Y-103324505D01*
X144583002Y-103357337D01*
X144572842Y-103375966D01*
X144569017Y-103378632D01*
X144533001Y-103389340D01*
X144482566Y-103390856D01*
X144430626Y-103383759D01*
X144393822Y-103370788D01*
X144342938Y-103327585D01*
X144314014Y-103267446D01*
X144308286Y-103220462D01*
X144312657Y-103178082D01*
X144328475Y-103143488D01*
X144359797Y-103112763D01*
X144410678Y-103081990D01*
X144485176Y-103047252D01*
X144489714Y-103045288D01*
X144556821Y-103014287D01*
X144598232Y-102988862D01*
X144615981Y-102966014D01*
X144612107Y-102942745D01*
X144588643Y-102916056D01*
X144581627Y-102909914D01*
X144534630Y-102886100D01*
X144485933Y-102887103D01*
X144443522Y-102910451D01*
X144415384Y-102953675D01*
X144412769Y-102962160D01*
X144387308Y-103003308D01*
X144355001Y-103023128D01*
X144308286Y-103042770D01*
X144308286Y-102991950D01*
X144322496Y-102918082D01*
X144364675Y-102850327D01*
X144386624Y-102827661D01*
X144436517Y-102798569D01*
X144499967Y-102785400D01*
X144565744Y-102788968D01*
G37*
X144565744Y-102788968D02*
X144622616Y-102810087D01*
X144623267Y-102810493D01*
X144658440Y-102836380D01*
X144684407Y-102866633D01*
X144702670Y-102906058D01*
X144714732Y-102959462D01*
X144722096Y-103031651D01*
X144726264Y-103127432D01*
X144726629Y-103141078D01*
X144731876Y-103346842D01*
X144687716Y-103369678D01*
X144655763Y-103385110D01*
X144636470Y-103392423D01*
X144635578Y-103392514D01*
X144632239Y-103379022D01*
X144629587Y-103342626D01*
X144627956Y-103289452D01*
X144627600Y-103246393D01*
X144627592Y-103176641D01*
X144624403Y-103132837D01*
X144613288Y-103111944D01*
X144589501Y-103110925D01*
X144548296Y-103126741D01*
X144486086Y-103155815D01*
X144440341Y-103179963D01*
X144416813Y-103200913D01*
X144409896Y-103223747D01*
X144409886Y-103224877D01*
X144421299Y-103264212D01*
X144455092Y-103285462D01*
X144506809Y-103288539D01*
X144544061Y-103288006D01*
X144563703Y-103298735D01*
X144575952Y-103324505D01*
X144583002Y-103357337D01*
X144572842Y-103375966D01*
X144569017Y-103378632D01*
X144533001Y-103389340D01*
X144482566Y-103390856D01*
X144430626Y-103383759D01*
X144393822Y-103370788D01*
X144342938Y-103327585D01*
X144314014Y-103267446D01*
X144308286Y-103220462D01*
X144312657Y-103178082D01*
X144328475Y-103143488D01*
X144359797Y-103112763D01*
X144410678Y-103081990D01*
X144485176Y-103047252D01*
X144489714Y-103045288D01*
X144556821Y-103014287D01*
X144598232Y-102988862D01*
X144615981Y-102966014D01*
X144612107Y-102942745D01*
X144588643Y-102916056D01*
X144581627Y-102909914D01*
X144534630Y-102886100D01*
X144485933Y-102887103D01*
X144443522Y-102910451D01*
X144415384Y-102953675D01*
X144412769Y-102962160D01*
X144387308Y-103003308D01*
X144355001Y-103023128D01*
X144308286Y-103042770D01*
X144308286Y-102991950D01*
X144322496Y-102918082D01*
X144364675Y-102850327D01*
X144386624Y-102827661D01*
X144436517Y-102798569D01*
X144499967Y-102785400D01*
X144565744Y-102788968D01*
G36*
X143901886Y-102689289D02*
G01*
X143906139Y-102748613D01*
X143911025Y-102783572D01*
X143917795Y-102798820D01*
X143927702Y-102799015D01*
X143930914Y-102797195D01*
X143973644Y-102784015D01*
X144029227Y-102784785D01*
X144085737Y-102798333D01*
X144121082Y-102815861D01*
X144157321Y-102843861D01*
X144183813Y-102875549D01*
X144201999Y-102915813D01*
X144213322Y-102969543D01*
X144219222Y-103041626D01*
X144221143Y-103136951D01*
X144221177Y-103155237D01*
X144221200Y-103360646D01*
X144175491Y-103376580D01*
X144143027Y-103387420D01*
X144125215Y-103392468D01*
X144124691Y-103392514D01*
X144122937Y-103378828D01*
X144121444Y-103341076D01*
X144120326Y-103284224D01*
X144119697Y-103213234D01*
X144119600Y-103170073D01*
X144119398Y-103084973D01*
X144118358Y-103023981D01*
X144115831Y-102982177D01*
X144111164Y-102954642D01*
X144103707Y-102936456D01*
X144092811Y-102922698D01*
X144086007Y-102916073D01*
X144039272Y-102889375D01*
X143988272Y-102887375D01*
X143942001Y-102909955D01*
X143933444Y-102918107D01*
X143920893Y-102933436D01*
X143912188Y-102951618D01*
X143906631Y-102977909D01*
X143903526Y-103017562D01*
X143902176Y-103075832D01*
X143901886Y-103156173D01*
X143901886Y-103360646D01*
X143856177Y-103376580D01*
X143823713Y-103387420D01*
X143805901Y-103392468D01*
X143805377Y-103392514D01*
X143804037Y-103378623D01*
X143802828Y-103339439D01*
X143801801Y-103278700D01*
X143801002Y-103200141D01*
X143800481Y-103107498D01*
X143800286Y-103004509D01*
X143800286Y-102607342D01*
X143847457Y-102587444D01*
X143894629Y-102567547D01*
X143901886Y-102689289D01*
G37*
X143901886Y-102689289D02*
X143906139Y-102748613D01*
X143911025Y-102783572D01*
X143917795Y-102798820D01*
X143927702Y-102799015D01*
X143930914Y-102797195D01*
X143973644Y-102784015D01*
X144029227Y-102784785D01*
X144085737Y-102798333D01*
X144121082Y-102815861D01*
X144157321Y-102843861D01*
X144183813Y-102875549D01*
X144201999Y-102915813D01*
X144213322Y-102969543D01*
X144219222Y-103041626D01*
X144221143Y-103136951D01*
X144221177Y-103155237D01*
X144221200Y-103360646D01*
X144175491Y-103376580D01*
X144143027Y-103387420D01*
X144125215Y-103392468D01*
X144124691Y-103392514D01*
X144122937Y-103378828D01*
X144121444Y-103341076D01*
X144120326Y-103284224D01*
X144119697Y-103213234D01*
X144119600Y-103170073D01*
X144119398Y-103084973D01*
X144118358Y-103023981D01*
X144115831Y-102982177D01*
X144111164Y-102954642D01*
X144103707Y-102936456D01*
X144092811Y-102922698D01*
X144086007Y-102916073D01*
X144039272Y-102889375D01*
X143988272Y-102887375D01*
X143942001Y-102909955D01*
X143933444Y-102918107D01*
X143920893Y-102933436D01*
X143912188Y-102951618D01*
X143906631Y-102977909D01*
X143903526Y-103017562D01*
X143902176Y-103075832D01*
X143901886Y-103156173D01*
X143901886Y-103360646D01*
X143856177Y-103376580D01*
X143823713Y-103387420D01*
X143805901Y-103392468D01*
X143805377Y-103392514D01*
X143804037Y-103378623D01*
X143802828Y-103339439D01*
X143801801Y-103278700D01*
X143801002Y-103200141D01*
X143800481Y-103107498D01*
X143800286Y-103004509D01*
X143800286Y-102607342D01*
X143847457Y-102587444D01*
X143894629Y-102567547D01*
X143901886Y-102689289D01*
G36*
X142694303Y-102769239D02*
G01*
X142751527Y-102807735D01*
X142795749Y-102863335D01*
X142822167Y-102934086D01*
X142827510Y-102986162D01*
X142826903Y-103007893D01*
X142821822Y-103024531D01*
X142807855Y-103039437D01*
X142780589Y-103055973D01*
X142735612Y-103077498D01*
X142668511Y-103107374D01*
X142668171Y-103107524D01*
X142606407Y-103135813D01*
X142555759Y-103160933D01*
X142521404Y-103180179D01*
X142508518Y-103190848D01*
X142508514Y-103190934D01*
X142519872Y-103214166D01*
X142546431Y-103239774D01*
X142576923Y-103258221D01*
X142592370Y-103261886D01*
X142634515Y-103249212D01*
X142670808Y-103217471D01*
X142688517Y-103182572D01*
X142705552Y-103156845D01*
X142738922Y-103127546D01*
X142778149Y-103102235D01*
X142812756Y-103088471D01*
X142819993Y-103087714D01*
X142828139Y-103100160D01*
X142828630Y-103131972D01*
X142822643Y-103174866D01*
X142811357Y-103220558D01*
X142795950Y-103260761D01*
X142795171Y-103262322D01*
X142748804Y-103327062D01*
X142688711Y-103371097D01*
X142620465Y-103392711D01*
X142549638Y-103390185D01*
X142481804Y-103361804D01*
X142478788Y-103359808D01*
X142425427Y-103311448D01*
X142390340Y-103248352D01*
X142370922Y-103165387D01*
X142368316Y-103142078D01*
X142363701Y-103032055D01*
X142369233Y-102980748D01*
X142508514Y-102980748D01*
X142510324Y-103012753D01*
X142520222Y-103022093D01*
X142544898Y-103015105D01*
X142583795Y-102998587D01*
X142627275Y-102977881D01*
X142628356Y-102977333D01*
X142665209Y-102957949D01*
X142680000Y-102945013D01*
X142676353Y-102931451D01*
X142660995Y-102913632D01*
X142621923Y-102887845D01*
X142579846Y-102885950D01*
X142542103Y-102904717D01*
X142516034Y-102940915D01*
X142508514Y-102980748D01*
X142369233Y-102980748D01*
X142373194Y-102944027D01*
X142397550Y-102874212D01*
X142431456Y-102825302D01*
X142492653Y-102775878D01*
X142560063Y-102751359D01*
X142628880Y-102749797D01*
X142694303Y-102769239D01*
G37*
X142694303Y-102769239D02*
X142751527Y-102807735D01*
X142795749Y-102863335D01*
X142822167Y-102934086D01*
X142827510Y-102986162D01*
X142826903Y-103007893D01*
X142821822Y-103024531D01*
X142807855Y-103039437D01*
X142780589Y-103055973D01*
X142735612Y-103077498D01*
X142668511Y-103107374D01*
X142668171Y-103107524D01*
X142606407Y-103135813D01*
X142555759Y-103160933D01*
X142521404Y-103180179D01*
X142508518Y-103190848D01*
X142508514Y-103190934D01*
X142519872Y-103214166D01*
X142546431Y-103239774D01*
X142576923Y-103258221D01*
X142592370Y-103261886D01*
X142634515Y-103249212D01*
X142670808Y-103217471D01*
X142688517Y-103182572D01*
X142705552Y-103156845D01*
X142738922Y-103127546D01*
X142778149Y-103102235D01*
X142812756Y-103088471D01*
X142819993Y-103087714D01*
X142828139Y-103100160D01*
X142828630Y-103131972D01*
X142822643Y-103174866D01*
X142811357Y-103220558D01*
X142795950Y-103260761D01*
X142795171Y-103262322D01*
X142748804Y-103327062D01*
X142688711Y-103371097D01*
X142620465Y-103392711D01*
X142549638Y-103390185D01*
X142481804Y-103361804D01*
X142478788Y-103359808D01*
X142425427Y-103311448D01*
X142390340Y-103248352D01*
X142370922Y-103165387D01*
X142368316Y-103142078D01*
X142363701Y-103032055D01*
X142369233Y-102980748D01*
X142508514Y-102980748D01*
X142510324Y-103012753D01*
X142520222Y-103022093D01*
X142544898Y-103015105D01*
X142583795Y-102998587D01*
X142627275Y-102977881D01*
X142628356Y-102977333D01*
X142665209Y-102957949D01*
X142680000Y-102945013D01*
X142676353Y-102931451D01*
X142660995Y-102913632D01*
X142621923Y-102887845D01*
X142579846Y-102885950D01*
X142542103Y-102904717D01*
X142516034Y-102940915D01*
X142508514Y-102980748D01*
X142369233Y-102980748D01*
X142373194Y-102944027D01*
X142397550Y-102874212D01*
X142431456Y-102825302D01*
X142492653Y-102775878D01*
X142560063Y-102751359D01*
X142628880Y-102749797D01*
X142694303Y-102769239D01*
G36*
X141567115Y-102759962D02*
G01*
X141635145Y-102795733D01*
X141685351Y-102853301D01*
X141703185Y-102890312D01*
X141717063Y-102945882D01*
X141724167Y-103016096D01*
X141724840Y-103092727D01*
X141719427Y-103167552D01*
X141708270Y-103232342D01*
X141691714Y-103278873D01*
X141686626Y-103286887D01*
X141626355Y-103346707D01*
X141554769Y-103382535D01*
X141477092Y-103393020D01*
X141398548Y-103376810D01*
X141376689Y-103367092D01*
X141334122Y-103337143D01*
X141296763Y-103297433D01*
X141293232Y-103292397D01*
X141278881Y-103268124D01*
X141269394Y-103242178D01*
X141263790Y-103208022D01*
X141261086Y-103159119D01*
X141260299Y-103088935D01*
X141260286Y-103073200D01*
X141260322Y-103068192D01*
X141405429Y-103068192D01*
X141406273Y-103134430D01*
X141409596Y-103178386D01*
X141416583Y-103206779D01*
X141428416Y-103226325D01*
X141434457Y-103232857D01*
X141469186Y-103257680D01*
X141502903Y-103256548D01*
X141536995Y-103235016D01*
X141557329Y-103212029D01*
X141569371Y-103178478D01*
X141576134Y-103125569D01*
X141576598Y-103119399D01*
X141577752Y-103023513D01*
X141565688Y-102952299D01*
X141540570Y-102906194D01*
X141502560Y-102885635D01*
X141488992Y-102884514D01*
X141453364Y-102890152D01*
X141428994Y-102909686D01*
X141414093Y-102947042D01*
X141406875Y-103006150D01*
X141405429Y-103068192D01*
X141260322Y-103068192D01*
X141260826Y-102998413D01*
X141263096Y-102946159D01*
X141268068Y-102909949D01*
X141276713Y-102883299D01*
X141290005Y-102859722D01*
X141292943Y-102855338D01*
X141342313Y-102796249D01*
X141396109Y-102761947D01*
X141461602Y-102748331D01*
X141483842Y-102747665D01*
X141567115Y-102759962D01*
G37*
X141567115Y-102759962D02*
X141635145Y-102795733D01*
X141685351Y-102853301D01*
X141703185Y-102890312D01*
X141717063Y-102945882D01*
X141724167Y-103016096D01*
X141724840Y-103092727D01*
X141719427Y-103167552D01*
X141708270Y-103232342D01*
X141691714Y-103278873D01*
X141686626Y-103286887D01*
X141626355Y-103346707D01*
X141554769Y-103382535D01*
X141477092Y-103393020D01*
X141398548Y-103376810D01*
X141376689Y-103367092D01*
X141334122Y-103337143D01*
X141296763Y-103297433D01*
X141293232Y-103292397D01*
X141278881Y-103268124D01*
X141269394Y-103242178D01*
X141263790Y-103208022D01*
X141261086Y-103159119D01*
X141260299Y-103088935D01*
X141260286Y-103073200D01*
X141260322Y-103068192D01*
X141405429Y-103068192D01*
X141406273Y-103134430D01*
X141409596Y-103178386D01*
X141416583Y-103206779D01*
X141428416Y-103226325D01*
X141434457Y-103232857D01*
X141469186Y-103257680D01*
X141502903Y-103256548D01*
X141536995Y-103235016D01*
X141557329Y-103212029D01*
X141569371Y-103178478D01*
X141576134Y-103125569D01*
X141576598Y-103119399D01*
X141577752Y-103023513D01*
X141565688Y-102952299D01*
X141540570Y-102906194D01*
X141502560Y-102885635D01*
X141488992Y-102884514D01*
X141453364Y-102890152D01*
X141428994Y-102909686D01*
X141414093Y-102947042D01*
X141406875Y-103006150D01*
X141405429Y-103068192D01*
X141260322Y-103068192D01*
X141260826Y-102998413D01*
X141263096Y-102946159D01*
X141268068Y-102909949D01*
X141276713Y-102883299D01*
X141290005Y-102859722D01*
X141292943Y-102855338D01*
X141342313Y-102796249D01*
X141396109Y-102761947D01*
X141461602Y-102748331D01*
X141483842Y-102747665D01*
X141567115Y-102759962D01*
G36*
X143242093Y-102765780D02*
G01*
X143288672Y-102792723D01*
X143321057Y-102819466D01*
X143344742Y-102847484D01*
X143361059Y-102881748D01*
X143371339Y-102927227D01*
X143376914Y-102988892D01*
X143379116Y-103071711D01*
X143379371Y-103131246D01*
X143379371Y-103350391D01*
X143317686Y-103378044D01*
X143256000Y-103405697D01*
X143248743Y-103165670D01*
X143245744Y-103076028D01*
X143242598Y-103010962D01*
X143238701Y-102966026D01*
X143233447Y-102936770D01*
X143226231Y-102918748D01*
X143216450Y-102907511D01*
X143213312Y-102905079D01*
X143165761Y-102886083D01*
X143117697Y-102893600D01*
X143089086Y-102913543D01*
X143077447Y-102927675D01*
X143069391Y-102946220D01*
X143064271Y-102974334D01*
X143061441Y-103017173D01*
X143060256Y-103079895D01*
X143060057Y-103145261D01*
X143060018Y-103227268D01*
X143058614Y-103285316D01*
X143053914Y-103324465D01*
X143043987Y-103349780D01*
X143026903Y-103366323D01*
X143000732Y-103379156D01*
X142965775Y-103392491D01*
X142927596Y-103407007D01*
X142932141Y-103149389D01*
X142933971Y-103056519D01*
X142936112Y-102987889D01*
X142939181Y-102938711D01*
X142943794Y-102904198D01*
X142950568Y-102879562D01*
X142960119Y-102860016D01*
X142971634Y-102842770D01*
X143027190Y-102787680D01*
X143094980Y-102755822D01*
X143168713Y-102748191D01*
X143242093Y-102765780D01*
G37*
X143242093Y-102765780D02*
X143288672Y-102792723D01*
X143321057Y-102819466D01*
X143344742Y-102847484D01*
X143361059Y-102881748D01*
X143371339Y-102927227D01*
X143376914Y-102988892D01*
X143379116Y-103071711D01*
X143379371Y-103131246D01*
X143379371Y-103350391D01*
X143317686Y-103378044D01*
X143256000Y-103405697D01*
X143248743Y-103165670D01*
X143245744Y-103076028D01*
X143242598Y-103010962D01*
X143238701Y-102966026D01*
X143233447Y-102936770D01*
X143226231Y-102918748D01*
X143216450Y-102907511D01*
X143213312Y-102905079D01*
X143165761Y-102886083D01*
X143117697Y-102893600D01*
X143089086Y-102913543D01*
X143077447Y-102927675D01*
X143069391Y-102946220D01*
X143064271Y-102974334D01*
X143061441Y-103017173D01*
X143060256Y-103079895D01*
X143060057Y-103145261D01*
X143060018Y-103227268D01*
X143058614Y-103285316D01*
X143053914Y-103324465D01*
X143043987Y-103349780D01*
X143026903Y-103366323D01*
X143000732Y-103379156D01*
X142965775Y-103392491D01*
X142927596Y-103407007D01*
X142932141Y-103149389D01*
X142933971Y-103056519D01*
X142936112Y-102987889D01*
X142939181Y-102938711D01*
X142943794Y-102904198D01*
X142950568Y-102879562D01*
X142960119Y-102860016D01*
X142971634Y-102842770D01*
X143027190Y-102787680D01*
X143094980Y-102755822D01*
X143168713Y-102748191D01*
X143242093Y-102765780D01*
G36*
X142125744Y-102757918D02*
G01*
X142181201Y-102785568D01*
X142230148Y-102836480D01*
X142243629Y-102855338D01*
X142258314Y-102880015D01*
X142267842Y-102906816D01*
X142273293Y-102942587D01*
X142275747Y-102994169D01*
X142276286Y-103062267D01*
X142273852Y-103155588D01*
X142265394Y-103225657D01*
X142249174Y-103277931D01*
X142223454Y-103317869D01*
X142186497Y-103350929D01*
X142183782Y-103352886D01*
X142147360Y-103372908D01*
X142103502Y-103382815D01*
X142047724Y-103385257D01*
X141957048Y-103385257D01*
X141957010Y-103473283D01*
X141956166Y-103522308D01*
X141951024Y-103551065D01*
X141937587Y-103568311D01*
X141911858Y-103582808D01*
X141905679Y-103585769D01*
X141876764Y-103599648D01*
X141854376Y-103608414D01*
X141837729Y-103609171D01*
X141826036Y-103599023D01*
X141818510Y-103575073D01*
X141814366Y-103534426D01*
X141812815Y-103474186D01*
X141813071Y-103391455D01*
X141814349Y-103283339D01*
X141814748Y-103251000D01*
X141816185Y-103139524D01*
X141817472Y-103066603D01*
X141956971Y-103066603D01*
X141957755Y-103128499D01*
X141961240Y-103168997D01*
X141969124Y-103195708D01*
X141983105Y-103216244D01*
X141992597Y-103226260D01*
X142031404Y-103255567D01*
X142065763Y-103257952D01*
X142101216Y-103233750D01*
X142102114Y-103232857D01*
X142116539Y-103214153D01*
X142125313Y-103188732D01*
X142129739Y-103149584D01*
X142131118Y-103089697D01*
X142131143Y-103076430D01*
X142127812Y-102993901D01*
X142116969Y-102936691D01*
X142097340Y-102901766D01*
X142067650Y-102886094D01*
X142050491Y-102884514D01*
X142009766Y-102891926D01*
X141981832Y-102916330D01*
X141965017Y-102960980D01*
X141957650Y-103029130D01*
X141956971Y-103066603D01*
X141817472Y-103066603D01*
X141817708Y-103053245D01*
X141819677Y-102988333D01*
X141822450Y-102940958D01*
X141826388Y-102907290D01*
X141831849Y-102883498D01*
X141839192Y-102865753D01*
X141848777Y-102850224D01*
X141852887Y-102844381D01*
X141907405Y-102789185D01*
X141976336Y-102757890D01*
X142056072Y-102749165D01*
X142125744Y-102757918D01*
G37*
X142125744Y-102757918D02*
X142181201Y-102785568D01*
X142230148Y-102836480D01*
X142243629Y-102855338D01*
X142258314Y-102880015D01*
X142267842Y-102906816D01*
X142273293Y-102942587D01*
X142275747Y-102994169D01*
X142276286Y-103062267D01*
X142273852Y-103155588D01*
X142265394Y-103225657D01*
X142249174Y-103277931D01*
X142223454Y-103317869D01*
X142186497Y-103350929D01*
X142183782Y-103352886D01*
X142147360Y-103372908D01*
X142103502Y-103382815D01*
X142047724Y-103385257D01*
X141957048Y-103385257D01*
X141957010Y-103473283D01*
X141956166Y-103522308D01*
X141951024Y-103551065D01*
X141937587Y-103568311D01*
X141911858Y-103582808D01*
X141905679Y-103585769D01*
X141876764Y-103599648D01*
X141854376Y-103608414D01*
X141837729Y-103609171D01*
X141826036Y-103599023D01*
X141818510Y-103575073D01*
X141814366Y-103534426D01*
X141812815Y-103474186D01*
X141813071Y-103391455D01*
X141814349Y-103283339D01*
X141814748Y-103251000D01*
X141816185Y-103139524D01*
X141817472Y-103066603D01*
X141956971Y-103066603D01*
X141957755Y-103128499D01*
X141961240Y-103168997D01*
X141969124Y-103195708D01*
X141983105Y-103216244D01*
X141992597Y-103226260D01*
X142031404Y-103255567D01*
X142065763Y-103257952D01*
X142101216Y-103233750D01*
X142102114Y-103232857D01*
X142116539Y-103214153D01*
X142125313Y-103188732D01*
X142129739Y-103149584D01*
X142131118Y-103089697D01*
X142131143Y-103076430D01*
X142127812Y-102993901D01*
X142116969Y-102936691D01*
X142097340Y-102901766D01*
X142067650Y-102886094D01*
X142050491Y-102884514D01*
X142009766Y-102891926D01*
X141981832Y-102916330D01*
X141965017Y-102960980D01*
X141957650Y-103029130D01*
X141956971Y-103066603D01*
X141817472Y-103066603D01*
X141817708Y-103053245D01*
X141819677Y-102988333D01*
X141822450Y-102940958D01*
X141826388Y-102907290D01*
X141831849Y-102883498D01*
X141839192Y-102865753D01*
X141848777Y-102850224D01*
X141852887Y-102844381D01*
X141907405Y-102789185D01*
X141976336Y-102757890D01*
X142056072Y-102749165D01*
X142125744Y-102757918D01*
D12*
X135442000Y-97730000D02*
X132782000Y-97730000D01*
X135442000Y-100330000D02*
X135442000Y-97730000D01*
X132782000Y-100330000D02*
X132782000Y-97730000D01*
X135442000Y-100330000D02*
X132782000Y-100330000D01*
X135442000Y-101600000D02*
X135442000Y-102930000D01*
X135442000Y-102930000D02*
X134112000Y-102930000D01*
X157674000Y-109026000D02*
X157674000Y-107696000D01*
X159004000Y-109026000D02*
X157674000Y-109026000D01*
X160274000Y-109026000D02*
X160274000Y-106366000D01*
X160274000Y-106366000D02*
X162874000Y-106366000D01*
X160274000Y-109026000D02*
X162874000Y-109026000D01*
X162874000Y-109026000D02*
X162874000Y-106366000D01*
X187392000Y-115122000D02*
X190052000Y-115122000D01*
X187392000Y-112522000D02*
X187392000Y-115122000D01*
X190052000Y-112522000D02*
X190052000Y-115122000D01*
X187392000Y-112522000D02*
X190052000Y-112522000D01*
X187392000Y-111252000D02*
X187392000Y-109922000D01*
X187392000Y-109922000D02*
X188722000Y-109922000D01*
X175934000Y-128580000D02*
X175934000Y-120340000D01*
X179424000Y-128580000D02*
X179424000Y-120340000D01*
X175934000Y-128580000D02*
X179424000Y-128580000D01*
X175934000Y-120340000D02*
X179424000Y-120340000D01*
X175934000Y-126060000D02*
X177004000Y-126060000D01*
X179104000Y-126060000D02*
X179424000Y-126060000D01*
X175934000Y-122859000D02*
X177514000Y-122859000D01*
X178594000Y-122859000D02*
X179424000Y-122859000D01*
X137382000Y-110844000D02*
X137382000Y-108104000D01*
X137382000Y-108104000D02*
X130842000Y-108104000D01*
X130842000Y-108104000D02*
X130842000Y-110844000D01*
X130842000Y-110844000D02*
X137382000Y-110844000D01*
X138152000Y-109474000D02*
X137382000Y-109474000D01*
X130072000Y-109474000D02*
X130842000Y-109474000D01*
X159790000Y-121920000D02*
X160560000Y-121920000D01*
X167870000Y-121920000D02*
X167100000Y-121920000D01*
X160560000Y-123290000D02*
X167100000Y-123290000D01*
X160560000Y-120550000D02*
X160560000Y-123290000D01*
X167100000Y-120550000D02*
X160560000Y-120550000D01*
X167100000Y-123290000D02*
X167100000Y-120550000D01*
X167794000Y-110712000D02*
X170534000Y-110712000D01*
X170534000Y-110712000D02*
X170534000Y-104172000D01*
X170534000Y-104172000D02*
X167794000Y-104172000D01*
X167794000Y-104172000D02*
X167794000Y-110712000D01*
X169164000Y-111482000D02*
X169164000Y-110712000D01*
X169164000Y-103402000D02*
X169164000Y-104172000D01*
X173990000Y-103402000D02*
X173990000Y-104172000D01*
X173990000Y-111482000D02*
X173990000Y-110712000D01*
X172620000Y-104172000D02*
X172620000Y-110712000D01*
X175360000Y-104172000D02*
X172620000Y-104172000D01*
X175360000Y-110712000D02*
X175360000Y-104172000D01*
X172620000Y-110712000D02*
X175360000Y-110712000D01*
X131197000Y-116859000D02*
X136238000Y-116859000D01*
X131197000Y-126900000D02*
X136238000Y-126900000D01*
X136238000Y-116859000D02*
X136238000Y-120808000D01*
X136238000Y-122953000D02*
X136238000Y-126900000D01*
X131197000Y-125805000D02*
X131197000Y-126900000D01*
X131197000Y-116859000D02*
X131197000Y-117954000D01*
X131197000Y-120806000D02*
X131197000Y-122955000D01*
X132555000Y-120260000D02*
X136238000Y-120260000D01*
X132555000Y-123500000D02*
X136238000Y-123500000D01*
X131197000Y-120806000D02*
X131197000Y-122955000D01*
X136238000Y-120260000D02*
X136238000Y-120808000D01*
X136238000Y-122953000D02*
X136238000Y-123500000D01*
X148320000Y-115764000D02*
G75*
G02X146320000Y-115764000I-1000000J0D01*
G01*
X146320000Y-115764000D02*
X144670000Y-115764000D01*
X144670000Y-115764000D02*
X144670000Y-126044000D01*
X144670000Y-126044000D02*
X149970000Y-126044000D01*
X149970000Y-126044000D02*
X149970000Y-115764000D01*
X149970000Y-115764000D02*
X148320000Y-115764000D01*
X142180000Y-115704000D02*
X142180000Y-126104000D01*
X142180000Y-126104000D02*
X152460000Y-126104000D01*
X152460000Y-126104000D02*
X152460000Y-115704000D01*
X152460000Y-115704000D02*
X142180000Y-115704000D01*
D10*
X133778666Y-103382380D02*
X133778666Y-104096666D01*
X133731047Y-104239523D01*
X133635809Y-104334761D01*
X133492952Y-104382380D01*
X133397714Y-104382380D01*
X134778666Y-104382380D02*
X134207238Y-104382380D01*
X134492952Y-104382380D02*
X134492952Y-103382380D01*
X134397714Y-103525238D01*
X134302476Y-103620476D01*
X134207238Y-103668095D01*
X131484666Y-103710952D02*
X131484666Y-103234761D01*
X131770380Y-103806190D02*
X130770380Y-103472857D01*
X131770380Y-103139523D01*
X131103714Y-102806190D02*
X131770380Y-102806190D01*
X131198952Y-102806190D02*
X131151333Y-102758571D01*
X131103714Y-102663333D01*
X131103714Y-102520476D01*
X131151333Y-102425238D01*
X131246571Y-102377619D01*
X131770380Y-102377619D01*
X131770380Y-101472857D02*
X131246571Y-101472857D01*
X131151333Y-101520476D01*
X131103714Y-101615714D01*
X131103714Y-101806190D01*
X131151333Y-101901428D01*
X131722761Y-101472857D02*
X131770380Y-101568095D01*
X131770380Y-101806190D01*
X131722761Y-101901428D01*
X131627523Y-101949047D01*
X131532285Y-101949047D01*
X131437047Y-101901428D01*
X131389428Y-101806190D01*
X131389428Y-101568095D01*
X131341809Y-101472857D01*
X131770380Y-100853809D02*
X131722761Y-100949047D01*
X131627523Y-100996666D01*
X130770380Y-100996666D01*
X131770380Y-100330000D02*
X131722761Y-100425238D01*
X131675142Y-100472857D01*
X131579904Y-100520476D01*
X131294190Y-100520476D01*
X131198952Y-100472857D01*
X131151333Y-100425238D01*
X131103714Y-100330000D01*
X131103714Y-100187142D01*
X131151333Y-100091904D01*
X131198952Y-100044285D01*
X131294190Y-99996666D01*
X131579904Y-99996666D01*
X131675142Y-100044285D01*
X131722761Y-100091904D01*
X131770380Y-100187142D01*
X131770380Y-100330000D01*
X131103714Y-99139523D02*
X131913238Y-99139523D01*
X132008476Y-99187142D01*
X132056095Y-99234761D01*
X132103714Y-99330000D01*
X132103714Y-99472857D01*
X132056095Y-99568095D01*
X131722761Y-99139523D02*
X131770380Y-99234761D01*
X131770380Y-99425238D01*
X131722761Y-99520476D01*
X131675142Y-99568095D01*
X131579904Y-99615714D01*
X131294190Y-99615714D01*
X131198952Y-99568095D01*
X131151333Y-99520476D01*
X131103714Y-99425238D01*
X131103714Y-99234761D01*
X131151333Y-99139523D01*
X131770380Y-97901428D02*
X131103714Y-97901428D01*
X130770380Y-97901428D02*
X130818000Y-97949047D01*
X130865619Y-97901428D01*
X130818000Y-97853809D01*
X130770380Y-97901428D01*
X130865619Y-97901428D01*
X131103714Y-97425238D02*
X131770380Y-97425238D01*
X131198952Y-97425238D02*
X131151333Y-97377619D01*
X131103714Y-97282380D01*
X131103714Y-97139523D01*
X131151333Y-97044285D01*
X131246571Y-96996666D01*
X131770380Y-96996666D01*
X156126380Y-108029333D02*
X156840666Y-108029333D01*
X156983523Y-108076952D01*
X157078761Y-108172190D01*
X157126380Y-108315047D01*
X157126380Y-108410285D01*
X156221619Y-107600761D02*
X156174000Y-107553142D01*
X156126380Y-107457904D01*
X156126380Y-107219809D01*
X156174000Y-107124571D01*
X156221619Y-107076952D01*
X156316857Y-107029333D01*
X156412095Y-107029333D01*
X156554952Y-107076952D01*
X157126380Y-107648380D01*
X157126380Y-107029333D01*
X157361333Y-105608380D02*
X156789904Y-105608380D01*
X157075619Y-105608380D02*
X157075619Y-104608380D01*
X156980380Y-104751238D01*
X156885142Y-104846476D01*
X156789904Y-104894095D01*
X157742285Y-104703619D02*
X157789904Y-104656000D01*
X157885142Y-104608380D01*
X158123238Y-104608380D01*
X158218476Y-104656000D01*
X158266095Y-104703619D01*
X158313714Y-104798857D01*
X158313714Y-104894095D01*
X158266095Y-105036952D01*
X157694666Y-105608380D01*
X158313714Y-105608380D01*
X158599428Y-104608380D02*
X158932761Y-105608380D01*
X159266095Y-104608380D01*
X160361333Y-104941714D02*
X160361333Y-105941714D01*
X160361333Y-104989333D02*
X160456571Y-104941714D01*
X160647047Y-104941714D01*
X160742285Y-104989333D01*
X160789904Y-105036952D01*
X160837523Y-105132190D01*
X160837523Y-105417904D01*
X160789904Y-105513142D01*
X160742285Y-105560761D01*
X160647047Y-105608380D01*
X160456571Y-105608380D01*
X160361333Y-105560761D01*
X161408952Y-105608380D02*
X161313714Y-105560761D01*
X161266095Y-105513142D01*
X161218476Y-105417904D01*
X161218476Y-105132190D01*
X161266095Y-105036952D01*
X161313714Y-104989333D01*
X161408952Y-104941714D01*
X161551809Y-104941714D01*
X161647047Y-104989333D01*
X161694666Y-105036952D01*
X161742285Y-105132190D01*
X161742285Y-105417904D01*
X161694666Y-105513142D01*
X161647047Y-105560761D01*
X161551809Y-105608380D01*
X161408952Y-105608380D01*
X162075619Y-104941714D02*
X162266095Y-105608380D01*
X162456571Y-105132190D01*
X162647047Y-105608380D01*
X162837523Y-104941714D01*
X163599428Y-105560761D02*
X163504190Y-105608380D01*
X163313714Y-105608380D01*
X163218476Y-105560761D01*
X163170857Y-105465523D01*
X163170857Y-105084571D01*
X163218476Y-104989333D01*
X163313714Y-104941714D01*
X163504190Y-104941714D01*
X163599428Y-104989333D01*
X163647047Y-105084571D01*
X163647047Y-105179809D01*
X163170857Y-105275047D01*
X164075619Y-105608380D02*
X164075619Y-104941714D01*
X164075619Y-105132190D02*
X164123238Y-105036952D01*
X164170857Y-104989333D01*
X164266095Y-104941714D01*
X164361333Y-104941714D01*
X188388666Y-108374380D02*
X188388666Y-109088666D01*
X188341047Y-109231523D01*
X188245809Y-109326761D01*
X188102952Y-109374380D01*
X188007714Y-109374380D01*
X188769619Y-108374380D02*
X189388666Y-108374380D01*
X189055333Y-108755333D01*
X189198190Y-108755333D01*
X189293428Y-108802952D01*
X189341047Y-108850571D01*
X189388666Y-108945809D01*
X189388666Y-109183904D01*
X189341047Y-109279142D01*
X189293428Y-109326761D01*
X189198190Y-109374380D01*
X188912476Y-109374380D01*
X188817238Y-109326761D01*
X188769619Y-109279142D01*
X186460095Y-115907714D02*
X186841047Y-115907714D01*
X186602952Y-115574380D02*
X186602952Y-116431523D01*
X186650571Y-116526761D01*
X186745809Y-116574380D01*
X186841047Y-116574380D01*
X187317238Y-116574380D02*
X187222000Y-116526761D01*
X187174380Y-116479142D01*
X187126761Y-116383904D01*
X187126761Y-116098190D01*
X187174380Y-116002952D01*
X187222000Y-115955333D01*
X187317238Y-115907714D01*
X187460095Y-115907714D01*
X187555333Y-115955333D01*
X187602952Y-116002952D01*
X187650571Y-116098190D01*
X187650571Y-116383904D01*
X187602952Y-116479142D01*
X187555333Y-116526761D01*
X187460095Y-116574380D01*
X187317238Y-116574380D01*
X187841047Y-116669619D02*
X188602952Y-116669619D01*
X188841047Y-116050571D02*
X189174380Y-116050571D01*
X189317238Y-116574380D02*
X188841047Y-116574380D01*
X188841047Y-115574380D01*
X189317238Y-115574380D01*
X189602952Y-115574380D02*
X190174380Y-115574380D01*
X189888666Y-116574380D02*
X189888666Y-115574380D01*
X190983904Y-116574380D02*
X190507714Y-116574380D01*
X190507714Y-115574380D01*
X175481619Y-124555238D02*
X175434000Y-124650476D01*
X175338761Y-124745714D01*
X175195904Y-124888571D01*
X175148285Y-124983809D01*
X175148285Y-125079047D01*
X175386380Y-125031428D02*
X175338761Y-125126666D01*
X175243523Y-125221904D01*
X175053047Y-125269523D01*
X174719714Y-125269523D01*
X174529238Y-125221904D01*
X174434000Y-125126666D01*
X174386380Y-125031428D01*
X174386380Y-124840952D01*
X174434000Y-124745714D01*
X174529238Y-124650476D01*
X174719714Y-124602857D01*
X175053047Y-124602857D01*
X175243523Y-124650476D01*
X175338761Y-124745714D01*
X175386380Y-124840952D01*
X175386380Y-125031428D01*
X175386380Y-123650476D02*
X175386380Y-124221904D01*
X175386380Y-123936190D02*
X174386380Y-123936190D01*
X174529238Y-124031428D01*
X174624476Y-124126666D01*
X174672095Y-124221904D01*
X180482571Y-126317142D02*
X180530190Y-126174285D01*
X180577809Y-126126666D01*
X180673047Y-126079047D01*
X180815904Y-126079047D01*
X180911142Y-126126666D01*
X180958761Y-126174285D01*
X181006380Y-126269523D01*
X181006380Y-126650476D01*
X180006380Y-126650476D01*
X180006380Y-126317142D01*
X180054000Y-126221904D01*
X180101619Y-126174285D01*
X180196857Y-126126666D01*
X180292095Y-126126666D01*
X180387333Y-126174285D01*
X180434952Y-126221904D01*
X180482571Y-126317142D01*
X180482571Y-126650476D01*
X181006380Y-125650476D02*
X180006380Y-125650476D01*
X180006380Y-125412380D01*
X180054000Y-125269523D01*
X180149238Y-125174285D01*
X180244476Y-125126666D01*
X180434952Y-125079047D01*
X180577809Y-125079047D01*
X180768285Y-125126666D01*
X180863523Y-125174285D01*
X180958761Y-125269523D01*
X181006380Y-125412380D01*
X181006380Y-125650476D01*
X180339714Y-124221904D02*
X181006380Y-124221904D01*
X179958761Y-124460000D02*
X180673047Y-124698095D01*
X180673047Y-124079047D01*
X180339714Y-123269523D02*
X181006380Y-123269523D01*
X179958761Y-123507619D02*
X180673047Y-123745714D01*
X180673047Y-123126666D01*
X181006380Y-122221904D02*
X181006380Y-122793333D01*
X181006380Y-122507619D02*
X180006380Y-122507619D01*
X180149238Y-122602857D01*
X180244476Y-122698095D01*
X180292095Y-122793333D01*
X133945333Y-112296380D02*
X133612000Y-111820190D01*
X133373904Y-112296380D02*
X133373904Y-111296380D01*
X133754857Y-111296380D01*
X133850095Y-111344000D01*
X133897714Y-111391619D01*
X133945333Y-111486857D01*
X133945333Y-111629714D01*
X133897714Y-111724952D01*
X133850095Y-111772571D01*
X133754857Y-111820190D01*
X133373904Y-111820190D01*
X134897714Y-112296380D02*
X134326285Y-112296380D01*
X134612000Y-112296380D02*
X134612000Y-111296380D01*
X134516761Y-111439238D01*
X134421523Y-111534476D01*
X134326285Y-111582095D01*
X132826285Y-106556380D02*
X133445333Y-106556380D01*
X133112000Y-106937333D01*
X133254857Y-106937333D01*
X133350095Y-106984952D01*
X133397714Y-107032571D01*
X133445333Y-107127809D01*
X133445333Y-107365904D01*
X133397714Y-107461142D01*
X133350095Y-107508761D01*
X133254857Y-107556380D01*
X132969142Y-107556380D01*
X132873904Y-107508761D01*
X132826285Y-107461142D01*
X133778666Y-106556380D02*
X134397714Y-106556380D01*
X134064380Y-106937333D01*
X134207238Y-106937333D01*
X134302476Y-106984952D01*
X134350095Y-107032571D01*
X134397714Y-107127809D01*
X134397714Y-107365904D01*
X134350095Y-107461142D01*
X134302476Y-107508761D01*
X134207238Y-107556380D01*
X133921523Y-107556380D01*
X133826285Y-107508761D01*
X133778666Y-107461142D01*
X135016761Y-106556380D02*
X135112000Y-106556380D01*
X135207238Y-106604000D01*
X135254857Y-106651619D01*
X135302476Y-106746857D01*
X135350095Y-106937333D01*
X135350095Y-107175428D01*
X135302476Y-107365904D01*
X135254857Y-107461142D01*
X135207238Y-107508761D01*
X135112000Y-107556380D01*
X135016761Y-107556380D01*
X134921523Y-107508761D01*
X134873904Y-107461142D01*
X134826285Y-107365904D01*
X134778666Y-107175428D01*
X134778666Y-106937333D01*
X134826285Y-106746857D01*
X134873904Y-106651619D01*
X134921523Y-106604000D01*
X135016761Y-106556380D01*
X163663333Y-124742380D02*
X163330000Y-124266190D01*
X163091904Y-124742380D02*
X163091904Y-123742380D01*
X163472857Y-123742380D01*
X163568095Y-123790000D01*
X163615714Y-123837619D01*
X163663333Y-123932857D01*
X163663333Y-124075714D01*
X163615714Y-124170952D01*
X163568095Y-124218571D01*
X163472857Y-124266190D01*
X163091904Y-124266190D01*
X164044285Y-123837619D02*
X164091904Y-123790000D01*
X164187142Y-123742380D01*
X164425238Y-123742380D01*
X164520476Y-123790000D01*
X164568095Y-123837619D01*
X164615714Y-123932857D01*
X164615714Y-124028095D01*
X164568095Y-124170952D01*
X163996666Y-124742380D01*
X164615714Y-124742380D01*
X163710952Y-120002380D02*
X163139523Y-120002380D01*
X163425238Y-120002380D02*
X163425238Y-119002380D01*
X163330000Y-119145238D01*
X163234761Y-119240476D01*
X163139523Y-119288095D01*
X164139523Y-120002380D02*
X164139523Y-119002380D01*
X164234761Y-119621428D02*
X164520476Y-120002380D01*
X164520476Y-119335714D02*
X164139523Y-119716666D01*
X167246380Y-107608666D02*
X166770190Y-107942000D01*
X167246380Y-108180095D02*
X166246380Y-108180095D01*
X166246380Y-107799142D01*
X166294000Y-107703904D01*
X166341619Y-107656285D01*
X166436857Y-107608666D01*
X166579714Y-107608666D01*
X166674952Y-107656285D01*
X166722571Y-107703904D01*
X166770190Y-107799142D01*
X166770190Y-108180095D01*
X166246380Y-107275333D02*
X166246380Y-106656285D01*
X166627333Y-106989619D01*
X166627333Y-106846761D01*
X166674952Y-106751523D01*
X166722571Y-106703904D01*
X166817809Y-106656285D01*
X167055904Y-106656285D01*
X167151142Y-106703904D01*
X167198761Y-106751523D01*
X167246380Y-106846761D01*
X167246380Y-107132476D01*
X167198761Y-107227714D01*
X167151142Y-107275333D01*
X172072380Y-107608666D02*
X171596190Y-107942000D01*
X172072380Y-108180095D02*
X171072380Y-108180095D01*
X171072380Y-107799142D01*
X171120000Y-107703904D01*
X171167619Y-107656285D01*
X171262857Y-107608666D01*
X171405714Y-107608666D01*
X171500952Y-107656285D01*
X171548571Y-107703904D01*
X171596190Y-107799142D01*
X171596190Y-108180095D01*
X171405714Y-106751523D02*
X172072380Y-106751523D01*
X171024761Y-106989619D02*
X171739047Y-107227714D01*
X171739047Y-106608666D01*
X176812380Y-107632476D02*
X176812380Y-108203904D01*
X176812380Y-107918190D02*
X175812380Y-107918190D01*
X175955238Y-108013428D01*
X176050476Y-108108666D01*
X176098095Y-108203904D01*
X175812380Y-107013428D02*
X175812380Y-106918190D01*
X175860000Y-106822952D01*
X175907619Y-106775333D01*
X176002857Y-106727714D01*
X176193333Y-106680095D01*
X176431428Y-106680095D01*
X176621904Y-106727714D01*
X176717142Y-106775333D01*
X176764761Y-106822952D01*
X176812380Y-106918190D01*
X176812380Y-107013428D01*
X176764761Y-107108666D01*
X176717142Y-107156285D01*
X176621904Y-107203904D01*
X176431428Y-107251523D01*
X176193333Y-107251523D01*
X176002857Y-107203904D01*
X175907619Y-107156285D01*
X175860000Y-107108666D01*
X175812380Y-107013428D01*
X130722761Y-116182380D02*
X130389428Y-115706190D01*
X130151333Y-116182380D02*
X130151333Y-115182380D01*
X130532285Y-115182380D01*
X130627523Y-115230000D01*
X130675142Y-115277619D01*
X130722761Y-115372857D01*
X130722761Y-115515714D01*
X130675142Y-115610952D01*
X130627523Y-115658571D01*
X130532285Y-115706190D01*
X130151333Y-115706190D01*
X131008476Y-115182380D02*
X131341809Y-116182380D01*
X131675142Y-115182380D01*
X132532285Y-116182380D02*
X131960857Y-116182380D01*
X132246571Y-116182380D02*
X132246571Y-115182380D01*
X132151333Y-115325238D01*
X132056095Y-115420476D01*
X131960857Y-115468095D01*
X131198952Y-128482380D02*
X130627523Y-128482380D01*
X130913238Y-128482380D02*
X130913238Y-127482380D01*
X130818000Y-127625238D01*
X130722761Y-127720476D01*
X130627523Y-127768095D01*
X131627523Y-128482380D02*
X131627523Y-127482380D01*
X131722761Y-128101428D02*
X132008476Y-128482380D01*
X132008476Y-127815714D02*
X131627523Y-128196666D01*
X146558095Y-114216380D02*
X146558095Y-115025904D01*
X146605714Y-115121142D01*
X146653333Y-115168761D01*
X146748571Y-115216380D01*
X146939047Y-115216380D01*
X147034285Y-115168761D01*
X147081904Y-115121142D01*
X147129523Y-115025904D01*
X147129523Y-114216380D01*
X148129523Y-115216380D02*
X147558095Y-115216380D01*
X147843809Y-115216380D02*
X147843809Y-114216380D01*
X147748571Y-114359238D01*
X147653333Y-114454476D01*
X147558095Y-114502095D01*
X145296190Y-127401142D02*
X145248571Y-127448761D01*
X145105714Y-127496380D01*
X145010476Y-127496380D01*
X144867619Y-127448761D01*
X144772380Y-127353523D01*
X144724761Y-127258285D01*
X144677142Y-127067809D01*
X144677142Y-126924952D01*
X144724761Y-126734476D01*
X144772380Y-126639238D01*
X144867619Y-126544000D01*
X145010476Y-126496380D01*
X145105714Y-126496380D01*
X145248571Y-126544000D01*
X145296190Y-126591619D01*
X145677142Y-127210666D02*
X146153333Y-127210666D01*
X145581904Y-127496380D02*
X145915238Y-126496380D01*
X146248571Y-127496380D01*
X146486666Y-126496380D02*
X147105714Y-126496380D01*
X146772380Y-126877333D01*
X146915238Y-126877333D01*
X147010476Y-126924952D01*
X147058095Y-126972571D01*
X147105714Y-127067809D01*
X147105714Y-127305904D01*
X147058095Y-127401142D01*
X147010476Y-127448761D01*
X146915238Y-127496380D01*
X146629523Y-127496380D01*
X146534285Y-127448761D01*
X146486666Y-127401142D01*
X148058095Y-127496380D02*
X147486666Y-127496380D01*
X147772380Y-127496380D02*
X147772380Y-126496380D01*
X147677142Y-126639238D01*
X147581904Y-126734476D01*
X147486666Y-126782095D01*
X148915238Y-126829714D02*
X148915238Y-127496380D01*
X148677142Y-126448761D02*
X148439047Y-127163047D01*
X149058095Y-127163047D01*
X149629523Y-126496380D02*
X149724761Y-126496380D01*
X149820000Y-126544000D01*
X149867619Y-126591619D01*
X149915238Y-126686857D01*
X149962857Y-126877333D01*
X149962857Y-127115428D01*
X149915238Y-127305904D01*
X149867619Y-127401142D01*
X149820000Y-127448761D01*
X149724761Y-127496380D01*
X149629523Y-127496380D01*
X149534285Y-127448761D01*
X149486666Y-127401142D01*
X149439047Y-127305904D01*
X149391428Y-127115428D01*
X149391428Y-126877333D01*
X149439047Y-126686857D01*
X149486666Y-126591619D01*
X149534285Y-126544000D01*
X149629523Y-126496380D01*
M02*
