G04 #@! TF.GenerationSoftware,KiCad,Pcbnew,5.1.5-52549c5~84~ubuntu18.04.1*
G04 #@! TF.CreationDate,2020-04-29T13:09:13+01:00*
G04 #@! TF.ProjectId,etl_driver_pcb,65746c5f-6472-4697-9665-725f7063622e,rev?*
G04 #@! TF.SameCoordinates,Original*
G04 #@! TF.FileFunction,Other,ECO2*
%FSLAX46Y46*%
G04 Gerber Fmt 4.6, Leading zero omitted, Abs format (unit mm)*
G04 Created by KiCad (PCBNEW 5.1.5-52549c5~84~ubuntu18.04.1) date 2020-04-29 13:09:13*
%MOMM*%
%LPD*%
G04 APERTURE LIST*
%ADD10C,0.150000*%
G04 APERTURE END LIST*
D10*
X203269619Y-109220523D02*
X203269619Y-109839571D01*
X202888666Y-109506238D01*
X202888666Y-109649095D01*
X202841047Y-109744333D01*
X202793428Y-109791952D01*
X202698190Y-109839571D01*
X202460095Y-109839571D01*
X202364857Y-109791952D01*
X202317238Y-109744333D01*
X202269619Y-109649095D01*
X202269619Y-109363380D01*
X202317238Y-109268142D01*
X202364857Y-109220523D01*
X203269619Y-110172904D02*
X203269619Y-110791952D01*
X202888666Y-110458619D01*
X202888666Y-110601476D01*
X202841047Y-110696714D01*
X202793428Y-110744333D01*
X202698190Y-110791952D01*
X202460095Y-110791952D01*
X202364857Y-110744333D01*
X202317238Y-110696714D01*
X202269619Y-110601476D01*
X202269619Y-110315761D01*
X202317238Y-110220523D01*
X202364857Y-110172904D01*
X202364857Y-111220523D02*
X202317238Y-111268142D01*
X202269619Y-111220523D01*
X202317238Y-111172904D01*
X202364857Y-111220523D01*
X202269619Y-111220523D01*
X203269619Y-111601476D02*
X203269619Y-112268142D01*
X202269619Y-111839571D01*
X202841047Y-112791952D02*
X202888666Y-112696714D01*
X202936285Y-112649095D01*
X203031523Y-112601476D01*
X203079142Y-112601476D01*
X203174380Y-112649095D01*
X203222000Y-112696714D01*
X203269619Y-112791952D01*
X203269619Y-112982428D01*
X203222000Y-113077666D01*
X203174380Y-113125285D01*
X203079142Y-113172904D01*
X203031523Y-113172904D01*
X202936285Y-113125285D01*
X202888666Y-113077666D01*
X202841047Y-112982428D01*
X202841047Y-112791952D01*
X202793428Y-112696714D01*
X202745809Y-112649095D01*
X202650571Y-112601476D01*
X202460095Y-112601476D01*
X202364857Y-112649095D01*
X202317238Y-112696714D01*
X202269619Y-112791952D01*
X202269619Y-112982428D01*
X202317238Y-113077666D01*
X202364857Y-113125285D01*
X202460095Y-113172904D01*
X202650571Y-113172904D01*
X202745809Y-113125285D01*
X202793428Y-113077666D01*
X202841047Y-112982428D01*
X203174380Y-113553857D02*
X203222000Y-113601476D01*
X203269619Y-113696714D01*
X203269619Y-113934809D01*
X203222000Y-114030047D01*
X203174380Y-114077666D01*
X203079142Y-114125285D01*
X202983904Y-114125285D01*
X202841047Y-114077666D01*
X202269619Y-113506238D01*
X202269619Y-114125285D01*
X202269619Y-115315761D02*
X202936285Y-115315761D01*
X202841047Y-115315761D02*
X202888666Y-115363380D01*
X202936285Y-115458619D01*
X202936285Y-115601476D01*
X202888666Y-115696714D01*
X202793428Y-115744333D01*
X202269619Y-115744333D01*
X202793428Y-115744333D02*
X202888666Y-115791952D01*
X202936285Y-115887190D01*
X202936285Y-116030047D01*
X202888666Y-116125285D01*
X202793428Y-116172904D01*
X202269619Y-116172904D01*
X202269619Y-116649095D02*
X202936285Y-116649095D01*
X202841047Y-116649095D02*
X202888666Y-116696714D01*
X202936285Y-116791952D01*
X202936285Y-116934809D01*
X202888666Y-117030047D01*
X202793428Y-117077666D01*
X202269619Y-117077666D01*
X202793428Y-117077666D02*
X202888666Y-117125285D01*
X202936285Y-117220523D01*
X202936285Y-117363380D01*
X202888666Y-117458619D01*
X202793428Y-117506238D01*
X202269619Y-117506238D01*
X201422000Y-96520000D02*
X201422000Y-130302000D01*
X197358000Y-96520000D02*
X202008421Y-96520000D01*
X197358000Y-130302000D02*
X202008421Y-130302000D01*
X201422000Y-130302000D02*
X200835579Y-129175496D01*
X201422000Y-130302000D02*
X202008421Y-129175496D01*
X201422000Y-96520000D02*
X200835579Y-97646504D01*
X201422000Y-96520000D02*
X202008421Y-97646504D01*
X155083333Y-138674380D02*
X154892857Y-138674380D01*
X154797619Y-138722000D01*
X154750000Y-138769619D01*
X154654761Y-138912476D01*
X154607142Y-139102952D01*
X154607142Y-139483904D01*
X154654761Y-139579142D01*
X154702380Y-139626761D01*
X154797619Y-139674380D01*
X154988095Y-139674380D01*
X155083333Y-139626761D01*
X155130952Y-139579142D01*
X155178571Y-139483904D01*
X155178571Y-139245809D01*
X155130952Y-139150571D01*
X155083333Y-139102952D01*
X154988095Y-139055333D01*
X154797619Y-139055333D01*
X154702380Y-139102952D01*
X154654761Y-139150571D01*
X154607142Y-139245809D01*
X155654761Y-139674380D02*
X155845238Y-139674380D01*
X155940476Y-139626761D01*
X155988095Y-139579142D01*
X156083333Y-139436285D01*
X156130952Y-139245809D01*
X156130952Y-138864857D01*
X156083333Y-138769619D01*
X156035714Y-138722000D01*
X155940476Y-138674380D01*
X155750000Y-138674380D01*
X155654761Y-138722000D01*
X155607142Y-138769619D01*
X155559523Y-138864857D01*
X155559523Y-139102952D01*
X155607142Y-139198190D01*
X155654761Y-139245809D01*
X155750000Y-139293428D01*
X155940476Y-139293428D01*
X156035714Y-139245809D01*
X156083333Y-139198190D01*
X156130952Y-139102952D01*
X156559523Y-139579142D02*
X156607142Y-139626761D01*
X156559523Y-139674380D01*
X156511904Y-139626761D01*
X156559523Y-139579142D01*
X156559523Y-139674380D01*
X157511904Y-138674380D02*
X157035714Y-138674380D01*
X156988095Y-139150571D01*
X157035714Y-139102952D01*
X157130952Y-139055333D01*
X157369047Y-139055333D01*
X157464285Y-139102952D01*
X157511904Y-139150571D01*
X157559523Y-139245809D01*
X157559523Y-139483904D01*
X157511904Y-139579142D01*
X157464285Y-139626761D01*
X157369047Y-139674380D01*
X157130952Y-139674380D01*
X157035714Y-139626761D01*
X156988095Y-139579142D01*
X158035714Y-139674380D02*
X158226190Y-139674380D01*
X158321428Y-139626761D01*
X158369047Y-139579142D01*
X158464285Y-139436285D01*
X158511904Y-139245809D01*
X158511904Y-138864857D01*
X158464285Y-138769619D01*
X158416666Y-138722000D01*
X158321428Y-138674380D01*
X158130952Y-138674380D01*
X158035714Y-138722000D01*
X157988095Y-138769619D01*
X157940476Y-138864857D01*
X157940476Y-139102952D01*
X157988095Y-139198190D01*
X158035714Y-139245809D01*
X158130952Y-139293428D01*
X158321428Y-139293428D01*
X158416666Y-139245809D01*
X158464285Y-139198190D01*
X158511904Y-139102952D01*
X159369047Y-138674380D02*
X159178571Y-138674380D01*
X159083333Y-138722000D01*
X159035714Y-138769619D01*
X158940476Y-138912476D01*
X158892857Y-139102952D01*
X158892857Y-139483904D01*
X158940476Y-139579142D01*
X158988095Y-139626761D01*
X159083333Y-139674380D01*
X159273809Y-139674380D01*
X159369047Y-139626761D01*
X159416666Y-139579142D01*
X159464285Y-139483904D01*
X159464285Y-139245809D01*
X159416666Y-139150571D01*
X159369047Y-139102952D01*
X159273809Y-139055333D01*
X159083333Y-139055333D01*
X158988095Y-139102952D01*
X158940476Y-139150571D01*
X158892857Y-139245809D01*
X160654761Y-139674380D02*
X160654761Y-139007714D01*
X160654761Y-139102952D02*
X160702380Y-139055333D01*
X160797619Y-139007714D01*
X160940476Y-139007714D01*
X161035714Y-139055333D01*
X161083333Y-139150571D01*
X161083333Y-139674380D01*
X161083333Y-139150571D02*
X161130952Y-139055333D01*
X161226190Y-139007714D01*
X161369047Y-139007714D01*
X161464285Y-139055333D01*
X161511904Y-139150571D01*
X161511904Y-139674380D01*
X161988095Y-139674380D02*
X161988095Y-139007714D01*
X161988095Y-139102952D02*
X162035714Y-139055333D01*
X162130952Y-139007714D01*
X162273809Y-139007714D01*
X162369047Y-139055333D01*
X162416666Y-139150571D01*
X162416666Y-139674380D01*
X162416666Y-139150571D02*
X162464285Y-139055333D01*
X162559523Y-139007714D01*
X162702380Y-139007714D01*
X162797619Y-139055333D01*
X162845238Y-139150571D01*
X162845238Y-139674380D01*
X123952000Y-137922000D02*
X193548000Y-137922000D01*
X123952000Y-133096000D02*
X123952000Y-138508421D01*
X193548000Y-133096000D02*
X193548000Y-138508421D01*
X193548000Y-137922000D02*
X192421496Y-138508421D01*
X193548000Y-137922000D02*
X192421496Y-137335579D01*
X123952000Y-137922000D02*
X125078504Y-138508421D01*
X123952000Y-137922000D02*
X125078504Y-137335579D01*
M02*
