G04 #@! TF.GenerationSoftware,KiCad,Pcbnew,5.1.5-52549c5~84~ubuntu18.04.1*
G04 #@! TF.CreationDate,2020-04-29T13:09:13+01:00*
G04 #@! TF.ProjectId,etl_driver_pcb,65746c5f-6472-4697-9665-725f7063622e,rev?*
G04 #@! TF.SameCoordinates,Original*
G04 #@! TF.FileFunction,Other,Fab,Top*
%FSLAX46Y46*%
G04 Gerber Fmt 4.6, Leading zero omitted, Abs format (unit mm)*
G04 Created by KiCad (PCBNEW 5.1.5-52549c5~84~ubuntu18.04.1) date 2020-04-29 13:09:13*
%MOMM*%
%LPD*%
G04 APERTURE LIST*
%ADD10C,0.100000*%
%ADD11C,0.150000*%
G04 APERTURE END LIST*
D10*
X135356000Y-121142000D02*
X130556000Y-121142000D01*
X135356000Y-124142000D02*
X135356000Y-121142000D01*
X130556000Y-124142000D02*
X135356000Y-124142000D01*
X130556000Y-121142000D02*
X130556000Y-124142000D01*
X130556000Y-117742000D02*
X135356000Y-117742000D01*
X130556000Y-127542000D02*
X130556000Y-117742000D01*
X135356000Y-127542000D02*
X130556000Y-127542000D01*
X135356000Y-117742000D02*
X135356000Y-127542000D01*
X140147000Y-110555000D02*
X140147000Y-105345000D01*
X140147000Y-105345000D02*
X130617000Y-105345000D01*
X130617000Y-105345000D02*
X130617000Y-110555000D01*
X130617000Y-110555000D02*
X140147000Y-110555000D01*
X143002000Y-107950000D02*
X140147000Y-107950000D01*
X127762000Y-107950000D02*
X130617000Y-107950000D01*
X138717500Y-110555000D02*
X138717500Y-105345000D01*
X138617500Y-110555000D02*
X138617500Y-105345000D01*
X138817500Y-110555000D02*
X138817500Y-105345000D01*
X131318000Y-101219000D02*
X131318000Y-99314000D01*
X131318000Y-99314000D02*
X136398000Y-99314000D01*
X136398000Y-99314000D02*
X136398000Y-101854000D01*
X136398000Y-101854000D02*
X131953000Y-101854000D01*
X131953000Y-101854000D02*
X131318000Y-101219000D01*
X158369000Y-108966000D02*
X157734000Y-108331000D01*
X162814000Y-108966000D02*
X158369000Y-108966000D01*
X162814000Y-106426000D02*
X162814000Y-108966000D01*
X157734000Y-106426000D02*
X162814000Y-106426000D01*
X157734000Y-108331000D02*
X157734000Y-106426000D01*
X188087000Y-109982000D02*
X189992000Y-109982000D01*
X189992000Y-109982000D02*
X189992000Y-115062000D01*
X189992000Y-115062000D02*
X187452000Y-115062000D01*
X187452000Y-115062000D02*
X187452000Y-110617000D01*
X187452000Y-110617000D02*
X188087000Y-109982000D01*
X176054000Y-128460000D02*
X179304000Y-128460000D01*
X179304000Y-128460000D02*
X179304000Y-120460000D01*
X179304000Y-120460000D02*
X176054000Y-120460000D01*
X176054000Y-120460000D02*
X176054000Y-128460000D01*
X176054000Y-126060000D02*
X179304000Y-126060000D01*
X176054000Y-122860000D02*
X179304000Y-122860000D01*
X136754000Y-114788000D02*
X136754000Y-112288000D01*
X136754000Y-112288000D02*
X130454000Y-112288000D01*
X130454000Y-112288000D02*
X130454000Y-114788000D01*
X130454000Y-114788000D02*
X136754000Y-114788000D01*
X138684000Y-113538000D02*
X136754000Y-113538000D01*
X128524000Y-113538000D02*
X130454000Y-113538000D01*
X158750000Y-121920000D02*
X160680000Y-121920000D01*
X168910000Y-121920000D02*
X166980000Y-121920000D01*
X160680000Y-123170000D02*
X166980000Y-123170000D01*
X160680000Y-120670000D02*
X160680000Y-123170000D01*
X166980000Y-120670000D02*
X160680000Y-120670000D01*
X166980000Y-123170000D02*
X166980000Y-120670000D01*
X167914000Y-110592000D02*
X170414000Y-110592000D01*
X170414000Y-110592000D02*
X170414000Y-104292000D01*
X170414000Y-104292000D02*
X167914000Y-104292000D01*
X167914000Y-104292000D02*
X167914000Y-110592000D01*
X169164000Y-112522000D02*
X169164000Y-110592000D01*
X169164000Y-102362000D02*
X169164000Y-104292000D01*
X173990000Y-102362000D02*
X173990000Y-104292000D01*
X173990000Y-112522000D02*
X173990000Y-110592000D01*
X172740000Y-104292000D02*
X172740000Y-110592000D01*
X175240000Y-104292000D02*
X172740000Y-104292000D01*
X175240000Y-110592000D02*
X175240000Y-104292000D01*
X172740000Y-110592000D02*
X175240000Y-110592000D01*
X145145000Y-115824000D02*
X150495000Y-115824000D01*
X150495000Y-115824000D02*
X150495000Y-125984000D01*
X150495000Y-125984000D02*
X144145000Y-125984000D01*
X144145000Y-125984000D02*
X144145000Y-116824000D01*
X144145000Y-116824000D02*
X145145000Y-115824000D01*
X142240000Y-115764000D02*
X142240000Y-126044000D01*
X142240000Y-126044000D02*
X152400000Y-126044000D01*
X152400000Y-126044000D02*
X152400000Y-115764000D01*
X152400000Y-115764000D02*
X142240000Y-115764000D01*
D11*
X132360761Y-123094380D02*
X132027428Y-122618190D01*
X131789333Y-123094380D02*
X131789333Y-122094380D01*
X132170285Y-122094380D01*
X132265523Y-122142000D01*
X132313142Y-122189619D01*
X132360761Y-122284857D01*
X132360761Y-122427714D01*
X132313142Y-122522952D01*
X132265523Y-122570571D01*
X132170285Y-122618190D01*
X131789333Y-122618190D01*
X132646476Y-122094380D02*
X132979809Y-123094380D01*
X133313142Y-122094380D01*
X134170285Y-123094380D02*
X133598857Y-123094380D01*
X133884571Y-123094380D02*
X133884571Y-122094380D01*
X133789333Y-122237238D01*
X133694095Y-122332476D01*
X133598857Y-122380095D01*
X133929154Y-108402380D02*
X133929154Y-107402380D01*
X134167250Y-107402380D01*
X134310107Y-107450000D01*
X134405345Y-107545238D01*
X134452964Y-107640476D01*
X134500583Y-107830952D01*
X134500583Y-107973809D01*
X134452964Y-108164285D01*
X134405345Y-108259523D01*
X134310107Y-108354761D01*
X134167250Y-108402380D01*
X133929154Y-108402380D01*
X135452964Y-108402380D02*
X134881535Y-108402380D01*
X135167250Y-108402380D02*
X135167250Y-107402380D01*
X135072011Y-107545238D01*
X134976773Y-107640476D01*
X134881535Y-107688095D01*
X142740095Y-110702380D02*
X142740095Y-109702380D01*
X143311523Y-110702380D02*
X142882952Y-110130952D01*
X143311523Y-109702380D02*
X142740095Y-110273809D01*
X114555523Y-130606380D02*
X114555523Y-129606380D01*
X114888857Y-130320666D01*
X115222190Y-129606380D01*
X115222190Y-130606380D01*
X115841238Y-130606380D02*
X115746000Y-130558761D01*
X115698380Y-130511142D01*
X115650761Y-130415904D01*
X115650761Y-130130190D01*
X115698380Y-130034952D01*
X115746000Y-129987333D01*
X115841238Y-129939714D01*
X115984095Y-129939714D01*
X116079333Y-129987333D01*
X116126952Y-130034952D01*
X116174571Y-130130190D01*
X116174571Y-130415904D01*
X116126952Y-130511142D01*
X116079333Y-130558761D01*
X115984095Y-130606380D01*
X115841238Y-130606380D01*
X117031714Y-129939714D02*
X117031714Y-130606380D01*
X116603142Y-129939714D02*
X116603142Y-130463523D01*
X116650761Y-130558761D01*
X116746000Y-130606380D01*
X116888857Y-130606380D01*
X116984095Y-130558761D01*
X117031714Y-130511142D01*
X117507904Y-129939714D02*
X117507904Y-130606380D01*
X117507904Y-130034952D02*
X117555523Y-129987333D01*
X117650761Y-129939714D01*
X117793619Y-129939714D01*
X117888857Y-129987333D01*
X117936476Y-130082571D01*
X117936476Y-130606380D01*
X118269809Y-129939714D02*
X118650761Y-129939714D01*
X118412666Y-129606380D02*
X118412666Y-130463523D01*
X118460285Y-130558761D01*
X118555523Y-130606380D01*
X118650761Y-130606380D01*
X118984095Y-130606380D02*
X118984095Y-129939714D01*
X118984095Y-129606380D02*
X118936476Y-129654000D01*
X118984095Y-129701619D01*
X119031714Y-129654000D01*
X118984095Y-129606380D01*
X118984095Y-129701619D01*
X119460285Y-129939714D02*
X119460285Y-130606380D01*
X119460285Y-130034952D02*
X119507904Y-129987333D01*
X119603142Y-129939714D01*
X119746000Y-129939714D01*
X119841238Y-129987333D01*
X119888857Y-130082571D01*
X119888857Y-130606380D01*
X120793619Y-129939714D02*
X120793619Y-130749238D01*
X120746000Y-130844476D01*
X120698380Y-130892095D01*
X120603142Y-130939714D01*
X120460285Y-130939714D01*
X120365047Y-130892095D01*
X120793619Y-130558761D02*
X120698380Y-130606380D01*
X120507904Y-130606380D01*
X120412666Y-130558761D01*
X120365047Y-130511142D01*
X120317428Y-130415904D01*
X120317428Y-130130190D01*
X120365047Y-130034952D01*
X120412666Y-129987333D01*
X120507904Y-129939714D01*
X120698380Y-129939714D01*
X120793619Y-129987333D01*
X121269809Y-130606380D02*
X121269809Y-129606380D01*
X121269809Y-130082571D02*
X121841238Y-130082571D01*
X121841238Y-130606380D02*
X121841238Y-129606380D01*
X122460285Y-130606380D02*
X122365047Y-130558761D01*
X122317428Y-130511142D01*
X122269809Y-130415904D01*
X122269809Y-130130190D01*
X122317428Y-130034952D01*
X122365047Y-129987333D01*
X122460285Y-129939714D01*
X122603142Y-129939714D01*
X122698380Y-129987333D01*
X122746000Y-130034952D01*
X122793619Y-130130190D01*
X122793619Y-130415904D01*
X122746000Y-130511142D01*
X122698380Y-130558761D01*
X122603142Y-130606380D01*
X122460285Y-130606380D01*
X123365047Y-130606380D02*
X123269809Y-130558761D01*
X123222190Y-130463523D01*
X123222190Y-129606380D01*
X124126952Y-130558761D02*
X124031714Y-130606380D01*
X123841238Y-130606380D01*
X123746000Y-130558761D01*
X123698380Y-130463523D01*
X123698380Y-130082571D01*
X123746000Y-129987333D01*
X123841238Y-129939714D01*
X124031714Y-129939714D01*
X124126952Y-129987333D01*
X124174571Y-130082571D01*
X124174571Y-130177809D01*
X123698380Y-130273047D01*
X124365047Y-130701619D02*
X125126952Y-130701619D01*
X125317428Y-129701619D02*
X125365047Y-129654000D01*
X125460285Y-129606380D01*
X125698380Y-129606380D01*
X125793619Y-129654000D01*
X125841238Y-129701619D01*
X125888857Y-129796857D01*
X125888857Y-129892095D01*
X125841238Y-130034952D01*
X125269809Y-130606380D01*
X125888857Y-130606380D01*
X126317428Y-130511142D02*
X126365047Y-130558761D01*
X126317428Y-130606380D01*
X126269809Y-130558761D01*
X126317428Y-130511142D01*
X126317428Y-130606380D01*
X126745999Y-129701619D02*
X126793619Y-129654000D01*
X126888857Y-129606380D01*
X127126952Y-129606380D01*
X127222190Y-129654000D01*
X127269809Y-129701619D01*
X127317428Y-129796857D01*
X127317428Y-129892095D01*
X127269809Y-130034952D01*
X126698380Y-130606380D01*
X127317428Y-130606380D01*
X127745999Y-130606380D02*
X127745999Y-129939714D01*
X127745999Y-130034952D02*
X127793619Y-129987333D01*
X127888857Y-129939714D01*
X128031714Y-129939714D01*
X128126952Y-129987333D01*
X128174571Y-130082571D01*
X128174571Y-130606380D01*
X128174571Y-130082571D02*
X128222190Y-129987333D01*
X128317428Y-129939714D01*
X128460285Y-129939714D01*
X128555523Y-129987333D01*
X128603142Y-130082571D01*
X128603142Y-130606380D01*
X129079333Y-130606380D02*
X129079333Y-129939714D01*
X129079333Y-130034952D02*
X129126952Y-129987333D01*
X129222190Y-129939714D01*
X129365047Y-129939714D01*
X129460285Y-129987333D01*
X129507904Y-130082571D01*
X129507904Y-130606380D01*
X129507904Y-130082571D02*
X129555523Y-129987333D01*
X129650761Y-129939714D01*
X129793619Y-129939714D01*
X129888857Y-129987333D01*
X129936476Y-130082571D01*
X129936476Y-130606380D01*
X130174571Y-130701619D02*
X130936476Y-130701619D01*
X131174571Y-130606380D02*
X131174571Y-129606380D01*
X131507904Y-130320666D01*
X131841238Y-129606380D01*
X131841238Y-130606380D01*
X132269809Y-129701619D02*
X132317428Y-129654000D01*
X132412666Y-129606380D01*
X132650761Y-129606380D01*
X132746000Y-129654000D01*
X132793619Y-129701619D01*
X132841238Y-129796857D01*
X132841238Y-129892095D01*
X132793619Y-130034952D01*
X132222190Y-130606380D01*
X132841238Y-130606380D01*
X133031714Y-130701619D02*
X133793619Y-130701619D01*
X134031714Y-130606380D02*
X134031714Y-129606380D01*
X134269809Y-129606380D01*
X134412666Y-129654000D01*
X134507904Y-129749238D01*
X134555523Y-129844476D01*
X134603142Y-130034952D01*
X134603142Y-130177809D01*
X134555523Y-130368285D01*
X134507904Y-130463523D01*
X134412666Y-130558761D01*
X134269809Y-130606380D01*
X134031714Y-130606380D01*
X135031714Y-130606380D02*
X135031714Y-129606380D01*
X135507904Y-130606380D02*
X135507904Y-129606380D01*
X136079333Y-130606380D01*
X136079333Y-129606380D01*
X136603142Y-130606380D02*
X136793619Y-130606380D01*
X136888857Y-130558761D01*
X136936476Y-130511142D01*
X137031714Y-130368285D01*
X137079333Y-130177809D01*
X137079333Y-129796857D01*
X137031714Y-129701619D01*
X136984095Y-129654000D01*
X136888857Y-129606380D01*
X136698380Y-129606380D01*
X136603142Y-129654000D01*
X136555523Y-129701619D01*
X136507904Y-129796857D01*
X136507904Y-130034952D01*
X136555523Y-130130190D01*
X136603142Y-130177809D01*
X136698380Y-130225428D01*
X136888857Y-130225428D01*
X136984095Y-130177809D01*
X137031714Y-130130190D01*
X137079333Y-130034952D01*
X137936476Y-129606380D02*
X137746000Y-129606380D01*
X137650761Y-129654000D01*
X137603142Y-129701619D01*
X137507904Y-129844476D01*
X137460285Y-130034952D01*
X137460285Y-130415904D01*
X137507904Y-130511142D01*
X137555523Y-130558761D01*
X137650761Y-130606380D01*
X137841238Y-130606380D01*
X137936476Y-130558761D01*
X137984095Y-130511142D01*
X138031714Y-130415904D01*
X138031714Y-130177809D01*
X137984095Y-130082571D01*
X137936476Y-130034952D01*
X137841238Y-129987333D01*
X137650761Y-129987333D01*
X137555523Y-130034952D01*
X137507904Y-130082571D01*
X137460285Y-130177809D01*
X138936476Y-129606380D02*
X138460285Y-129606380D01*
X138412666Y-130082571D01*
X138460285Y-130034952D01*
X138555523Y-129987333D01*
X138793619Y-129987333D01*
X138888857Y-130034952D01*
X138936476Y-130082571D01*
X138984095Y-130177809D01*
X138984095Y-130415904D01*
X138936476Y-130511142D01*
X138888857Y-130558761D01*
X138793619Y-130606380D01*
X138555523Y-130606380D01*
X138460285Y-130558761D01*
X138412666Y-130511142D01*
X125712666Y-127706380D02*
X125379333Y-127230190D01*
X125141238Y-127706380D02*
X125141238Y-126706380D01*
X125522190Y-126706380D01*
X125617428Y-126754000D01*
X125665047Y-126801619D01*
X125712666Y-126896857D01*
X125712666Y-127039714D01*
X125665047Y-127134952D01*
X125617428Y-127182571D01*
X125522190Y-127230190D01*
X125141238Y-127230190D01*
X126141238Y-127182571D02*
X126474571Y-127182571D01*
X126617428Y-127706380D02*
X126141238Y-127706380D01*
X126141238Y-126706380D01*
X126617428Y-126706380D01*
X127379333Y-127182571D02*
X127046000Y-127182571D01*
X127046000Y-127706380D02*
X127046000Y-126706380D01*
X127522190Y-126706380D01*
X128046000Y-126706380D02*
X128046000Y-126944476D01*
X127807904Y-126849238D02*
X128046000Y-126944476D01*
X128284095Y-126849238D01*
X127903142Y-127134952D02*
X128046000Y-126944476D01*
X128188857Y-127134952D01*
X128807904Y-126706380D02*
X128807904Y-126944476D01*
X128569809Y-126849238D02*
X128807904Y-126944476D01*
X129046000Y-126849238D01*
X128665047Y-127134952D02*
X128807904Y-126944476D01*
X128950761Y-127134952D01*
X114555523Y-102666380D02*
X114555523Y-101666380D01*
X114888857Y-102380666D01*
X115222190Y-101666380D01*
X115222190Y-102666380D01*
X115841238Y-102666380D02*
X115746000Y-102618761D01*
X115698380Y-102571142D01*
X115650761Y-102475904D01*
X115650761Y-102190190D01*
X115698380Y-102094952D01*
X115746000Y-102047333D01*
X115841238Y-101999714D01*
X115984095Y-101999714D01*
X116079333Y-102047333D01*
X116126952Y-102094952D01*
X116174571Y-102190190D01*
X116174571Y-102475904D01*
X116126952Y-102571142D01*
X116079333Y-102618761D01*
X115984095Y-102666380D01*
X115841238Y-102666380D01*
X117031714Y-101999714D02*
X117031714Y-102666380D01*
X116603142Y-101999714D02*
X116603142Y-102523523D01*
X116650761Y-102618761D01*
X116746000Y-102666380D01*
X116888857Y-102666380D01*
X116984095Y-102618761D01*
X117031714Y-102571142D01*
X117507904Y-101999714D02*
X117507904Y-102666380D01*
X117507904Y-102094952D02*
X117555523Y-102047333D01*
X117650761Y-101999714D01*
X117793619Y-101999714D01*
X117888857Y-102047333D01*
X117936476Y-102142571D01*
X117936476Y-102666380D01*
X118269809Y-101999714D02*
X118650761Y-101999714D01*
X118412666Y-101666380D02*
X118412666Y-102523523D01*
X118460285Y-102618761D01*
X118555523Y-102666380D01*
X118650761Y-102666380D01*
X118984095Y-102666380D02*
X118984095Y-101999714D01*
X118984095Y-101666380D02*
X118936476Y-101714000D01*
X118984095Y-101761619D01*
X119031714Y-101714000D01*
X118984095Y-101666380D01*
X118984095Y-101761619D01*
X119460285Y-101999714D02*
X119460285Y-102666380D01*
X119460285Y-102094952D02*
X119507904Y-102047333D01*
X119603142Y-101999714D01*
X119746000Y-101999714D01*
X119841238Y-102047333D01*
X119888857Y-102142571D01*
X119888857Y-102666380D01*
X120793619Y-101999714D02*
X120793619Y-102809238D01*
X120746000Y-102904476D01*
X120698380Y-102952095D01*
X120603142Y-102999714D01*
X120460285Y-102999714D01*
X120365047Y-102952095D01*
X120793619Y-102618761D02*
X120698380Y-102666380D01*
X120507904Y-102666380D01*
X120412666Y-102618761D01*
X120365047Y-102571142D01*
X120317428Y-102475904D01*
X120317428Y-102190190D01*
X120365047Y-102094952D01*
X120412666Y-102047333D01*
X120507904Y-101999714D01*
X120698380Y-101999714D01*
X120793619Y-102047333D01*
X121269809Y-102666380D02*
X121269809Y-101666380D01*
X121269809Y-102142571D02*
X121841238Y-102142571D01*
X121841238Y-102666380D02*
X121841238Y-101666380D01*
X122460285Y-102666380D02*
X122365047Y-102618761D01*
X122317428Y-102571142D01*
X122269809Y-102475904D01*
X122269809Y-102190190D01*
X122317428Y-102094952D01*
X122365047Y-102047333D01*
X122460285Y-101999714D01*
X122603142Y-101999714D01*
X122698380Y-102047333D01*
X122746000Y-102094952D01*
X122793619Y-102190190D01*
X122793619Y-102475904D01*
X122746000Y-102571142D01*
X122698380Y-102618761D01*
X122603142Y-102666380D01*
X122460285Y-102666380D01*
X123365047Y-102666380D02*
X123269809Y-102618761D01*
X123222190Y-102523523D01*
X123222190Y-101666380D01*
X124126952Y-102618761D02*
X124031714Y-102666380D01*
X123841238Y-102666380D01*
X123746000Y-102618761D01*
X123698380Y-102523523D01*
X123698380Y-102142571D01*
X123746000Y-102047333D01*
X123841238Y-101999714D01*
X124031714Y-101999714D01*
X124126952Y-102047333D01*
X124174571Y-102142571D01*
X124174571Y-102237809D01*
X123698380Y-102333047D01*
X124365047Y-102761619D02*
X125126952Y-102761619D01*
X125317428Y-101761619D02*
X125365047Y-101714000D01*
X125460285Y-101666380D01*
X125698380Y-101666380D01*
X125793619Y-101714000D01*
X125841238Y-101761619D01*
X125888857Y-101856857D01*
X125888857Y-101952095D01*
X125841238Y-102094952D01*
X125269809Y-102666380D01*
X125888857Y-102666380D01*
X126317428Y-102571142D02*
X126365047Y-102618761D01*
X126317428Y-102666380D01*
X126269809Y-102618761D01*
X126317428Y-102571142D01*
X126317428Y-102666380D01*
X126745999Y-101761619D02*
X126793619Y-101714000D01*
X126888857Y-101666380D01*
X127126952Y-101666380D01*
X127222190Y-101714000D01*
X127269809Y-101761619D01*
X127317428Y-101856857D01*
X127317428Y-101952095D01*
X127269809Y-102094952D01*
X126698380Y-102666380D01*
X127317428Y-102666380D01*
X127745999Y-102666380D02*
X127745999Y-101999714D01*
X127745999Y-102094952D02*
X127793619Y-102047333D01*
X127888857Y-101999714D01*
X128031714Y-101999714D01*
X128126952Y-102047333D01*
X128174571Y-102142571D01*
X128174571Y-102666380D01*
X128174571Y-102142571D02*
X128222190Y-102047333D01*
X128317428Y-101999714D01*
X128460285Y-101999714D01*
X128555523Y-102047333D01*
X128603142Y-102142571D01*
X128603142Y-102666380D01*
X129079333Y-102666380D02*
X129079333Y-101999714D01*
X129079333Y-102094952D02*
X129126952Y-102047333D01*
X129222190Y-101999714D01*
X129365047Y-101999714D01*
X129460285Y-102047333D01*
X129507904Y-102142571D01*
X129507904Y-102666380D01*
X129507904Y-102142571D02*
X129555523Y-102047333D01*
X129650761Y-101999714D01*
X129793619Y-101999714D01*
X129888857Y-102047333D01*
X129936476Y-102142571D01*
X129936476Y-102666380D01*
X130174571Y-102761619D02*
X130936476Y-102761619D01*
X131174571Y-102666380D02*
X131174571Y-101666380D01*
X131507904Y-102380666D01*
X131841238Y-101666380D01*
X131841238Y-102666380D01*
X132269809Y-101761619D02*
X132317428Y-101714000D01*
X132412666Y-101666380D01*
X132650761Y-101666380D01*
X132746000Y-101714000D01*
X132793619Y-101761619D01*
X132841238Y-101856857D01*
X132841238Y-101952095D01*
X132793619Y-102094952D01*
X132222190Y-102666380D01*
X132841238Y-102666380D01*
X133031714Y-102761619D02*
X133793619Y-102761619D01*
X134031714Y-102666380D02*
X134031714Y-101666380D01*
X134269809Y-101666380D01*
X134412666Y-101714000D01*
X134507904Y-101809238D01*
X134555523Y-101904476D01*
X134603142Y-102094952D01*
X134603142Y-102237809D01*
X134555523Y-102428285D01*
X134507904Y-102523523D01*
X134412666Y-102618761D01*
X134269809Y-102666380D01*
X134031714Y-102666380D01*
X135031714Y-102666380D02*
X135031714Y-101666380D01*
X135507904Y-102666380D02*
X135507904Y-101666380D01*
X136079333Y-102666380D01*
X136079333Y-101666380D01*
X136603142Y-102666380D02*
X136793619Y-102666380D01*
X136888857Y-102618761D01*
X136936476Y-102571142D01*
X137031714Y-102428285D01*
X137079333Y-102237809D01*
X137079333Y-101856857D01*
X137031714Y-101761619D01*
X136984095Y-101714000D01*
X136888857Y-101666380D01*
X136698380Y-101666380D01*
X136603142Y-101714000D01*
X136555523Y-101761619D01*
X136507904Y-101856857D01*
X136507904Y-102094952D01*
X136555523Y-102190190D01*
X136603142Y-102237809D01*
X136698380Y-102285428D01*
X136888857Y-102285428D01*
X136984095Y-102237809D01*
X137031714Y-102190190D01*
X137079333Y-102094952D01*
X137936476Y-101666380D02*
X137746000Y-101666380D01*
X137650761Y-101714000D01*
X137603142Y-101761619D01*
X137507904Y-101904476D01*
X137460285Y-102094952D01*
X137460285Y-102475904D01*
X137507904Y-102571142D01*
X137555523Y-102618761D01*
X137650761Y-102666380D01*
X137841238Y-102666380D01*
X137936476Y-102618761D01*
X137984095Y-102571142D01*
X138031714Y-102475904D01*
X138031714Y-102237809D01*
X137984095Y-102142571D01*
X137936476Y-102094952D01*
X137841238Y-102047333D01*
X137650761Y-102047333D01*
X137555523Y-102094952D01*
X137507904Y-102142571D01*
X137460285Y-102237809D01*
X138936476Y-101666380D02*
X138460285Y-101666380D01*
X138412666Y-102142571D01*
X138460285Y-102094952D01*
X138555523Y-102047333D01*
X138793619Y-102047333D01*
X138888857Y-102094952D01*
X138936476Y-102142571D01*
X138984095Y-102237809D01*
X138984095Y-102475904D01*
X138936476Y-102571142D01*
X138888857Y-102618761D01*
X138793619Y-102666380D01*
X138555523Y-102666380D01*
X138460285Y-102618761D01*
X138412666Y-102571142D01*
X125712666Y-99766380D02*
X125379333Y-99290190D01*
X125141238Y-99766380D02*
X125141238Y-98766380D01*
X125522190Y-98766380D01*
X125617428Y-98814000D01*
X125665047Y-98861619D01*
X125712666Y-98956857D01*
X125712666Y-99099714D01*
X125665047Y-99194952D01*
X125617428Y-99242571D01*
X125522190Y-99290190D01*
X125141238Y-99290190D01*
X126141238Y-99242571D02*
X126474571Y-99242571D01*
X126617428Y-99766380D02*
X126141238Y-99766380D01*
X126141238Y-98766380D01*
X126617428Y-98766380D01*
X127379333Y-99242571D02*
X127046000Y-99242571D01*
X127046000Y-99766380D02*
X127046000Y-98766380D01*
X127522190Y-98766380D01*
X128046000Y-98766380D02*
X128046000Y-99004476D01*
X127807904Y-98909238D02*
X128046000Y-99004476D01*
X128284095Y-98909238D01*
X127903142Y-99194952D02*
X128046000Y-99004476D01*
X128188857Y-99194952D01*
X128807904Y-98766380D02*
X128807904Y-99004476D01*
X128569809Y-98909238D02*
X128807904Y-99004476D01*
X129046000Y-98909238D01*
X128665047Y-99194952D02*
X128807904Y-99004476D01*
X128950761Y-99194952D01*
X178055523Y-102666380D02*
X178055523Y-101666380D01*
X178388857Y-102380666D01*
X178722190Y-101666380D01*
X178722190Y-102666380D01*
X179341238Y-102666380D02*
X179246000Y-102618761D01*
X179198380Y-102571142D01*
X179150761Y-102475904D01*
X179150761Y-102190190D01*
X179198380Y-102094952D01*
X179246000Y-102047333D01*
X179341238Y-101999714D01*
X179484095Y-101999714D01*
X179579333Y-102047333D01*
X179626952Y-102094952D01*
X179674571Y-102190190D01*
X179674571Y-102475904D01*
X179626952Y-102571142D01*
X179579333Y-102618761D01*
X179484095Y-102666380D01*
X179341238Y-102666380D01*
X180531714Y-101999714D02*
X180531714Y-102666380D01*
X180103142Y-101999714D02*
X180103142Y-102523523D01*
X180150761Y-102618761D01*
X180246000Y-102666380D01*
X180388857Y-102666380D01*
X180484095Y-102618761D01*
X180531714Y-102571142D01*
X181007904Y-101999714D02*
X181007904Y-102666380D01*
X181007904Y-102094952D02*
X181055523Y-102047333D01*
X181150761Y-101999714D01*
X181293619Y-101999714D01*
X181388857Y-102047333D01*
X181436476Y-102142571D01*
X181436476Y-102666380D01*
X181769809Y-101999714D02*
X182150761Y-101999714D01*
X181912666Y-101666380D02*
X181912666Y-102523523D01*
X181960285Y-102618761D01*
X182055523Y-102666380D01*
X182150761Y-102666380D01*
X182484095Y-102666380D02*
X182484095Y-101999714D01*
X182484095Y-101666380D02*
X182436476Y-101714000D01*
X182484095Y-101761619D01*
X182531714Y-101714000D01*
X182484095Y-101666380D01*
X182484095Y-101761619D01*
X182960285Y-101999714D02*
X182960285Y-102666380D01*
X182960285Y-102094952D02*
X183007904Y-102047333D01*
X183103142Y-101999714D01*
X183246000Y-101999714D01*
X183341238Y-102047333D01*
X183388857Y-102142571D01*
X183388857Y-102666380D01*
X184293619Y-101999714D02*
X184293619Y-102809238D01*
X184246000Y-102904476D01*
X184198380Y-102952095D01*
X184103142Y-102999714D01*
X183960285Y-102999714D01*
X183865047Y-102952095D01*
X184293619Y-102618761D02*
X184198380Y-102666380D01*
X184007904Y-102666380D01*
X183912666Y-102618761D01*
X183865047Y-102571142D01*
X183817428Y-102475904D01*
X183817428Y-102190190D01*
X183865047Y-102094952D01*
X183912666Y-102047333D01*
X184007904Y-101999714D01*
X184198380Y-101999714D01*
X184293619Y-102047333D01*
X184769809Y-102666380D02*
X184769809Y-101666380D01*
X184769809Y-102142571D02*
X185341238Y-102142571D01*
X185341238Y-102666380D02*
X185341238Y-101666380D01*
X185960285Y-102666380D02*
X185865047Y-102618761D01*
X185817428Y-102571142D01*
X185769809Y-102475904D01*
X185769809Y-102190190D01*
X185817428Y-102094952D01*
X185865047Y-102047333D01*
X185960285Y-101999714D01*
X186103142Y-101999714D01*
X186198380Y-102047333D01*
X186246000Y-102094952D01*
X186293619Y-102190190D01*
X186293619Y-102475904D01*
X186246000Y-102571142D01*
X186198380Y-102618761D01*
X186103142Y-102666380D01*
X185960285Y-102666380D01*
X186865047Y-102666380D02*
X186769809Y-102618761D01*
X186722190Y-102523523D01*
X186722190Y-101666380D01*
X187626952Y-102618761D02*
X187531714Y-102666380D01*
X187341238Y-102666380D01*
X187246000Y-102618761D01*
X187198380Y-102523523D01*
X187198380Y-102142571D01*
X187246000Y-102047333D01*
X187341238Y-101999714D01*
X187531714Y-101999714D01*
X187626952Y-102047333D01*
X187674571Y-102142571D01*
X187674571Y-102237809D01*
X187198380Y-102333047D01*
X187865047Y-102761619D02*
X188626952Y-102761619D01*
X188817428Y-101761619D02*
X188865047Y-101714000D01*
X188960285Y-101666380D01*
X189198380Y-101666380D01*
X189293619Y-101714000D01*
X189341238Y-101761619D01*
X189388857Y-101856857D01*
X189388857Y-101952095D01*
X189341238Y-102094952D01*
X188769809Y-102666380D01*
X189388857Y-102666380D01*
X189817428Y-102571142D02*
X189865047Y-102618761D01*
X189817428Y-102666380D01*
X189769809Y-102618761D01*
X189817428Y-102571142D01*
X189817428Y-102666380D01*
X190246000Y-101761619D02*
X190293619Y-101714000D01*
X190388857Y-101666380D01*
X190626952Y-101666380D01*
X190722190Y-101714000D01*
X190769809Y-101761619D01*
X190817428Y-101856857D01*
X190817428Y-101952095D01*
X190769809Y-102094952D01*
X190198380Y-102666380D01*
X190817428Y-102666380D01*
X191246000Y-102666380D02*
X191246000Y-101999714D01*
X191246000Y-102094952D02*
X191293619Y-102047333D01*
X191388857Y-101999714D01*
X191531714Y-101999714D01*
X191626952Y-102047333D01*
X191674571Y-102142571D01*
X191674571Y-102666380D01*
X191674571Y-102142571D02*
X191722190Y-102047333D01*
X191817428Y-101999714D01*
X191960285Y-101999714D01*
X192055523Y-102047333D01*
X192103142Y-102142571D01*
X192103142Y-102666380D01*
X192579333Y-102666380D02*
X192579333Y-101999714D01*
X192579333Y-102094952D02*
X192626952Y-102047333D01*
X192722190Y-101999714D01*
X192865047Y-101999714D01*
X192960285Y-102047333D01*
X193007904Y-102142571D01*
X193007904Y-102666380D01*
X193007904Y-102142571D02*
X193055523Y-102047333D01*
X193150761Y-101999714D01*
X193293619Y-101999714D01*
X193388857Y-102047333D01*
X193436476Y-102142571D01*
X193436476Y-102666380D01*
X193674571Y-102761619D02*
X194436476Y-102761619D01*
X194674571Y-102666380D02*
X194674571Y-101666380D01*
X195007904Y-102380666D01*
X195341238Y-101666380D01*
X195341238Y-102666380D01*
X195769809Y-101761619D02*
X195817428Y-101714000D01*
X195912666Y-101666380D01*
X196150761Y-101666380D01*
X196246000Y-101714000D01*
X196293619Y-101761619D01*
X196341238Y-101856857D01*
X196341238Y-101952095D01*
X196293619Y-102094952D01*
X195722190Y-102666380D01*
X196341238Y-102666380D01*
X196531714Y-102761619D02*
X197293619Y-102761619D01*
X197531714Y-102666380D02*
X197531714Y-101666380D01*
X197769809Y-101666380D01*
X197912666Y-101714000D01*
X198007904Y-101809238D01*
X198055523Y-101904476D01*
X198103142Y-102094952D01*
X198103142Y-102237809D01*
X198055523Y-102428285D01*
X198007904Y-102523523D01*
X197912666Y-102618761D01*
X197769809Y-102666380D01*
X197531714Y-102666380D01*
X198531714Y-102666380D02*
X198531714Y-101666380D01*
X199007904Y-102666380D02*
X199007904Y-101666380D01*
X199579333Y-102666380D01*
X199579333Y-101666380D01*
X200103142Y-102666380D02*
X200293619Y-102666380D01*
X200388857Y-102618761D01*
X200436476Y-102571142D01*
X200531714Y-102428285D01*
X200579333Y-102237809D01*
X200579333Y-101856857D01*
X200531714Y-101761619D01*
X200484095Y-101714000D01*
X200388857Y-101666380D01*
X200198380Y-101666380D01*
X200103142Y-101714000D01*
X200055523Y-101761619D01*
X200007904Y-101856857D01*
X200007904Y-102094952D01*
X200055523Y-102190190D01*
X200103142Y-102237809D01*
X200198380Y-102285428D01*
X200388857Y-102285428D01*
X200484095Y-102237809D01*
X200531714Y-102190190D01*
X200579333Y-102094952D01*
X201436476Y-101666380D02*
X201246000Y-101666380D01*
X201150761Y-101714000D01*
X201103142Y-101761619D01*
X201007904Y-101904476D01*
X200960285Y-102094952D01*
X200960285Y-102475904D01*
X201007904Y-102571142D01*
X201055523Y-102618761D01*
X201150761Y-102666380D01*
X201341238Y-102666380D01*
X201436476Y-102618761D01*
X201484095Y-102571142D01*
X201531714Y-102475904D01*
X201531714Y-102237809D01*
X201484095Y-102142571D01*
X201436476Y-102094952D01*
X201341238Y-102047333D01*
X201150761Y-102047333D01*
X201055523Y-102094952D01*
X201007904Y-102142571D01*
X200960285Y-102237809D01*
X202436476Y-101666380D02*
X201960285Y-101666380D01*
X201912666Y-102142571D01*
X201960285Y-102094952D01*
X202055523Y-102047333D01*
X202293619Y-102047333D01*
X202388857Y-102094952D01*
X202436476Y-102142571D01*
X202484095Y-102237809D01*
X202484095Y-102475904D01*
X202436476Y-102571142D01*
X202388857Y-102618761D01*
X202293619Y-102666380D01*
X202055523Y-102666380D01*
X201960285Y-102618761D01*
X201912666Y-102571142D01*
X189212666Y-99766380D02*
X188879333Y-99290190D01*
X188641238Y-99766380D02*
X188641238Y-98766380D01*
X189022190Y-98766380D01*
X189117428Y-98814000D01*
X189165047Y-98861619D01*
X189212666Y-98956857D01*
X189212666Y-99099714D01*
X189165047Y-99194952D01*
X189117428Y-99242571D01*
X189022190Y-99290190D01*
X188641238Y-99290190D01*
X189641238Y-99242571D02*
X189974571Y-99242571D01*
X190117428Y-99766380D02*
X189641238Y-99766380D01*
X189641238Y-98766380D01*
X190117428Y-98766380D01*
X190879333Y-99242571D02*
X190546000Y-99242571D01*
X190546000Y-99766380D02*
X190546000Y-98766380D01*
X191022190Y-98766380D01*
X191546000Y-98766380D02*
X191546000Y-99004476D01*
X191307904Y-98909238D02*
X191546000Y-99004476D01*
X191784095Y-98909238D01*
X191403142Y-99194952D02*
X191546000Y-99004476D01*
X191688857Y-99194952D01*
X192307904Y-98766380D02*
X192307904Y-99004476D01*
X192069809Y-98909238D02*
X192307904Y-99004476D01*
X192546000Y-98909238D01*
X192165047Y-99194952D02*
X192307904Y-99004476D01*
X192450761Y-99194952D01*
X178055523Y-130606380D02*
X178055523Y-129606380D01*
X178388857Y-130320666D01*
X178722190Y-129606380D01*
X178722190Y-130606380D01*
X179341238Y-130606380D02*
X179246000Y-130558761D01*
X179198380Y-130511142D01*
X179150761Y-130415904D01*
X179150761Y-130130190D01*
X179198380Y-130034952D01*
X179246000Y-129987333D01*
X179341238Y-129939714D01*
X179484095Y-129939714D01*
X179579333Y-129987333D01*
X179626952Y-130034952D01*
X179674571Y-130130190D01*
X179674571Y-130415904D01*
X179626952Y-130511142D01*
X179579333Y-130558761D01*
X179484095Y-130606380D01*
X179341238Y-130606380D01*
X180531714Y-129939714D02*
X180531714Y-130606380D01*
X180103142Y-129939714D02*
X180103142Y-130463523D01*
X180150761Y-130558761D01*
X180246000Y-130606380D01*
X180388857Y-130606380D01*
X180484095Y-130558761D01*
X180531714Y-130511142D01*
X181007904Y-129939714D02*
X181007904Y-130606380D01*
X181007904Y-130034952D02*
X181055523Y-129987333D01*
X181150761Y-129939714D01*
X181293619Y-129939714D01*
X181388857Y-129987333D01*
X181436476Y-130082571D01*
X181436476Y-130606380D01*
X181769809Y-129939714D02*
X182150761Y-129939714D01*
X181912666Y-129606380D02*
X181912666Y-130463523D01*
X181960285Y-130558761D01*
X182055523Y-130606380D01*
X182150761Y-130606380D01*
X182484095Y-130606380D02*
X182484095Y-129939714D01*
X182484095Y-129606380D02*
X182436476Y-129654000D01*
X182484095Y-129701619D01*
X182531714Y-129654000D01*
X182484095Y-129606380D01*
X182484095Y-129701619D01*
X182960285Y-129939714D02*
X182960285Y-130606380D01*
X182960285Y-130034952D02*
X183007904Y-129987333D01*
X183103142Y-129939714D01*
X183246000Y-129939714D01*
X183341238Y-129987333D01*
X183388857Y-130082571D01*
X183388857Y-130606380D01*
X184293619Y-129939714D02*
X184293619Y-130749238D01*
X184246000Y-130844476D01*
X184198380Y-130892095D01*
X184103142Y-130939714D01*
X183960285Y-130939714D01*
X183865047Y-130892095D01*
X184293619Y-130558761D02*
X184198380Y-130606380D01*
X184007904Y-130606380D01*
X183912666Y-130558761D01*
X183865047Y-130511142D01*
X183817428Y-130415904D01*
X183817428Y-130130190D01*
X183865047Y-130034952D01*
X183912666Y-129987333D01*
X184007904Y-129939714D01*
X184198380Y-129939714D01*
X184293619Y-129987333D01*
X184769809Y-130606380D02*
X184769809Y-129606380D01*
X184769809Y-130082571D02*
X185341238Y-130082571D01*
X185341238Y-130606380D02*
X185341238Y-129606380D01*
X185960285Y-130606380D02*
X185865047Y-130558761D01*
X185817428Y-130511142D01*
X185769809Y-130415904D01*
X185769809Y-130130190D01*
X185817428Y-130034952D01*
X185865047Y-129987333D01*
X185960285Y-129939714D01*
X186103142Y-129939714D01*
X186198380Y-129987333D01*
X186246000Y-130034952D01*
X186293619Y-130130190D01*
X186293619Y-130415904D01*
X186246000Y-130511142D01*
X186198380Y-130558761D01*
X186103142Y-130606380D01*
X185960285Y-130606380D01*
X186865047Y-130606380D02*
X186769809Y-130558761D01*
X186722190Y-130463523D01*
X186722190Y-129606380D01*
X187626952Y-130558761D02*
X187531714Y-130606380D01*
X187341238Y-130606380D01*
X187246000Y-130558761D01*
X187198380Y-130463523D01*
X187198380Y-130082571D01*
X187246000Y-129987333D01*
X187341238Y-129939714D01*
X187531714Y-129939714D01*
X187626952Y-129987333D01*
X187674571Y-130082571D01*
X187674571Y-130177809D01*
X187198380Y-130273047D01*
X187865047Y-130701619D02*
X188626952Y-130701619D01*
X188817428Y-129701619D02*
X188865047Y-129654000D01*
X188960285Y-129606380D01*
X189198380Y-129606380D01*
X189293619Y-129654000D01*
X189341238Y-129701619D01*
X189388857Y-129796857D01*
X189388857Y-129892095D01*
X189341238Y-130034952D01*
X188769809Y-130606380D01*
X189388857Y-130606380D01*
X189817428Y-130511142D02*
X189865047Y-130558761D01*
X189817428Y-130606380D01*
X189769809Y-130558761D01*
X189817428Y-130511142D01*
X189817428Y-130606380D01*
X190246000Y-129701619D02*
X190293619Y-129654000D01*
X190388857Y-129606380D01*
X190626952Y-129606380D01*
X190722190Y-129654000D01*
X190769809Y-129701619D01*
X190817428Y-129796857D01*
X190817428Y-129892095D01*
X190769809Y-130034952D01*
X190198380Y-130606380D01*
X190817428Y-130606380D01*
X191246000Y-130606380D02*
X191246000Y-129939714D01*
X191246000Y-130034952D02*
X191293619Y-129987333D01*
X191388857Y-129939714D01*
X191531714Y-129939714D01*
X191626952Y-129987333D01*
X191674571Y-130082571D01*
X191674571Y-130606380D01*
X191674571Y-130082571D02*
X191722190Y-129987333D01*
X191817428Y-129939714D01*
X191960285Y-129939714D01*
X192055523Y-129987333D01*
X192103142Y-130082571D01*
X192103142Y-130606380D01*
X192579333Y-130606380D02*
X192579333Y-129939714D01*
X192579333Y-130034952D02*
X192626952Y-129987333D01*
X192722190Y-129939714D01*
X192865047Y-129939714D01*
X192960285Y-129987333D01*
X193007904Y-130082571D01*
X193007904Y-130606380D01*
X193007904Y-130082571D02*
X193055523Y-129987333D01*
X193150761Y-129939714D01*
X193293619Y-129939714D01*
X193388857Y-129987333D01*
X193436476Y-130082571D01*
X193436476Y-130606380D01*
X193674571Y-130701619D02*
X194436476Y-130701619D01*
X194674571Y-130606380D02*
X194674571Y-129606380D01*
X195007904Y-130320666D01*
X195341238Y-129606380D01*
X195341238Y-130606380D01*
X195769809Y-129701619D02*
X195817428Y-129654000D01*
X195912666Y-129606380D01*
X196150761Y-129606380D01*
X196246000Y-129654000D01*
X196293619Y-129701619D01*
X196341238Y-129796857D01*
X196341238Y-129892095D01*
X196293619Y-130034952D01*
X195722190Y-130606380D01*
X196341238Y-130606380D01*
X196531714Y-130701619D02*
X197293619Y-130701619D01*
X197531714Y-130606380D02*
X197531714Y-129606380D01*
X197769809Y-129606380D01*
X197912666Y-129654000D01*
X198007904Y-129749238D01*
X198055523Y-129844476D01*
X198103142Y-130034952D01*
X198103142Y-130177809D01*
X198055523Y-130368285D01*
X198007904Y-130463523D01*
X197912666Y-130558761D01*
X197769809Y-130606380D01*
X197531714Y-130606380D01*
X198531714Y-130606380D02*
X198531714Y-129606380D01*
X199007904Y-130606380D02*
X199007904Y-129606380D01*
X199579333Y-130606380D01*
X199579333Y-129606380D01*
X200103142Y-130606380D02*
X200293619Y-130606380D01*
X200388857Y-130558761D01*
X200436476Y-130511142D01*
X200531714Y-130368285D01*
X200579333Y-130177809D01*
X200579333Y-129796857D01*
X200531714Y-129701619D01*
X200484095Y-129654000D01*
X200388857Y-129606380D01*
X200198380Y-129606380D01*
X200103142Y-129654000D01*
X200055523Y-129701619D01*
X200007904Y-129796857D01*
X200007904Y-130034952D01*
X200055523Y-130130190D01*
X200103142Y-130177809D01*
X200198380Y-130225428D01*
X200388857Y-130225428D01*
X200484095Y-130177809D01*
X200531714Y-130130190D01*
X200579333Y-130034952D01*
X201436476Y-129606380D02*
X201246000Y-129606380D01*
X201150761Y-129654000D01*
X201103142Y-129701619D01*
X201007904Y-129844476D01*
X200960285Y-130034952D01*
X200960285Y-130415904D01*
X201007904Y-130511142D01*
X201055523Y-130558761D01*
X201150761Y-130606380D01*
X201341238Y-130606380D01*
X201436476Y-130558761D01*
X201484095Y-130511142D01*
X201531714Y-130415904D01*
X201531714Y-130177809D01*
X201484095Y-130082571D01*
X201436476Y-130034952D01*
X201341238Y-129987333D01*
X201150761Y-129987333D01*
X201055523Y-130034952D01*
X201007904Y-130082571D01*
X200960285Y-130177809D01*
X202436476Y-129606380D02*
X201960285Y-129606380D01*
X201912666Y-130082571D01*
X201960285Y-130034952D01*
X202055523Y-129987333D01*
X202293619Y-129987333D01*
X202388857Y-130034952D01*
X202436476Y-130082571D01*
X202484095Y-130177809D01*
X202484095Y-130415904D01*
X202436476Y-130511142D01*
X202388857Y-130558761D01*
X202293619Y-130606380D01*
X202055523Y-130606380D01*
X201960285Y-130558761D01*
X201912666Y-130511142D01*
X189212666Y-127706380D02*
X188879333Y-127230190D01*
X188641238Y-127706380D02*
X188641238Y-126706380D01*
X189022190Y-126706380D01*
X189117428Y-126754000D01*
X189165047Y-126801619D01*
X189212666Y-126896857D01*
X189212666Y-127039714D01*
X189165047Y-127134952D01*
X189117428Y-127182571D01*
X189022190Y-127230190D01*
X188641238Y-127230190D01*
X189641238Y-127182571D02*
X189974571Y-127182571D01*
X190117428Y-127706380D02*
X189641238Y-127706380D01*
X189641238Y-126706380D01*
X190117428Y-126706380D01*
X190879333Y-127182571D02*
X190546000Y-127182571D01*
X190546000Y-127706380D02*
X190546000Y-126706380D01*
X191022190Y-126706380D01*
X191546000Y-126706380D02*
X191546000Y-126944476D01*
X191307904Y-126849238D02*
X191546000Y-126944476D01*
X191784095Y-126849238D01*
X191403142Y-127134952D02*
X191546000Y-126944476D01*
X191688857Y-127134952D01*
X192307904Y-126706380D02*
X192307904Y-126944476D01*
X192069809Y-126849238D02*
X192307904Y-126944476D01*
X192546000Y-126849238D01*
X192165047Y-127134952D02*
X192307904Y-126944476D01*
X192450761Y-127134952D01*
X133524666Y-100036380D02*
X133524666Y-100750666D01*
X133477047Y-100893523D01*
X133381809Y-100988761D01*
X133238952Y-101036380D01*
X133143714Y-101036380D01*
X134524666Y-101036380D02*
X133953238Y-101036380D01*
X134238952Y-101036380D02*
X134238952Y-100036380D01*
X134143714Y-100179238D01*
X134048476Y-100274476D01*
X133953238Y-100322095D01*
X159940666Y-107148380D02*
X159940666Y-107862666D01*
X159893047Y-108005523D01*
X159797809Y-108100761D01*
X159654952Y-108148380D01*
X159559714Y-108148380D01*
X160369238Y-107243619D02*
X160416857Y-107196000D01*
X160512095Y-107148380D01*
X160750190Y-107148380D01*
X160845428Y-107196000D01*
X160893047Y-107243619D01*
X160940666Y-107338857D01*
X160940666Y-107434095D01*
X160893047Y-107576952D01*
X160321619Y-108148380D01*
X160940666Y-108148380D01*
X188174380Y-112855333D02*
X188888666Y-112855333D01*
X189031523Y-112902952D01*
X189126761Y-112998190D01*
X189174380Y-113141047D01*
X189174380Y-113236285D01*
X188174380Y-112474380D02*
X188174380Y-111855333D01*
X188555333Y-112188666D01*
X188555333Y-112045809D01*
X188602952Y-111950571D01*
X188650571Y-111902952D01*
X188745809Y-111855333D01*
X188983904Y-111855333D01*
X189079142Y-111902952D01*
X189126761Y-111950571D01*
X189174380Y-112045809D01*
X189174380Y-112331523D01*
X189126761Y-112426761D01*
X189079142Y-112474380D01*
X175481619Y-124555238D02*
X175434000Y-124650476D01*
X175338761Y-124745714D01*
X175195904Y-124888571D01*
X175148285Y-124983809D01*
X175148285Y-125079047D01*
X175386380Y-125031428D02*
X175338761Y-125126666D01*
X175243523Y-125221904D01*
X175053047Y-125269523D01*
X174719714Y-125269523D01*
X174529238Y-125221904D01*
X174434000Y-125126666D01*
X174386380Y-125031428D01*
X174386380Y-124840952D01*
X174434000Y-124745714D01*
X174529238Y-124650476D01*
X174719714Y-124602857D01*
X175053047Y-124602857D01*
X175243523Y-124650476D01*
X175338761Y-124745714D01*
X175386380Y-124840952D01*
X175386380Y-125031428D01*
X175386380Y-123650476D02*
X175386380Y-124221904D01*
X175386380Y-123936190D02*
X174386380Y-123936190D01*
X174529238Y-124031428D01*
X174624476Y-124126666D01*
X174672095Y-124221904D01*
X133437333Y-113990380D02*
X133104000Y-113514190D01*
X132865904Y-113990380D02*
X132865904Y-112990380D01*
X133246857Y-112990380D01*
X133342095Y-113038000D01*
X133389714Y-113085619D01*
X133437333Y-113180857D01*
X133437333Y-113323714D01*
X133389714Y-113418952D01*
X133342095Y-113466571D01*
X133246857Y-113514190D01*
X132865904Y-113514190D01*
X134389714Y-113990380D02*
X133818285Y-113990380D01*
X134104000Y-113990380D02*
X134104000Y-112990380D01*
X134008761Y-113133238D01*
X133913523Y-113228476D01*
X133818285Y-113276095D01*
X163663333Y-122372380D02*
X163330000Y-121896190D01*
X163091904Y-122372380D02*
X163091904Y-121372380D01*
X163472857Y-121372380D01*
X163568095Y-121420000D01*
X163615714Y-121467619D01*
X163663333Y-121562857D01*
X163663333Y-121705714D01*
X163615714Y-121800952D01*
X163568095Y-121848571D01*
X163472857Y-121896190D01*
X163091904Y-121896190D01*
X164044285Y-121467619D02*
X164091904Y-121420000D01*
X164187142Y-121372380D01*
X164425238Y-121372380D01*
X164520476Y-121420000D01*
X164568095Y-121467619D01*
X164615714Y-121562857D01*
X164615714Y-121658095D01*
X164568095Y-121800952D01*
X163996666Y-122372380D01*
X164615714Y-122372380D01*
X171986380Y-107632476D02*
X171986380Y-108203904D01*
X171986380Y-107918190D02*
X170986380Y-107918190D01*
X171129238Y-108013428D01*
X171224476Y-108108666D01*
X171272095Y-108203904D01*
X170986380Y-107013428D02*
X170986380Y-106918190D01*
X171034000Y-106822952D01*
X171081619Y-106775333D01*
X171176857Y-106727714D01*
X171367333Y-106680095D01*
X171605428Y-106680095D01*
X171795904Y-106727714D01*
X171891142Y-106775333D01*
X171938761Y-106822952D01*
X171986380Y-106918190D01*
X171986380Y-107013428D01*
X171938761Y-107108666D01*
X171891142Y-107156285D01*
X171795904Y-107203904D01*
X171605428Y-107251523D01*
X171367333Y-107251523D01*
X171176857Y-107203904D01*
X171081619Y-107156285D01*
X171034000Y-107108666D01*
X170986380Y-107013428D01*
X169616380Y-107608666D02*
X169140190Y-107942000D01*
X169616380Y-108180095D02*
X168616380Y-108180095D01*
X168616380Y-107799142D01*
X168664000Y-107703904D01*
X168711619Y-107656285D01*
X168806857Y-107608666D01*
X168949714Y-107608666D01*
X169044952Y-107656285D01*
X169092571Y-107703904D01*
X169140190Y-107799142D01*
X169140190Y-108180095D01*
X168616380Y-107275333D02*
X168616380Y-106656285D01*
X168997333Y-106989619D01*
X168997333Y-106846761D01*
X169044952Y-106751523D01*
X169092571Y-106703904D01*
X169187809Y-106656285D01*
X169425904Y-106656285D01*
X169521142Y-106703904D01*
X169568761Y-106751523D01*
X169616380Y-106846761D01*
X169616380Y-107132476D01*
X169568761Y-107227714D01*
X169521142Y-107275333D01*
X174442380Y-107608666D02*
X173966190Y-107942000D01*
X174442380Y-108180095D02*
X173442380Y-108180095D01*
X173442380Y-107799142D01*
X173490000Y-107703904D01*
X173537619Y-107656285D01*
X173632857Y-107608666D01*
X173775714Y-107608666D01*
X173870952Y-107656285D01*
X173918571Y-107703904D01*
X173966190Y-107799142D01*
X173966190Y-108180095D01*
X173775714Y-106751523D02*
X174442380Y-106751523D01*
X173394761Y-106989619D02*
X174109047Y-107227714D01*
X174109047Y-106608666D01*
X146558095Y-120356380D02*
X146558095Y-121165904D01*
X146605714Y-121261142D01*
X146653333Y-121308761D01*
X146748571Y-121356380D01*
X146939047Y-121356380D01*
X147034285Y-121308761D01*
X147081904Y-121261142D01*
X147129523Y-121165904D01*
X147129523Y-120356380D01*
X148129523Y-121356380D02*
X147558095Y-121356380D01*
X147843809Y-121356380D02*
X147843809Y-120356380D01*
X147748571Y-120499238D01*
X147653333Y-120594476D01*
X147558095Y-120642095D01*
M02*
