M48
; DRILL file {KiCad 5.1.5-52549c5~84~ubuntu18.04.1} date Wed 29 Apr 2020 15:13:08 BST
; FORMAT={-:-/ absolute / metric / decimal}
; #@! TF.CreationDate,2020-04-29T15:13:08+01:00
; #@! TF.GenerationSoftware,Kicad,Pcbnew,5.1.5-52549c5~84~ubuntu18.04.1
; #@! TF.FileFunction,Plated,1,2,PTH
FMAT,2
METRIC
T1C0.800
T2C1.000
T3C1.016
T4C1.300
%
G90
G05
T1
X150.368Y-90.932
X150.368Y-101.092
X114.554Y-85.09
X124.714Y-85.09
X135.128Y-96.012
X135.128Y-98.552
X135.128Y-101.092
X135.128Y-103.632
X142.748Y-96.012
X142.748Y-98.552
X142.748Y-101.092
X142.748Y-103.632
X114.554Y-80.264
X124.714Y-80.264
X143.764Y-111.506
X153.924Y-111.506
T2
X167.934Y-82.296
X170.434Y-82.296
X135.636Y-83.058
X138.176Y-83.058
X140.716Y-83.058
T3
X111.2Y-73.989
X113.74Y-73.989
X116.28Y-73.989
X118.82Y-73.989
X120.344Y-122.249
X121.36Y-73.989
X122.884Y-122.249
X123.9Y-73.989
X125.424Y-122.249
X126.44Y-73.989
X127.964Y-122.249
X128.98Y-73.989
X130.504Y-122.249
X131.52Y-73.989
X133.044Y-122.249
X134.06Y-73.989
X135.584Y-122.249
X138.124Y-73.989
X138.124Y-122.249
X140.664Y-73.989
X143.204Y-73.989
X143.204Y-122.249
X145.744Y-73.989
X145.744Y-122.249
X148.284Y-73.989
X148.284Y-122.249
X150.824Y-73.989
X150.824Y-122.249
X153.364Y-73.989
X153.364Y-122.249
X155.904Y-73.989
X155.904Y-122.249
X156.031Y-94.309
X156.031Y-96.849
X156.031Y-99.389
X158.444Y-122.249
X158.571Y-94.309
X158.571Y-96.849
X158.571Y-99.389
X160.984Y-73.989
X160.984Y-122.249
X163.524Y-73.989
X166.064Y-73.989
X166.064Y-122.249
X168.604Y-73.989
X168.604Y-122.249
X171.144Y-73.989
X171.144Y-122.249
X173.684Y-73.989
X173.684Y-122.249
X176.224Y-73.989
X176.224Y-122.249
X178.764Y-73.989
X178.764Y-122.249
X181.304Y-122.249
X183.844Y-122.249
X186.384Y-73.989
X186.384Y-76.529
X186.384Y-79.069
X186.384Y-81.609
X186.384Y-84.149
X186.384Y-86.689
X186.384Y-89.229
X186.384Y-91.769
X186.384Y-94.309
X186.384Y-96.849
X186.384Y-99.389
X186.384Y-101.929
X186.384Y-104.469
X186.384Y-107.009
X186.384Y-109.549
X186.384Y-112.089
X186.384Y-114.629
X186.384Y-117.169
X188.924Y-73.989
X188.924Y-76.529
X188.924Y-79.069
X188.924Y-81.609
X188.924Y-84.149
X188.924Y-86.689
X188.924Y-89.229
X188.924Y-91.769
X188.924Y-94.309
X188.924Y-96.849
X188.924Y-99.389
X188.924Y-101.929
X188.924Y-104.469
X188.924Y-107.009
X188.924Y-109.549
X188.924Y-112.089
X188.924Y-114.629
X188.924Y-117.169
T4
X164.084Y-111.506
X179.324Y-111.506
X132.414Y-111.506
X134.914Y-115.306
X137.414Y-111.506
T2
G00X96.616Y-81.042
M15
G01X96.616Y-83.042
M16
G05
G00X98.616Y-86.742
M15
G01X100.616Y-86.742
M16
G05
G00X102.616Y-81.042
M15
G01X102.616Y-83.042
M16
G05
T0
M30
