G04 #@! TF.GenerationSoftware,KiCad,Pcbnew,5.1.5-52549c5~84~ubuntu18.04.1*
G04 #@! TF.CreationDate,2020-04-29T15:12:50+01:00*
G04 #@! TF.ProjectId,etl_driver_as_arduino_due_shield,65746c5f-6472-4697-9665-725f61735f61,rev?*
G04 #@! TF.SameCoordinates,Original*
G04 #@! TF.FileFunction,Copper,L1,Top*
G04 #@! TF.FilePolarity,Positive*
%FSLAX46Y46*%
G04 Gerber Fmt 4.6, Leading zero omitted, Abs format (unit mm)*
G04 Created by KiCad (PCBNEW 5.1.5-52549c5~84~ubuntu18.04.1) date 2020-04-29 15:12:50*
%MOMM*%
%LPD*%
G04 APERTURE LIST*
%ADD10O,1.727200X1.727200*%
%ADD11R,2.600000X2.600000*%
%ADD12O,2.600000X2.600000*%
%ADD13R,1.800000X1.800000*%
%ADD14O,1.800000X1.800000*%
%ADD15C,1.600000*%
%ADD16O,1.600000X1.600000*%
%ADD17C,2.340000*%
%ADD18R,1.600000X1.600000*%
%ADD19R,3.500000X3.500000*%
%ADD20C,0.100000*%
%ADD21O,1.700000X2.000000*%
%ADD22C,0.250000*%
%ADD23C,0.254000*%
G04 APERTURE END LIST*
D10*
X156031001Y-99389001D03*
X158571001Y-99389001D03*
X158571001Y-96849001D03*
X156031001Y-96849001D03*
X158571001Y-94309001D03*
X143204001Y-122249001D03*
X138124001Y-122249001D03*
X135584001Y-122249001D03*
X133044001Y-122249001D03*
X130504001Y-122249001D03*
X127964001Y-122249001D03*
X125424001Y-122249001D03*
X122884001Y-122249001D03*
X178764001Y-73989001D03*
X176224001Y-73989001D03*
X173684001Y-73989001D03*
X171144001Y-73989001D03*
X168604001Y-73989001D03*
X166064001Y-73989001D03*
X163524001Y-73989001D03*
X160984001Y-73989001D03*
X155904001Y-73989001D03*
X153364001Y-73989001D03*
X150824001Y-73989001D03*
X148284001Y-73989001D03*
X145744001Y-73989001D03*
X143204001Y-73989001D03*
X140664001Y-73989001D03*
X138124001Y-73989001D03*
X118820001Y-73989001D03*
X134060001Y-73989001D03*
X131520001Y-73989001D03*
X128980001Y-73989001D03*
X111200001Y-73989001D03*
X113740001Y-73989001D03*
X116280001Y-73989001D03*
X121360001Y-73989001D03*
X123900001Y-73989001D03*
X126440001Y-73989001D03*
X120344001Y-122249001D03*
X145744001Y-122249001D03*
X148284001Y-122249001D03*
X150824001Y-122249001D03*
X153364001Y-122249001D03*
X155904001Y-122249001D03*
X158444001Y-122249001D03*
X160984001Y-122249001D03*
X166064001Y-122249001D03*
X168604001Y-122249001D03*
X171144001Y-122249001D03*
X173684001Y-122249001D03*
X176224001Y-122249001D03*
X178764001Y-122249001D03*
X181304001Y-122249001D03*
X183844001Y-122249001D03*
X186384001Y-73989001D03*
X188924001Y-73989001D03*
X186384001Y-76529001D03*
X188924001Y-76529001D03*
X186384001Y-79069001D03*
X188924001Y-79069001D03*
X186384001Y-81609001D03*
X188924001Y-81609001D03*
X186384001Y-84149001D03*
X188924001Y-84149001D03*
X186384001Y-86689001D03*
X188924001Y-86689001D03*
X186384001Y-89229001D03*
X188924001Y-89229001D03*
X186384001Y-91769001D03*
X188924001Y-91769001D03*
X186384001Y-94309001D03*
X188924001Y-94309001D03*
X186384001Y-96849001D03*
X188924001Y-96849001D03*
X186384001Y-99389001D03*
X188924001Y-99389001D03*
X186384001Y-101929001D03*
X188924001Y-101929001D03*
X186384001Y-104469001D03*
X188924001Y-104469001D03*
X186384001Y-107009001D03*
X188924001Y-107009001D03*
X186384001Y-109549001D03*
X188924001Y-109549001D03*
X186384001Y-112089001D03*
X188924001Y-112089001D03*
X186384001Y-114629001D03*
X188924001Y-114629001D03*
X186384001Y-117169001D03*
X188924001Y-117169001D03*
X156031001Y-94309001D03*
D11*
X164084000Y-111506000D03*
D12*
X179324000Y-111506000D03*
D13*
X135636000Y-83058000D03*
D14*
X138176000Y-83058000D03*
X140716000Y-83058000D03*
D15*
X153924000Y-111506000D03*
D16*
X143764000Y-111506000D03*
X150368000Y-101092000D03*
D15*
X150368000Y-90932000D03*
X124714000Y-85090000D03*
D16*
X114554000Y-85090000D03*
X114554000Y-80264000D03*
D15*
X124714000Y-80264000D03*
D17*
X132414000Y-111506000D03*
X134914000Y-115306000D03*
X137414000Y-111506000D03*
D18*
X135128000Y-96012000D03*
D16*
X142748000Y-103632000D03*
X135128000Y-98552000D03*
X142748000Y-101092000D03*
X135128000Y-101092000D03*
X142748000Y-98552000D03*
X135128000Y-103632000D03*
X142748000Y-96012000D03*
D19*
X102616000Y-82042000D03*
G04 #@! TA.AperFunction,ComponentPad*
D20*
G36*
X97439513Y-80295611D02*
G01*
X97512318Y-80306411D01*
X97583714Y-80324295D01*
X97653013Y-80349090D01*
X97719548Y-80380559D01*
X97782678Y-80418398D01*
X97841795Y-80462242D01*
X97896330Y-80511670D01*
X97945758Y-80566205D01*
X97989602Y-80625322D01*
X98027441Y-80688452D01*
X98058910Y-80754987D01*
X98083705Y-80824286D01*
X98101589Y-80895682D01*
X98112389Y-80968487D01*
X98116000Y-81042000D01*
X98116000Y-83042000D01*
X98112389Y-83115513D01*
X98101589Y-83188318D01*
X98083705Y-83259714D01*
X98058910Y-83329013D01*
X98027441Y-83395548D01*
X97989602Y-83458678D01*
X97945758Y-83517795D01*
X97896330Y-83572330D01*
X97841795Y-83621758D01*
X97782678Y-83665602D01*
X97719548Y-83703441D01*
X97653013Y-83734910D01*
X97583714Y-83759705D01*
X97512318Y-83777589D01*
X97439513Y-83788389D01*
X97366000Y-83792000D01*
X95866000Y-83792000D01*
X95792487Y-83788389D01*
X95719682Y-83777589D01*
X95648286Y-83759705D01*
X95578987Y-83734910D01*
X95512452Y-83703441D01*
X95449322Y-83665602D01*
X95390205Y-83621758D01*
X95335670Y-83572330D01*
X95286242Y-83517795D01*
X95242398Y-83458678D01*
X95204559Y-83395548D01*
X95173090Y-83329013D01*
X95148295Y-83259714D01*
X95130411Y-83188318D01*
X95119611Y-83115513D01*
X95116000Y-83042000D01*
X95116000Y-81042000D01*
X95119611Y-80968487D01*
X95130411Y-80895682D01*
X95148295Y-80824286D01*
X95173090Y-80754987D01*
X95204559Y-80688452D01*
X95242398Y-80625322D01*
X95286242Y-80566205D01*
X95335670Y-80511670D01*
X95390205Y-80462242D01*
X95449322Y-80418398D01*
X95512452Y-80380559D01*
X95578987Y-80349090D01*
X95648286Y-80324295D01*
X95719682Y-80306411D01*
X95792487Y-80295611D01*
X95866000Y-80292000D01*
X97366000Y-80292000D01*
X97439513Y-80295611D01*
G37*
G04 #@! TD.AperFunction*
G04 #@! TA.AperFunction,ComponentPad*
G36*
X100576765Y-84996213D02*
G01*
X100661704Y-85008813D01*
X100744999Y-85029677D01*
X100825848Y-85058605D01*
X100903472Y-85095319D01*
X100977124Y-85139464D01*
X101046094Y-85190616D01*
X101109718Y-85248282D01*
X101167384Y-85311906D01*
X101218536Y-85380876D01*
X101262681Y-85454528D01*
X101299395Y-85532152D01*
X101328323Y-85613001D01*
X101349187Y-85696296D01*
X101361787Y-85781235D01*
X101366000Y-85867000D01*
X101366000Y-87617000D01*
X101361787Y-87702765D01*
X101349187Y-87787704D01*
X101328323Y-87870999D01*
X101299395Y-87951848D01*
X101262681Y-88029472D01*
X101218536Y-88103124D01*
X101167384Y-88172094D01*
X101109718Y-88235718D01*
X101046094Y-88293384D01*
X100977124Y-88344536D01*
X100903472Y-88388681D01*
X100825848Y-88425395D01*
X100744999Y-88454323D01*
X100661704Y-88475187D01*
X100576765Y-88487787D01*
X100491000Y-88492000D01*
X98741000Y-88492000D01*
X98655235Y-88487787D01*
X98570296Y-88475187D01*
X98487001Y-88454323D01*
X98406152Y-88425395D01*
X98328528Y-88388681D01*
X98254876Y-88344536D01*
X98185906Y-88293384D01*
X98122282Y-88235718D01*
X98064616Y-88172094D01*
X98013464Y-88103124D01*
X97969319Y-88029472D01*
X97932605Y-87951848D01*
X97903677Y-87870999D01*
X97882813Y-87787704D01*
X97870213Y-87702765D01*
X97866000Y-87617000D01*
X97866000Y-85867000D01*
X97870213Y-85781235D01*
X97882813Y-85696296D01*
X97903677Y-85613001D01*
X97932605Y-85532152D01*
X97969319Y-85454528D01*
X98013464Y-85380876D01*
X98064616Y-85311906D01*
X98122282Y-85248282D01*
X98185906Y-85190616D01*
X98254876Y-85139464D01*
X98328528Y-85095319D01*
X98406152Y-85058605D01*
X98487001Y-85029677D01*
X98570296Y-85008813D01*
X98655235Y-84996213D01*
X98741000Y-84992000D01*
X100491000Y-84992000D01*
X100576765Y-84996213D01*
G37*
G04 #@! TD.AperFunction*
G04 #@! TA.AperFunction,ComponentPad*
G36*
X171058504Y-81297204D02*
G01*
X171082773Y-81300804D01*
X171106571Y-81306765D01*
X171129671Y-81315030D01*
X171151849Y-81325520D01*
X171172893Y-81338133D01*
X171192598Y-81352747D01*
X171210777Y-81369223D01*
X171227253Y-81387402D01*
X171241867Y-81407107D01*
X171254480Y-81428151D01*
X171264970Y-81450329D01*
X171273235Y-81473429D01*
X171279196Y-81497227D01*
X171282796Y-81521496D01*
X171284000Y-81546000D01*
X171284000Y-83046000D01*
X171282796Y-83070504D01*
X171279196Y-83094773D01*
X171273235Y-83118571D01*
X171264970Y-83141671D01*
X171254480Y-83163849D01*
X171241867Y-83184893D01*
X171227253Y-83204598D01*
X171210777Y-83222777D01*
X171192598Y-83239253D01*
X171172893Y-83253867D01*
X171151849Y-83266480D01*
X171129671Y-83276970D01*
X171106571Y-83285235D01*
X171082773Y-83291196D01*
X171058504Y-83294796D01*
X171034000Y-83296000D01*
X169834000Y-83296000D01*
X169809496Y-83294796D01*
X169785227Y-83291196D01*
X169761429Y-83285235D01*
X169738329Y-83276970D01*
X169716151Y-83266480D01*
X169695107Y-83253867D01*
X169675402Y-83239253D01*
X169657223Y-83222777D01*
X169640747Y-83204598D01*
X169626133Y-83184893D01*
X169613520Y-83163849D01*
X169603030Y-83141671D01*
X169594765Y-83118571D01*
X169588804Y-83094773D01*
X169585204Y-83070504D01*
X169584000Y-83046000D01*
X169584000Y-81546000D01*
X169585204Y-81521496D01*
X169588804Y-81497227D01*
X169594765Y-81473429D01*
X169603030Y-81450329D01*
X169613520Y-81428151D01*
X169626133Y-81407107D01*
X169640747Y-81387402D01*
X169657223Y-81369223D01*
X169675402Y-81352747D01*
X169695107Y-81338133D01*
X169716151Y-81325520D01*
X169738329Y-81315030D01*
X169761429Y-81306765D01*
X169785227Y-81300804D01*
X169809496Y-81297204D01*
X169834000Y-81296000D01*
X171034000Y-81296000D01*
X171058504Y-81297204D01*
G37*
G04 #@! TD.AperFunction*
D21*
X167934000Y-82296000D03*
D22*
X167934000Y-81046000D02*
X167934000Y-82296000D01*
X138176000Y-83058000D02*
X139075999Y-82158001D01*
X140716000Y-79756000D02*
X166644000Y-79756000D01*
X139075999Y-82158001D02*
X139075999Y-81396001D01*
X139075999Y-81396001D02*
X140716000Y-79756000D01*
X166644000Y-79756000D02*
X167934000Y-81046000D01*
X134486000Y-83058000D02*
X135636000Y-83058000D01*
X135128000Y-98552000D02*
X134328001Y-99351999D01*
X134328001Y-99351999D02*
X132625999Y-99351999D01*
X130556000Y-86988000D02*
X134486000Y-83058000D01*
X132625999Y-99351999D02*
X130556000Y-97282000D01*
X130556000Y-97282000D02*
X130556000Y-86988000D01*
X130556000Y-86988000D02*
X130556000Y-86106000D01*
X129540000Y-85090000D02*
X124714000Y-80264000D01*
X129540000Y-85090000D02*
X124714000Y-85090000D01*
X130556000Y-86106000D02*
X129540000Y-85090000D01*
X148590000Y-90932000D02*
X140716000Y-83058000D01*
X150368000Y-90932000D02*
X148590000Y-90932000D01*
X143764000Y-111506000D02*
X137414000Y-111506000D01*
X149236630Y-101092000D02*
X142748000Y-101092000D01*
X150368000Y-101092000D02*
X149236630Y-101092000D01*
X134914000Y-115306000D02*
X134914000Y-109942000D01*
X134914000Y-109942000D02*
X136906000Y-107950000D01*
X136906000Y-102870000D02*
X135128000Y-101092000D01*
X136906000Y-107950000D02*
X136906000Y-102870000D01*
X164084000Y-111506000D02*
X153924000Y-111506000D01*
X176224001Y-114605999D02*
X179324000Y-111506000D01*
X176224001Y-122249001D02*
X176224001Y-114605999D01*
D23*
G36*
X183261000Y-79046606D02*
G01*
X183261000Y-115517394D01*
X180287394Y-118491000D01*
X176984001Y-118491000D01*
X176984001Y-114920800D01*
X178603015Y-113301787D01*
X178759581Y-113366639D01*
X179133419Y-113441000D01*
X179514581Y-113441000D01*
X179888419Y-113366639D01*
X180240566Y-113220775D01*
X180557491Y-113009013D01*
X180827013Y-112739491D01*
X181038775Y-112422566D01*
X181184639Y-112070419D01*
X181259000Y-111696581D01*
X181259000Y-111315419D01*
X181184639Y-110941581D01*
X181038775Y-110589434D01*
X180827013Y-110272509D01*
X180557491Y-110002987D01*
X180240566Y-109791225D01*
X179888419Y-109645361D01*
X179514581Y-109571000D01*
X179133419Y-109571000D01*
X178759581Y-109645361D01*
X178407434Y-109791225D01*
X178090509Y-110002987D01*
X177820987Y-110272509D01*
X177609225Y-110589434D01*
X177463361Y-110941581D01*
X177389000Y-111315419D01*
X177389000Y-111696581D01*
X177463361Y-112070419D01*
X177528213Y-112226985D01*
X175712999Y-114042200D01*
X175684001Y-114065998D01*
X175660203Y-114094996D01*
X175660202Y-114094997D01*
X175589027Y-114181723D01*
X175518455Y-114313753D01*
X175488181Y-114413557D01*
X175476820Y-114451012D01*
X175474999Y-114457014D01*
X175460325Y-114605999D01*
X175464002Y-114643331D01*
X175464001Y-118491000D01*
X160248681Y-118491000D01*
X160424632Y-118227670D01*
X160593111Y-117820926D01*
X160679001Y-117389129D01*
X160679001Y-116948873D01*
X160593111Y-116517076D01*
X160424632Y-116110332D01*
X160180039Y-115744272D01*
X159868730Y-115432963D01*
X159502670Y-115188370D01*
X159095926Y-115019891D01*
X158664129Y-114934001D01*
X158223873Y-114934001D01*
X157792076Y-115019891D01*
X157385332Y-115188370D01*
X157019272Y-115432963D01*
X156707963Y-115744272D01*
X156463370Y-116110332D01*
X156294891Y-116517076D01*
X156209001Y-116948873D01*
X156209001Y-117389129D01*
X156294891Y-117820926D01*
X156463370Y-118227670D01*
X156639321Y-118491000D01*
X92989000Y-118491000D01*
X92989000Y-85867000D01*
X97227928Y-85867000D01*
X97227928Y-87617000D01*
X97257001Y-87912186D01*
X97343104Y-88196028D01*
X97482927Y-88457618D01*
X97671097Y-88686903D01*
X97900382Y-88875073D01*
X98161972Y-89014896D01*
X98445814Y-89100999D01*
X98741000Y-89130072D01*
X100491000Y-89130072D01*
X100786186Y-89100999D01*
X101070028Y-89014896D01*
X101331618Y-88875073D01*
X101560903Y-88686903D01*
X101749073Y-88457618D01*
X101888896Y-88196028D01*
X101974999Y-87912186D01*
X102004072Y-87617000D01*
X102004072Y-85867000D01*
X101974999Y-85571814D01*
X101888896Y-85287972D01*
X101749073Y-85026382D01*
X101685293Y-84948665D01*
X113119000Y-84948665D01*
X113119000Y-85231335D01*
X113174147Y-85508574D01*
X113282320Y-85769727D01*
X113439363Y-86004759D01*
X113639241Y-86204637D01*
X113874273Y-86361680D01*
X114135426Y-86469853D01*
X114412665Y-86525000D01*
X114695335Y-86525000D01*
X114972574Y-86469853D01*
X115233727Y-86361680D01*
X115468759Y-86204637D01*
X115668637Y-86004759D01*
X115825680Y-85769727D01*
X115933853Y-85508574D01*
X115989000Y-85231335D01*
X115989000Y-84948665D01*
X115933853Y-84671426D01*
X115825680Y-84410273D01*
X115668637Y-84175241D01*
X115468759Y-83975363D01*
X115233727Y-83818320D01*
X114972574Y-83710147D01*
X114695335Y-83655000D01*
X114412665Y-83655000D01*
X114135426Y-83710147D01*
X113874273Y-83818320D01*
X113639241Y-83975363D01*
X113439363Y-84175241D01*
X113282320Y-84410273D01*
X113174147Y-84671426D01*
X113119000Y-84948665D01*
X101685293Y-84948665D01*
X101560903Y-84797097D01*
X101331618Y-84608927D01*
X101070028Y-84469104D01*
X100940840Y-84429915D01*
X102330250Y-84427000D01*
X102489000Y-84268250D01*
X102489000Y-82169000D01*
X102743000Y-82169000D01*
X102743000Y-84268250D01*
X102901750Y-84427000D01*
X104366000Y-84430072D01*
X104490482Y-84417812D01*
X104610180Y-84381502D01*
X104720494Y-84322537D01*
X104817185Y-84243185D01*
X104896537Y-84146494D01*
X104955502Y-84036180D01*
X104991812Y-83916482D01*
X105004072Y-83792000D01*
X105001000Y-82327750D01*
X104842250Y-82169000D01*
X102743000Y-82169000D01*
X102489000Y-82169000D01*
X100389750Y-82169000D01*
X100231000Y-82327750D01*
X100227928Y-83792000D01*
X100240188Y-83916482D01*
X100276498Y-84036180D01*
X100335463Y-84146494D01*
X100414815Y-84243185D01*
X100511506Y-84322537D01*
X100588131Y-84363494D01*
X100491000Y-84353928D01*
X98741000Y-84353928D01*
X98445814Y-84383001D01*
X98161972Y-84469104D01*
X97900382Y-84608927D01*
X97671097Y-84797097D01*
X97482927Y-85026382D01*
X97343104Y-85287972D01*
X97257001Y-85571814D01*
X97227928Y-85867000D01*
X92989000Y-85867000D01*
X92989000Y-81042000D01*
X94477928Y-81042000D01*
X94477928Y-83042000D01*
X94504599Y-83312799D01*
X94583589Y-83573192D01*
X94711860Y-83813171D01*
X94884485Y-84023515D01*
X95094829Y-84196140D01*
X95334808Y-84324411D01*
X95595201Y-84403401D01*
X95866000Y-84430072D01*
X97366000Y-84430072D01*
X97636799Y-84403401D01*
X97897192Y-84324411D01*
X98137171Y-84196140D01*
X98347515Y-84023515D01*
X98520140Y-83813171D01*
X98648411Y-83573192D01*
X98727401Y-83312799D01*
X98754072Y-83042000D01*
X98754072Y-81042000D01*
X98727401Y-80771201D01*
X98648411Y-80510808D01*
X98531457Y-80292000D01*
X100227928Y-80292000D01*
X100231000Y-81756250D01*
X100389750Y-81915000D01*
X102489000Y-81915000D01*
X102489000Y-79815750D01*
X102743000Y-79815750D01*
X102743000Y-81915000D01*
X104842250Y-81915000D01*
X105001000Y-81756250D01*
X105004072Y-80292000D01*
X104991812Y-80167518D01*
X104978206Y-80122665D01*
X113119000Y-80122665D01*
X113119000Y-80405335D01*
X113174147Y-80682574D01*
X113282320Y-80943727D01*
X113439363Y-81178759D01*
X113639241Y-81378637D01*
X113874273Y-81535680D01*
X114135426Y-81643853D01*
X114412665Y-81699000D01*
X114695335Y-81699000D01*
X114972574Y-81643853D01*
X115233727Y-81535680D01*
X115468759Y-81378637D01*
X115668637Y-81178759D01*
X115825680Y-80943727D01*
X115933853Y-80682574D01*
X115989000Y-80405335D01*
X115989000Y-80122665D01*
X123279000Y-80122665D01*
X123279000Y-80405335D01*
X123334147Y-80682574D01*
X123442320Y-80943727D01*
X123599363Y-81178759D01*
X123799241Y-81378637D01*
X124034273Y-81535680D01*
X124295426Y-81643853D01*
X124572665Y-81699000D01*
X124855335Y-81699000D01*
X125037887Y-81662688D01*
X127705198Y-84330000D01*
X125932043Y-84330000D01*
X125828637Y-84175241D01*
X125628759Y-83975363D01*
X125393727Y-83818320D01*
X125132574Y-83710147D01*
X124855335Y-83655000D01*
X124572665Y-83655000D01*
X124295426Y-83710147D01*
X124034273Y-83818320D01*
X123799241Y-83975363D01*
X123599363Y-84175241D01*
X123442320Y-84410273D01*
X123334147Y-84671426D01*
X123279000Y-84948665D01*
X123279000Y-85231335D01*
X123334147Y-85508574D01*
X123442320Y-85769727D01*
X123599363Y-86004759D01*
X123799241Y-86204637D01*
X124034273Y-86361680D01*
X124295426Y-86469853D01*
X124572665Y-86525000D01*
X124855335Y-86525000D01*
X125132574Y-86469853D01*
X125393727Y-86361680D01*
X125628759Y-86204637D01*
X125828637Y-86004759D01*
X125932043Y-85850000D01*
X129225199Y-85850000D01*
X129796000Y-86420802D01*
X129796000Y-86950678D01*
X129792324Y-86988000D01*
X129796000Y-87025322D01*
X129796000Y-87025332D01*
X129796001Y-87025342D01*
X129796000Y-97244678D01*
X129792324Y-97282000D01*
X129796000Y-97319322D01*
X129796000Y-97319332D01*
X129806997Y-97430985D01*
X129845785Y-97558854D01*
X129850454Y-97574246D01*
X129921026Y-97706276D01*
X129960871Y-97754826D01*
X130015999Y-97822001D01*
X130045003Y-97845804D01*
X132062200Y-99863002D01*
X132085998Y-99892000D01*
X132201723Y-99986973D01*
X132333752Y-100057545D01*
X132477013Y-100101002D01*
X132588666Y-100111999D01*
X132588674Y-100111999D01*
X132625999Y-100115675D01*
X132663324Y-100111999D01*
X134078605Y-100111999D01*
X134013363Y-100177241D01*
X133856320Y-100412273D01*
X133748147Y-100673426D01*
X133693000Y-100950665D01*
X133693000Y-101233335D01*
X133748147Y-101510574D01*
X133856320Y-101771727D01*
X134013363Y-102006759D01*
X134213241Y-102206637D01*
X134445759Y-102362000D01*
X134213241Y-102517363D01*
X134013363Y-102717241D01*
X133856320Y-102952273D01*
X133748147Y-103213426D01*
X133693000Y-103490665D01*
X133693000Y-103773335D01*
X133748147Y-104050574D01*
X133856320Y-104311727D01*
X134013363Y-104546759D01*
X134213241Y-104746637D01*
X134448273Y-104903680D01*
X134709426Y-105011853D01*
X134986665Y-105067000D01*
X135269335Y-105067000D01*
X135546574Y-105011853D01*
X135807727Y-104903680D01*
X136042759Y-104746637D01*
X136146001Y-104643395D01*
X136146000Y-107635197D01*
X134402998Y-109378201D01*
X134374000Y-109401999D01*
X134350202Y-109430997D01*
X134350201Y-109430998D01*
X134279026Y-109517724D01*
X134208454Y-109649754D01*
X134178180Y-109749558D01*
X134171869Y-109770365D01*
X134164998Y-109793015D01*
X134150324Y-109942000D01*
X134154001Y-109979332D01*
X134154001Y-111001449D01*
X134149635Y-110979501D01*
X134013571Y-110651012D01*
X133816035Y-110355379D01*
X133564621Y-110103965D01*
X133268988Y-109906429D01*
X132940499Y-109770365D01*
X132591777Y-109701000D01*
X132236223Y-109701000D01*
X131887501Y-109770365D01*
X131559012Y-109906429D01*
X131263379Y-110103965D01*
X131011965Y-110355379D01*
X130814429Y-110651012D01*
X130678365Y-110979501D01*
X130609000Y-111328223D01*
X130609000Y-111683777D01*
X130678365Y-112032499D01*
X130814429Y-112360988D01*
X131011965Y-112656621D01*
X131263379Y-112908035D01*
X131559012Y-113105571D01*
X131887501Y-113241635D01*
X132236223Y-113311000D01*
X132591777Y-113311000D01*
X132940499Y-113241635D01*
X133268988Y-113105571D01*
X133564621Y-112908035D01*
X133816035Y-112656621D01*
X134013571Y-112360988D01*
X134149635Y-112032499D01*
X134154001Y-112010552D01*
X134154000Y-113667084D01*
X134059012Y-113706429D01*
X133763379Y-113903965D01*
X133511965Y-114155379D01*
X133314429Y-114451012D01*
X133178365Y-114779501D01*
X133109000Y-115128223D01*
X133109000Y-115483777D01*
X133178365Y-115832499D01*
X133314429Y-116160988D01*
X133511965Y-116456621D01*
X133763379Y-116708035D01*
X134059012Y-116905571D01*
X134387501Y-117041635D01*
X134736223Y-117111000D01*
X135091777Y-117111000D01*
X135440499Y-117041635D01*
X135768988Y-116905571D01*
X136064621Y-116708035D01*
X136316035Y-116456621D01*
X136513571Y-116160988D01*
X136649635Y-115832499D01*
X136719000Y-115483777D01*
X136719000Y-115128223D01*
X136649635Y-114779501D01*
X136513571Y-114451012D01*
X136316035Y-114155379D01*
X136064621Y-113903965D01*
X135768988Y-113706429D01*
X135674000Y-113667084D01*
X135674000Y-112010555D01*
X135678365Y-112032499D01*
X135814429Y-112360988D01*
X136011965Y-112656621D01*
X136263379Y-112908035D01*
X136559012Y-113105571D01*
X136887501Y-113241635D01*
X137236223Y-113311000D01*
X137591777Y-113311000D01*
X137940499Y-113241635D01*
X138268988Y-113105571D01*
X138564621Y-112908035D01*
X138816035Y-112656621D01*
X139013571Y-112360988D01*
X139052916Y-112266000D01*
X142545957Y-112266000D01*
X142649363Y-112420759D01*
X142849241Y-112620637D01*
X143084273Y-112777680D01*
X143345426Y-112885853D01*
X143622665Y-112941000D01*
X143905335Y-112941000D01*
X144182574Y-112885853D01*
X144443727Y-112777680D01*
X144678759Y-112620637D01*
X144878637Y-112420759D01*
X145035680Y-112185727D01*
X145143853Y-111924574D01*
X145199000Y-111647335D01*
X145199000Y-111364665D01*
X152489000Y-111364665D01*
X152489000Y-111647335D01*
X152544147Y-111924574D01*
X152652320Y-112185727D01*
X152809363Y-112420759D01*
X153009241Y-112620637D01*
X153244273Y-112777680D01*
X153505426Y-112885853D01*
X153782665Y-112941000D01*
X154065335Y-112941000D01*
X154342574Y-112885853D01*
X154603727Y-112777680D01*
X154838759Y-112620637D01*
X155038637Y-112420759D01*
X155142043Y-112266000D01*
X162145928Y-112266000D01*
X162145928Y-112806000D01*
X162158188Y-112930482D01*
X162194498Y-113050180D01*
X162253463Y-113160494D01*
X162332815Y-113257185D01*
X162429506Y-113336537D01*
X162539820Y-113395502D01*
X162659518Y-113431812D01*
X162784000Y-113444072D01*
X165384000Y-113444072D01*
X165508482Y-113431812D01*
X165628180Y-113395502D01*
X165738494Y-113336537D01*
X165835185Y-113257185D01*
X165914537Y-113160494D01*
X165973502Y-113050180D01*
X166009812Y-112930482D01*
X166022072Y-112806000D01*
X166022072Y-110206000D01*
X166009812Y-110081518D01*
X165973502Y-109961820D01*
X165914537Y-109851506D01*
X165835185Y-109754815D01*
X165738494Y-109675463D01*
X165628180Y-109616498D01*
X165508482Y-109580188D01*
X165384000Y-109567928D01*
X162784000Y-109567928D01*
X162659518Y-109580188D01*
X162539820Y-109616498D01*
X162429506Y-109675463D01*
X162332815Y-109754815D01*
X162253463Y-109851506D01*
X162194498Y-109961820D01*
X162158188Y-110081518D01*
X162145928Y-110206000D01*
X162145928Y-110746000D01*
X155142043Y-110746000D01*
X155038637Y-110591241D01*
X154838759Y-110391363D01*
X154603727Y-110234320D01*
X154342574Y-110126147D01*
X154065335Y-110071000D01*
X153782665Y-110071000D01*
X153505426Y-110126147D01*
X153244273Y-110234320D01*
X153009241Y-110391363D01*
X152809363Y-110591241D01*
X152652320Y-110826273D01*
X152544147Y-111087426D01*
X152489000Y-111364665D01*
X145199000Y-111364665D01*
X145143853Y-111087426D01*
X145035680Y-110826273D01*
X144878637Y-110591241D01*
X144678759Y-110391363D01*
X144443727Y-110234320D01*
X144182574Y-110126147D01*
X143905335Y-110071000D01*
X143622665Y-110071000D01*
X143345426Y-110126147D01*
X143084273Y-110234320D01*
X142849241Y-110391363D01*
X142649363Y-110591241D01*
X142545957Y-110746000D01*
X139052916Y-110746000D01*
X139013571Y-110651012D01*
X138816035Y-110355379D01*
X138564621Y-110103965D01*
X138268988Y-109906429D01*
X137940499Y-109770365D01*
X137591777Y-109701000D01*
X137236223Y-109701000D01*
X136887501Y-109770365D01*
X136559012Y-109906429D01*
X136263379Y-110103965D01*
X136011965Y-110355379D01*
X135814429Y-110651012D01*
X135678365Y-110979501D01*
X135674000Y-111001445D01*
X135674000Y-110256801D01*
X137417009Y-108513794D01*
X137446001Y-108490001D01*
X137469795Y-108461008D01*
X137469799Y-108461004D01*
X137540973Y-108374277D01*
X137540974Y-108374276D01*
X137611546Y-108242247D01*
X137655003Y-108098986D01*
X137666000Y-107987333D01*
X137666000Y-107987324D01*
X137669676Y-107950001D01*
X137666000Y-107912678D01*
X137666000Y-102907325D01*
X137669676Y-102870000D01*
X137666000Y-102832675D01*
X137666000Y-102832667D01*
X137655003Y-102721014D01*
X137611546Y-102577753D01*
X137540974Y-102445724D01*
X137446001Y-102329999D01*
X137417003Y-102306201D01*
X136526688Y-101415886D01*
X136563000Y-101233335D01*
X136563000Y-100950665D01*
X141313000Y-100950665D01*
X141313000Y-101233335D01*
X141368147Y-101510574D01*
X141476320Y-101771727D01*
X141633363Y-102006759D01*
X141833241Y-102206637D01*
X142065759Y-102362000D01*
X141833241Y-102517363D01*
X141633363Y-102717241D01*
X141476320Y-102952273D01*
X141368147Y-103213426D01*
X141313000Y-103490665D01*
X141313000Y-103773335D01*
X141368147Y-104050574D01*
X141476320Y-104311727D01*
X141633363Y-104546759D01*
X141833241Y-104746637D01*
X142068273Y-104903680D01*
X142329426Y-105011853D01*
X142606665Y-105067000D01*
X142889335Y-105067000D01*
X143166574Y-105011853D01*
X143427727Y-104903680D01*
X143662759Y-104746637D01*
X143862637Y-104546759D01*
X144019680Y-104311727D01*
X144127853Y-104050574D01*
X144183000Y-103773335D01*
X144183000Y-103490665D01*
X144127853Y-103213426D01*
X144019680Y-102952273D01*
X143862637Y-102717241D01*
X143662759Y-102517363D01*
X143430241Y-102362000D01*
X143662759Y-102206637D01*
X143862637Y-102006759D01*
X143966043Y-101852000D01*
X149149957Y-101852000D01*
X149253363Y-102006759D01*
X149453241Y-102206637D01*
X149688273Y-102363680D01*
X149949426Y-102471853D01*
X150226665Y-102527000D01*
X150509335Y-102527000D01*
X150786574Y-102471853D01*
X151047727Y-102363680D01*
X151282759Y-102206637D01*
X151482637Y-102006759D01*
X151639680Y-101771727D01*
X151747853Y-101510574D01*
X151803000Y-101233335D01*
X151803000Y-100950665D01*
X151747853Y-100673426D01*
X151639680Y-100412273D01*
X151482637Y-100177241D01*
X151282759Y-99977363D01*
X151047727Y-99820320D01*
X150786574Y-99712147D01*
X150509335Y-99657000D01*
X150226665Y-99657000D01*
X149949426Y-99712147D01*
X149688273Y-99820320D01*
X149453241Y-99977363D01*
X149253363Y-100177241D01*
X149149957Y-100332000D01*
X143966043Y-100332000D01*
X143862637Y-100177241D01*
X143662759Y-99977363D01*
X143427727Y-99820320D01*
X143417135Y-99815933D01*
X143603131Y-99704385D01*
X143811519Y-99515414D01*
X143979037Y-99289420D01*
X144099246Y-99035087D01*
X144139904Y-98901039D01*
X144017915Y-98679000D01*
X142875000Y-98679000D01*
X142875000Y-98699000D01*
X142621000Y-98699000D01*
X142621000Y-98679000D01*
X141478085Y-98679000D01*
X141356096Y-98901039D01*
X141396754Y-99035087D01*
X141516963Y-99289420D01*
X141684481Y-99515414D01*
X141892869Y-99704385D01*
X142078865Y-99815933D01*
X142068273Y-99820320D01*
X141833241Y-99977363D01*
X141633363Y-100177241D01*
X141476320Y-100412273D01*
X141368147Y-100673426D01*
X141313000Y-100950665D01*
X136563000Y-100950665D01*
X136507853Y-100673426D01*
X136399680Y-100412273D01*
X136242637Y-100177241D01*
X136042759Y-99977363D01*
X135810241Y-99822000D01*
X136042759Y-99666637D01*
X136242637Y-99466759D01*
X136399680Y-99231727D01*
X136507853Y-98970574D01*
X136563000Y-98693335D01*
X136563000Y-98410665D01*
X136507853Y-98133426D01*
X136399680Y-97872273D01*
X136242637Y-97637241D01*
X136044039Y-97438643D01*
X136052482Y-97437812D01*
X136172180Y-97401502D01*
X136282494Y-97342537D01*
X136379185Y-97263185D01*
X136458537Y-97166494D01*
X136517502Y-97056180D01*
X136553812Y-96936482D01*
X136566072Y-96812000D01*
X136566072Y-95870665D01*
X141313000Y-95870665D01*
X141313000Y-96153335D01*
X141368147Y-96430574D01*
X141476320Y-96691727D01*
X141633363Y-96926759D01*
X141833241Y-97126637D01*
X142068273Y-97283680D01*
X142078865Y-97288067D01*
X141892869Y-97399615D01*
X141684481Y-97588586D01*
X141516963Y-97814580D01*
X141396754Y-98068913D01*
X141356096Y-98202961D01*
X141478085Y-98425000D01*
X142621000Y-98425000D01*
X142621000Y-98405000D01*
X142875000Y-98405000D01*
X142875000Y-98425000D01*
X144017915Y-98425000D01*
X144139904Y-98202961D01*
X144099246Y-98068913D01*
X143979037Y-97814580D01*
X143811519Y-97588586D01*
X143603131Y-97399615D01*
X143417135Y-97288067D01*
X143427727Y-97283680D01*
X143662759Y-97126637D01*
X143862637Y-96926759D01*
X144019680Y-96691727D01*
X144127853Y-96430574D01*
X144183000Y-96153335D01*
X144183000Y-95870665D01*
X144127853Y-95593426D01*
X144019680Y-95332273D01*
X143862637Y-95097241D01*
X143662759Y-94897363D01*
X143427727Y-94740320D01*
X143166574Y-94632147D01*
X142889335Y-94577000D01*
X142606665Y-94577000D01*
X142329426Y-94632147D01*
X142068273Y-94740320D01*
X141833241Y-94897363D01*
X141633363Y-95097241D01*
X141476320Y-95332273D01*
X141368147Y-95593426D01*
X141313000Y-95870665D01*
X136566072Y-95870665D01*
X136566072Y-95212000D01*
X136553812Y-95087518D01*
X136517502Y-94967820D01*
X136458537Y-94857506D01*
X136379185Y-94760815D01*
X136282494Y-94681463D01*
X136172180Y-94622498D01*
X136052482Y-94586188D01*
X135928000Y-94573928D01*
X134328000Y-94573928D01*
X134203518Y-94586188D01*
X134083820Y-94622498D01*
X133973506Y-94681463D01*
X133876815Y-94760815D01*
X133797463Y-94857506D01*
X133738498Y-94967820D01*
X133702188Y-95087518D01*
X133689928Y-95212000D01*
X133689928Y-96812000D01*
X133702188Y-96936482D01*
X133738498Y-97056180D01*
X133797463Y-97166494D01*
X133876815Y-97263185D01*
X133973506Y-97342537D01*
X134083820Y-97401502D01*
X134203518Y-97437812D01*
X134211961Y-97438643D01*
X134013363Y-97637241D01*
X133856320Y-97872273D01*
X133748147Y-98133426D01*
X133693000Y-98410665D01*
X133693000Y-98591999D01*
X132940801Y-98591999D01*
X131316000Y-96967199D01*
X131316000Y-94161402D01*
X154532401Y-94161402D01*
X154532401Y-94456600D01*
X154589991Y-94746126D01*
X154702959Y-95018854D01*
X154866962Y-95264303D01*
X155075699Y-95473040D01*
X155234282Y-95579001D01*
X155075699Y-95684962D01*
X154866962Y-95893699D01*
X154702959Y-96139148D01*
X154589991Y-96411876D01*
X154532401Y-96701402D01*
X154532401Y-96996600D01*
X154589991Y-97286126D01*
X154702959Y-97558854D01*
X154866962Y-97804303D01*
X155075699Y-98013040D01*
X155234282Y-98119001D01*
X155075699Y-98224962D01*
X154866962Y-98433699D01*
X154702959Y-98679148D01*
X154589991Y-98951876D01*
X154532401Y-99241402D01*
X154532401Y-99536600D01*
X154589991Y-99826126D01*
X154702959Y-100098854D01*
X154866962Y-100344303D01*
X155075699Y-100553040D01*
X155321148Y-100717043D01*
X155593876Y-100830011D01*
X155883402Y-100887601D01*
X156178600Y-100887601D01*
X156468126Y-100830011D01*
X156740854Y-100717043D01*
X156986303Y-100553040D01*
X157195040Y-100344303D01*
X157301001Y-100185720D01*
X157406962Y-100344303D01*
X157615699Y-100553040D01*
X157861148Y-100717043D01*
X158133876Y-100830011D01*
X158423402Y-100887601D01*
X158718600Y-100887601D01*
X159008126Y-100830011D01*
X159280854Y-100717043D01*
X159526303Y-100553040D01*
X159735040Y-100344303D01*
X159899043Y-100098854D01*
X160012011Y-99826126D01*
X160069601Y-99536600D01*
X160069601Y-99241402D01*
X160012011Y-98951876D01*
X159899043Y-98679148D01*
X159735040Y-98433699D01*
X159526303Y-98224962D01*
X159367720Y-98119001D01*
X159526303Y-98013040D01*
X159735040Y-97804303D01*
X159899043Y-97558854D01*
X160012011Y-97286126D01*
X160069601Y-96996600D01*
X160069601Y-96701402D01*
X160012011Y-96411876D01*
X159899043Y-96139148D01*
X159735040Y-95893699D01*
X159526303Y-95684962D01*
X159367720Y-95579001D01*
X159526303Y-95473040D01*
X159735040Y-95264303D01*
X159899043Y-95018854D01*
X160012011Y-94746126D01*
X160069601Y-94456600D01*
X160069601Y-94161402D01*
X160012011Y-93871876D01*
X159899043Y-93599148D01*
X159735040Y-93353699D01*
X159526303Y-93144962D01*
X159280854Y-92980959D01*
X159008126Y-92867991D01*
X158718600Y-92810401D01*
X158423402Y-92810401D01*
X158133876Y-92867991D01*
X157861148Y-92980959D01*
X157615699Y-93144962D01*
X157406962Y-93353699D01*
X157301001Y-93512282D01*
X157195040Y-93353699D01*
X156986303Y-93144962D01*
X156740854Y-92980959D01*
X156468126Y-92867991D01*
X156178600Y-92810401D01*
X155883402Y-92810401D01*
X155593876Y-92867991D01*
X155321148Y-92980959D01*
X155075699Y-93144962D01*
X154866962Y-93353699D01*
X154702959Y-93599148D01*
X154589991Y-93871876D01*
X154532401Y-94161402D01*
X131316000Y-94161402D01*
X131316000Y-87302801D01*
X134250919Y-84367883D01*
X134284815Y-84409185D01*
X134381506Y-84488537D01*
X134491820Y-84547502D01*
X134611518Y-84583812D01*
X134736000Y-84596072D01*
X136536000Y-84596072D01*
X136660482Y-84583812D01*
X136780180Y-84547502D01*
X136890494Y-84488537D01*
X136987185Y-84409185D01*
X137066537Y-84312494D01*
X137125502Y-84202180D01*
X137131056Y-84183873D01*
X137197495Y-84250312D01*
X137448905Y-84418299D01*
X137728257Y-84534011D01*
X138024816Y-84593000D01*
X138327184Y-84593000D01*
X138623743Y-84534011D01*
X138903095Y-84418299D01*
X139154505Y-84250312D01*
X139368312Y-84036505D01*
X139446000Y-83920237D01*
X139523688Y-84036505D01*
X139737495Y-84250312D01*
X139988905Y-84418299D01*
X140268257Y-84534011D01*
X140564816Y-84593000D01*
X140867184Y-84593000D01*
X141124930Y-84541731D01*
X148026201Y-91443003D01*
X148049999Y-91472001D01*
X148078997Y-91495799D01*
X148165724Y-91566974D01*
X148297753Y-91637546D01*
X148441014Y-91681003D01*
X148590000Y-91695677D01*
X148627333Y-91692000D01*
X149149957Y-91692000D01*
X149253363Y-91846759D01*
X149453241Y-92046637D01*
X149688273Y-92203680D01*
X149949426Y-92311853D01*
X150226665Y-92367000D01*
X150509335Y-92367000D01*
X150786574Y-92311853D01*
X151047727Y-92203680D01*
X151282759Y-92046637D01*
X151482637Y-91846759D01*
X151639680Y-91611727D01*
X151747853Y-91350574D01*
X151803000Y-91073335D01*
X151803000Y-90790665D01*
X151747853Y-90513426D01*
X151639680Y-90252273D01*
X151482637Y-90017241D01*
X151282759Y-89817363D01*
X151047727Y-89660320D01*
X150786574Y-89552147D01*
X150509335Y-89497000D01*
X150226665Y-89497000D01*
X149949426Y-89552147D01*
X149688273Y-89660320D01*
X149453241Y-89817363D01*
X149253363Y-90017241D01*
X149149957Y-90172000D01*
X148904802Y-90172000D01*
X147741675Y-89008873D01*
X156209001Y-89008873D01*
X156209001Y-89449129D01*
X156294891Y-89880926D01*
X156463370Y-90287670D01*
X156707963Y-90653730D01*
X157019272Y-90965039D01*
X157385332Y-91209632D01*
X157792076Y-91378111D01*
X158223873Y-91464001D01*
X158664129Y-91464001D01*
X159095926Y-91378111D01*
X159502670Y-91209632D01*
X159868730Y-90965039D01*
X160180039Y-90653730D01*
X160424632Y-90287670D01*
X160593111Y-89880926D01*
X160679001Y-89449129D01*
X160679001Y-89008873D01*
X160593111Y-88577076D01*
X160424632Y-88170332D01*
X160180039Y-87804272D01*
X159868730Y-87492963D01*
X159502670Y-87248370D01*
X159095926Y-87079891D01*
X158664129Y-86994001D01*
X158223873Y-86994001D01*
X157792076Y-87079891D01*
X157385332Y-87248370D01*
X157019272Y-87492963D01*
X156707963Y-87804272D01*
X156463370Y-88170332D01*
X156294891Y-88577076D01*
X156209001Y-89008873D01*
X147741675Y-89008873D01*
X142199731Y-83466930D01*
X142251000Y-83209184D01*
X142251000Y-82906816D01*
X142192011Y-82610257D01*
X142076299Y-82330905D01*
X141908312Y-82079495D01*
X141694505Y-81865688D01*
X141443095Y-81697701D01*
X141163743Y-81581989D01*
X140867184Y-81523000D01*
X140564816Y-81523000D01*
X140268257Y-81581989D01*
X139988905Y-81697701D01*
X139835999Y-81799870D01*
X139835999Y-81710802D01*
X141030802Y-80516000D01*
X166329199Y-80516000D01*
X166892706Y-81079508D01*
X166878866Y-81090866D01*
X166693294Y-81316986D01*
X166555401Y-81574966D01*
X166470487Y-81854889D01*
X166449000Y-82073050D01*
X166449000Y-82518949D01*
X166470487Y-82737110D01*
X166555401Y-83017033D01*
X166693294Y-83275013D01*
X166878866Y-83501134D01*
X167104986Y-83686706D01*
X167362966Y-83824599D01*
X167642889Y-83909513D01*
X167934000Y-83938185D01*
X168225110Y-83909513D01*
X168505033Y-83824599D01*
X168763013Y-83686706D01*
X168983945Y-83505392D01*
X168994498Y-83540180D01*
X169053463Y-83650494D01*
X169132815Y-83747185D01*
X169229506Y-83826537D01*
X169339820Y-83885502D01*
X169459518Y-83921812D01*
X169584000Y-83934072D01*
X170148250Y-83931000D01*
X170307000Y-83772250D01*
X170307000Y-82423000D01*
X170561000Y-82423000D01*
X170561000Y-83772250D01*
X170719750Y-83931000D01*
X171284000Y-83934072D01*
X171408482Y-83921812D01*
X171528180Y-83885502D01*
X171638494Y-83826537D01*
X171735185Y-83747185D01*
X171814537Y-83650494D01*
X171873502Y-83540180D01*
X171909812Y-83420482D01*
X171922072Y-83296000D01*
X171919000Y-82581750D01*
X171760250Y-82423000D01*
X170561000Y-82423000D01*
X170307000Y-82423000D01*
X170287000Y-82423000D01*
X170287000Y-82169000D01*
X170307000Y-82169000D01*
X170307000Y-80819750D01*
X170561000Y-80819750D01*
X170561000Y-82169000D01*
X171760250Y-82169000D01*
X171919000Y-82010250D01*
X171922072Y-81296000D01*
X171909812Y-81171518D01*
X171873502Y-81051820D01*
X171814537Y-80941506D01*
X171735185Y-80844815D01*
X171638494Y-80765463D01*
X171528180Y-80706498D01*
X171408482Y-80670188D01*
X171284000Y-80657928D01*
X170719750Y-80661000D01*
X170561000Y-80819750D01*
X170307000Y-80819750D01*
X170148250Y-80661000D01*
X169584000Y-80657928D01*
X169459518Y-80670188D01*
X169339820Y-80706498D01*
X169229506Y-80765463D01*
X169132815Y-80844815D01*
X169053463Y-80941506D01*
X168994498Y-81051820D01*
X168983945Y-81086608D01*
X168763014Y-80905294D01*
X168670517Y-80855854D01*
X168639546Y-80753753D01*
X168568974Y-80621724D01*
X168515238Y-80556246D01*
X168497799Y-80534996D01*
X168497795Y-80534992D01*
X168474001Y-80505999D01*
X168445009Y-80482206D01*
X167207803Y-79245002D01*
X167184001Y-79215999D01*
X167068276Y-79121026D01*
X166936247Y-79050454D01*
X166792986Y-79006997D01*
X166681333Y-78996000D01*
X166681322Y-78996000D01*
X166644000Y-78992324D01*
X166606678Y-78996000D01*
X140753325Y-78996000D01*
X140716000Y-78992324D01*
X140678675Y-78996000D01*
X140678667Y-78996000D01*
X140567014Y-79006997D01*
X140423753Y-79050454D01*
X140291724Y-79121026D01*
X140175999Y-79215999D01*
X140152201Y-79244997D01*
X138564997Y-80832202D01*
X138535999Y-80856000D01*
X138512201Y-80884998D01*
X138512200Y-80884999D01*
X138441025Y-80971725D01*
X138370453Y-81103755D01*
X138355316Y-81153657D01*
X138326996Y-81247015D01*
X138315999Y-81358668D01*
X138315999Y-81358679D01*
X138312323Y-81396001D01*
X138315999Y-81433323D01*
X138315999Y-81523000D01*
X138024816Y-81523000D01*
X137728257Y-81581989D01*
X137448905Y-81697701D01*
X137197495Y-81865688D01*
X137131056Y-81932127D01*
X137125502Y-81913820D01*
X137066537Y-81803506D01*
X136987185Y-81706815D01*
X136890494Y-81627463D01*
X136780180Y-81568498D01*
X136660482Y-81532188D01*
X136536000Y-81519928D01*
X134736000Y-81519928D01*
X134611518Y-81532188D01*
X134491820Y-81568498D01*
X134381506Y-81627463D01*
X134284815Y-81706815D01*
X134205463Y-81803506D01*
X134146498Y-81913820D01*
X134110188Y-82033518D01*
X134097928Y-82158000D01*
X134097928Y-82403674D01*
X134061724Y-82423026D01*
X133945999Y-82517999D01*
X133922201Y-82546997D01*
X130997000Y-85472198D01*
X130103804Y-84579002D01*
X130080001Y-84549999D01*
X130051003Y-84526201D01*
X126112688Y-80587887D01*
X126149000Y-80405335D01*
X126149000Y-80122665D01*
X126093853Y-79845426D01*
X125985680Y-79584273D01*
X125828637Y-79349241D01*
X125628759Y-79149363D01*
X125393727Y-78992320D01*
X125132574Y-78884147D01*
X124855335Y-78829000D01*
X124572665Y-78829000D01*
X124295426Y-78884147D01*
X124034273Y-78992320D01*
X123799241Y-79149363D01*
X123599363Y-79349241D01*
X123442320Y-79584273D01*
X123334147Y-79845426D01*
X123279000Y-80122665D01*
X115989000Y-80122665D01*
X115933853Y-79845426D01*
X115825680Y-79584273D01*
X115668637Y-79349241D01*
X115468759Y-79149363D01*
X115233727Y-78992320D01*
X114972574Y-78884147D01*
X114695335Y-78829000D01*
X114412665Y-78829000D01*
X114135426Y-78884147D01*
X113874273Y-78992320D01*
X113639241Y-79149363D01*
X113439363Y-79349241D01*
X113282320Y-79584273D01*
X113174147Y-79845426D01*
X113119000Y-80122665D01*
X104978206Y-80122665D01*
X104955502Y-80047820D01*
X104896537Y-79937506D01*
X104817185Y-79840815D01*
X104720494Y-79761463D01*
X104610180Y-79702498D01*
X104490482Y-79666188D01*
X104366000Y-79653928D01*
X102901750Y-79657000D01*
X102743000Y-79815750D01*
X102489000Y-79815750D01*
X102330250Y-79657000D01*
X100866000Y-79653928D01*
X100741518Y-79666188D01*
X100621820Y-79702498D01*
X100511506Y-79761463D01*
X100414815Y-79840815D01*
X100335463Y-79937506D01*
X100276498Y-80047820D01*
X100240188Y-80167518D01*
X100227928Y-80292000D01*
X98531457Y-80292000D01*
X98520140Y-80270829D01*
X98347515Y-80060485D01*
X98137171Y-79887860D01*
X97897192Y-79759589D01*
X97636799Y-79680599D01*
X97366000Y-79653928D01*
X95866000Y-79653928D01*
X95595201Y-79680599D01*
X95334808Y-79759589D01*
X95094829Y-79887860D01*
X94884485Y-80060485D01*
X94711860Y-80270829D01*
X94583589Y-80510808D01*
X94504599Y-80771201D01*
X94477928Y-81042000D01*
X92989000Y-81042000D01*
X92989000Y-76581000D01*
X180795394Y-76581000D01*
X183261000Y-79046606D01*
G37*
X183261000Y-79046606D02*
X183261000Y-115517394D01*
X180287394Y-118491000D01*
X176984001Y-118491000D01*
X176984001Y-114920800D01*
X178603015Y-113301787D01*
X178759581Y-113366639D01*
X179133419Y-113441000D01*
X179514581Y-113441000D01*
X179888419Y-113366639D01*
X180240566Y-113220775D01*
X180557491Y-113009013D01*
X180827013Y-112739491D01*
X181038775Y-112422566D01*
X181184639Y-112070419D01*
X181259000Y-111696581D01*
X181259000Y-111315419D01*
X181184639Y-110941581D01*
X181038775Y-110589434D01*
X180827013Y-110272509D01*
X180557491Y-110002987D01*
X180240566Y-109791225D01*
X179888419Y-109645361D01*
X179514581Y-109571000D01*
X179133419Y-109571000D01*
X178759581Y-109645361D01*
X178407434Y-109791225D01*
X178090509Y-110002987D01*
X177820987Y-110272509D01*
X177609225Y-110589434D01*
X177463361Y-110941581D01*
X177389000Y-111315419D01*
X177389000Y-111696581D01*
X177463361Y-112070419D01*
X177528213Y-112226985D01*
X175712999Y-114042200D01*
X175684001Y-114065998D01*
X175660203Y-114094996D01*
X175660202Y-114094997D01*
X175589027Y-114181723D01*
X175518455Y-114313753D01*
X175488181Y-114413557D01*
X175476820Y-114451012D01*
X175474999Y-114457014D01*
X175460325Y-114605999D01*
X175464002Y-114643331D01*
X175464001Y-118491000D01*
X160248681Y-118491000D01*
X160424632Y-118227670D01*
X160593111Y-117820926D01*
X160679001Y-117389129D01*
X160679001Y-116948873D01*
X160593111Y-116517076D01*
X160424632Y-116110332D01*
X160180039Y-115744272D01*
X159868730Y-115432963D01*
X159502670Y-115188370D01*
X159095926Y-115019891D01*
X158664129Y-114934001D01*
X158223873Y-114934001D01*
X157792076Y-115019891D01*
X157385332Y-115188370D01*
X157019272Y-115432963D01*
X156707963Y-115744272D01*
X156463370Y-116110332D01*
X156294891Y-116517076D01*
X156209001Y-116948873D01*
X156209001Y-117389129D01*
X156294891Y-117820926D01*
X156463370Y-118227670D01*
X156639321Y-118491000D01*
X92989000Y-118491000D01*
X92989000Y-85867000D01*
X97227928Y-85867000D01*
X97227928Y-87617000D01*
X97257001Y-87912186D01*
X97343104Y-88196028D01*
X97482927Y-88457618D01*
X97671097Y-88686903D01*
X97900382Y-88875073D01*
X98161972Y-89014896D01*
X98445814Y-89100999D01*
X98741000Y-89130072D01*
X100491000Y-89130072D01*
X100786186Y-89100999D01*
X101070028Y-89014896D01*
X101331618Y-88875073D01*
X101560903Y-88686903D01*
X101749073Y-88457618D01*
X101888896Y-88196028D01*
X101974999Y-87912186D01*
X102004072Y-87617000D01*
X102004072Y-85867000D01*
X101974999Y-85571814D01*
X101888896Y-85287972D01*
X101749073Y-85026382D01*
X101685293Y-84948665D01*
X113119000Y-84948665D01*
X113119000Y-85231335D01*
X113174147Y-85508574D01*
X113282320Y-85769727D01*
X113439363Y-86004759D01*
X113639241Y-86204637D01*
X113874273Y-86361680D01*
X114135426Y-86469853D01*
X114412665Y-86525000D01*
X114695335Y-86525000D01*
X114972574Y-86469853D01*
X115233727Y-86361680D01*
X115468759Y-86204637D01*
X115668637Y-86004759D01*
X115825680Y-85769727D01*
X115933853Y-85508574D01*
X115989000Y-85231335D01*
X115989000Y-84948665D01*
X115933853Y-84671426D01*
X115825680Y-84410273D01*
X115668637Y-84175241D01*
X115468759Y-83975363D01*
X115233727Y-83818320D01*
X114972574Y-83710147D01*
X114695335Y-83655000D01*
X114412665Y-83655000D01*
X114135426Y-83710147D01*
X113874273Y-83818320D01*
X113639241Y-83975363D01*
X113439363Y-84175241D01*
X113282320Y-84410273D01*
X113174147Y-84671426D01*
X113119000Y-84948665D01*
X101685293Y-84948665D01*
X101560903Y-84797097D01*
X101331618Y-84608927D01*
X101070028Y-84469104D01*
X100940840Y-84429915D01*
X102330250Y-84427000D01*
X102489000Y-84268250D01*
X102489000Y-82169000D01*
X102743000Y-82169000D01*
X102743000Y-84268250D01*
X102901750Y-84427000D01*
X104366000Y-84430072D01*
X104490482Y-84417812D01*
X104610180Y-84381502D01*
X104720494Y-84322537D01*
X104817185Y-84243185D01*
X104896537Y-84146494D01*
X104955502Y-84036180D01*
X104991812Y-83916482D01*
X105004072Y-83792000D01*
X105001000Y-82327750D01*
X104842250Y-82169000D01*
X102743000Y-82169000D01*
X102489000Y-82169000D01*
X100389750Y-82169000D01*
X100231000Y-82327750D01*
X100227928Y-83792000D01*
X100240188Y-83916482D01*
X100276498Y-84036180D01*
X100335463Y-84146494D01*
X100414815Y-84243185D01*
X100511506Y-84322537D01*
X100588131Y-84363494D01*
X100491000Y-84353928D01*
X98741000Y-84353928D01*
X98445814Y-84383001D01*
X98161972Y-84469104D01*
X97900382Y-84608927D01*
X97671097Y-84797097D01*
X97482927Y-85026382D01*
X97343104Y-85287972D01*
X97257001Y-85571814D01*
X97227928Y-85867000D01*
X92989000Y-85867000D01*
X92989000Y-81042000D01*
X94477928Y-81042000D01*
X94477928Y-83042000D01*
X94504599Y-83312799D01*
X94583589Y-83573192D01*
X94711860Y-83813171D01*
X94884485Y-84023515D01*
X95094829Y-84196140D01*
X95334808Y-84324411D01*
X95595201Y-84403401D01*
X95866000Y-84430072D01*
X97366000Y-84430072D01*
X97636799Y-84403401D01*
X97897192Y-84324411D01*
X98137171Y-84196140D01*
X98347515Y-84023515D01*
X98520140Y-83813171D01*
X98648411Y-83573192D01*
X98727401Y-83312799D01*
X98754072Y-83042000D01*
X98754072Y-81042000D01*
X98727401Y-80771201D01*
X98648411Y-80510808D01*
X98531457Y-80292000D01*
X100227928Y-80292000D01*
X100231000Y-81756250D01*
X100389750Y-81915000D01*
X102489000Y-81915000D01*
X102489000Y-79815750D01*
X102743000Y-79815750D01*
X102743000Y-81915000D01*
X104842250Y-81915000D01*
X105001000Y-81756250D01*
X105004072Y-80292000D01*
X104991812Y-80167518D01*
X104978206Y-80122665D01*
X113119000Y-80122665D01*
X113119000Y-80405335D01*
X113174147Y-80682574D01*
X113282320Y-80943727D01*
X113439363Y-81178759D01*
X113639241Y-81378637D01*
X113874273Y-81535680D01*
X114135426Y-81643853D01*
X114412665Y-81699000D01*
X114695335Y-81699000D01*
X114972574Y-81643853D01*
X115233727Y-81535680D01*
X115468759Y-81378637D01*
X115668637Y-81178759D01*
X115825680Y-80943727D01*
X115933853Y-80682574D01*
X115989000Y-80405335D01*
X115989000Y-80122665D01*
X123279000Y-80122665D01*
X123279000Y-80405335D01*
X123334147Y-80682574D01*
X123442320Y-80943727D01*
X123599363Y-81178759D01*
X123799241Y-81378637D01*
X124034273Y-81535680D01*
X124295426Y-81643853D01*
X124572665Y-81699000D01*
X124855335Y-81699000D01*
X125037887Y-81662688D01*
X127705198Y-84330000D01*
X125932043Y-84330000D01*
X125828637Y-84175241D01*
X125628759Y-83975363D01*
X125393727Y-83818320D01*
X125132574Y-83710147D01*
X124855335Y-83655000D01*
X124572665Y-83655000D01*
X124295426Y-83710147D01*
X124034273Y-83818320D01*
X123799241Y-83975363D01*
X123599363Y-84175241D01*
X123442320Y-84410273D01*
X123334147Y-84671426D01*
X123279000Y-84948665D01*
X123279000Y-85231335D01*
X123334147Y-85508574D01*
X123442320Y-85769727D01*
X123599363Y-86004759D01*
X123799241Y-86204637D01*
X124034273Y-86361680D01*
X124295426Y-86469853D01*
X124572665Y-86525000D01*
X124855335Y-86525000D01*
X125132574Y-86469853D01*
X125393727Y-86361680D01*
X125628759Y-86204637D01*
X125828637Y-86004759D01*
X125932043Y-85850000D01*
X129225199Y-85850000D01*
X129796000Y-86420802D01*
X129796000Y-86950678D01*
X129792324Y-86988000D01*
X129796000Y-87025322D01*
X129796000Y-87025332D01*
X129796001Y-87025342D01*
X129796000Y-97244678D01*
X129792324Y-97282000D01*
X129796000Y-97319322D01*
X129796000Y-97319332D01*
X129806997Y-97430985D01*
X129845785Y-97558854D01*
X129850454Y-97574246D01*
X129921026Y-97706276D01*
X129960871Y-97754826D01*
X130015999Y-97822001D01*
X130045003Y-97845804D01*
X132062200Y-99863002D01*
X132085998Y-99892000D01*
X132201723Y-99986973D01*
X132333752Y-100057545D01*
X132477013Y-100101002D01*
X132588666Y-100111999D01*
X132588674Y-100111999D01*
X132625999Y-100115675D01*
X132663324Y-100111999D01*
X134078605Y-100111999D01*
X134013363Y-100177241D01*
X133856320Y-100412273D01*
X133748147Y-100673426D01*
X133693000Y-100950665D01*
X133693000Y-101233335D01*
X133748147Y-101510574D01*
X133856320Y-101771727D01*
X134013363Y-102006759D01*
X134213241Y-102206637D01*
X134445759Y-102362000D01*
X134213241Y-102517363D01*
X134013363Y-102717241D01*
X133856320Y-102952273D01*
X133748147Y-103213426D01*
X133693000Y-103490665D01*
X133693000Y-103773335D01*
X133748147Y-104050574D01*
X133856320Y-104311727D01*
X134013363Y-104546759D01*
X134213241Y-104746637D01*
X134448273Y-104903680D01*
X134709426Y-105011853D01*
X134986665Y-105067000D01*
X135269335Y-105067000D01*
X135546574Y-105011853D01*
X135807727Y-104903680D01*
X136042759Y-104746637D01*
X136146001Y-104643395D01*
X136146000Y-107635197D01*
X134402998Y-109378201D01*
X134374000Y-109401999D01*
X134350202Y-109430997D01*
X134350201Y-109430998D01*
X134279026Y-109517724D01*
X134208454Y-109649754D01*
X134178180Y-109749558D01*
X134171869Y-109770365D01*
X134164998Y-109793015D01*
X134150324Y-109942000D01*
X134154001Y-109979332D01*
X134154001Y-111001449D01*
X134149635Y-110979501D01*
X134013571Y-110651012D01*
X133816035Y-110355379D01*
X133564621Y-110103965D01*
X133268988Y-109906429D01*
X132940499Y-109770365D01*
X132591777Y-109701000D01*
X132236223Y-109701000D01*
X131887501Y-109770365D01*
X131559012Y-109906429D01*
X131263379Y-110103965D01*
X131011965Y-110355379D01*
X130814429Y-110651012D01*
X130678365Y-110979501D01*
X130609000Y-111328223D01*
X130609000Y-111683777D01*
X130678365Y-112032499D01*
X130814429Y-112360988D01*
X131011965Y-112656621D01*
X131263379Y-112908035D01*
X131559012Y-113105571D01*
X131887501Y-113241635D01*
X132236223Y-113311000D01*
X132591777Y-113311000D01*
X132940499Y-113241635D01*
X133268988Y-113105571D01*
X133564621Y-112908035D01*
X133816035Y-112656621D01*
X134013571Y-112360988D01*
X134149635Y-112032499D01*
X134154001Y-112010552D01*
X134154000Y-113667084D01*
X134059012Y-113706429D01*
X133763379Y-113903965D01*
X133511965Y-114155379D01*
X133314429Y-114451012D01*
X133178365Y-114779501D01*
X133109000Y-115128223D01*
X133109000Y-115483777D01*
X133178365Y-115832499D01*
X133314429Y-116160988D01*
X133511965Y-116456621D01*
X133763379Y-116708035D01*
X134059012Y-116905571D01*
X134387501Y-117041635D01*
X134736223Y-117111000D01*
X135091777Y-117111000D01*
X135440499Y-117041635D01*
X135768988Y-116905571D01*
X136064621Y-116708035D01*
X136316035Y-116456621D01*
X136513571Y-116160988D01*
X136649635Y-115832499D01*
X136719000Y-115483777D01*
X136719000Y-115128223D01*
X136649635Y-114779501D01*
X136513571Y-114451012D01*
X136316035Y-114155379D01*
X136064621Y-113903965D01*
X135768988Y-113706429D01*
X135674000Y-113667084D01*
X135674000Y-112010555D01*
X135678365Y-112032499D01*
X135814429Y-112360988D01*
X136011965Y-112656621D01*
X136263379Y-112908035D01*
X136559012Y-113105571D01*
X136887501Y-113241635D01*
X137236223Y-113311000D01*
X137591777Y-113311000D01*
X137940499Y-113241635D01*
X138268988Y-113105571D01*
X138564621Y-112908035D01*
X138816035Y-112656621D01*
X139013571Y-112360988D01*
X139052916Y-112266000D01*
X142545957Y-112266000D01*
X142649363Y-112420759D01*
X142849241Y-112620637D01*
X143084273Y-112777680D01*
X143345426Y-112885853D01*
X143622665Y-112941000D01*
X143905335Y-112941000D01*
X144182574Y-112885853D01*
X144443727Y-112777680D01*
X144678759Y-112620637D01*
X144878637Y-112420759D01*
X145035680Y-112185727D01*
X145143853Y-111924574D01*
X145199000Y-111647335D01*
X145199000Y-111364665D01*
X152489000Y-111364665D01*
X152489000Y-111647335D01*
X152544147Y-111924574D01*
X152652320Y-112185727D01*
X152809363Y-112420759D01*
X153009241Y-112620637D01*
X153244273Y-112777680D01*
X153505426Y-112885853D01*
X153782665Y-112941000D01*
X154065335Y-112941000D01*
X154342574Y-112885853D01*
X154603727Y-112777680D01*
X154838759Y-112620637D01*
X155038637Y-112420759D01*
X155142043Y-112266000D01*
X162145928Y-112266000D01*
X162145928Y-112806000D01*
X162158188Y-112930482D01*
X162194498Y-113050180D01*
X162253463Y-113160494D01*
X162332815Y-113257185D01*
X162429506Y-113336537D01*
X162539820Y-113395502D01*
X162659518Y-113431812D01*
X162784000Y-113444072D01*
X165384000Y-113444072D01*
X165508482Y-113431812D01*
X165628180Y-113395502D01*
X165738494Y-113336537D01*
X165835185Y-113257185D01*
X165914537Y-113160494D01*
X165973502Y-113050180D01*
X166009812Y-112930482D01*
X166022072Y-112806000D01*
X166022072Y-110206000D01*
X166009812Y-110081518D01*
X165973502Y-109961820D01*
X165914537Y-109851506D01*
X165835185Y-109754815D01*
X165738494Y-109675463D01*
X165628180Y-109616498D01*
X165508482Y-109580188D01*
X165384000Y-109567928D01*
X162784000Y-109567928D01*
X162659518Y-109580188D01*
X162539820Y-109616498D01*
X162429506Y-109675463D01*
X162332815Y-109754815D01*
X162253463Y-109851506D01*
X162194498Y-109961820D01*
X162158188Y-110081518D01*
X162145928Y-110206000D01*
X162145928Y-110746000D01*
X155142043Y-110746000D01*
X155038637Y-110591241D01*
X154838759Y-110391363D01*
X154603727Y-110234320D01*
X154342574Y-110126147D01*
X154065335Y-110071000D01*
X153782665Y-110071000D01*
X153505426Y-110126147D01*
X153244273Y-110234320D01*
X153009241Y-110391363D01*
X152809363Y-110591241D01*
X152652320Y-110826273D01*
X152544147Y-111087426D01*
X152489000Y-111364665D01*
X145199000Y-111364665D01*
X145143853Y-111087426D01*
X145035680Y-110826273D01*
X144878637Y-110591241D01*
X144678759Y-110391363D01*
X144443727Y-110234320D01*
X144182574Y-110126147D01*
X143905335Y-110071000D01*
X143622665Y-110071000D01*
X143345426Y-110126147D01*
X143084273Y-110234320D01*
X142849241Y-110391363D01*
X142649363Y-110591241D01*
X142545957Y-110746000D01*
X139052916Y-110746000D01*
X139013571Y-110651012D01*
X138816035Y-110355379D01*
X138564621Y-110103965D01*
X138268988Y-109906429D01*
X137940499Y-109770365D01*
X137591777Y-109701000D01*
X137236223Y-109701000D01*
X136887501Y-109770365D01*
X136559012Y-109906429D01*
X136263379Y-110103965D01*
X136011965Y-110355379D01*
X135814429Y-110651012D01*
X135678365Y-110979501D01*
X135674000Y-111001445D01*
X135674000Y-110256801D01*
X137417009Y-108513794D01*
X137446001Y-108490001D01*
X137469795Y-108461008D01*
X137469799Y-108461004D01*
X137540973Y-108374277D01*
X137540974Y-108374276D01*
X137611546Y-108242247D01*
X137655003Y-108098986D01*
X137666000Y-107987333D01*
X137666000Y-107987324D01*
X137669676Y-107950001D01*
X137666000Y-107912678D01*
X137666000Y-102907325D01*
X137669676Y-102870000D01*
X137666000Y-102832675D01*
X137666000Y-102832667D01*
X137655003Y-102721014D01*
X137611546Y-102577753D01*
X137540974Y-102445724D01*
X137446001Y-102329999D01*
X137417003Y-102306201D01*
X136526688Y-101415886D01*
X136563000Y-101233335D01*
X136563000Y-100950665D01*
X141313000Y-100950665D01*
X141313000Y-101233335D01*
X141368147Y-101510574D01*
X141476320Y-101771727D01*
X141633363Y-102006759D01*
X141833241Y-102206637D01*
X142065759Y-102362000D01*
X141833241Y-102517363D01*
X141633363Y-102717241D01*
X141476320Y-102952273D01*
X141368147Y-103213426D01*
X141313000Y-103490665D01*
X141313000Y-103773335D01*
X141368147Y-104050574D01*
X141476320Y-104311727D01*
X141633363Y-104546759D01*
X141833241Y-104746637D01*
X142068273Y-104903680D01*
X142329426Y-105011853D01*
X142606665Y-105067000D01*
X142889335Y-105067000D01*
X143166574Y-105011853D01*
X143427727Y-104903680D01*
X143662759Y-104746637D01*
X143862637Y-104546759D01*
X144019680Y-104311727D01*
X144127853Y-104050574D01*
X144183000Y-103773335D01*
X144183000Y-103490665D01*
X144127853Y-103213426D01*
X144019680Y-102952273D01*
X143862637Y-102717241D01*
X143662759Y-102517363D01*
X143430241Y-102362000D01*
X143662759Y-102206637D01*
X143862637Y-102006759D01*
X143966043Y-101852000D01*
X149149957Y-101852000D01*
X149253363Y-102006759D01*
X149453241Y-102206637D01*
X149688273Y-102363680D01*
X149949426Y-102471853D01*
X150226665Y-102527000D01*
X150509335Y-102527000D01*
X150786574Y-102471853D01*
X151047727Y-102363680D01*
X151282759Y-102206637D01*
X151482637Y-102006759D01*
X151639680Y-101771727D01*
X151747853Y-101510574D01*
X151803000Y-101233335D01*
X151803000Y-100950665D01*
X151747853Y-100673426D01*
X151639680Y-100412273D01*
X151482637Y-100177241D01*
X151282759Y-99977363D01*
X151047727Y-99820320D01*
X150786574Y-99712147D01*
X150509335Y-99657000D01*
X150226665Y-99657000D01*
X149949426Y-99712147D01*
X149688273Y-99820320D01*
X149453241Y-99977363D01*
X149253363Y-100177241D01*
X149149957Y-100332000D01*
X143966043Y-100332000D01*
X143862637Y-100177241D01*
X143662759Y-99977363D01*
X143427727Y-99820320D01*
X143417135Y-99815933D01*
X143603131Y-99704385D01*
X143811519Y-99515414D01*
X143979037Y-99289420D01*
X144099246Y-99035087D01*
X144139904Y-98901039D01*
X144017915Y-98679000D01*
X142875000Y-98679000D01*
X142875000Y-98699000D01*
X142621000Y-98699000D01*
X142621000Y-98679000D01*
X141478085Y-98679000D01*
X141356096Y-98901039D01*
X141396754Y-99035087D01*
X141516963Y-99289420D01*
X141684481Y-99515414D01*
X141892869Y-99704385D01*
X142078865Y-99815933D01*
X142068273Y-99820320D01*
X141833241Y-99977363D01*
X141633363Y-100177241D01*
X141476320Y-100412273D01*
X141368147Y-100673426D01*
X141313000Y-100950665D01*
X136563000Y-100950665D01*
X136507853Y-100673426D01*
X136399680Y-100412273D01*
X136242637Y-100177241D01*
X136042759Y-99977363D01*
X135810241Y-99822000D01*
X136042759Y-99666637D01*
X136242637Y-99466759D01*
X136399680Y-99231727D01*
X136507853Y-98970574D01*
X136563000Y-98693335D01*
X136563000Y-98410665D01*
X136507853Y-98133426D01*
X136399680Y-97872273D01*
X136242637Y-97637241D01*
X136044039Y-97438643D01*
X136052482Y-97437812D01*
X136172180Y-97401502D01*
X136282494Y-97342537D01*
X136379185Y-97263185D01*
X136458537Y-97166494D01*
X136517502Y-97056180D01*
X136553812Y-96936482D01*
X136566072Y-96812000D01*
X136566072Y-95870665D01*
X141313000Y-95870665D01*
X141313000Y-96153335D01*
X141368147Y-96430574D01*
X141476320Y-96691727D01*
X141633363Y-96926759D01*
X141833241Y-97126637D01*
X142068273Y-97283680D01*
X142078865Y-97288067D01*
X141892869Y-97399615D01*
X141684481Y-97588586D01*
X141516963Y-97814580D01*
X141396754Y-98068913D01*
X141356096Y-98202961D01*
X141478085Y-98425000D01*
X142621000Y-98425000D01*
X142621000Y-98405000D01*
X142875000Y-98405000D01*
X142875000Y-98425000D01*
X144017915Y-98425000D01*
X144139904Y-98202961D01*
X144099246Y-98068913D01*
X143979037Y-97814580D01*
X143811519Y-97588586D01*
X143603131Y-97399615D01*
X143417135Y-97288067D01*
X143427727Y-97283680D01*
X143662759Y-97126637D01*
X143862637Y-96926759D01*
X144019680Y-96691727D01*
X144127853Y-96430574D01*
X144183000Y-96153335D01*
X144183000Y-95870665D01*
X144127853Y-95593426D01*
X144019680Y-95332273D01*
X143862637Y-95097241D01*
X143662759Y-94897363D01*
X143427727Y-94740320D01*
X143166574Y-94632147D01*
X142889335Y-94577000D01*
X142606665Y-94577000D01*
X142329426Y-94632147D01*
X142068273Y-94740320D01*
X141833241Y-94897363D01*
X141633363Y-95097241D01*
X141476320Y-95332273D01*
X141368147Y-95593426D01*
X141313000Y-95870665D01*
X136566072Y-95870665D01*
X136566072Y-95212000D01*
X136553812Y-95087518D01*
X136517502Y-94967820D01*
X136458537Y-94857506D01*
X136379185Y-94760815D01*
X136282494Y-94681463D01*
X136172180Y-94622498D01*
X136052482Y-94586188D01*
X135928000Y-94573928D01*
X134328000Y-94573928D01*
X134203518Y-94586188D01*
X134083820Y-94622498D01*
X133973506Y-94681463D01*
X133876815Y-94760815D01*
X133797463Y-94857506D01*
X133738498Y-94967820D01*
X133702188Y-95087518D01*
X133689928Y-95212000D01*
X133689928Y-96812000D01*
X133702188Y-96936482D01*
X133738498Y-97056180D01*
X133797463Y-97166494D01*
X133876815Y-97263185D01*
X133973506Y-97342537D01*
X134083820Y-97401502D01*
X134203518Y-97437812D01*
X134211961Y-97438643D01*
X134013363Y-97637241D01*
X133856320Y-97872273D01*
X133748147Y-98133426D01*
X133693000Y-98410665D01*
X133693000Y-98591999D01*
X132940801Y-98591999D01*
X131316000Y-96967199D01*
X131316000Y-94161402D01*
X154532401Y-94161402D01*
X154532401Y-94456600D01*
X154589991Y-94746126D01*
X154702959Y-95018854D01*
X154866962Y-95264303D01*
X155075699Y-95473040D01*
X155234282Y-95579001D01*
X155075699Y-95684962D01*
X154866962Y-95893699D01*
X154702959Y-96139148D01*
X154589991Y-96411876D01*
X154532401Y-96701402D01*
X154532401Y-96996600D01*
X154589991Y-97286126D01*
X154702959Y-97558854D01*
X154866962Y-97804303D01*
X155075699Y-98013040D01*
X155234282Y-98119001D01*
X155075699Y-98224962D01*
X154866962Y-98433699D01*
X154702959Y-98679148D01*
X154589991Y-98951876D01*
X154532401Y-99241402D01*
X154532401Y-99536600D01*
X154589991Y-99826126D01*
X154702959Y-100098854D01*
X154866962Y-100344303D01*
X155075699Y-100553040D01*
X155321148Y-100717043D01*
X155593876Y-100830011D01*
X155883402Y-100887601D01*
X156178600Y-100887601D01*
X156468126Y-100830011D01*
X156740854Y-100717043D01*
X156986303Y-100553040D01*
X157195040Y-100344303D01*
X157301001Y-100185720D01*
X157406962Y-100344303D01*
X157615699Y-100553040D01*
X157861148Y-100717043D01*
X158133876Y-100830011D01*
X158423402Y-100887601D01*
X158718600Y-100887601D01*
X159008126Y-100830011D01*
X159280854Y-100717043D01*
X159526303Y-100553040D01*
X159735040Y-100344303D01*
X159899043Y-100098854D01*
X160012011Y-99826126D01*
X160069601Y-99536600D01*
X160069601Y-99241402D01*
X160012011Y-98951876D01*
X159899043Y-98679148D01*
X159735040Y-98433699D01*
X159526303Y-98224962D01*
X159367720Y-98119001D01*
X159526303Y-98013040D01*
X159735040Y-97804303D01*
X159899043Y-97558854D01*
X160012011Y-97286126D01*
X160069601Y-96996600D01*
X160069601Y-96701402D01*
X160012011Y-96411876D01*
X159899043Y-96139148D01*
X159735040Y-95893699D01*
X159526303Y-95684962D01*
X159367720Y-95579001D01*
X159526303Y-95473040D01*
X159735040Y-95264303D01*
X159899043Y-95018854D01*
X160012011Y-94746126D01*
X160069601Y-94456600D01*
X160069601Y-94161402D01*
X160012011Y-93871876D01*
X159899043Y-93599148D01*
X159735040Y-93353699D01*
X159526303Y-93144962D01*
X159280854Y-92980959D01*
X159008126Y-92867991D01*
X158718600Y-92810401D01*
X158423402Y-92810401D01*
X158133876Y-92867991D01*
X157861148Y-92980959D01*
X157615699Y-93144962D01*
X157406962Y-93353699D01*
X157301001Y-93512282D01*
X157195040Y-93353699D01*
X156986303Y-93144962D01*
X156740854Y-92980959D01*
X156468126Y-92867991D01*
X156178600Y-92810401D01*
X155883402Y-92810401D01*
X155593876Y-92867991D01*
X155321148Y-92980959D01*
X155075699Y-93144962D01*
X154866962Y-93353699D01*
X154702959Y-93599148D01*
X154589991Y-93871876D01*
X154532401Y-94161402D01*
X131316000Y-94161402D01*
X131316000Y-87302801D01*
X134250919Y-84367883D01*
X134284815Y-84409185D01*
X134381506Y-84488537D01*
X134491820Y-84547502D01*
X134611518Y-84583812D01*
X134736000Y-84596072D01*
X136536000Y-84596072D01*
X136660482Y-84583812D01*
X136780180Y-84547502D01*
X136890494Y-84488537D01*
X136987185Y-84409185D01*
X137066537Y-84312494D01*
X137125502Y-84202180D01*
X137131056Y-84183873D01*
X137197495Y-84250312D01*
X137448905Y-84418299D01*
X137728257Y-84534011D01*
X138024816Y-84593000D01*
X138327184Y-84593000D01*
X138623743Y-84534011D01*
X138903095Y-84418299D01*
X139154505Y-84250312D01*
X139368312Y-84036505D01*
X139446000Y-83920237D01*
X139523688Y-84036505D01*
X139737495Y-84250312D01*
X139988905Y-84418299D01*
X140268257Y-84534011D01*
X140564816Y-84593000D01*
X140867184Y-84593000D01*
X141124930Y-84541731D01*
X148026201Y-91443003D01*
X148049999Y-91472001D01*
X148078997Y-91495799D01*
X148165724Y-91566974D01*
X148297753Y-91637546D01*
X148441014Y-91681003D01*
X148590000Y-91695677D01*
X148627333Y-91692000D01*
X149149957Y-91692000D01*
X149253363Y-91846759D01*
X149453241Y-92046637D01*
X149688273Y-92203680D01*
X149949426Y-92311853D01*
X150226665Y-92367000D01*
X150509335Y-92367000D01*
X150786574Y-92311853D01*
X151047727Y-92203680D01*
X151282759Y-92046637D01*
X151482637Y-91846759D01*
X151639680Y-91611727D01*
X151747853Y-91350574D01*
X151803000Y-91073335D01*
X151803000Y-90790665D01*
X151747853Y-90513426D01*
X151639680Y-90252273D01*
X151482637Y-90017241D01*
X151282759Y-89817363D01*
X151047727Y-89660320D01*
X150786574Y-89552147D01*
X150509335Y-89497000D01*
X150226665Y-89497000D01*
X149949426Y-89552147D01*
X149688273Y-89660320D01*
X149453241Y-89817363D01*
X149253363Y-90017241D01*
X149149957Y-90172000D01*
X148904802Y-90172000D01*
X147741675Y-89008873D01*
X156209001Y-89008873D01*
X156209001Y-89449129D01*
X156294891Y-89880926D01*
X156463370Y-90287670D01*
X156707963Y-90653730D01*
X157019272Y-90965039D01*
X157385332Y-91209632D01*
X157792076Y-91378111D01*
X158223873Y-91464001D01*
X158664129Y-91464001D01*
X159095926Y-91378111D01*
X159502670Y-91209632D01*
X159868730Y-90965039D01*
X160180039Y-90653730D01*
X160424632Y-90287670D01*
X160593111Y-89880926D01*
X160679001Y-89449129D01*
X160679001Y-89008873D01*
X160593111Y-88577076D01*
X160424632Y-88170332D01*
X160180039Y-87804272D01*
X159868730Y-87492963D01*
X159502670Y-87248370D01*
X159095926Y-87079891D01*
X158664129Y-86994001D01*
X158223873Y-86994001D01*
X157792076Y-87079891D01*
X157385332Y-87248370D01*
X157019272Y-87492963D01*
X156707963Y-87804272D01*
X156463370Y-88170332D01*
X156294891Y-88577076D01*
X156209001Y-89008873D01*
X147741675Y-89008873D01*
X142199731Y-83466930D01*
X142251000Y-83209184D01*
X142251000Y-82906816D01*
X142192011Y-82610257D01*
X142076299Y-82330905D01*
X141908312Y-82079495D01*
X141694505Y-81865688D01*
X141443095Y-81697701D01*
X141163743Y-81581989D01*
X140867184Y-81523000D01*
X140564816Y-81523000D01*
X140268257Y-81581989D01*
X139988905Y-81697701D01*
X139835999Y-81799870D01*
X139835999Y-81710802D01*
X141030802Y-80516000D01*
X166329199Y-80516000D01*
X166892706Y-81079508D01*
X166878866Y-81090866D01*
X166693294Y-81316986D01*
X166555401Y-81574966D01*
X166470487Y-81854889D01*
X166449000Y-82073050D01*
X166449000Y-82518949D01*
X166470487Y-82737110D01*
X166555401Y-83017033D01*
X166693294Y-83275013D01*
X166878866Y-83501134D01*
X167104986Y-83686706D01*
X167362966Y-83824599D01*
X167642889Y-83909513D01*
X167934000Y-83938185D01*
X168225110Y-83909513D01*
X168505033Y-83824599D01*
X168763013Y-83686706D01*
X168983945Y-83505392D01*
X168994498Y-83540180D01*
X169053463Y-83650494D01*
X169132815Y-83747185D01*
X169229506Y-83826537D01*
X169339820Y-83885502D01*
X169459518Y-83921812D01*
X169584000Y-83934072D01*
X170148250Y-83931000D01*
X170307000Y-83772250D01*
X170307000Y-82423000D01*
X170561000Y-82423000D01*
X170561000Y-83772250D01*
X170719750Y-83931000D01*
X171284000Y-83934072D01*
X171408482Y-83921812D01*
X171528180Y-83885502D01*
X171638494Y-83826537D01*
X171735185Y-83747185D01*
X171814537Y-83650494D01*
X171873502Y-83540180D01*
X171909812Y-83420482D01*
X171922072Y-83296000D01*
X171919000Y-82581750D01*
X171760250Y-82423000D01*
X170561000Y-82423000D01*
X170307000Y-82423000D01*
X170287000Y-82423000D01*
X170287000Y-82169000D01*
X170307000Y-82169000D01*
X170307000Y-80819750D01*
X170561000Y-80819750D01*
X170561000Y-82169000D01*
X171760250Y-82169000D01*
X171919000Y-82010250D01*
X171922072Y-81296000D01*
X171909812Y-81171518D01*
X171873502Y-81051820D01*
X171814537Y-80941506D01*
X171735185Y-80844815D01*
X171638494Y-80765463D01*
X171528180Y-80706498D01*
X171408482Y-80670188D01*
X171284000Y-80657928D01*
X170719750Y-80661000D01*
X170561000Y-80819750D01*
X170307000Y-80819750D01*
X170148250Y-80661000D01*
X169584000Y-80657928D01*
X169459518Y-80670188D01*
X169339820Y-80706498D01*
X169229506Y-80765463D01*
X169132815Y-80844815D01*
X169053463Y-80941506D01*
X168994498Y-81051820D01*
X168983945Y-81086608D01*
X168763014Y-80905294D01*
X168670517Y-80855854D01*
X168639546Y-80753753D01*
X168568974Y-80621724D01*
X168515238Y-80556246D01*
X168497799Y-80534996D01*
X168497795Y-80534992D01*
X168474001Y-80505999D01*
X168445009Y-80482206D01*
X167207803Y-79245002D01*
X167184001Y-79215999D01*
X167068276Y-79121026D01*
X166936247Y-79050454D01*
X166792986Y-79006997D01*
X166681333Y-78996000D01*
X166681322Y-78996000D01*
X166644000Y-78992324D01*
X166606678Y-78996000D01*
X140753325Y-78996000D01*
X140716000Y-78992324D01*
X140678675Y-78996000D01*
X140678667Y-78996000D01*
X140567014Y-79006997D01*
X140423753Y-79050454D01*
X140291724Y-79121026D01*
X140175999Y-79215999D01*
X140152201Y-79244997D01*
X138564997Y-80832202D01*
X138535999Y-80856000D01*
X138512201Y-80884998D01*
X138512200Y-80884999D01*
X138441025Y-80971725D01*
X138370453Y-81103755D01*
X138355316Y-81153657D01*
X138326996Y-81247015D01*
X138315999Y-81358668D01*
X138315999Y-81358679D01*
X138312323Y-81396001D01*
X138315999Y-81433323D01*
X138315999Y-81523000D01*
X138024816Y-81523000D01*
X137728257Y-81581989D01*
X137448905Y-81697701D01*
X137197495Y-81865688D01*
X137131056Y-81932127D01*
X137125502Y-81913820D01*
X137066537Y-81803506D01*
X136987185Y-81706815D01*
X136890494Y-81627463D01*
X136780180Y-81568498D01*
X136660482Y-81532188D01*
X136536000Y-81519928D01*
X134736000Y-81519928D01*
X134611518Y-81532188D01*
X134491820Y-81568498D01*
X134381506Y-81627463D01*
X134284815Y-81706815D01*
X134205463Y-81803506D01*
X134146498Y-81913820D01*
X134110188Y-82033518D01*
X134097928Y-82158000D01*
X134097928Y-82403674D01*
X134061724Y-82423026D01*
X133945999Y-82517999D01*
X133922201Y-82546997D01*
X130997000Y-85472198D01*
X130103804Y-84579002D01*
X130080001Y-84549999D01*
X130051003Y-84526201D01*
X126112688Y-80587887D01*
X126149000Y-80405335D01*
X126149000Y-80122665D01*
X126093853Y-79845426D01*
X125985680Y-79584273D01*
X125828637Y-79349241D01*
X125628759Y-79149363D01*
X125393727Y-78992320D01*
X125132574Y-78884147D01*
X124855335Y-78829000D01*
X124572665Y-78829000D01*
X124295426Y-78884147D01*
X124034273Y-78992320D01*
X123799241Y-79149363D01*
X123599363Y-79349241D01*
X123442320Y-79584273D01*
X123334147Y-79845426D01*
X123279000Y-80122665D01*
X115989000Y-80122665D01*
X115933853Y-79845426D01*
X115825680Y-79584273D01*
X115668637Y-79349241D01*
X115468759Y-79149363D01*
X115233727Y-78992320D01*
X114972574Y-78884147D01*
X114695335Y-78829000D01*
X114412665Y-78829000D01*
X114135426Y-78884147D01*
X113874273Y-78992320D01*
X113639241Y-79149363D01*
X113439363Y-79349241D01*
X113282320Y-79584273D01*
X113174147Y-79845426D01*
X113119000Y-80122665D01*
X104978206Y-80122665D01*
X104955502Y-80047820D01*
X104896537Y-79937506D01*
X104817185Y-79840815D01*
X104720494Y-79761463D01*
X104610180Y-79702498D01*
X104490482Y-79666188D01*
X104366000Y-79653928D01*
X102901750Y-79657000D01*
X102743000Y-79815750D01*
X102489000Y-79815750D01*
X102330250Y-79657000D01*
X100866000Y-79653928D01*
X100741518Y-79666188D01*
X100621820Y-79702498D01*
X100511506Y-79761463D01*
X100414815Y-79840815D01*
X100335463Y-79937506D01*
X100276498Y-80047820D01*
X100240188Y-80167518D01*
X100227928Y-80292000D01*
X98531457Y-80292000D01*
X98520140Y-80270829D01*
X98347515Y-80060485D01*
X98137171Y-79887860D01*
X97897192Y-79759589D01*
X97636799Y-79680599D01*
X97366000Y-79653928D01*
X95866000Y-79653928D01*
X95595201Y-79680599D01*
X95334808Y-79759589D01*
X95094829Y-79887860D01*
X94884485Y-80060485D01*
X94711860Y-80270829D01*
X94583589Y-80510808D01*
X94504599Y-80771201D01*
X94477928Y-81042000D01*
X92989000Y-81042000D01*
X92989000Y-76581000D01*
X180795394Y-76581000D01*
X183261000Y-79046606D01*
M02*
