G04 #@! TF.GenerationSoftware,KiCad,Pcbnew,5.1.5-52549c5~84~ubuntu18.04.1*
G04 #@! TF.CreationDate,2020-04-29T15:12:50+01:00*
G04 #@! TF.ProjectId,etl_driver_as_arduino_due_shield,65746c5f-6472-4697-9665-725f61735f61,rev?*
G04 #@! TF.SameCoordinates,Original*
G04 #@! TF.FileFunction,Other,User*
%FSLAX46Y46*%
G04 Gerber Fmt 4.6, Leading zero omitted, Abs format (unit mm)*
G04 Created by KiCad (PCBNEW 5.1.5-52549c5~84~ubuntu18.04.1) date 2020-04-29 15:12:50*
%MOMM*%
%LPD*%
G04 APERTURE LIST*
%ADD10C,0.050000*%
G04 APERTURE END LIST*
D10*
X162534000Y-108646000D02*
X162534000Y-114366000D01*
X162534000Y-114366000D02*
X180874000Y-114366000D01*
X180874000Y-114366000D02*
X180874000Y-108646000D01*
X180874000Y-108646000D02*
X162534000Y-108646000D01*
X133926000Y-80808000D02*
X133926000Y-84558000D01*
X133926000Y-84558000D02*
X142426000Y-84558000D01*
X142426000Y-84558000D02*
X142426000Y-80808000D01*
X142426000Y-80808000D02*
X133926000Y-80808000D01*
X154974000Y-113006000D02*
X154974000Y-110006000D01*
X154974000Y-110006000D02*
X142714000Y-110006000D01*
X142714000Y-110006000D02*
X142714000Y-113006000D01*
X142714000Y-113006000D02*
X154974000Y-113006000D01*
X151868000Y-102142000D02*
X151868000Y-89882000D01*
X148868000Y-102142000D02*
X151868000Y-102142000D01*
X148868000Y-89882000D02*
X148868000Y-102142000D01*
X151868000Y-89882000D02*
X148868000Y-89882000D01*
X125764000Y-86590000D02*
X125764000Y-83590000D01*
X125764000Y-83590000D02*
X113504000Y-83590000D01*
X113504000Y-83590000D02*
X113504000Y-86590000D01*
X113504000Y-86590000D02*
X125764000Y-86590000D01*
X113504000Y-81764000D02*
X125764000Y-81764000D01*
X113504000Y-78764000D02*
X113504000Y-81764000D01*
X125764000Y-78764000D02*
X113504000Y-78764000D01*
X125764000Y-81764000D02*
X125764000Y-78764000D01*
X140114000Y-110056000D02*
X129764000Y-110056000D01*
X129764000Y-110056000D02*
X129764000Y-116756000D01*
X129764000Y-116756000D02*
X140114000Y-116756000D01*
X140114000Y-116756000D02*
X140114000Y-110056000D01*
X133578000Y-94412000D02*
X133578000Y-105212000D01*
X133578000Y-105212000D02*
X144278000Y-105212000D01*
X144278000Y-105212000D02*
X144278000Y-94412000D01*
X144278000Y-94412000D02*
X133578000Y-94412000D01*
X103616000Y-77542000D02*
X103616000Y-77292000D01*
X103616000Y-77292000D02*
X88616000Y-77292000D01*
X103616000Y-77542000D02*
X103616000Y-80042000D01*
X103616000Y-80042000D02*
X104616000Y-80042000D01*
X104616000Y-80042000D02*
X104616000Y-84042000D01*
X104616000Y-84042000D02*
X103616000Y-84042000D01*
X103616000Y-84042000D02*
X103616000Y-86792000D01*
X103616000Y-86792000D02*
X101616000Y-86792000D01*
X101616000Y-86792000D02*
X101616000Y-88792000D01*
X101616000Y-88792000D02*
X97616000Y-88792000D01*
X97616000Y-88792000D02*
X97616000Y-86792000D01*
X97616000Y-86792000D02*
X88616000Y-86792000D01*
X88616000Y-86792000D02*
X88616000Y-77292000D01*
X173384000Y-85146000D02*
X173384000Y-78396000D01*
X173384000Y-78396000D02*
X164984000Y-78396000D01*
X164984000Y-78396000D02*
X164984000Y-85146000D01*
X164984000Y-85146000D02*
X173384000Y-85146000D01*
M02*
