G04 #@! TF.GenerationSoftware,KiCad,Pcbnew,5.1.5-52549c5~84~ubuntu18.04.1*
G04 #@! TF.CreationDate,2020-04-29T15:12:50+01:00*
G04 #@! TF.ProjectId,etl_driver_as_arduino_due_shield,65746c5f-6472-4697-9665-725f61735f61,rev?*
G04 #@! TF.SameCoordinates,Original*
G04 #@! TF.FileFunction,Copper,L2,Bot*
G04 #@! TF.FilePolarity,Positive*
%FSLAX46Y46*%
G04 Gerber Fmt 4.6, Leading zero omitted, Abs format (unit mm)*
G04 Created by KiCad (PCBNEW 5.1.5-52549c5~84~ubuntu18.04.1) date 2020-04-29 15:12:50*
%MOMM*%
%LPD*%
G04 APERTURE LIST*
%ADD10O,1.727200X1.727200*%
%ADD11R,2.600000X2.600000*%
%ADD12O,2.600000X2.600000*%
%ADD13R,1.800000X1.800000*%
%ADD14O,1.800000X1.800000*%
%ADD15C,1.600000*%
%ADD16O,1.600000X1.600000*%
%ADD17C,2.340000*%
%ADD18R,1.600000X1.600000*%
%ADD19R,3.500000X3.500000*%
%ADD20C,0.100000*%
%ADD21O,1.700000X2.000000*%
%ADD22C,0.254000*%
G04 APERTURE END LIST*
D10*
X156031001Y-99389001D03*
X158571001Y-99389001D03*
X158571001Y-96849001D03*
X156031001Y-96849001D03*
X158571001Y-94309001D03*
X143204001Y-122249001D03*
X138124001Y-122249001D03*
X135584001Y-122249001D03*
X133044001Y-122249001D03*
X130504001Y-122249001D03*
X127964001Y-122249001D03*
X125424001Y-122249001D03*
X122884001Y-122249001D03*
X178764001Y-73989001D03*
X176224001Y-73989001D03*
X173684001Y-73989001D03*
X171144001Y-73989001D03*
X168604001Y-73989001D03*
X166064001Y-73989001D03*
X163524001Y-73989001D03*
X160984001Y-73989001D03*
X155904001Y-73989001D03*
X153364001Y-73989001D03*
X150824001Y-73989001D03*
X148284001Y-73989001D03*
X145744001Y-73989001D03*
X143204001Y-73989001D03*
X140664001Y-73989001D03*
X138124001Y-73989001D03*
X118820001Y-73989001D03*
X134060001Y-73989001D03*
X131520001Y-73989001D03*
X128980001Y-73989001D03*
X111200001Y-73989001D03*
X113740001Y-73989001D03*
X116280001Y-73989001D03*
X121360001Y-73989001D03*
X123900001Y-73989001D03*
X126440001Y-73989001D03*
X120344001Y-122249001D03*
X145744001Y-122249001D03*
X148284001Y-122249001D03*
X150824001Y-122249001D03*
X153364001Y-122249001D03*
X155904001Y-122249001D03*
X158444001Y-122249001D03*
X160984001Y-122249001D03*
X166064001Y-122249001D03*
X168604001Y-122249001D03*
X171144001Y-122249001D03*
X173684001Y-122249001D03*
X176224001Y-122249001D03*
X178764001Y-122249001D03*
X181304001Y-122249001D03*
X183844001Y-122249001D03*
X186384001Y-73989001D03*
X188924001Y-73989001D03*
X186384001Y-76529001D03*
X188924001Y-76529001D03*
X186384001Y-79069001D03*
X188924001Y-79069001D03*
X186384001Y-81609001D03*
X188924001Y-81609001D03*
X186384001Y-84149001D03*
X188924001Y-84149001D03*
X186384001Y-86689001D03*
X188924001Y-86689001D03*
X186384001Y-89229001D03*
X188924001Y-89229001D03*
X186384001Y-91769001D03*
X188924001Y-91769001D03*
X186384001Y-94309001D03*
X188924001Y-94309001D03*
X186384001Y-96849001D03*
X188924001Y-96849001D03*
X186384001Y-99389001D03*
X188924001Y-99389001D03*
X186384001Y-101929001D03*
X188924001Y-101929001D03*
X186384001Y-104469001D03*
X188924001Y-104469001D03*
X186384001Y-107009001D03*
X188924001Y-107009001D03*
X186384001Y-109549001D03*
X188924001Y-109549001D03*
X186384001Y-112089001D03*
X188924001Y-112089001D03*
X186384001Y-114629001D03*
X188924001Y-114629001D03*
X186384001Y-117169001D03*
X188924001Y-117169001D03*
X156031001Y-94309001D03*
D11*
X164084000Y-111506000D03*
D12*
X179324000Y-111506000D03*
D13*
X135636000Y-83058000D03*
D14*
X138176000Y-83058000D03*
X140716000Y-83058000D03*
D15*
X153924000Y-111506000D03*
D16*
X143764000Y-111506000D03*
X150368000Y-101092000D03*
D15*
X150368000Y-90932000D03*
X124714000Y-85090000D03*
D16*
X114554000Y-85090000D03*
X114554000Y-80264000D03*
D15*
X124714000Y-80264000D03*
D17*
X132414000Y-111506000D03*
X134914000Y-115306000D03*
X137414000Y-111506000D03*
D18*
X135128000Y-96012000D03*
D16*
X142748000Y-103632000D03*
X135128000Y-98552000D03*
X142748000Y-101092000D03*
X135128000Y-101092000D03*
X142748000Y-98552000D03*
X135128000Y-103632000D03*
X142748000Y-96012000D03*
D19*
X102616000Y-82042000D03*
G04 #@! TA.AperFunction,ComponentPad*
D20*
G36*
X97439513Y-80295611D02*
G01*
X97512318Y-80306411D01*
X97583714Y-80324295D01*
X97653013Y-80349090D01*
X97719548Y-80380559D01*
X97782678Y-80418398D01*
X97841795Y-80462242D01*
X97896330Y-80511670D01*
X97945758Y-80566205D01*
X97989602Y-80625322D01*
X98027441Y-80688452D01*
X98058910Y-80754987D01*
X98083705Y-80824286D01*
X98101589Y-80895682D01*
X98112389Y-80968487D01*
X98116000Y-81042000D01*
X98116000Y-83042000D01*
X98112389Y-83115513D01*
X98101589Y-83188318D01*
X98083705Y-83259714D01*
X98058910Y-83329013D01*
X98027441Y-83395548D01*
X97989602Y-83458678D01*
X97945758Y-83517795D01*
X97896330Y-83572330D01*
X97841795Y-83621758D01*
X97782678Y-83665602D01*
X97719548Y-83703441D01*
X97653013Y-83734910D01*
X97583714Y-83759705D01*
X97512318Y-83777589D01*
X97439513Y-83788389D01*
X97366000Y-83792000D01*
X95866000Y-83792000D01*
X95792487Y-83788389D01*
X95719682Y-83777589D01*
X95648286Y-83759705D01*
X95578987Y-83734910D01*
X95512452Y-83703441D01*
X95449322Y-83665602D01*
X95390205Y-83621758D01*
X95335670Y-83572330D01*
X95286242Y-83517795D01*
X95242398Y-83458678D01*
X95204559Y-83395548D01*
X95173090Y-83329013D01*
X95148295Y-83259714D01*
X95130411Y-83188318D01*
X95119611Y-83115513D01*
X95116000Y-83042000D01*
X95116000Y-81042000D01*
X95119611Y-80968487D01*
X95130411Y-80895682D01*
X95148295Y-80824286D01*
X95173090Y-80754987D01*
X95204559Y-80688452D01*
X95242398Y-80625322D01*
X95286242Y-80566205D01*
X95335670Y-80511670D01*
X95390205Y-80462242D01*
X95449322Y-80418398D01*
X95512452Y-80380559D01*
X95578987Y-80349090D01*
X95648286Y-80324295D01*
X95719682Y-80306411D01*
X95792487Y-80295611D01*
X95866000Y-80292000D01*
X97366000Y-80292000D01*
X97439513Y-80295611D01*
G37*
G04 #@! TD.AperFunction*
G04 #@! TA.AperFunction,ComponentPad*
G36*
X100576765Y-84996213D02*
G01*
X100661704Y-85008813D01*
X100744999Y-85029677D01*
X100825848Y-85058605D01*
X100903472Y-85095319D01*
X100977124Y-85139464D01*
X101046094Y-85190616D01*
X101109718Y-85248282D01*
X101167384Y-85311906D01*
X101218536Y-85380876D01*
X101262681Y-85454528D01*
X101299395Y-85532152D01*
X101328323Y-85613001D01*
X101349187Y-85696296D01*
X101361787Y-85781235D01*
X101366000Y-85867000D01*
X101366000Y-87617000D01*
X101361787Y-87702765D01*
X101349187Y-87787704D01*
X101328323Y-87870999D01*
X101299395Y-87951848D01*
X101262681Y-88029472D01*
X101218536Y-88103124D01*
X101167384Y-88172094D01*
X101109718Y-88235718D01*
X101046094Y-88293384D01*
X100977124Y-88344536D01*
X100903472Y-88388681D01*
X100825848Y-88425395D01*
X100744999Y-88454323D01*
X100661704Y-88475187D01*
X100576765Y-88487787D01*
X100491000Y-88492000D01*
X98741000Y-88492000D01*
X98655235Y-88487787D01*
X98570296Y-88475187D01*
X98487001Y-88454323D01*
X98406152Y-88425395D01*
X98328528Y-88388681D01*
X98254876Y-88344536D01*
X98185906Y-88293384D01*
X98122282Y-88235718D01*
X98064616Y-88172094D01*
X98013464Y-88103124D01*
X97969319Y-88029472D01*
X97932605Y-87951848D01*
X97903677Y-87870999D01*
X97882813Y-87787704D01*
X97870213Y-87702765D01*
X97866000Y-87617000D01*
X97866000Y-85867000D01*
X97870213Y-85781235D01*
X97882813Y-85696296D01*
X97903677Y-85613001D01*
X97932605Y-85532152D01*
X97969319Y-85454528D01*
X98013464Y-85380876D01*
X98064616Y-85311906D01*
X98122282Y-85248282D01*
X98185906Y-85190616D01*
X98254876Y-85139464D01*
X98328528Y-85095319D01*
X98406152Y-85058605D01*
X98487001Y-85029677D01*
X98570296Y-85008813D01*
X98655235Y-84996213D01*
X98741000Y-84992000D01*
X100491000Y-84992000D01*
X100576765Y-84996213D01*
G37*
G04 #@! TD.AperFunction*
G04 #@! TA.AperFunction,ComponentPad*
G36*
X171058504Y-81297204D02*
G01*
X171082773Y-81300804D01*
X171106571Y-81306765D01*
X171129671Y-81315030D01*
X171151849Y-81325520D01*
X171172893Y-81338133D01*
X171192598Y-81352747D01*
X171210777Y-81369223D01*
X171227253Y-81387402D01*
X171241867Y-81407107D01*
X171254480Y-81428151D01*
X171264970Y-81450329D01*
X171273235Y-81473429D01*
X171279196Y-81497227D01*
X171282796Y-81521496D01*
X171284000Y-81546000D01*
X171284000Y-83046000D01*
X171282796Y-83070504D01*
X171279196Y-83094773D01*
X171273235Y-83118571D01*
X171264970Y-83141671D01*
X171254480Y-83163849D01*
X171241867Y-83184893D01*
X171227253Y-83204598D01*
X171210777Y-83222777D01*
X171192598Y-83239253D01*
X171172893Y-83253867D01*
X171151849Y-83266480D01*
X171129671Y-83276970D01*
X171106571Y-83285235D01*
X171082773Y-83291196D01*
X171058504Y-83294796D01*
X171034000Y-83296000D01*
X169834000Y-83296000D01*
X169809496Y-83294796D01*
X169785227Y-83291196D01*
X169761429Y-83285235D01*
X169738329Y-83276970D01*
X169716151Y-83266480D01*
X169695107Y-83253867D01*
X169675402Y-83239253D01*
X169657223Y-83222777D01*
X169640747Y-83204598D01*
X169626133Y-83184893D01*
X169613520Y-83163849D01*
X169603030Y-83141671D01*
X169594765Y-83118571D01*
X169588804Y-83094773D01*
X169585204Y-83070504D01*
X169584000Y-83046000D01*
X169584000Y-81546000D01*
X169585204Y-81521496D01*
X169588804Y-81497227D01*
X169594765Y-81473429D01*
X169603030Y-81450329D01*
X169613520Y-81428151D01*
X169626133Y-81407107D01*
X169640747Y-81387402D01*
X169657223Y-81369223D01*
X169675402Y-81352747D01*
X169695107Y-81338133D01*
X169716151Y-81325520D01*
X169738329Y-81315030D01*
X169761429Y-81306765D01*
X169785227Y-81300804D01*
X169809496Y-81297204D01*
X169834000Y-81296000D01*
X171034000Y-81296000D01*
X171058504Y-81297204D01*
G37*
G04 #@! TD.AperFunction*
D21*
X167934000Y-82296000D03*
D22*
G36*
X106219272Y-72252963D02*
G01*
X105907963Y-72564272D01*
X105663370Y-72930332D01*
X105494891Y-73337076D01*
X105409001Y-73768873D01*
X105409001Y-74209129D01*
X105494891Y-74640926D01*
X105663370Y-75047670D01*
X105907963Y-75413730D01*
X106219272Y-75725039D01*
X106585332Y-75969632D01*
X106992076Y-76138111D01*
X107423873Y-76224001D01*
X107864129Y-76224001D01*
X108295926Y-76138111D01*
X108702670Y-75969632D01*
X109068730Y-75725039D01*
X109380039Y-75413730D01*
X109624632Y-75047670D01*
X109793111Y-74640926D01*
X109810907Y-74551461D01*
X109871959Y-74698854D01*
X110035962Y-74944303D01*
X110244699Y-75153040D01*
X110490148Y-75317043D01*
X110762876Y-75430011D01*
X111052402Y-75487601D01*
X111347600Y-75487601D01*
X111637126Y-75430011D01*
X111909854Y-75317043D01*
X112155303Y-75153040D01*
X112364040Y-74944303D01*
X112470001Y-74785720D01*
X112575962Y-74944303D01*
X112784699Y-75153040D01*
X113030148Y-75317043D01*
X113302876Y-75430011D01*
X113592402Y-75487601D01*
X113887600Y-75487601D01*
X114177126Y-75430011D01*
X114449854Y-75317043D01*
X114695303Y-75153040D01*
X114904040Y-74944303D01*
X115010001Y-74785720D01*
X115115962Y-74944303D01*
X115324699Y-75153040D01*
X115570148Y-75317043D01*
X115842876Y-75430011D01*
X116132402Y-75487601D01*
X116427600Y-75487601D01*
X116717126Y-75430011D01*
X116989854Y-75317043D01*
X117235303Y-75153040D01*
X117444040Y-74944303D01*
X117551693Y-74783188D01*
X117713147Y-74999294D01*
X117931513Y-75195818D01*
X118184023Y-75345965D01*
X118460974Y-75443964D01*
X118693001Y-75323465D01*
X118693001Y-74116001D01*
X118673001Y-74116001D01*
X118673001Y-73862001D01*
X118693001Y-73862001D01*
X118693001Y-72654537D01*
X118947001Y-72654537D01*
X118947001Y-73862001D01*
X118967001Y-73862001D01*
X118967001Y-74116001D01*
X118947001Y-74116001D01*
X118947001Y-75323465D01*
X119179028Y-75443964D01*
X119455979Y-75345965D01*
X119708489Y-75195818D01*
X119926855Y-74999294D01*
X120088309Y-74783188D01*
X120195962Y-74944303D01*
X120404699Y-75153040D01*
X120650148Y-75317043D01*
X120922876Y-75430011D01*
X121212402Y-75487601D01*
X121507600Y-75487601D01*
X121797126Y-75430011D01*
X122069854Y-75317043D01*
X122315303Y-75153040D01*
X122524040Y-74944303D01*
X122630001Y-74785720D01*
X122735962Y-74944303D01*
X122944699Y-75153040D01*
X123190148Y-75317043D01*
X123462876Y-75430011D01*
X123752402Y-75487601D01*
X124047600Y-75487601D01*
X124337126Y-75430011D01*
X124609854Y-75317043D01*
X124855303Y-75153040D01*
X125064040Y-74944303D01*
X125170001Y-74785720D01*
X125275962Y-74944303D01*
X125484699Y-75153040D01*
X125730148Y-75317043D01*
X126002876Y-75430011D01*
X126292402Y-75487601D01*
X126587600Y-75487601D01*
X126877126Y-75430011D01*
X127149854Y-75317043D01*
X127395303Y-75153040D01*
X127604040Y-74944303D01*
X127710001Y-74785720D01*
X127815962Y-74944303D01*
X128024699Y-75153040D01*
X128270148Y-75317043D01*
X128542876Y-75430011D01*
X128832402Y-75487601D01*
X129127600Y-75487601D01*
X129417126Y-75430011D01*
X129689854Y-75317043D01*
X129935303Y-75153040D01*
X130144040Y-74944303D01*
X130250001Y-74785720D01*
X130355962Y-74944303D01*
X130564699Y-75153040D01*
X130810148Y-75317043D01*
X131082876Y-75430011D01*
X131372402Y-75487601D01*
X131667600Y-75487601D01*
X131957126Y-75430011D01*
X132229854Y-75317043D01*
X132475303Y-75153040D01*
X132684040Y-74944303D01*
X132790001Y-74785720D01*
X132895962Y-74944303D01*
X133104699Y-75153040D01*
X133350148Y-75317043D01*
X133622876Y-75430011D01*
X133912402Y-75487601D01*
X134207600Y-75487601D01*
X134497126Y-75430011D01*
X134769854Y-75317043D01*
X135015303Y-75153040D01*
X135224040Y-74944303D01*
X135388043Y-74698854D01*
X135501011Y-74426126D01*
X135558601Y-74136600D01*
X135558601Y-73841402D01*
X136625401Y-73841402D01*
X136625401Y-74136600D01*
X136682991Y-74426126D01*
X136795959Y-74698854D01*
X136959962Y-74944303D01*
X137168699Y-75153040D01*
X137414148Y-75317043D01*
X137686876Y-75430011D01*
X137976402Y-75487601D01*
X138271600Y-75487601D01*
X138561126Y-75430011D01*
X138833854Y-75317043D01*
X139079303Y-75153040D01*
X139288040Y-74944303D01*
X139394001Y-74785720D01*
X139499962Y-74944303D01*
X139708699Y-75153040D01*
X139954148Y-75317043D01*
X140226876Y-75430011D01*
X140516402Y-75487601D01*
X140811600Y-75487601D01*
X141101126Y-75430011D01*
X141373854Y-75317043D01*
X141619303Y-75153040D01*
X141828040Y-74944303D01*
X141934001Y-74785720D01*
X142039962Y-74944303D01*
X142248699Y-75153040D01*
X142494148Y-75317043D01*
X142766876Y-75430011D01*
X143056402Y-75487601D01*
X143351600Y-75487601D01*
X143641126Y-75430011D01*
X143913854Y-75317043D01*
X144159303Y-75153040D01*
X144368040Y-74944303D01*
X144474001Y-74785720D01*
X144579962Y-74944303D01*
X144788699Y-75153040D01*
X145034148Y-75317043D01*
X145306876Y-75430011D01*
X145596402Y-75487601D01*
X145891600Y-75487601D01*
X146181126Y-75430011D01*
X146453854Y-75317043D01*
X146699303Y-75153040D01*
X146908040Y-74944303D01*
X147014001Y-74785720D01*
X147119962Y-74944303D01*
X147328699Y-75153040D01*
X147574148Y-75317043D01*
X147846876Y-75430011D01*
X148136402Y-75487601D01*
X148431600Y-75487601D01*
X148721126Y-75430011D01*
X148993854Y-75317043D01*
X149239303Y-75153040D01*
X149448040Y-74944303D01*
X149554001Y-74785720D01*
X149659962Y-74944303D01*
X149868699Y-75153040D01*
X150114148Y-75317043D01*
X150386876Y-75430011D01*
X150676402Y-75487601D01*
X150971600Y-75487601D01*
X151261126Y-75430011D01*
X151533854Y-75317043D01*
X151779303Y-75153040D01*
X151988040Y-74944303D01*
X152094001Y-74785720D01*
X152199962Y-74944303D01*
X152408699Y-75153040D01*
X152654148Y-75317043D01*
X152926876Y-75430011D01*
X153216402Y-75487601D01*
X153511600Y-75487601D01*
X153801126Y-75430011D01*
X154073854Y-75317043D01*
X154319303Y-75153040D01*
X154528040Y-74944303D01*
X154634001Y-74785720D01*
X154739962Y-74944303D01*
X154948699Y-75153040D01*
X155194148Y-75317043D01*
X155466876Y-75430011D01*
X155756402Y-75487601D01*
X156051600Y-75487601D01*
X156341126Y-75430011D01*
X156613854Y-75317043D01*
X156859303Y-75153040D01*
X157068040Y-74944303D01*
X157232043Y-74698854D01*
X157345011Y-74426126D01*
X157402601Y-74136600D01*
X157402601Y-73841402D01*
X159485401Y-73841402D01*
X159485401Y-74136600D01*
X159542991Y-74426126D01*
X159655959Y-74698854D01*
X159819962Y-74944303D01*
X160028699Y-75153040D01*
X160274148Y-75317043D01*
X160546876Y-75430011D01*
X160836402Y-75487601D01*
X161131600Y-75487601D01*
X161421126Y-75430011D01*
X161693854Y-75317043D01*
X161939303Y-75153040D01*
X162148040Y-74944303D01*
X162254001Y-74785720D01*
X162359962Y-74944303D01*
X162568699Y-75153040D01*
X162814148Y-75317043D01*
X163086876Y-75430011D01*
X163376402Y-75487601D01*
X163671600Y-75487601D01*
X163961126Y-75430011D01*
X164233854Y-75317043D01*
X164479303Y-75153040D01*
X164688040Y-74944303D01*
X164794001Y-74785720D01*
X164899962Y-74944303D01*
X165108699Y-75153040D01*
X165354148Y-75317043D01*
X165626876Y-75430011D01*
X165916402Y-75487601D01*
X166211600Y-75487601D01*
X166501126Y-75430011D01*
X166773854Y-75317043D01*
X167019303Y-75153040D01*
X167228040Y-74944303D01*
X167334001Y-74785720D01*
X167439962Y-74944303D01*
X167648699Y-75153040D01*
X167894148Y-75317043D01*
X168166876Y-75430011D01*
X168456402Y-75487601D01*
X168751600Y-75487601D01*
X169041126Y-75430011D01*
X169313854Y-75317043D01*
X169559303Y-75153040D01*
X169768040Y-74944303D01*
X169874001Y-74785720D01*
X169979962Y-74944303D01*
X170188699Y-75153040D01*
X170434148Y-75317043D01*
X170706876Y-75430011D01*
X170996402Y-75487601D01*
X171291600Y-75487601D01*
X171581126Y-75430011D01*
X171853854Y-75317043D01*
X172099303Y-75153040D01*
X172308040Y-74944303D01*
X172414001Y-74785720D01*
X172519962Y-74944303D01*
X172728699Y-75153040D01*
X172974148Y-75317043D01*
X173246876Y-75430011D01*
X173536402Y-75487601D01*
X173831600Y-75487601D01*
X174121126Y-75430011D01*
X174393854Y-75317043D01*
X174639303Y-75153040D01*
X174848040Y-74944303D01*
X174954001Y-74785720D01*
X175059962Y-74944303D01*
X175268699Y-75153040D01*
X175514148Y-75317043D01*
X175786876Y-75430011D01*
X176076402Y-75487601D01*
X176371600Y-75487601D01*
X176661126Y-75430011D01*
X176933854Y-75317043D01*
X177179303Y-75153040D01*
X177388040Y-74944303D01*
X177494001Y-74785720D01*
X177599962Y-74944303D01*
X177808699Y-75153040D01*
X178054148Y-75317043D01*
X178326876Y-75430011D01*
X178616402Y-75487601D01*
X178911600Y-75487601D01*
X179201126Y-75430011D01*
X179473854Y-75317043D01*
X179719303Y-75153040D01*
X179928040Y-74944303D01*
X180092043Y-74698854D01*
X180205011Y-74426126D01*
X180262601Y-74136600D01*
X180262601Y-73841402D01*
X180205011Y-73551876D01*
X180092043Y-73279148D01*
X179928040Y-73033699D01*
X179719303Y-72824962D01*
X179473854Y-72660959D01*
X179201126Y-72547991D01*
X178911600Y-72490401D01*
X178616402Y-72490401D01*
X178326876Y-72547991D01*
X178054148Y-72660959D01*
X177808699Y-72824962D01*
X177599962Y-73033699D01*
X177494001Y-73192282D01*
X177388040Y-73033699D01*
X177179303Y-72824962D01*
X176933854Y-72660959D01*
X176661126Y-72547991D01*
X176371600Y-72490401D01*
X176076402Y-72490401D01*
X175786876Y-72547991D01*
X175514148Y-72660959D01*
X175268699Y-72824962D01*
X175059962Y-73033699D01*
X174954001Y-73192282D01*
X174848040Y-73033699D01*
X174639303Y-72824962D01*
X174393854Y-72660959D01*
X174121126Y-72547991D01*
X173831600Y-72490401D01*
X173536402Y-72490401D01*
X173246876Y-72547991D01*
X172974148Y-72660959D01*
X172728699Y-72824962D01*
X172519962Y-73033699D01*
X172414001Y-73192282D01*
X172308040Y-73033699D01*
X172099303Y-72824962D01*
X171853854Y-72660959D01*
X171581126Y-72547991D01*
X171291600Y-72490401D01*
X170996402Y-72490401D01*
X170706876Y-72547991D01*
X170434148Y-72660959D01*
X170188699Y-72824962D01*
X169979962Y-73033699D01*
X169874001Y-73192282D01*
X169768040Y-73033699D01*
X169559303Y-72824962D01*
X169313854Y-72660959D01*
X169041126Y-72547991D01*
X168751600Y-72490401D01*
X168456402Y-72490401D01*
X168166876Y-72547991D01*
X167894148Y-72660959D01*
X167648699Y-72824962D01*
X167439962Y-73033699D01*
X167334001Y-73192282D01*
X167228040Y-73033699D01*
X167019303Y-72824962D01*
X166773854Y-72660959D01*
X166501126Y-72547991D01*
X166211600Y-72490401D01*
X165916402Y-72490401D01*
X165626876Y-72547991D01*
X165354148Y-72660959D01*
X165108699Y-72824962D01*
X164899962Y-73033699D01*
X164794001Y-73192282D01*
X164688040Y-73033699D01*
X164479303Y-72824962D01*
X164233854Y-72660959D01*
X163961126Y-72547991D01*
X163671600Y-72490401D01*
X163376402Y-72490401D01*
X163086876Y-72547991D01*
X162814148Y-72660959D01*
X162568699Y-72824962D01*
X162359962Y-73033699D01*
X162254001Y-73192282D01*
X162148040Y-73033699D01*
X161939303Y-72824962D01*
X161693854Y-72660959D01*
X161421126Y-72547991D01*
X161131600Y-72490401D01*
X160836402Y-72490401D01*
X160546876Y-72547991D01*
X160274148Y-72660959D01*
X160028699Y-72824962D01*
X159819962Y-73033699D01*
X159655959Y-73279148D01*
X159542991Y-73551876D01*
X159485401Y-73841402D01*
X157402601Y-73841402D01*
X157345011Y-73551876D01*
X157232043Y-73279148D01*
X157068040Y-73033699D01*
X156859303Y-72824962D01*
X156613854Y-72660959D01*
X156341126Y-72547991D01*
X156051600Y-72490401D01*
X155756402Y-72490401D01*
X155466876Y-72547991D01*
X155194148Y-72660959D01*
X154948699Y-72824962D01*
X154739962Y-73033699D01*
X154634001Y-73192282D01*
X154528040Y-73033699D01*
X154319303Y-72824962D01*
X154073854Y-72660959D01*
X153801126Y-72547991D01*
X153511600Y-72490401D01*
X153216402Y-72490401D01*
X152926876Y-72547991D01*
X152654148Y-72660959D01*
X152408699Y-72824962D01*
X152199962Y-73033699D01*
X152094001Y-73192282D01*
X151988040Y-73033699D01*
X151779303Y-72824962D01*
X151533854Y-72660959D01*
X151261126Y-72547991D01*
X150971600Y-72490401D01*
X150676402Y-72490401D01*
X150386876Y-72547991D01*
X150114148Y-72660959D01*
X149868699Y-72824962D01*
X149659962Y-73033699D01*
X149554001Y-73192282D01*
X149448040Y-73033699D01*
X149239303Y-72824962D01*
X148993854Y-72660959D01*
X148721126Y-72547991D01*
X148431600Y-72490401D01*
X148136402Y-72490401D01*
X147846876Y-72547991D01*
X147574148Y-72660959D01*
X147328699Y-72824962D01*
X147119962Y-73033699D01*
X147014001Y-73192282D01*
X146908040Y-73033699D01*
X146699303Y-72824962D01*
X146453854Y-72660959D01*
X146181126Y-72547991D01*
X145891600Y-72490401D01*
X145596402Y-72490401D01*
X145306876Y-72547991D01*
X145034148Y-72660959D01*
X144788699Y-72824962D01*
X144579962Y-73033699D01*
X144474001Y-73192282D01*
X144368040Y-73033699D01*
X144159303Y-72824962D01*
X143913854Y-72660959D01*
X143641126Y-72547991D01*
X143351600Y-72490401D01*
X143056402Y-72490401D01*
X142766876Y-72547991D01*
X142494148Y-72660959D01*
X142248699Y-72824962D01*
X142039962Y-73033699D01*
X141934001Y-73192282D01*
X141828040Y-73033699D01*
X141619303Y-72824962D01*
X141373854Y-72660959D01*
X141101126Y-72547991D01*
X140811600Y-72490401D01*
X140516402Y-72490401D01*
X140226876Y-72547991D01*
X139954148Y-72660959D01*
X139708699Y-72824962D01*
X139499962Y-73033699D01*
X139394001Y-73192282D01*
X139288040Y-73033699D01*
X139079303Y-72824962D01*
X138833854Y-72660959D01*
X138561126Y-72547991D01*
X138271600Y-72490401D01*
X137976402Y-72490401D01*
X137686876Y-72547991D01*
X137414148Y-72660959D01*
X137168699Y-72824962D01*
X136959962Y-73033699D01*
X136795959Y-73279148D01*
X136682991Y-73551876D01*
X136625401Y-73841402D01*
X135558601Y-73841402D01*
X135501011Y-73551876D01*
X135388043Y-73279148D01*
X135224040Y-73033699D01*
X135015303Y-72824962D01*
X134769854Y-72660959D01*
X134497126Y-72547991D01*
X134207600Y-72490401D01*
X133912402Y-72490401D01*
X133622876Y-72547991D01*
X133350148Y-72660959D01*
X133104699Y-72824962D01*
X132895962Y-73033699D01*
X132790001Y-73192282D01*
X132684040Y-73033699D01*
X132475303Y-72824962D01*
X132229854Y-72660959D01*
X131957126Y-72547991D01*
X131667600Y-72490401D01*
X131372402Y-72490401D01*
X131082876Y-72547991D01*
X130810148Y-72660959D01*
X130564699Y-72824962D01*
X130355962Y-73033699D01*
X130250001Y-73192282D01*
X130144040Y-73033699D01*
X129935303Y-72824962D01*
X129689854Y-72660959D01*
X129417126Y-72547991D01*
X129127600Y-72490401D01*
X128832402Y-72490401D01*
X128542876Y-72547991D01*
X128270148Y-72660959D01*
X128024699Y-72824962D01*
X127815962Y-73033699D01*
X127710001Y-73192282D01*
X127604040Y-73033699D01*
X127395303Y-72824962D01*
X127149854Y-72660959D01*
X126877126Y-72547991D01*
X126587600Y-72490401D01*
X126292402Y-72490401D01*
X126002876Y-72547991D01*
X125730148Y-72660959D01*
X125484699Y-72824962D01*
X125275962Y-73033699D01*
X125170001Y-73192282D01*
X125064040Y-73033699D01*
X124855303Y-72824962D01*
X124609854Y-72660959D01*
X124337126Y-72547991D01*
X124047600Y-72490401D01*
X123752402Y-72490401D01*
X123462876Y-72547991D01*
X123190148Y-72660959D01*
X122944699Y-72824962D01*
X122735962Y-73033699D01*
X122630001Y-73192282D01*
X122524040Y-73033699D01*
X122315303Y-72824962D01*
X122069854Y-72660959D01*
X121797126Y-72547991D01*
X121507600Y-72490401D01*
X121212402Y-72490401D01*
X120922876Y-72547991D01*
X120650148Y-72660959D01*
X120404699Y-72824962D01*
X120195962Y-73033699D01*
X120088309Y-73194814D01*
X119926855Y-72978708D01*
X119708489Y-72782184D01*
X119455979Y-72632037D01*
X119179028Y-72534038D01*
X118947001Y-72654537D01*
X118693001Y-72654537D01*
X118460974Y-72534038D01*
X118184023Y-72632037D01*
X117931513Y-72782184D01*
X117713147Y-72978708D01*
X117551693Y-73194814D01*
X117444040Y-73033699D01*
X117235303Y-72824962D01*
X116989854Y-72660959D01*
X116717126Y-72547991D01*
X116427600Y-72490401D01*
X116132402Y-72490401D01*
X115842876Y-72547991D01*
X115570148Y-72660959D01*
X115324699Y-72824962D01*
X115115962Y-73033699D01*
X115010001Y-73192282D01*
X114904040Y-73033699D01*
X114695303Y-72824962D01*
X114449854Y-72660959D01*
X114177126Y-72547991D01*
X113887600Y-72490401D01*
X113592402Y-72490401D01*
X113302876Y-72547991D01*
X113030148Y-72660959D01*
X112784699Y-72824962D01*
X112575962Y-73033699D01*
X112470001Y-73192282D01*
X112364040Y-73033699D01*
X112155303Y-72824962D01*
X111909854Y-72660959D01*
X111637126Y-72547991D01*
X111347600Y-72490401D01*
X111052402Y-72490401D01*
X110762876Y-72547991D01*
X110490148Y-72660959D01*
X110244699Y-72824962D01*
X110035962Y-73033699D01*
X109871959Y-73279148D01*
X109810907Y-73426541D01*
X109793111Y-73337076D01*
X109624632Y-72930332D01*
X109380039Y-72564272D01*
X109068730Y-72252963D01*
X108741028Y-72034000D01*
X181476974Y-72034000D01*
X181149272Y-72252963D01*
X180837963Y-72564272D01*
X180593370Y-72930332D01*
X180424891Y-73337076D01*
X180339001Y-73768873D01*
X180339001Y-74209129D01*
X180424891Y-74640926D01*
X180593370Y-75047670D01*
X180837963Y-75413730D01*
X181149272Y-75725039D01*
X181515332Y-75969632D01*
X181922076Y-76138111D01*
X182353873Y-76224001D01*
X182794129Y-76224001D01*
X183225926Y-76138111D01*
X183632670Y-75969632D01*
X183998730Y-75725039D01*
X184310039Y-75413730D01*
X184554632Y-75047670D01*
X184723111Y-74640926D01*
X184809001Y-74209129D01*
X184809001Y-73841402D01*
X184885401Y-73841402D01*
X184885401Y-74136600D01*
X184942991Y-74426126D01*
X185055959Y-74698854D01*
X185219962Y-74944303D01*
X185428699Y-75153040D01*
X185587282Y-75259001D01*
X185428699Y-75364962D01*
X185219962Y-75573699D01*
X185055959Y-75819148D01*
X184942991Y-76091876D01*
X184885401Y-76381402D01*
X184885401Y-76676600D01*
X184942991Y-76966126D01*
X185055959Y-77238854D01*
X185219962Y-77484303D01*
X185428699Y-77693040D01*
X185587282Y-77799001D01*
X185428699Y-77904962D01*
X185219962Y-78113699D01*
X185055959Y-78359148D01*
X184942991Y-78631876D01*
X184885401Y-78921402D01*
X184885401Y-79216600D01*
X184942991Y-79506126D01*
X185055959Y-79778854D01*
X185219962Y-80024303D01*
X185428699Y-80233040D01*
X185587282Y-80339001D01*
X185428699Y-80444962D01*
X185219962Y-80653699D01*
X185055959Y-80899148D01*
X184942991Y-81171876D01*
X184885401Y-81461402D01*
X184885401Y-81756600D01*
X184942991Y-82046126D01*
X185055959Y-82318854D01*
X185219962Y-82564303D01*
X185428699Y-82773040D01*
X185587282Y-82879001D01*
X185428699Y-82984962D01*
X185219962Y-83193699D01*
X185055959Y-83439148D01*
X184942991Y-83711876D01*
X184885401Y-84001402D01*
X184885401Y-84296600D01*
X184942991Y-84586126D01*
X185055959Y-84858854D01*
X185219962Y-85104303D01*
X185428699Y-85313040D01*
X185587282Y-85419001D01*
X185428699Y-85524962D01*
X185219962Y-85733699D01*
X185055959Y-85979148D01*
X184942991Y-86251876D01*
X184885401Y-86541402D01*
X184885401Y-86836600D01*
X184942991Y-87126126D01*
X185055959Y-87398854D01*
X185219962Y-87644303D01*
X185428699Y-87853040D01*
X185587282Y-87959001D01*
X185428699Y-88064962D01*
X185219962Y-88273699D01*
X185055959Y-88519148D01*
X184942991Y-88791876D01*
X184885401Y-89081402D01*
X184885401Y-89376600D01*
X184942991Y-89666126D01*
X185055959Y-89938854D01*
X185219962Y-90184303D01*
X185428699Y-90393040D01*
X185587282Y-90499001D01*
X185428699Y-90604962D01*
X185219962Y-90813699D01*
X185055959Y-91059148D01*
X184942991Y-91331876D01*
X184885401Y-91621402D01*
X184885401Y-91916600D01*
X184942991Y-92206126D01*
X185055959Y-92478854D01*
X185219962Y-92724303D01*
X185428699Y-92933040D01*
X185587282Y-93039001D01*
X185428699Y-93144962D01*
X185219962Y-93353699D01*
X185055959Y-93599148D01*
X184942991Y-93871876D01*
X184885401Y-94161402D01*
X184885401Y-94456600D01*
X184942991Y-94746126D01*
X185055959Y-95018854D01*
X185219962Y-95264303D01*
X185428699Y-95473040D01*
X185587282Y-95579001D01*
X185428699Y-95684962D01*
X185219962Y-95893699D01*
X185055959Y-96139148D01*
X184942991Y-96411876D01*
X184885401Y-96701402D01*
X184885401Y-96996600D01*
X184942991Y-97286126D01*
X185055959Y-97558854D01*
X185219962Y-97804303D01*
X185428699Y-98013040D01*
X185587282Y-98119001D01*
X185428699Y-98224962D01*
X185219962Y-98433699D01*
X185055959Y-98679148D01*
X184942991Y-98951876D01*
X184885401Y-99241402D01*
X184885401Y-99536600D01*
X184942991Y-99826126D01*
X185055959Y-100098854D01*
X185219962Y-100344303D01*
X185428699Y-100553040D01*
X185587282Y-100659001D01*
X185428699Y-100764962D01*
X185219962Y-100973699D01*
X185055959Y-101219148D01*
X184942991Y-101491876D01*
X184885401Y-101781402D01*
X184885401Y-102076600D01*
X184942991Y-102366126D01*
X185055959Y-102638854D01*
X185219962Y-102884303D01*
X185428699Y-103093040D01*
X185587282Y-103199001D01*
X185428699Y-103304962D01*
X185219962Y-103513699D01*
X185055959Y-103759148D01*
X184942991Y-104031876D01*
X184885401Y-104321402D01*
X184885401Y-104616600D01*
X184942991Y-104906126D01*
X185055959Y-105178854D01*
X185219962Y-105424303D01*
X185428699Y-105633040D01*
X185587282Y-105739001D01*
X185428699Y-105844962D01*
X185219962Y-106053699D01*
X185055959Y-106299148D01*
X184942991Y-106571876D01*
X184885401Y-106861402D01*
X184885401Y-107156600D01*
X184942991Y-107446126D01*
X185055959Y-107718854D01*
X185219962Y-107964303D01*
X185428699Y-108173040D01*
X185587282Y-108279001D01*
X185428699Y-108384962D01*
X185219962Y-108593699D01*
X185055959Y-108839148D01*
X184942991Y-109111876D01*
X184885401Y-109401402D01*
X184885401Y-109696600D01*
X184942991Y-109986126D01*
X185055959Y-110258854D01*
X185219962Y-110504303D01*
X185428699Y-110713040D01*
X185587282Y-110819001D01*
X185428699Y-110924962D01*
X185219962Y-111133699D01*
X185055959Y-111379148D01*
X184942991Y-111651876D01*
X184885401Y-111941402D01*
X184885401Y-112236600D01*
X184942991Y-112526126D01*
X185055959Y-112798854D01*
X185219962Y-113044303D01*
X185428699Y-113253040D01*
X185587282Y-113359001D01*
X185428699Y-113464962D01*
X185219962Y-113673699D01*
X185055959Y-113919148D01*
X184942991Y-114191876D01*
X184885401Y-114481402D01*
X184885401Y-114776600D01*
X184942991Y-115066126D01*
X185055959Y-115338854D01*
X185219962Y-115584303D01*
X185428699Y-115793040D01*
X185587282Y-115899001D01*
X185428699Y-116004962D01*
X185219962Y-116213699D01*
X185055959Y-116459148D01*
X184942991Y-116731876D01*
X184885401Y-117021402D01*
X184885401Y-117316600D01*
X184942991Y-117606126D01*
X185055959Y-117878854D01*
X185219962Y-118124303D01*
X185428699Y-118333040D01*
X185674148Y-118497043D01*
X185946876Y-118610011D01*
X186236402Y-118667601D01*
X186531600Y-118667601D01*
X186821126Y-118610011D01*
X187093854Y-118497043D01*
X187339303Y-118333040D01*
X187548040Y-118124303D01*
X187654001Y-117965720D01*
X187759962Y-118124303D01*
X187968699Y-118333040D01*
X188214148Y-118497043D01*
X188486876Y-118610011D01*
X188776402Y-118667601D01*
X189071600Y-118667601D01*
X189361126Y-118610011D01*
X189633854Y-118497043D01*
X189879303Y-118333040D01*
X190088040Y-118124303D01*
X190252043Y-117878854D01*
X190365011Y-117606126D01*
X190422601Y-117316600D01*
X190422601Y-117021402D01*
X190365011Y-116731876D01*
X190252043Y-116459148D01*
X190088040Y-116213699D01*
X189879303Y-116004962D01*
X189720720Y-115899001D01*
X189879303Y-115793040D01*
X190088040Y-115584303D01*
X190252043Y-115338854D01*
X190365011Y-115066126D01*
X190422601Y-114776600D01*
X190422601Y-114481402D01*
X190365011Y-114191876D01*
X190252043Y-113919148D01*
X190088040Y-113673699D01*
X189879303Y-113464962D01*
X189720720Y-113359001D01*
X189879303Y-113253040D01*
X190088040Y-113044303D01*
X190252043Y-112798854D01*
X190365011Y-112526126D01*
X190422601Y-112236600D01*
X190422601Y-111941402D01*
X190365011Y-111651876D01*
X190252043Y-111379148D01*
X190088040Y-111133699D01*
X189879303Y-110924962D01*
X189720720Y-110819001D01*
X189879303Y-110713040D01*
X190088040Y-110504303D01*
X190252043Y-110258854D01*
X190365011Y-109986126D01*
X190422601Y-109696600D01*
X190422601Y-109401402D01*
X190365011Y-109111876D01*
X190252043Y-108839148D01*
X190088040Y-108593699D01*
X189879303Y-108384962D01*
X189720720Y-108279001D01*
X189879303Y-108173040D01*
X190088040Y-107964303D01*
X190252043Y-107718854D01*
X190365011Y-107446126D01*
X190422601Y-107156600D01*
X190422601Y-106861402D01*
X190365011Y-106571876D01*
X190252043Y-106299148D01*
X190088040Y-106053699D01*
X189879303Y-105844962D01*
X189720720Y-105739001D01*
X189879303Y-105633040D01*
X190088040Y-105424303D01*
X190252043Y-105178854D01*
X190365011Y-104906126D01*
X190422601Y-104616600D01*
X190422601Y-104321402D01*
X190365011Y-104031876D01*
X190252043Y-103759148D01*
X190088040Y-103513699D01*
X189879303Y-103304962D01*
X189720720Y-103199001D01*
X189879303Y-103093040D01*
X190088040Y-102884303D01*
X190252043Y-102638854D01*
X190365011Y-102366126D01*
X190422601Y-102076600D01*
X190422601Y-101781402D01*
X190365011Y-101491876D01*
X190252043Y-101219148D01*
X190088040Y-100973699D01*
X189879303Y-100764962D01*
X189720720Y-100659001D01*
X189879303Y-100553040D01*
X190088040Y-100344303D01*
X190252043Y-100098854D01*
X190365011Y-99826126D01*
X190422601Y-99536600D01*
X190422601Y-99241402D01*
X190365011Y-98951876D01*
X190252043Y-98679148D01*
X190088040Y-98433699D01*
X189879303Y-98224962D01*
X189720720Y-98119001D01*
X189879303Y-98013040D01*
X190088040Y-97804303D01*
X190252043Y-97558854D01*
X190365011Y-97286126D01*
X190422601Y-96996600D01*
X190422601Y-96701402D01*
X190365011Y-96411876D01*
X190252043Y-96139148D01*
X190088040Y-95893699D01*
X189879303Y-95684962D01*
X189720720Y-95579001D01*
X189879303Y-95473040D01*
X190088040Y-95264303D01*
X190252043Y-95018854D01*
X190365011Y-94746126D01*
X190422601Y-94456600D01*
X190422601Y-94161402D01*
X190365011Y-93871876D01*
X190252043Y-93599148D01*
X190088040Y-93353699D01*
X189879303Y-93144962D01*
X189720720Y-93039001D01*
X189879303Y-92933040D01*
X190088040Y-92724303D01*
X190252043Y-92478854D01*
X190365011Y-92206126D01*
X190422601Y-91916600D01*
X190422601Y-91621402D01*
X190365011Y-91331876D01*
X190252043Y-91059148D01*
X190088040Y-90813699D01*
X189879303Y-90604962D01*
X189720720Y-90499001D01*
X189879303Y-90393040D01*
X190088040Y-90184303D01*
X190252043Y-89938854D01*
X190365011Y-89666126D01*
X190422601Y-89376600D01*
X190422601Y-89081402D01*
X190365011Y-88791876D01*
X190252043Y-88519148D01*
X190088040Y-88273699D01*
X189879303Y-88064962D01*
X189720720Y-87959001D01*
X189879303Y-87853040D01*
X190088040Y-87644303D01*
X190252043Y-87398854D01*
X190365011Y-87126126D01*
X190422601Y-86836600D01*
X190422601Y-86541402D01*
X190365011Y-86251876D01*
X190252043Y-85979148D01*
X190088040Y-85733699D01*
X189879303Y-85524962D01*
X189720720Y-85419001D01*
X189879303Y-85313040D01*
X190088040Y-85104303D01*
X190252043Y-84858854D01*
X190365011Y-84586126D01*
X190422601Y-84296600D01*
X190422601Y-84001402D01*
X190365011Y-83711876D01*
X190252043Y-83439148D01*
X190088040Y-83193699D01*
X189879303Y-82984962D01*
X189720720Y-82879001D01*
X189879303Y-82773040D01*
X190088040Y-82564303D01*
X190252043Y-82318854D01*
X190365011Y-82046126D01*
X190422601Y-81756600D01*
X190422601Y-81461402D01*
X190365011Y-81171876D01*
X190252043Y-80899148D01*
X190088040Y-80653699D01*
X189879303Y-80444962D01*
X189720720Y-80339001D01*
X189879303Y-80233040D01*
X190088040Y-80024303D01*
X190252043Y-79778854D01*
X190365011Y-79506126D01*
X190422601Y-79216600D01*
X190422601Y-78921402D01*
X190365011Y-78631876D01*
X190252043Y-78359148D01*
X190088040Y-78113699D01*
X189879303Y-77904962D01*
X189720720Y-77799001D01*
X189879303Y-77693040D01*
X190088040Y-77484303D01*
X190252043Y-77238854D01*
X190365011Y-76966126D01*
X190422601Y-76676600D01*
X190422601Y-76381402D01*
X190365011Y-76091876D01*
X190252043Y-75819148D01*
X190088040Y-75573699D01*
X189879303Y-75364962D01*
X189720720Y-75259001D01*
X189879303Y-75153040D01*
X190088040Y-74944303D01*
X190252043Y-74698854D01*
X190365011Y-74426126D01*
X190422601Y-74136600D01*
X190422601Y-73841402D01*
X190365011Y-73551876D01*
X190252043Y-73279148D01*
X190088040Y-73033699D01*
X189879303Y-72824962D01*
X189633854Y-72660959D01*
X189361126Y-72547991D01*
X189071600Y-72490401D01*
X188776402Y-72490401D01*
X188486876Y-72547991D01*
X188214148Y-72660959D01*
X187968699Y-72824962D01*
X187759962Y-73033699D01*
X187654001Y-73192282D01*
X187548040Y-73033699D01*
X187339303Y-72824962D01*
X187093854Y-72660959D01*
X186821126Y-72547991D01*
X186531600Y-72490401D01*
X186236402Y-72490401D01*
X185946876Y-72547991D01*
X185674148Y-72660959D01*
X185428699Y-72824962D01*
X185219962Y-73033699D01*
X185055959Y-73279148D01*
X184942991Y-73551876D01*
X184885401Y-73841402D01*
X184809001Y-73841402D01*
X184809001Y-73768873D01*
X184723111Y-73337076D01*
X184554632Y-72930332D01*
X184310039Y-72564272D01*
X183998730Y-72252963D01*
X183671028Y-72034000D01*
X189468020Y-72034000D01*
X190856000Y-73190650D01*
X190856001Y-84041581D01*
X190852808Y-84074000D01*
X190865551Y-84203382D01*
X190881000Y-84254311D01*
X190881000Y-121154964D01*
X190660039Y-120824272D01*
X190348730Y-120512963D01*
X189982670Y-120268370D01*
X189575926Y-120099891D01*
X189144129Y-120014001D01*
X188703873Y-120014001D01*
X188272076Y-120099891D01*
X187865332Y-120268370D01*
X187499272Y-120512963D01*
X187187963Y-120824272D01*
X186943370Y-121190332D01*
X186774891Y-121597076D01*
X186689001Y-122028873D01*
X186689001Y-122469129D01*
X186774891Y-122900926D01*
X186943370Y-123307670D01*
X187187963Y-123673730D01*
X187499272Y-123985039D01*
X187792549Y-124181000D01*
X107505453Y-124181000D01*
X107798730Y-123985039D01*
X108110039Y-123673730D01*
X108354632Y-123307670D01*
X108523111Y-122900926D01*
X108609001Y-122469129D01*
X108609001Y-122101402D01*
X118845401Y-122101402D01*
X118845401Y-122396600D01*
X118902991Y-122686126D01*
X119015959Y-122958854D01*
X119179962Y-123204303D01*
X119388699Y-123413040D01*
X119634148Y-123577043D01*
X119906876Y-123690011D01*
X120196402Y-123747601D01*
X120491600Y-123747601D01*
X120781126Y-123690011D01*
X121053854Y-123577043D01*
X121299303Y-123413040D01*
X121508040Y-123204303D01*
X121614001Y-123045720D01*
X121719962Y-123204303D01*
X121928699Y-123413040D01*
X122174148Y-123577043D01*
X122446876Y-123690011D01*
X122736402Y-123747601D01*
X123031600Y-123747601D01*
X123321126Y-123690011D01*
X123593854Y-123577043D01*
X123839303Y-123413040D01*
X124048040Y-123204303D01*
X124154001Y-123045720D01*
X124259962Y-123204303D01*
X124468699Y-123413040D01*
X124714148Y-123577043D01*
X124986876Y-123690011D01*
X125276402Y-123747601D01*
X125571600Y-123747601D01*
X125861126Y-123690011D01*
X126133854Y-123577043D01*
X126379303Y-123413040D01*
X126588040Y-123204303D01*
X126694001Y-123045720D01*
X126799962Y-123204303D01*
X127008699Y-123413040D01*
X127254148Y-123577043D01*
X127526876Y-123690011D01*
X127816402Y-123747601D01*
X128111600Y-123747601D01*
X128401126Y-123690011D01*
X128673854Y-123577043D01*
X128919303Y-123413040D01*
X129128040Y-123204303D01*
X129234001Y-123045720D01*
X129339962Y-123204303D01*
X129548699Y-123413040D01*
X129794148Y-123577043D01*
X130066876Y-123690011D01*
X130356402Y-123747601D01*
X130651600Y-123747601D01*
X130941126Y-123690011D01*
X131213854Y-123577043D01*
X131459303Y-123413040D01*
X131668040Y-123204303D01*
X131774001Y-123045720D01*
X131879962Y-123204303D01*
X132088699Y-123413040D01*
X132334148Y-123577043D01*
X132606876Y-123690011D01*
X132896402Y-123747601D01*
X133191600Y-123747601D01*
X133481126Y-123690011D01*
X133753854Y-123577043D01*
X133999303Y-123413040D01*
X134208040Y-123204303D01*
X134314001Y-123045720D01*
X134419962Y-123204303D01*
X134628699Y-123413040D01*
X134874148Y-123577043D01*
X135146876Y-123690011D01*
X135436402Y-123747601D01*
X135731600Y-123747601D01*
X136021126Y-123690011D01*
X136293854Y-123577043D01*
X136539303Y-123413040D01*
X136748040Y-123204303D01*
X136854001Y-123045720D01*
X136959962Y-123204303D01*
X137168699Y-123413040D01*
X137414148Y-123577043D01*
X137686876Y-123690011D01*
X137976402Y-123747601D01*
X138271600Y-123747601D01*
X138561126Y-123690011D01*
X138833854Y-123577043D01*
X139079303Y-123413040D01*
X139288040Y-123204303D01*
X139452043Y-122958854D01*
X139565011Y-122686126D01*
X139622601Y-122396600D01*
X139622601Y-122101402D01*
X141705401Y-122101402D01*
X141705401Y-122396600D01*
X141762991Y-122686126D01*
X141875959Y-122958854D01*
X142039962Y-123204303D01*
X142248699Y-123413040D01*
X142494148Y-123577043D01*
X142766876Y-123690011D01*
X143056402Y-123747601D01*
X143351600Y-123747601D01*
X143641126Y-123690011D01*
X143913854Y-123577043D01*
X144159303Y-123413040D01*
X144368040Y-123204303D01*
X144474001Y-123045720D01*
X144579962Y-123204303D01*
X144788699Y-123413040D01*
X145034148Y-123577043D01*
X145306876Y-123690011D01*
X145596402Y-123747601D01*
X145891600Y-123747601D01*
X146181126Y-123690011D01*
X146453854Y-123577043D01*
X146699303Y-123413040D01*
X146908040Y-123204303D01*
X147014001Y-123045720D01*
X147119962Y-123204303D01*
X147328699Y-123413040D01*
X147574148Y-123577043D01*
X147846876Y-123690011D01*
X148136402Y-123747601D01*
X148431600Y-123747601D01*
X148721126Y-123690011D01*
X148993854Y-123577043D01*
X149239303Y-123413040D01*
X149448040Y-123204303D01*
X149554001Y-123045720D01*
X149659962Y-123204303D01*
X149868699Y-123413040D01*
X150114148Y-123577043D01*
X150386876Y-123690011D01*
X150676402Y-123747601D01*
X150971600Y-123747601D01*
X151261126Y-123690011D01*
X151533854Y-123577043D01*
X151779303Y-123413040D01*
X151988040Y-123204303D01*
X152094001Y-123045720D01*
X152199962Y-123204303D01*
X152408699Y-123413040D01*
X152654148Y-123577043D01*
X152926876Y-123690011D01*
X153216402Y-123747601D01*
X153511600Y-123747601D01*
X153801126Y-123690011D01*
X154073854Y-123577043D01*
X154319303Y-123413040D01*
X154528040Y-123204303D01*
X154634001Y-123045720D01*
X154739962Y-123204303D01*
X154948699Y-123413040D01*
X155194148Y-123577043D01*
X155466876Y-123690011D01*
X155756402Y-123747601D01*
X156051600Y-123747601D01*
X156341126Y-123690011D01*
X156613854Y-123577043D01*
X156859303Y-123413040D01*
X157068040Y-123204303D01*
X157174001Y-123045720D01*
X157279962Y-123204303D01*
X157488699Y-123413040D01*
X157734148Y-123577043D01*
X158006876Y-123690011D01*
X158296402Y-123747601D01*
X158591600Y-123747601D01*
X158881126Y-123690011D01*
X159153854Y-123577043D01*
X159399303Y-123413040D01*
X159608040Y-123204303D01*
X159714001Y-123045720D01*
X159819962Y-123204303D01*
X160028699Y-123413040D01*
X160274148Y-123577043D01*
X160546876Y-123690011D01*
X160836402Y-123747601D01*
X161131600Y-123747601D01*
X161421126Y-123690011D01*
X161693854Y-123577043D01*
X161939303Y-123413040D01*
X162148040Y-123204303D01*
X162312043Y-122958854D01*
X162425011Y-122686126D01*
X162482601Y-122396600D01*
X162482601Y-122101402D01*
X164565401Y-122101402D01*
X164565401Y-122396600D01*
X164622991Y-122686126D01*
X164735959Y-122958854D01*
X164899962Y-123204303D01*
X165108699Y-123413040D01*
X165354148Y-123577043D01*
X165626876Y-123690011D01*
X165916402Y-123747601D01*
X166211600Y-123747601D01*
X166501126Y-123690011D01*
X166773854Y-123577043D01*
X167019303Y-123413040D01*
X167228040Y-123204303D01*
X167334001Y-123045720D01*
X167439962Y-123204303D01*
X167648699Y-123413040D01*
X167894148Y-123577043D01*
X168166876Y-123690011D01*
X168456402Y-123747601D01*
X168751600Y-123747601D01*
X169041126Y-123690011D01*
X169313854Y-123577043D01*
X169559303Y-123413040D01*
X169768040Y-123204303D01*
X169874001Y-123045720D01*
X169979962Y-123204303D01*
X170188699Y-123413040D01*
X170434148Y-123577043D01*
X170706876Y-123690011D01*
X170996402Y-123747601D01*
X171291600Y-123747601D01*
X171581126Y-123690011D01*
X171853854Y-123577043D01*
X172099303Y-123413040D01*
X172308040Y-123204303D01*
X172414001Y-123045720D01*
X172519962Y-123204303D01*
X172728699Y-123413040D01*
X172974148Y-123577043D01*
X173246876Y-123690011D01*
X173536402Y-123747601D01*
X173831600Y-123747601D01*
X174121126Y-123690011D01*
X174393854Y-123577043D01*
X174639303Y-123413040D01*
X174848040Y-123204303D01*
X174954001Y-123045720D01*
X175059962Y-123204303D01*
X175268699Y-123413040D01*
X175514148Y-123577043D01*
X175786876Y-123690011D01*
X176076402Y-123747601D01*
X176371600Y-123747601D01*
X176661126Y-123690011D01*
X176933854Y-123577043D01*
X177179303Y-123413040D01*
X177388040Y-123204303D01*
X177494001Y-123045720D01*
X177599962Y-123204303D01*
X177808699Y-123413040D01*
X178054148Y-123577043D01*
X178326876Y-123690011D01*
X178616402Y-123747601D01*
X178911600Y-123747601D01*
X179201126Y-123690011D01*
X179473854Y-123577043D01*
X179719303Y-123413040D01*
X179928040Y-123204303D01*
X180034001Y-123045720D01*
X180139962Y-123204303D01*
X180348699Y-123413040D01*
X180594148Y-123577043D01*
X180866876Y-123690011D01*
X181156402Y-123747601D01*
X181451600Y-123747601D01*
X181741126Y-123690011D01*
X182013854Y-123577043D01*
X182259303Y-123413040D01*
X182468040Y-123204303D01*
X182574001Y-123045720D01*
X182679962Y-123204303D01*
X182888699Y-123413040D01*
X183134148Y-123577043D01*
X183406876Y-123690011D01*
X183696402Y-123747601D01*
X183991600Y-123747601D01*
X184281126Y-123690011D01*
X184553854Y-123577043D01*
X184799303Y-123413040D01*
X185008040Y-123204303D01*
X185172043Y-122958854D01*
X185285011Y-122686126D01*
X185342601Y-122396600D01*
X185342601Y-122101402D01*
X185285011Y-121811876D01*
X185172043Y-121539148D01*
X185008040Y-121293699D01*
X184799303Y-121084962D01*
X184553854Y-120920959D01*
X184281126Y-120807991D01*
X183991600Y-120750401D01*
X183696402Y-120750401D01*
X183406876Y-120807991D01*
X183134148Y-120920959D01*
X182888699Y-121084962D01*
X182679962Y-121293699D01*
X182574001Y-121452282D01*
X182468040Y-121293699D01*
X182259303Y-121084962D01*
X182013854Y-120920959D01*
X181741126Y-120807991D01*
X181451600Y-120750401D01*
X181156402Y-120750401D01*
X180866876Y-120807991D01*
X180594148Y-120920959D01*
X180348699Y-121084962D01*
X180139962Y-121293699D01*
X180034001Y-121452282D01*
X179928040Y-121293699D01*
X179719303Y-121084962D01*
X179473854Y-120920959D01*
X179201126Y-120807991D01*
X178911600Y-120750401D01*
X178616402Y-120750401D01*
X178326876Y-120807991D01*
X178054148Y-120920959D01*
X177808699Y-121084962D01*
X177599962Y-121293699D01*
X177494001Y-121452282D01*
X177388040Y-121293699D01*
X177179303Y-121084962D01*
X176933854Y-120920959D01*
X176661126Y-120807991D01*
X176371600Y-120750401D01*
X176076402Y-120750401D01*
X175786876Y-120807991D01*
X175514148Y-120920959D01*
X175268699Y-121084962D01*
X175059962Y-121293699D01*
X174954001Y-121452282D01*
X174848040Y-121293699D01*
X174639303Y-121084962D01*
X174393854Y-120920959D01*
X174121126Y-120807991D01*
X173831600Y-120750401D01*
X173536402Y-120750401D01*
X173246876Y-120807991D01*
X172974148Y-120920959D01*
X172728699Y-121084962D01*
X172519962Y-121293699D01*
X172414001Y-121452282D01*
X172308040Y-121293699D01*
X172099303Y-121084962D01*
X171853854Y-120920959D01*
X171581126Y-120807991D01*
X171291600Y-120750401D01*
X170996402Y-120750401D01*
X170706876Y-120807991D01*
X170434148Y-120920959D01*
X170188699Y-121084962D01*
X169979962Y-121293699D01*
X169874001Y-121452282D01*
X169768040Y-121293699D01*
X169559303Y-121084962D01*
X169313854Y-120920959D01*
X169041126Y-120807991D01*
X168751600Y-120750401D01*
X168456402Y-120750401D01*
X168166876Y-120807991D01*
X167894148Y-120920959D01*
X167648699Y-121084962D01*
X167439962Y-121293699D01*
X167334001Y-121452282D01*
X167228040Y-121293699D01*
X167019303Y-121084962D01*
X166773854Y-120920959D01*
X166501126Y-120807991D01*
X166211600Y-120750401D01*
X165916402Y-120750401D01*
X165626876Y-120807991D01*
X165354148Y-120920959D01*
X165108699Y-121084962D01*
X164899962Y-121293699D01*
X164735959Y-121539148D01*
X164622991Y-121811876D01*
X164565401Y-122101402D01*
X162482601Y-122101402D01*
X162425011Y-121811876D01*
X162312043Y-121539148D01*
X162148040Y-121293699D01*
X161939303Y-121084962D01*
X161693854Y-120920959D01*
X161421126Y-120807991D01*
X161131600Y-120750401D01*
X160836402Y-120750401D01*
X160546876Y-120807991D01*
X160274148Y-120920959D01*
X160028699Y-121084962D01*
X159819962Y-121293699D01*
X159714001Y-121452282D01*
X159608040Y-121293699D01*
X159399303Y-121084962D01*
X159153854Y-120920959D01*
X158881126Y-120807991D01*
X158591600Y-120750401D01*
X158296402Y-120750401D01*
X158006876Y-120807991D01*
X157734148Y-120920959D01*
X157488699Y-121084962D01*
X157279962Y-121293699D01*
X157174001Y-121452282D01*
X157068040Y-121293699D01*
X156859303Y-121084962D01*
X156613854Y-120920959D01*
X156341126Y-120807991D01*
X156051600Y-120750401D01*
X155756402Y-120750401D01*
X155466876Y-120807991D01*
X155194148Y-120920959D01*
X154948699Y-121084962D01*
X154739962Y-121293699D01*
X154634001Y-121452282D01*
X154528040Y-121293699D01*
X154319303Y-121084962D01*
X154073854Y-120920959D01*
X153801126Y-120807991D01*
X153511600Y-120750401D01*
X153216402Y-120750401D01*
X152926876Y-120807991D01*
X152654148Y-120920959D01*
X152408699Y-121084962D01*
X152199962Y-121293699D01*
X152094001Y-121452282D01*
X151988040Y-121293699D01*
X151779303Y-121084962D01*
X151533854Y-120920959D01*
X151261126Y-120807991D01*
X150971600Y-120750401D01*
X150676402Y-120750401D01*
X150386876Y-120807991D01*
X150114148Y-120920959D01*
X149868699Y-121084962D01*
X149659962Y-121293699D01*
X149554001Y-121452282D01*
X149448040Y-121293699D01*
X149239303Y-121084962D01*
X148993854Y-120920959D01*
X148721126Y-120807991D01*
X148431600Y-120750401D01*
X148136402Y-120750401D01*
X147846876Y-120807991D01*
X147574148Y-120920959D01*
X147328699Y-121084962D01*
X147119962Y-121293699D01*
X147014001Y-121452282D01*
X146908040Y-121293699D01*
X146699303Y-121084962D01*
X146453854Y-120920959D01*
X146181126Y-120807991D01*
X145891600Y-120750401D01*
X145596402Y-120750401D01*
X145306876Y-120807991D01*
X145034148Y-120920959D01*
X144788699Y-121084962D01*
X144579962Y-121293699D01*
X144474001Y-121452282D01*
X144368040Y-121293699D01*
X144159303Y-121084962D01*
X143913854Y-120920959D01*
X143641126Y-120807991D01*
X143351600Y-120750401D01*
X143056402Y-120750401D01*
X142766876Y-120807991D01*
X142494148Y-120920959D01*
X142248699Y-121084962D01*
X142039962Y-121293699D01*
X141875959Y-121539148D01*
X141762991Y-121811876D01*
X141705401Y-122101402D01*
X139622601Y-122101402D01*
X139565011Y-121811876D01*
X139452043Y-121539148D01*
X139288040Y-121293699D01*
X139079303Y-121084962D01*
X138833854Y-120920959D01*
X138561126Y-120807991D01*
X138271600Y-120750401D01*
X137976402Y-120750401D01*
X137686876Y-120807991D01*
X137414148Y-120920959D01*
X137168699Y-121084962D01*
X136959962Y-121293699D01*
X136854001Y-121452282D01*
X136748040Y-121293699D01*
X136539303Y-121084962D01*
X136293854Y-120920959D01*
X136021126Y-120807991D01*
X135731600Y-120750401D01*
X135436402Y-120750401D01*
X135146876Y-120807991D01*
X134874148Y-120920959D01*
X134628699Y-121084962D01*
X134419962Y-121293699D01*
X134314001Y-121452282D01*
X134208040Y-121293699D01*
X133999303Y-121084962D01*
X133753854Y-120920959D01*
X133481126Y-120807991D01*
X133191600Y-120750401D01*
X132896402Y-120750401D01*
X132606876Y-120807991D01*
X132334148Y-120920959D01*
X132088699Y-121084962D01*
X131879962Y-121293699D01*
X131774001Y-121452282D01*
X131668040Y-121293699D01*
X131459303Y-121084962D01*
X131213854Y-120920959D01*
X130941126Y-120807991D01*
X130651600Y-120750401D01*
X130356402Y-120750401D01*
X130066876Y-120807991D01*
X129794148Y-120920959D01*
X129548699Y-121084962D01*
X129339962Y-121293699D01*
X129234001Y-121452282D01*
X129128040Y-121293699D01*
X128919303Y-121084962D01*
X128673854Y-120920959D01*
X128401126Y-120807991D01*
X128111600Y-120750401D01*
X127816402Y-120750401D01*
X127526876Y-120807991D01*
X127254148Y-120920959D01*
X127008699Y-121084962D01*
X126799962Y-121293699D01*
X126694001Y-121452282D01*
X126588040Y-121293699D01*
X126379303Y-121084962D01*
X126133854Y-120920959D01*
X125861126Y-120807991D01*
X125571600Y-120750401D01*
X125276402Y-120750401D01*
X124986876Y-120807991D01*
X124714148Y-120920959D01*
X124468699Y-121084962D01*
X124259962Y-121293699D01*
X124154001Y-121452282D01*
X124048040Y-121293699D01*
X123839303Y-121084962D01*
X123593854Y-120920959D01*
X123321126Y-120807991D01*
X123031600Y-120750401D01*
X122736402Y-120750401D01*
X122446876Y-120807991D01*
X122174148Y-120920959D01*
X121928699Y-121084962D01*
X121719962Y-121293699D01*
X121614001Y-121452282D01*
X121508040Y-121293699D01*
X121299303Y-121084962D01*
X121053854Y-120920959D01*
X120781126Y-120807991D01*
X120491600Y-120750401D01*
X120196402Y-120750401D01*
X119906876Y-120807991D01*
X119634148Y-120920959D01*
X119388699Y-121084962D01*
X119179962Y-121293699D01*
X119015959Y-121539148D01*
X118902991Y-121811876D01*
X118845401Y-122101402D01*
X108609001Y-122101402D01*
X108609001Y-122028873D01*
X108523111Y-121597076D01*
X108354632Y-121190332D01*
X108110039Y-120824272D01*
X107798730Y-120512963D01*
X107432670Y-120268370D01*
X107025926Y-120099891D01*
X106594129Y-120014001D01*
X106153873Y-120014001D01*
X105722076Y-120099891D01*
X105315332Y-120268370D01*
X104949272Y-120512963D01*
X104637963Y-120824272D01*
X104393370Y-121190332D01*
X104224891Y-121597076D01*
X104139001Y-122028873D01*
X104139001Y-122469129D01*
X104224891Y-122900926D01*
X104393370Y-123307670D01*
X104637963Y-123673730D01*
X104949272Y-123985039D01*
X105242549Y-124181000D01*
X92989000Y-124181000D01*
X92989000Y-115128223D01*
X133109000Y-115128223D01*
X133109000Y-115483777D01*
X133178365Y-115832499D01*
X133314429Y-116160988D01*
X133511965Y-116456621D01*
X133763379Y-116708035D01*
X134059012Y-116905571D01*
X134387501Y-117041635D01*
X134736223Y-117111000D01*
X135091777Y-117111000D01*
X135440499Y-117041635D01*
X135664447Y-116948873D01*
X156209001Y-116948873D01*
X156209001Y-117389129D01*
X156294891Y-117820926D01*
X156463370Y-118227670D01*
X156707963Y-118593730D01*
X157019272Y-118905039D01*
X157385332Y-119149632D01*
X157792076Y-119318111D01*
X158223873Y-119404001D01*
X158664129Y-119404001D01*
X159095926Y-119318111D01*
X159502670Y-119149632D01*
X159868730Y-118905039D01*
X160180039Y-118593730D01*
X160424632Y-118227670D01*
X160593111Y-117820926D01*
X160679001Y-117389129D01*
X160679001Y-116948873D01*
X160593111Y-116517076D01*
X160424632Y-116110332D01*
X160180039Y-115744272D01*
X159868730Y-115432963D01*
X159502670Y-115188370D01*
X159095926Y-115019891D01*
X158664129Y-114934001D01*
X158223873Y-114934001D01*
X157792076Y-115019891D01*
X157385332Y-115188370D01*
X157019272Y-115432963D01*
X156707963Y-115744272D01*
X156463370Y-116110332D01*
X156294891Y-116517076D01*
X156209001Y-116948873D01*
X135664447Y-116948873D01*
X135768988Y-116905571D01*
X136064621Y-116708035D01*
X136316035Y-116456621D01*
X136513571Y-116160988D01*
X136649635Y-115832499D01*
X136719000Y-115483777D01*
X136719000Y-115128223D01*
X136649635Y-114779501D01*
X136513571Y-114451012D01*
X136316035Y-114155379D01*
X136064621Y-113903965D01*
X135768988Y-113706429D01*
X135440499Y-113570365D01*
X135091777Y-113501000D01*
X134736223Y-113501000D01*
X134387501Y-113570365D01*
X134059012Y-113706429D01*
X133763379Y-113903965D01*
X133511965Y-114155379D01*
X133314429Y-114451012D01*
X133178365Y-114779501D01*
X133109000Y-115128223D01*
X92989000Y-115128223D01*
X92989000Y-112762602D01*
X131337003Y-112762602D01*
X131453275Y-113044389D01*
X131771860Y-113202257D01*
X132115122Y-113294938D01*
X132469869Y-113318873D01*
X132822470Y-113273139D01*
X133159373Y-113159495D01*
X133374725Y-113044389D01*
X133490997Y-112762602D01*
X132414000Y-111685605D01*
X131337003Y-112762602D01*
X92989000Y-112762602D01*
X92989000Y-111561869D01*
X130601127Y-111561869D01*
X130646861Y-111914470D01*
X130760505Y-112251373D01*
X130875611Y-112466725D01*
X131157398Y-112582997D01*
X132234395Y-111506000D01*
X132593605Y-111506000D01*
X133670602Y-112582997D01*
X133952389Y-112466725D01*
X134110257Y-112148140D01*
X134202938Y-111804878D01*
X134226873Y-111450131D01*
X134211061Y-111328223D01*
X135609000Y-111328223D01*
X135609000Y-111683777D01*
X135678365Y-112032499D01*
X135814429Y-112360988D01*
X136011965Y-112656621D01*
X136263379Y-112908035D01*
X136559012Y-113105571D01*
X136887501Y-113241635D01*
X137236223Y-113311000D01*
X137591777Y-113311000D01*
X137940499Y-113241635D01*
X138268988Y-113105571D01*
X138564621Y-112908035D01*
X138816035Y-112656621D01*
X139013571Y-112360988D01*
X139149635Y-112032499D01*
X139219000Y-111683777D01*
X139219000Y-111364665D01*
X142329000Y-111364665D01*
X142329000Y-111647335D01*
X142384147Y-111924574D01*
X142492320Y-112185727D01*
X142649363Y-112420759D01*
X142849241Y-112620637D01*
X143084273Y-112777680D01*
X143345426Y-112885853D01*
X143622665Y-112941000D01*
X143905335Y-112941000D01*
X144182574Y-112885853D01*
X144443727Y-112777680D01*
X144678759Y-112620637D01*
X144878637Y-112420759D01*
X145035680Y-112185727D01*
X145143853Y-111924574D01*
X145199000Y-111647335D01*
X145199000Y-111364665D01*
X152489000Y-111364665D01*
X152489000Y-111647335D01*
X152544147Y-111924574D01*
X152652320Y-112185727D01*
X152809363Y-112420759D01*
X153009241Y-112620637D01*
X153244273Y-112777680D01*
X153505426Y-112885853D01*
X153782665Y-112941000D01*
X154065335Y-112941000D01*
X154342574Y-112885853D01*
X154603727Y-112777680D01*
X154838759Y-112620637D01*
X155038637Y-112420759D01*
X155195680Y-112185727D01*
X155303853Y-111924574D01*
X155359000Y-111647335D01*
X155359000Y-111364665D01*
X155303853Y-111087426D01*
X155195680Y-110826273D01*
X155038637Y-110591241D01*
X154838759Y-110391363D01*
X154603727Y-110234320D01*
X154535357Y-110206000D01*
X162145928Y-110206000D01*
X162145928Y-112806000D01*
X162158188Y-112930482D01*
X162194498Y-113050180D01*
X162253463Y-113160494D01*
X162332815Y-113257185D01*
X162429506Y-113336537D01*
X162539820Y-113395502D01*
X162659518Y-113431812D01*
X162784000Y-113444072D01*
X165384000Y-113444072D01*
X165508482Y-113431812D01*
X165628180Y-113395502D01*
X165738494Y-113336537D01*
X165835185Y-113257185D01*
X165914537Y-113160494D01*
X165973502Y-113050180D01*
X166009812Y-112930482D01*
X166022072Y-112806000D01*
X166022072Y-111315419D01*
X177389000Y-111315419D01*
X177389000Y-111696581D01*
X177463361Y-112070419D01*
X177609225Y-112422566D01*
X177820987Y-112739491D01*
X178090509Y-113009013D01*
X178407434Y-113220775D01*
X178759581Y-113366639D01*
X179133419Y-113441000D01*
X179514581Y-113441000D01*
X179888419Y-113366639D01*
X180240566Y-113220775D01*
X180557491Y-113009013D01*
X180827013Y-112739491D01*
X181038775Y-112422566D01*
X181184639Y-112070419D01*
X181259000Y-111696581D01*
X181259000Y-111315419D01*
X181184639Y-110941581D01*
X181038775Y-110589434D01*
X180827013Y-110272509D01*
X180557491Y-110002987D01*
X180240566Y-109791225D01*
X179888419Y-109645361D01*
X179514581Y-109571000D01*
X179133419Y-109571000D01*
X178759581Y-109645361D01*
X178407434Y-109791225D01*
X178090509Y-110002987D01*
X177820987Y-110272509D01*
X177609225Y-110589434D01*
X177463361Y-110941581D01*
X177389000Y-111315419D01*
X166022072Y-111315419D01*
X166022072Y-110206000D01*
X166009812Y-110081518D01*
X165973502Y-109961820D01*
X165914537Y-109851506D01*
X165835185Y-109754815D01*
X165738494Y-109675463D01*
X165628180Y-109616498D01*
X165508482Y-109580188D01*
X165384000Y-109567928D01*
X162784000Y-109567928D01*
X162659518Y-109580188D01*
X162539820Y-109616498D01*
X162429506Y-109675463D01*
X162332815Y-109754815D01*
X162253463Y-109851506D01*
X162194498Y-109961820D01*
X162158188Y-110081518D01*
X162145928Y-110206000D01*
X154535357Y-110206000D01*
X154342574Y-110126147D01*
X154065335Y-110071000D01*
X153782665Y-110071000D01*
X153505426Y-110126147D01*
X153244273Y-110234320D01*
X153009241Y-110391363D01*
X152809363Y-110591241D01*
X152652320Y-110826273D01*
X152544147Y-111087426D01*
X152489000Y-111364665D01*
X145199000Y-111364665D01*
X145143853Y-111087426D01*
X145035680Y-110826273D01*
X144878637Y-110591241D01*
X144678759Y-110391363D01*
X144443727Y-110234320D01*
X144182574Y-110126147D01*
X143905335Y-110071000D01*
X143622665Y-110071000D01*
X143345426Y-110126147D01*
X143084273Y-110234320D01*
X142849241Y-110391363D01*
X142649363Y-110591241D01*
X142492320Y-110826273D01*
X142384147Y-111087426D01*
X142329000Y-111364665D01*
X139219000Y-111364665D01*
X139219000Y-111328223D01*
X139149635Y-110979501D01*
X139013571Y-110651012D01*
X138816035Y-110355379D01*
X138564621Y-110103965D01*
X138268988Y-109906429D01*
X137940499Y-109770365D01*
X137591777Y-109701000D01*
X137236223Y-109701000D01*
X136887501Y-109770365D01*
X136559012Y-109906429D01*
X136263379Y-110103965D01*
X136011965Y-110355379D01*
X135814429Y-110651012D01*
X135678365Y-110979501D01*
X135609000Y-111328223D01*
X134211061Y-111328223D01*
X134181139Y-111097530D01*
X134067495Y-110760627D01*
X133952389Y-110545275D01*
X133670602Y-110429003D01*
X132593605Y-111506000D01*
X132234395Y-111506000D01*
X131157398Y-110429003D01*
X130875611Y-110545275D01*
X130717743Y-110863860D01*
X130625062Y-111207122D01*
X130601127Y-111561869D01*
X92989000Y-111561869D01*
X92989000Y-110249398D01*
X131337003Y-110249398D01*
X132414000Y-111326395D01*
X133490997Y-110249398D01*
X133374725Y-109967611D01*
X133056140Y-109809743D01*
X132712878Y-109717062D01*
X132358131Y-109693127D01*
X132005530Y-109738861D01*
X131668627Y-109852505D01*
X131453275Y-109967611D01*
X131337003Y-110249398D01*
X92989000Y-110249398D01*
X92989000Y-103981039D01*
X133736096Y-103981039D01*
X133776754Y-104115087D01*
X133896963Y-104369420D01*
X134064481Y-104595414D01*
X134272869Y-104784385D01*
X134514119Y-104929070D01*
X134778960Y-105023909D01*
X135001000Y-104902624D01*
X135001000Y-103759000D01*
X135255000Y-103759000D01*
X135255000Y-104902624D01*
X135477040Y-105023909D01*
X135741881Y-104929070D01*
X135983131Y-104784385D01*
X136191519Y-104595414D01*
X136359037Y-104369420D01*
X136479246Y-104115087D01*
X136519904Y-103981039D01*
X136397915Y-103759000D01*
X135255000Y-103759000D01*
X135001000Y-103759000D01*
X133858085Y-103759000D01*
X133736096Y-103981039D01*
X92989000Y-103981039D01*
X92989000Y-95212000D01*
X133689928Y-95212000D01*
X133689928Y-96812000D01*
X133702188Y-96936482D01*
X133738498Y-97056180D01*
X133797463Y-97166494D01*
X133876815Y-97263185D01*
X133973506Y-97342537D01*
X134083820Y-97401502D01*
X134203518Y-97437812D01*
X134211961Y-97438643D01*
X134013363Y-97637241D01*
X133856320Y-97872273D01*
X133748147Y-98133426D01*
X133693000Y-98410665D01*
X133693000Y-98693335D01*
X133748147Y-98970574D01*
X133856320Y-99231727D01*
X134013363Y-99466759D01*
X134213241Y-99666637D01*
X134445759Y-99822000D01*
X134213241Y-99977363D01*
X134013363Y-100177241D01*
X133856320Y-100412273D01*
X133748147Y-100673426D01*
X133693000Y-100950665D01*
X133693000Y-101233335D01*
X133748147Y-101510574D01*
X133856320Y-101771727D01*
X134013363Y-102006759D01*
X134213241Y-102206637D01*
X134448273Y-102363680D01*
X134458865Y-102368067D01*
X134272869Y-102479615D01*
X134064481Y-102668586D01*
X133896963Y-102894580D01*
X133776754Y-103148913D01*
X133736096Y-103282961D01*
X133858085Y-103505000D01*
X135001000Y-103505000D01*
X135001000Y-103485000D01*
X135255000Y-103485000D01*
X135255000Y-103505000D01*
X136397915Y-103505000D01*
X136519904Y-103282961D01*
X136479246Y-103148913D01*
X136359037Y-102894580D01*
X136191519Y-102668586D01*
X135983131Y-102479615D01*
X135797135Y-102368067D01*
X135807727Y-102363680D01*
X136042759Y-102206637D01*
X136242637Y-102006759D01*
X136399680Y-101771727D01*
X136507853Y-101510574D01*
X136563000Y-101233335D01*
X136563000Y-100950665D01*
X136507853Y-100673426D01*
X136399680Y-100412273D01*
X136242637Y-100177241D01*
X136042759Y-99977363D01*
X135810241Y-99822000D01*
X136042759Y-99666637D01*
X136242637Y-99466759D01*
X136399680Y-99231727D01*
X136507853Y-98970574D01*
X136563000Y-98693335D01*
X136563000Y-98410665D01*
X136507853Y-98133426D01*
X136399680Y-97872273D01*
X136242637Y-97637241D01*
X136044039Y-97438643D01*
X136052482Y-97437812D01*
X136172180Y-97401502D01*
X136282494Y-97342537D01*
X136379185Y-97263185D01*
X136458537Y-97166494D01*
X136517502Y-97056180D01*
X136553812Y-96936482D01*
X136566072Y-96812000D01*
X136566072Y-95870665D01*
X141313000Y-95870665D01*
X141313000Y-96153335D01*
X141368147Y-96430574D01*
X141476320Y-96691727D01*
X141633363Y-96926759D01*
X141833241Y-97126637D01*
X142065759Y-97282000D01*
X141833241Y-97437363D01*
X141633363Y-97637241D01*
X141476320Y-97872273D01*
X141368147Y-98133426D01*
X141313000Y-98410665D01*
X141313000Y-98693335D01*
X141368147Y-98970574D01*
X141476320Y-99231727D01*
X141633363Y-99466759D01*
X141833241Y-99666637D01*
X142065759Y-99822000D01*
X141833241Y-99977363D01*
X141633363Y-100177241D01*
X141476320Y-100412273D01*
X141368147Y-100673426D01*
X141313000Y-100950665D01*
X141313000Y-101233335D01*
X141368147Y-101510574D01*
X141476320Y-101771727D01*
X141633363Y-102006759D01*
X141833241Y-102206637D01*
X142065759Y-102362000D01*
X141833241Y-102517363D01*
X141633363Y-102717241D01*
X141476320Y-102952273D01*
X141368147Y-103213426D01*
X141313000Y-103490665D01*
X141313000Y-103773335D01*
X141368147Y-104050574D01*
X141476320Y-104311727D01*
X141633363Y-104546759D01*
X141833241Y-104746637D01*
X142068273Y-104903680D01*
X142329426Y-105011853D01*
X142606665Y-105067000D01*
X142889335Y-105067000D01*
X143166574Y-105011853D01*
X143427727Y-104903680D01*
X143662759Y-104746637D01*
X143862637Y-104546759D01*
X144019680Y-104311727D01*
X144127853Y-104050574D01*
X144183000Y-103773335D01*
X144183000Y-103490665D01*
X144127853Y-103213426D01*
X144019680Y-102952273D01*
X143862637Y-102717241D01*
X143662759Y-102517363D01*
X143430241Y-102362000D01*
X143662759Y-102206637D01*
X143862637Y-102006759D01*
X144019680Y-101771727D01*
X144127853Y-101510574D01*
X144183000Y-101233335D01*
X144183000Y-100950665D01*
X148933000Y-100950665D01*
X148933000Y-101233335D01*
X148988147Y-101510574D01*
X149096320Y-101771727D01*
X149253363Y-102006759D01*
X149453241Y-102206637D01*
X149688273Y-102363680D01*
X149949426Y-102471853D01*
X150226665Y-102527000D01*
X150509335Y-102527000D01*
X150786574Y-102471853D01*
X151047727Y-102363680D01*
X151282759Y-102206637D01*
X151482637Y-102006759D01*
X151639680Y-101771727D01*
X151747853Y-101510574D01*
X151803000Y-101233335D01*
X151803000Y-100950665D01*
X151747853Y-100673426D01*
X151639680Y-100412273D01*
X151482637Y-100177241D01*
X151282759Y-99977363D01*
X151047727Y-99820320D01*
X150786574Y-99712147D01*
X150509335Y-99657000D01*
X150226665Y-99657000D01*
X149949426Y-99712147D01*
X149688273Y-99820320D01*
X149453241Y-99977363D01*
X149253363Y-100177241D01*
X149096320Y-100412273D01*
X148988147Y-100673426D01*
X148933000Y-100950665D01*
X144183000Y-100950665D01*
X144127853Y-100673426D01*
X144019680Y-100412273D01*
X143862637Y-100177241D01*
X143662759Y-99977363D01*
X143430241Y-99822000D01*
X143662759Y-99666637D01*
X143862637Y-99466759D01*
X144019680Y-99231727D01*
X144127853Y-98970574D01*
X144183000Y-98693335D01*
X144183000Y-98410665D01*
X144127853Y-98133426D01*
X144019680Y-97872273D01*
X143862637Y-97637241D01*
X143662759Y-97437363D01*
X143430241Y-97282000D01*
X143662759Y-97126637D01*
X143862637Y-96926759D01*
X144019680Y-96691727D01*
X144127853Y-96430574D01*
X144183000Y-96153335D01*
X144183000Y-95870665D01*
X144127853Y-95593426D01*
X144019680Y-95332273D01*
X143862637Y-95097241D01*
X143662759Y-94897363D01*
X143427727Y-94740320D01*
X143166574Y-94632147D01*
X142889335Y-94577000D01*
X142606665Y-94577000D01*
X142329426Y-94632147D01*
X142068273Y-94740320D01*
X141833241Y-94897363D01*
X141633363Y-95097241D01*
X141476320Y-95332273D01*
X141368147Y-95593426D01*
X141313000Y-95870665D01*
X136566072Y-95870665D01*
X136566072Y-95212000D01*
X136553812Y-95087518D01*
X136517502Y-94967820D01*
X136458537Y-94857506D01*
X136379185Y-94760815D01*
X136282494Y-94681463D01*
X136172180Y-94622498D01*
X136052482Y-94586188D01*
X135928000Y-94573928D01*
X134328000Y-94573928D01*
X134203518Y-94586188D01*
X134083820Y-94622498D01*
X133973506Y-94681463D01*
X133876815Y-94760815D01*
X133797463Y-94857506D01*
X133738498Y-94967820D01*
X133702188Y-95087518D01*
X133689928Y-95212000D01*
X92989000Y-95212000D01*
X92989000Y-94161402D01*
X154532401Y-94161402D01*
X154532401Y-94456600D01*
X154589991Y-94746126D01*
X154702959Y-95018854D01*
X154866962Y-95264303D01*
X155075699Y-95473040D01*
X155234282Y-95579001D01*
X155075699Y-95684962D01*
X154866962Y-95893699D01*
X154702959Y-96139148D01*
X154589991Y-96411876D01*
X154532401Y-96701402D01*
X154532401Y-96996600D01*
X154589991Y-97286126D01*
X154702959Y-97558854D01*
X154866962Y-97804303D01*
X155075699Y-98013040D01*
X155234282Y-98119001D01*
X155075699Y-98224962D01*
X154866962Y-98433699D01*
X154702959Y-98679148D01*
X154589991Y-98951876D01*
X154532401Y-99241402D01*
X154532401Y-99536600D01*
X154589991Y-99826126D01*
X154702959Y-100098854D01*
X154866962Y-100344303D01*
X155075699Y-100553040D01*
X155321148Y-100717043D01*
X155593876Y-100830011D01*
X155883402Y-100887601D01*
X156178600Y-100887601D01*
X156468126Y-100830011D01*
X156740854Y-100717043D01*
X156986303Y-100553040D01*
X157195040Y-100344303D01*
X157301001Y-100185720D01*
X157406962Y-100344303D01*
X157615699Y-100553040D01*
X157861148Y-100717043D01*
X158133876Y-100830011D01*
X158423402Y-100887601D01*
X158718600Y-100887601D01*
X159008126Y-100830011D01*
X159280854Y-100717043D01*
X159526303Y-100553040D01*
X159735040Y-100344303D01*
X159899043Y-100098854D01*
X160012011Y-99826126D01*
X160069601Y-99536600D01*
X160069601Y-99241402D01*
X160012011Y-98951876D01*
X159899043Y-98679148D01*
X159735040Y-98433699D01*
X159526303Y-98224962D01*
X159367720Y-98119001D01*
X159526303Y-98013040D01*
X159735040Y-97804303D01*
X159899043Y-97558854D01*
X160012011Y-97286126D01*
X160069601Y-96996600D01*
X160069601Y-96701402D01*
X160012011Y-96411876D01*
X159899043Y-96139148D01*
X159735040Y-95893699D01*
X159526303Y-95684962D01*
X159367720Y-95579001D01*
X159526303Y-95473040D01*
X159735040Y-95264303D01*
X159899043Y-95018854D01*
X160012011Y-94746126D01*
X160069601Y-94456600D01*
X160069601Y-94161402D01*
X160012011Y-93871876D01*
X159899043Y-93599148D01*
X159735040Y-93353699D01*
X159526303Y-93144962D01*
X159280854Y-92980959D01*
X159008126Y-92867991D01*
X158718600Y-92810401D01*
X158423402Y-92810401D01*
X158133876Y-92867991D01*
X157861148Y-92980959D01*
X157615699Y-93144962D01*
X157406962Y-93353699D01*
X157301001Y-93512282D01*
X157195040Y-93353699D01*
X156986303Y-93144962D01*
X156740854Y-92980959D01*
X156468126Y-92867991D01*
X156178600Y-92810401D01*
X155883402Y-92810401D01*
X155593876Y-92867991D01*
X155321148Y-92980959D01*
X155075699Y-93144962D01*
X154866962Y-93353699D01*
X154702959Y-93599148D01*
X154589991Y-93871876D01*
X154532401Y-94161402D01*
X92989000Y-94161402D01*
X92989000Y-90790665D01*
X148933000Y-90790665D01*
X148933000Y-91073335D01*
X148988147Y-91350574D01*
X149096320Y-91611727D01*
X149253363Y-91846759D01*
X149453241Y-92046637D01*
X149688273Y-92203680D01*
X149949426Y-92311853D01*
X150226665Y-92367000D01*
X150509335Y-92367000D01*
X150786574Y-92311853D01*
X151047727Y-92203680D01*
X151282759Y-92046637D01*
X151482637Y-91846759D01*
X151639680Y-91611727D01*
X151747853Y-91350574D01*
X151803000Y-91073335D01*
X151803000Y-90790665D01*
X151747853Y-90513426D01*
X151639680Y-90252273D01*
X151482637Y-90017241D01*
X151282759Y-89817363D01*
X151047727Y-89660320D01*
X150786574Y-89552147D01*
X150509335Y-89497000D01*
X150226665Y-89497000D01*
X149949426Y-89552147D01*
X149688273Y-89660320D01*
X149453241Y-89817363D01*
X149253363Y-90017241D01*
X149096320Y-90252273D01*
X148988147Y-90513426D01*
X148933000Y-90790665D01*
X92989000Y-90790665D01*
X92989000Y-85867000D01*
X97227928Y-85867000D01*
X97227928Y-87617000D01*
X97257001Y-87912186D01*
X97343104Y-88196028D01*
X97482927Y-88457618D01*
X97671097Y-88686903D01*
X97900382Y-88875073D01*
X98161972Y-89014896D01*
X98445814Y-89100999D01*
X98741000Y-89130072D01*
X100491000Y-89130072D01*
X100786186Y-89100999D01*
X101070028Y-89014896D01*
X101081296Y-89008873D01*
X156209001Y-89008873D01*
X156209001Y-89449129D01*
X156294891Y-89880926D01*
X156463370Y-90287670D01*
X156707963Y-90653730D01*
X157019272Y-90965039D01*
X157385332Y-91209632D01*
X157792076Y-91378111D01*
X158223873Y-91464001D01*
X158664129Y-91464001D01*
X159095926Y-91378111D01*
X159502670Y-91209632D01*
X159868730Y-90965039D01*
X160180039Y-90653730D01*
X160424632Y-90287670D01*
X160593111Y-89880926D01*
X160679001Y-89449129D01*
X160679001Y-89008873D01*
X160593111Y-88577076D01*
X160424632Y-88170332D01*
X160180039Y-87804272D01*
X159868730Y-87492963D01*
X159502670Y-87248370D01*
X159095926Y-87079891D01*
X158664129Y-86994001D01*
X158223873Y-86994001D01*
X157792076Y-87079891D01*
X157385332Y-87248370D01*
X157019272Y-87492963D01*
X156707963Y-87804272D01*
X156463370Y-88170332D01*
X156294891Y-88577076D01*
X156209001Y-89008873D01*
X101081296Y-89008873D01*
X101331618Y-88875073D01*
X101560903Y-88686903D01*
X101749073Y-88457618D01*
X101888896Y-88196028D01*
X101974999Y-87912186D01*
X102004072Y-87617000D01*
X102004072Y-85867000D01*
X101974999Y-85571814D01*
X101934722Y-85439039D01*
X113162096Y-85439039D01*
X113202754Y-85573087D01*
X113322963Y-85827420D01*
X113490481Y-86053414D01*
X113698869Y-86242385D01*
X113940119Y-86387070D01*
X114204960Y-86481909D01*
X114427000Y-86360624D01*
X114427000Y-85217000D01*
X114681000Y-85217000D01*
X114681000Y-86360624D01*
X114903040Y-86481909D01*
X115167881Y-86387070D01*
X115409131Y-86242385D01*
X115617519Y-86053414D01*
X115785037Y-85827420D01*
X115905246Y-85573087D01*
X115945904Y-85439039D01*
X115823915Y-85217000D01*
X114681000Y-85217000D01*
X114427000Y-85217000D01*
X113284085Y-85217000D01*
X113162096Y-85439039D01*
X101934722Y-85439039D01*
X101888896Y-85287972D01*
X101749073Y-85026382D01*
X101560903Y-84797097D01*
X101492502Y-84740961D01*
X113162096Y-84740961D01*
X113284085Y-84963000D01*
X114427000Y-84963000D01*
X114427000Y-83819376D01*
X114681000Y-83819376D01*
X114681000Y-84963000D01*
X115823915Y-84963000D01*
X115831790Y-84948665D01*
X123279000Y-84948665D01*
X123279000Y-85231335D01*
X123334147Y-85508574D01*
X123442320Y-85769727D01*
X123599363Y-86004759D01*
X123799241Y-86204637D01*
X124034273Y-86361680D01*
X124295426Y-86469853D01*
X124572665Y-86525000D01*
X124855335Y-86525000D01*
X125132574Y-86469853D01*
X125393727Y-86361680D01*
X125628759Y-86204637D01*
X125828637Y-86004759D01*
X125985680Y-85769727D01*
X126093853Y-85508574D01*
X126149000Y-85231335D01*
X126149000Y-84948665D01*
X126093853Y-84671426D01*
X125985680Y-84410273D01*
X125828637Y-84175241D01*
X125628759Y-83975363D01*
X125393727Y-83818320D01*
X125132574Y-83710147D01*
X124855335Y-83655000D01*
X124572665Y-83655000D01*
X124295426Y-83710147D01*
X124034273Y-83818320D01*
X123799241Y-83975363D01*
X123599363Y-84175241D01*
X123442320Y-84410273D01*
X123334147Y-84671426D01*
X123279000Y-84948665D01*
X115831790Y-84948665D01*
X115945904Y-84740961D01*
X115905246Y-84606913D01*
X115785037Y-84352580D01*
X115617519Y-84126586D01*
X115409131Y-83937615D01*
X115167881Y-83792930D01*
X114903040Y-83698091D01*
X114681000Y-83819376D01*
X114427000Y-83819376D01*
X114204960Y-83698091D01*
X113940119Y-83792930D01*
X113698869Y-83937615D01*
X113490481Y-84126586D01*
X113322963Y-84352580D01*
X113202754Y-84606913D01*
X113162096Y-84740961D01*
X101492502Y-84740961D01*
X101331618Y-84608927D01*
X101070028Y-84469104D01*
X100941357Y-84430072D01*
X104366000Y-84430072D01*
X104490482Y-84417812D01*
X104610180Y-84381502D01*
X104720494Y-84322537D01*
X104817185Y-84243185D01*
X104896537Y-84146494D01*
X104955502Y-84036180D01*
X104991812Y-83916482D01*
X105004072Y-83792000D01*
X105004072Y-82158000D01*
X134097928Y-82158000D01*
X134097928Y-83958000D01*
X134110188Y-84082482D01*
X134146498Y-84202180D01*
X134205463Y-84312494D01*
X134284815Y-84409185D01*
X134381506Y-84488537D01*
X134491820Y-84547502D01*
X134611518Y-84583812D01*
X134736000Y-84596072D01*
X136536000Y-84596072D01*
X136660482Y-84583812D01*
X136780180Y-84547502D01*
X136890494Y-84488537D01*
X136987185Y-84409185D01*
X137066537Y-84312494D01*
X137125502Y-84202180D01*
X137131056Y-84183873D01*
X137197495Y-84250312D01*
X137448905Y-84418299D01*
X137728257Y-84534011D01*
X138024816Y-84593000D01*
X138327184Y-84593000D01*
X138623743Y-84534011D01*
X138903095Y-84418299D01*
X139154505Y-84250312D01*
X139368312Y-84036505D01*
X139446000Y-83920237D01*
X139523688Y-84036505D01*
X139737495Y-84250312D01*
X139988905Y-84418299D01*
X140268257Y-84534011D01*
X140564816Y-84593000D01*
X140867184Y-84593000D01*
X141163743Y-84534011D01*
X141443095Y-84418299D01*
X141694505Y-84250312D01*
X141908312Y-84036505D01*
X142076299Y-83785095D01*
X142192011Y-83505743D01*
X142251000Y-83209184D01*
X142251000Y-82906816D01*
X142192011Y-82610257D01*
X142076299Y-82330905D01*
X141908312Y-82079495D01*
X141901867Y-82073050D01*
X166449000Y-82073050D01*
X166449000Y-82518949D01*
X166470487Y-82737110D01*
X166555401Y-83017033D01*
X166693294Y-83275013D01*
X166878866Y-83501134D01*
X167104986Y-83686706D01*
X167362966Y-83824599D01*
X167642889Y-83909513D01*
X167934000Y-83938185D01*
X168225110Y-83909513D01*
X168505033Y-83824599D01*
X168763013Y-83686706D01*
X168989134Y-83501134D01*
X169041223Y-83437663D01*
X169095595Y-83539386D01*
X169206038Y-83673962D01*
X169340614Y-83784405D01*
X169494150Y-83866472D01*
X169660746Y-83917008D01*
X169834000Y-83934072D01*
X171034000Y-83934072D01*
X171207254Y-83917008D01*
X171373850Y-83866472D01*
X171527386Y-83784405D01*
X171661962Y-83673962D01*
X171772405Y-83539386D01*
X171854472Y-83385850D01*
X171905008Y-83219254D01*
X171922072Y-83046000D01*
X171922072Y-81546000D01*
X171905008Y-81372746D01*
X171854472Y-81206150D01*
X171772405Y-81052614D01*
X171661962Y-80918038D01*
X171527386Y-80807595D01*
X171373850Y-80725528D01*
X171207254Y-80674992D01*
X171034000Y-80657928D01*
X169834000Y-80657928D01*
X169660746Y-80674992D01*
X169494150Y-80725528D01*
X169340614Y-80807595D01*
X169206038Y-80918038D01*
X169095595Y-81052614D01*
X169041223Y-81154337D01*
X168989134Y-81090866D01*
X168763014Y-80905294D01*
X168505034Y-80767401D01*
X168225111Y-80682487D01*
X167934000Y-80653815D01*
X167642890Y-80682487D01*
X167362967Y-80767401D01*
X167104987Y-80905294D01*
X166878866Y-81090866D01*
X166693294Y-81316986D01*
X166555401Y-81574966D01*
X166470487Y-81854889D01*
X166449000Y-82073050D01*
X141901867Y-82073050D01*
X141694505Y-81865688D01*
X141443095Y-81697701D01*
X141163743Y-81581989D01*
X140867184Y-81523000D01*
X140564816Y-81523000D01*
X140268257Y-81581989D01*
X139988905Y-81697701D01*
X139737495Y-81865688D01*
X139523688Y-82079495D01*
X139446000Y-82195763D01*
X139368312Y-82079495D01*
X139154505Y-81865688D01*
X138903095Y-81697701D01*
X138623743Y-81581989D01*
X138327184Y-81523000D01*
X138024816Y-81523000D01*
X137728257Y-81581989D01*
X137448905Y-81697701D01*
X137197495Y-81865688D01*
X137131056Y-81932127D01*
X137125502Y-81913820D01*
X137066537Y-81803506D01*
X136987185Y-81706815D01*
X136890494Y-81627463D01*
X136780180Y-81568498D01*
X136660482Y-81532188D01*
X136536000Y-81519928D01*
X134736000Y-81519928D01*
X134611518Y-81532188D01*
X134491820Y-81568498D01*
X134381506Y-81627463D01*
X134284815Y-81706815D01*
X134205463Y-81803506D01*
X134146498Y-81913820D01*
X134110188Y-82033518D01*
X134097928Y-82158000D01*
X105004072Y-82158000D01*
X105004072Y-80613039D01*
X113162096Y-80613039D01*
X113202754Y-80747087D01*
X113322963Y-81001420D01*
X113490481Y-81227414D01*
X113698869Y-81416385D01*
X113940119Y-81561070D01*
X114204960Y-81655909D01*
X114427000Y-81534624D01*
X114427000Y-80391000D01*
X114681000Y-80391000D01*
X114681000Y-81534624D01*
X114903040Y-81655909D01*
X115167881Y-81561070D01*
X115409131Y-81416385D01*
X115617519Y-81227414D01*
X115785037Y-81001420D01*
X115905246Y-80747087D01*
X115945904Y-80613039D01*
X115823915Y-80391000D01*
X114681000Y-80391000D01*
X114427000Y-80391000D01*
X113284085Y-80391000D01*
X113162096Y-80613039D01*
X105004072Y-80613039D01*
X105004072Y-80292000D01*
X104991812Y-80167518D01*
X104955502Y-80047820D01*
X104896537Y-79937506D01*
X104878035Y-79914961D01*
X113162096Y-79914961D01*
X113284085Y-80137000D01*
X114427000Y-80137000D01*
X114427000Y-78993376D01*
X114681000Y-78993376D01*
X114681000Y-80137000D01*
X115823915Y-80137000D01*
X115831790Y-80122665D01*
X123279000Y-80122665D01*
X123279000Y-80405335D01*
X123334147Y-80682574D01*
X123442320Y-80943727D01*
X123599363Y-81178759D01*
X123799241Y-81378637D01*
X124034273Y-81535680D01*
X124295426Y-81643853D01*
X124572665Y-81699000D01*
X124855335Y-81699000D01*
X125132574Y-81643853D01*
X125393727Y-81535680D01*
X125628759Y-81378637D01*
X125828637Y-81178759D01*
X125985680Y-80943727D01*
X126093853Y-80682574D01*
X126149000Y-80405335D01*
X126149000Y-80122665D01*
X126093853Y-79845426D01*
X125985680Y-79584273D01*
X125828637Y-79349241D01*
X125628759Y-79149363D01*
X125393727Y-78992320D01*
X125132574Y-78884147D01*
X124855335Y-78829000D01*
X124572665Y-78829000D01*
X124295426Y-78884147D01*
X124034273Y-78992320D01*
X123799241Y-79149363D01*
X123599363Y-79349241D01*
X123442320Y-79584273D01*
X123334147Y-79845426D01*
X123279000Y-80122665D01*
X115831790Y-80122665D01*
X115945904Y-79914961D01*
X115905246Y-79780913D01*
X115785037Y-79526580D01*
X115617519Y-79300586D01*
X115409131Y-79111615D01*
X115167881Y-78966930D01*
X114903040Y-78872091D01*
X114681000Y-78993376D01*
X114427000Y-78993376D01*
X114204960Y-78872091D01*
X113940119Y-78966930D01*
X113698869Y-79111615D01*
X113490481Y-79300586D01*
X113322963Y-79526580D01*
X113202754Y-79780913D01*
X113162096Y-79914961D01*
X104878035Y-79914961D01*
X104817185Y-79840815D01*
X104720494Y-79761463D01*
X104610180Y-79702498D01*
X104490482Y-79666188D01*
X104366000Y-79653928D01*
X100866000Y-79653928D01*
X100741518Y-79666188D01*
X100621820Y-79702498D01*
X100511506Y-79761463D01*
X100414815Y-79840815D01*
X100335463Y-79937506D01*
X100276498Y-80047820D01*
X100240188Y-80167518D01*
X100227928Y-80292000D01*
X100227928Y-83792000D01*
X100240188Y-83916482D01*
X100276498Y-84036180D01*
X100335463Y-84146494D01*
X100414815Y-84243185D01*
X100511506Y-84322537D01*
X100588131Y-84363494D01*
X100491000Y-84353928D01*
X98741000Y-84353928D01*
X98445814Y-84383001D01*
X98161972Y-84469104D01*
X97900382Y-84608927D01*
X97671097Y-84797097D01*
X97482927Y-85026382D01*
X97343104Y-85287972D01*
X97257001Y-85571814D01*
X97227928Y-85867000D01*
X92989000Y-85867000D01*
X92989000Y-83792000D01*
X94477928Y-83792000D01*
X94490188Y-83916482D01*
X94526498Y-84036180D01*
X94585463Y-84146494D01*
X94664815Y-84243185D01*
X94761506Y-84322537D01*
X94871820Y-84381502D01*
X94991518Y-84417812D01*
X95116000Y-84430072D01*
X96330250Y-84427000D01*
X96489000Y-84268250D01*
X96489000Y-82169000D01*
X96743000Y-82169000D01*
X96743000Y-84268250D01*
X96901750Y-84427000D01*
X98116000Y-84430072D01*
X98240482Y-84417812D01*
X98360180Y-84381502D01*
X98470494Y-84322537D01*
X98567185Y-84243185D01*
X98646537Y-84146494D01*
X98705502Y-84036180D01*
X98741812Y-83916482D01*
X98754072Y-83792000D01*
X98751000Y-82327750D01*
X98592250Y-82169000D01*
X96743000Y-82169000D01*
X96489000Y-82169000D01*
X94639750Y-82169000D01*
X94481000Y-82327750D01*
X94477928Y-83792000D01*
X92989000Y-83792000D01*
X92989000Y-80292000D01*
X94477928Y-80292000D01*
X94481000Y-81756250D01*
X94639750Y-81915000D01*
X96489000Y-81915000D01*
X96489000Y-79815750D01*
X96743000Y-79815750D01*
X96743000Y-81915000D01*
X98592250Y-81915000D01*
X98751000Y-81756250D01*
X98754072Y-80292000D01*
X98741812Y-80167518D01*
X98705502Y-80047820D01*
X98646537Y-79937506D01*
X98567185Y-79840815D01*
X98470494Y-79761463D01*
X98360180Y-79702498D01*
X98240482Y-79666188D01*
X98116000Y-79653928D01*
X96901750Y-79657000D01*
X96743000Y-79815750D01*
X96489000Y-79815750D01*
X96330250Y-79657000D01*
X95116000Y-79653928D01*
X94991518Y-79666188D01*
X94871820Y-79702498D01*
X94761506Y-79761463D01*
X94664815Y-79840815D01*
X94585463Y-79937506D01*
X94526498Y-80047820D01*
X94490188Y-80167518D01*
X94477928Y-80292000D01*
X92989000Y-80292000D01*
X92989000Y-72034000D01*
X106546974Y-72034000D01*
X106219272Y-72252963D01*
G37*
X106219272Y-72252963D02*
X105907963Y-72564272D01*
X105663370Y-72930332D01*
X105494891Y-73337076D01*
X105409001Y-73768873D01*
X105409001Y-74209129D01*
X105494891Y-74640926D01*
X105663370Y-75047670D01*
X105907963Y-75413730D01*
X106219272Y-75725039D01*
X106585332Y-75969632D01*
X106992076Y-76138111D01*
X107423873Y-76224001D01*
X107864129Y-76224001D01*
X108295926Y-76138111D01*
X108702670Y-75969632D01*
X109068730Y-75725039D01*
X109380039Y-75413730D01*
X109624632Y-75047670D01*
X109793111Y-74640926D01*
X109810907Y-74551461D01*
X109871959Y-74698854D01*
X110035962Y-74944303D01*
X110244699Y-75153040D01*
X110490148Y-75317043D01*
X110762876Y-75430011D01*
X111052402Y-75487601D01*
X111347600Y-75487601D01*
X111637126Y-75430011D01*
X111909854Y-75317043D01*
X112155303Y-75153040D01*
X112364040Y-74944303D01*
X112470001Y-74785720D01*
X112575962Y-74944303D01*
X112784699Y-75153040D01*
X113030148Y-75317043D01*
X113302876Y-75430011D01*
X113592402Y-75487601D01*
X113887600Y-75487601D01*
X114177126Y-75430011D01*
X114449854Y-75317043D01*
X114695303Y-75153040D01*
X114904040Y-74944303D01*
X115010001Y-74785720D01*
X115115962Y-74944303D01*
X115324699Y-75153040D01*
X115570148Y-75317043D01*
X115842876Y-75430011D01*
X116132402Y-75487601D01*
X116427600Y-75487601D01*
X116717126Y-75430011D01*
X116989854Y-75317043D01*
X117235303Y-75153040D01*
X117444040Y-74944303D01*
X117551693Y-74783188D01*
X117713147Y-74999294D01*
X117931513Y-75195818D01*
X118184023Y-75345965D01*
X118460974Y-75443964D01*
X118693001Y-75323465D01*
X118693001Y-74116001D01*
X118673001Y-74116001D01*
X118673001Y-73862001D01*
X118693001Y-73862001D01*
X118693001Y-72654537D01*
X118947001Y-72654537D01*
X118947001Y-73862001D01*
X118967001Y-73862001D01*
X118967001Y-74116001D01*
X118947001Y-74116001D01*
X118947001Y-75323465D01*
X119179028Y-75443964D01*
X119455979Y-75345965D01*
X119708489Y-75195818D01*
X119926855Y-74999294D01*
X120088309Y-74783188D01*
X120195962Y-74944303D01*
X120404699Y-75153040D01*
X120650148Y-75317043D01*
X120922876Y-75430011D01*
X121212402Y-75487601D01*
X121507600Y-75487601D01*
X121797126Y-75430011D01*
X122069854Y-75317043D01*
X122315303Y-75153040D01*
X122524040Y-74944303D01*
X122630001Y-74785720D01*
X122735962Y-74944303D01*
X122944699Y-75153040D01*
X123190148Y-75317043D01*
X123462876Y-75430011D01*
X123752402Y-75487601D01*
X124047600Y-75487601D01*
X124337126Y-75430011D01*
X124609854Y-75317043D01*
X124855303Y-75153040D01*
X125064040Y-74944303D01*
X125170001Y-74785720D01*
X125275962Y-74944303D01*
X125484699Y-75153040D01*
X125730148Y-75317043D01*
X126002876Y-75430011D01*
X126292402Y-75487601D01*
X126587600Y-75487601D01*
X126877126Y-75430011D01*
X127149854Y-75317043D01*
X127395303Y-75153040D01*
X127604040Y-74944303D01*
X127710001Y-74785720D01*
X127815962Y-74944303D01*
X128024699Y-75153040D01*
X128270148Y-75317043D01*
X128542876Y-75430011D01*
X128832402Y-75487601D01*
X129127600Y-75487601D01*
X129417126Y-75430011D01*
X129689854Y-75317043D01*
X129935303Y-75153040D01*
X130144040Y-74944303D01*
X130250001Y-74785720D01*
X130355962Y-74944303D01*
X130564699Y-75153040D01*
X130810148Y-75317043D01*
X131082876Y-75430011D01*
X131372402Y-75487601D01*
X131667600Y-75487601D01*
X131957126Y-75430011D01*
X132229854Y-75317043D01*
X132475303Y-75153040D01*
X132684040Y-74944303D01*
X132790001Y-74785720D01*
X132895962Y-74944303D01*
X133104699Y-75153040D01*
X133350148Y-75317043D01*
X133622876Y-75430011D01*
X133912402Y-75487601D01*
X134207600Y-75487601D01*
X134497126Y-75430011D01*
X134769854Y-75317043D01*
X135015303Y-75153040D01*
X135224040Y-74944303D01*
X135388043Y-74698854D01*
X135501011Y-74426126D01*
X135558601Y-74136600D01*
X135558601Y-73841402D01*
X136625401Y-73841402D01*
X136625401Y-74136600D01*
X136682991Y-74426126D01*
X136795959Y-74698854D01*
X136959962Y-74944303D01*
X137168699Y-75153040D01*
X137414148Y-75317043D01*
X137686876Y-75430011D01*
X137976402Y-75487601D01*
X138271600Y-75487601D01*
X138561126Y-75430011D01*
X138833854Y-75317043D01*
X139079303Y-75153040D01*
X139288040Y-74944303D01*
X139394001Y-74785720D01*
X139499962Y-74944303D01*
X139708699Y-75153040D01*
X139954148Y-75317043D01*
X140226876Y-75430011D01*
X140516402Y-75487601D01*
X140811600Y-75487601D01*
X141101126Y-75430011D01*
X141373854Y-75317043D01*
X141619303Y-75153040D01*
X141828040Y-74944303D01*
X141934001Y-74785720D01*
X142039962Y-74944303D01*
X142248699Y-75153040D01*
X142494148Y-75317043D01*
X142766876Y-75430011D01*
X143056402Y-75487601D01*
X143351600Y-75487601D01*
X143641126Y-75430011D01*
X143913854Y-75317043D01*
X144159303Y-75153040D01*
X144368040Y-74944303D01*
X144474001Y-74785720D01*
X144579962Y-74944303D01*
X144788699Y-75153040D01*
X145034148Y-75317043D01*
X145306876Y-75430011D01*
X145596402Y-75487601D01*
X145891600Y-75487601D01*
X146181126Y-75430011D01*
X146453854Y-75317043D01*
X146699303Y-75153040D01*
X146908040Y-74944303D01*
X147014001Y-74785720D01*
X147119962Y-74944303D01*
X147328699Y-75153040D01*
X147574148Y-75317043D01*
X147846876Y-75430011D01*
X148136402Y-75487601D01*
X148431600Y-75487601D01*
X148721126Y-75430011D01*
X148993854Y-75317043D01*
X149239303Y-75153040D01*
X149448040Y-74944303D01*
X149554001Y-74785720D01*
X149659962Y-74944303D01*
X149868699Y-75153040D01*
X150114148Y-75317043D01*
X150386876Y-75430011D01*
X150676402Y-75487601D01*
X150971600Y-75487601D01*
X151261126Y-75430011D01*
X151533854Y-75317043D01*
X151779303Y-75153040D01*
X151988040Y-74944303D01*
X152094001Y-74785720D01*
X152199962Y-74944303D01*
X152408699Y-75153040D01*
X152654148Y-75317043D01*
X152926876Y-75430011D01*
X153216402Y-75487601D01*
X153511600Y-75487601D01*
X153801126Y-75430011D01*
X154073854Y-75317043D01*
X154319303Y-75153040D01*
X154528040Y-74944303D01*
X154634001Y-74785720D01*
X154739962Y-74944303D01*
X154948699Y-75153040D01*
X155194148Y-75317043D01*
X155466876Y-75430011D01*
X155756402Y-75487601D01*
X156051600Y-75487601D01*
X156341126Y-75430011D01*
X156613854Y-75317043D01*
X156859303Y-75153040D01*
X157068040Y-74944303D01*
X157232043Y-74698854D01*
X157345011Y-74426126D01*
X157402601Y-74136600D01*
X157402601Y-73841402D01*
X159485401Y-73841402D01*
X159485401Y-74136600D01*
X159542991Y-74426126D01*
X159655959Y-74698854D01*
X159819962Y-74944303D01*
X160028699Y-75153040D01*
X160274148Y-75317043D01*
X160546876Y-75430011D01*
X160836402Y-75487601D01*
X161131600Y-75487601D01*
X161421126Y-75430011D01*
X161693854Y-75317043D01*
X161939303Y-75153040D01*
X162148040Y-74944303D01*
X162254001Y-74785720D01*
X162359962Y-74944303D01*
X162568699Y-75153040D01*
X162814148Y-75317043D01*
X163086876Y-75430011D01*
X163376402Y-75487601D01*
X163671600Y-75487601D01*
X163961126Y-75430011D01*
X164233854Y-75317043D01*
X164479303Y-75153040D01*
X164688040Y-74944303D01*
X164794001Y-74785720D01*
X164899962Y-74944303D01*
X165108699Y-75153040D01*
X165354148Y-75317043D01*
X165626876Y-75430011D01*
X165916402Y-75487601D01*
X166211600Y-75487601D01*
X166501126Y-75430011D01*
X166773854Y-75317043D01*
X167019303Y-75153040D01*
X167228040Y-74944303D01*
X167334001Y-74785720D01*
X167439962Y-74944303D01*
X167648699Y-75153040D01*
X167894148Y-75317043D01*
X168166876Y-75430011D01*
X168456402Y-75487601D01*
X168751600Y-75487601D01*
X169041126Y-75430011D01*
X169313854Y-75317043D01*
X169559303Y-75153040D01*
X169768040Y-74944303D01*
X169874001Y-74785720D01*
X169979962Y-74944303D01*
X170188699Y-75153040D01*
X170434148Y-75317043D01*
X170706876Y-75430011D01*
X170996402Y-75487601D01*
X171291600Y-75487601D01*
X171581126Y-75430011D01*
X171853854Y-75317043D01*
X172099303Y-75153040D01*
X172308040Y-74944303D01*
X172414001Y-74785720D01*
X172519962Y-74944303D01*
X172728699Y-75153040D01*
X172974148Y-75317043D01*
X173246876Y-75430011D01*
X173536402Y-75487601D01*
X173831600Y-75487601D01*
X174121126Y-75430011D01*
X174393854Y-75317043D01*
X174639303Y-75153040D01*
X174848040Y-74944303D01*
X174954001Y-74785720D01*
X175059962Y-74944303D01*
X175268699Y-75153040D01*
X175514148Y-75317043D01*
X175786876Y-75430011D01*
X176076402Y-75487601D01*
X176371600Y-75487601D01*
X176661126Y-75430011D01*
X176933854Y-75317043D01*
X177179303Y-75153040D01*
X177388040Y-74944303D01*
X177494001Y-74785720D01*
X177599962Y-74944303D01*
X177808699Y-75153040D01*
X178054148Y-75317043D01*
X178326876Y-75430011D01*
X178616402Y-75487601D01*
X178911600Y-75487601D01*
X179201126Y-75430011D01*
X179473854Y-75317043D01*
X179719303Y-75153040D01*
X179928040Y-74944303D01*
X180092043Y-74698854D01*
X180205011Y-74426126D01*
X180262601Y-74136600D01*
X180262601Y-73841402D01*
X180205011Y-73551876D01*
X180092043Y-73279148D01*
X179928040Y-73033699D01*
X179719303Y-72824962D01*
X179473854Y-72660959D01*
X179201126Y-72547991D01*
X178911600Y-72490401D01*
X178616402Y-72490401D01*
X178326876Y-72547991D01*
X178054148Y-72660959D01*
X177808699Y-72824962D01*
X177599962Y-73033699D01*
X177494001Y-73192282D01*
X177388040Y-73033699D01*
X177179303Y-72824962D01*
X176933854Y-72660959D01*
X176661126Y-72547991D01*
X176371600Y-72490401D01*
X176076402Y-72490401D01*
X175786876Y-72547991D01*
X175514148Y-72660959D01*
X175268699Y-72824962D01*
X175059962Y-73033699D01*
X174954001Y-73192282D01*
X174848040Y-73033699D01*
X174639303Y-72824962D01*
X174393854Y-72660959D01*
X174121126Y-72547991D01*
X173831600Y-72490401D01*
X173536402Y-72490401D01*
X173246876Y-72547991D01*
X172974148Y-72660959D01*
X172728699Y-72824962D01*
X172519962Y-73033699D01*
X172414001Y-73192282D01*
X172308040Y-73033699D01*
X172099303Y-72824962D01*
X171853854Y-72660959D01*
X171581126Y-72547991D01*
X171291600Y-72490401D01*
X170996402Y-72490401D01*
X170706876Y-72547991D01*
X170434148Y-72660959D01*
X170188699Y-72824962D01*
X169979962Y-73033699D01*
X169874001Y-73192282D01*
X169768040Y-73033699D01*
X169559303Y-72824962D01*
X169313854Y-72660959D01*
X169041126Y-72547991D01*
X168751600Y-72490401D01*
X168456402Y-72490401D01*
X168166876Y-72547991D01*
X167894148Y-72660959D01*
X167648699Y-72824962D01*
X167439962Y-73033699D01*
X167334001Y-73192282D01*
X167228040Y-73033699D01*
X167019303Y-72824962D01*
X166773854Y-72660959D01*
X166501126Y-72547991D01*
X166211600Y-72490401D01*
X165916402Y-72490401D01*
X165626876Y-72547991D01*
X165354148Y-72660959D01*
X165108699Y-72824962D01*
X164899962Y-73033699D01*
X164794001Y-73192282D01*
X164688040Y-73033699D01*
X164479303Y-72824962D01*
X164233854Y-72660959D01*
X163961126Y-72547991D01*
X163671600Y-72490401D01*
X163376402Y-72490401D01*
X163086876Y-72547991D01*
X162814148Y-72660959D01*
X162568699Y-72824962D01*
X162359962Y-73033699D01*
X162254001Y-73192282D01*
X162148040Y-73033699D01*
X161939303Y-72824962D01*
X161693854Y-72660959D01*
X161421126Y-72547991D01*
X161131600Y-72490401D01*
X160836402Y-72490401D01*
X160546876Y-72547991D01*
X160274148Y-72660959D01*
X160028699Y-72824962D01*
X159819962Y-73033699D01*
X159655959Y-73279148D01*
X159542991Y-73551876D01*
X159485401Y-73841402D01*
X157402601Y-73841402D01*
X157345011Y-73551876D01*
X157232043Y-73279148D01*
X157068040Y-73033699D01*
X156859303Y-72824962D01*
X156613854Y-72660959D01*
X156341126Y-72547991D01*
X156051600Y-72490401D01*
X155756402Y-72490401D01*
X155466876Y-72547991D01*
X155194148Y-72660959D01*
X154948699Y-72824962D01*
X154739962Y-73033699D01*
X154634001Y-73192282D01*
X154528040Y-73033699D01*
X154319303Y-72824962D01*
X154073854Y-72660959D01*
X153801126Y-72547991D01*
X153511600Y-72490401D01*
X153216402Y-72490401D01*
X152926876Y-72547991D01*
X152654148Y-72660959D01*
X152408699Y-72824962D01*
X152199962Y-73033699D01*
X152094001Y-73192282D01*
X151988040Y-73033699D01*
X151779303Y-72824962D01*
X151533854Y-72660959D01*
X151261126Y-72547991D01*
X150971600Y-72490401D01*
X150676402Y-72490401D01*
X150386876Y-72547991D01*
X150114148Y-72660959D01*
X149868699Y-72824962D01*
X149659962Y-73033699D01*
X149554001Y-73192282D01*
X149448040Y-73033699D01*
X149239303Y-72824962D01*
X148993854Y-72660959D01*
X148721126Y-72547991D01*
X148431600Y-72490401D01*
X148136402Y-72490401D01*
X147846876Y-72547991D01*
X147574148Y-72660959D01*
X147328699Y-72824962D01*
X147119962Y-73033699D01*
X147014001Y-73192282D01*
X146908040Y-73033699D01*
X146699303Y-72824962D01*
X146453854Y-72660959D01*
X146181126Y-72547991D01*
X145891600Y-72490401D01*
X145596402Y-72490401D01*
X145306876Y-72547991D01*
X145034148Y-72660959D01*
X144788699Y-72824962D01*
X144579962Y-73033699D01*
X144474001Y-73192282D01*
X144368040Y-73033699D01*
X144159303Y-72824962D01*
X143913854Y-72660959D01*
X143641126Y-72547991D01*
X143351600Y-72490401D01*
X143056402Y-72490401D01*
X142766876Y-72547991D01*
X142494148Y-72660959D01*
X142248699Y-72824962D01*
X142039962Y-73033699D01*
X141934001Y-73192282D01*
X141828040Y-73033699D01*
X141619303Y-72824962D01*
X141373854Y-72660959D01*
X141101126Y-72547991D01*
X140811600Y-72490401D01*
X140516402Y-72490401D01*
X140226876Y-72547991D01*
X139954148Y-72660959D01*
X139708699Y-72824962D01*
X139499962Y-73033699D01*
X139394001Y-73192282D01*
X139288040Y-73033699D01*
X139079303Y-72824962D01*
X138833854Y-72660959D01*
X138561126Y-72547991D01*
X138271600Y-72490401D01*
X137976402Y-72490401D01*
X137686876Y-72547991D01*
X137414148Y-72660959D01*
X137168699Y-72824962D01*
X136959962Y-73033699D01*
X136795959Y-73279148D01*
X136682991Y-73551876D01*
X136625401Y-73841402D01*
X135558601Y-73841402D01*
X135501011Y-73551876D01*
X135388043Y-73279148D01*
X135224040Y-73033699D01*
X135015303Y-72824962D01*
X134769854Y-72660959D01*
X134497126Y-72547991D01*
X134207600Y-72490401D01*
X133912402Y-72490401D01*
X133622876Y-72547991D01*
X133350148Y-72660959D01*
X133104699Y-72824962D01*
X132895962Y-73033699D01*
X132790001Y-73192282D01*
X132684040Y-73033699D01*
X132475303Y-72824962D01*
X132229854Y-72660959D01*
X131957126Y-72547991D01*
X131667600Y-72490401D01*
X131372402Y-72490401D01*
X131082876Y-72547991D01*
X130810148Y-72660959D01*
X130564699Y-72824962D01*
X130355962Y-73033699D01*
X130250001Y-73192282D01*
X130144040Y-73033699D01*
X129935303Y-72824962D01*
X129689854Y-72660959D01*
X129417126Y-72547991D01*
X129127600Y-72490401D01*
X128832402Y-72490401D01*
X128542876Y-72547991D01*
X128270148Y-72660959D01*
X128024699Y-72824962D01*
X127815962Y-73033699D01*
X127710001Y-73192282D01*
X127604040Y-73033699D01*
X127395303Y-72824962D01*
X127149854Y-72660959D01*
X126877126Y-72547991D01*
X126587600Y-72490401D01*
X126292402Y-72490401D01*
X126002876Y-72547991D01*
X125730148Y-72660959D01*
X125484699Y-72824962D01*
X125275962Y-73033699D01*
X125170001Y-73192282D01*
X125064040Y-73033699D01*
X124855303Y-72824962D01*
X124609854Y-72660959D01*
X124337126Y-72547991D01*
X124047600Y-72490401D01*
X123752402Y-72490401D01*
X123462876Y-72547991D01*
X123190148Y-72660959D01*
X122944699Y-72824962D01*
X122735962Y-73033699D01*
X122630001Y-73192282D01*
X122524040Y-73033699D01*
X122315303Y-72824962D01*
X122069854Y-72660959D01*
X121797126Y-72547991D01*
X121507600Y-72490401D01*
X121212402Y-72490401D01*
X120922876Y-72547991D01*
X120650148Y-72660959D01*
X120404699Y-72824962D01*
X120195962Y-73033699D01*
X120088309Y-73194814D01*
X119926855Y-72978708D01*
X119708489Y-72782184D01*
X119455979Y-72632037D01*
X119179028Y-72534038D01*
X118947001Y-72654537D01*
X118693001Y-72654537D01*
X118460974Y-72534038D01*
X118184023Y-72632037D01*
X117931513Y-72782184D01*
X117713147Y-72978708D01*
X117551693Y-73194814D01*
X117444040Y-73033699D01*
X117235303Y-72824962D01*
X116989854Y-72660959D01*
X116717126Y-72547991D01*
X116427600Y-72490401D01*
X116132402Y-72490401D01*
X115842876Y-72547991D01*
X115570148Y-72660959D01*
X115324699Y-72824962D01*
X115115962Y-73033699D01*
X115010001Y-73192282D01*
X114904040Y-73033699D01*
X114695303Y-72824962D01*
X114449854Y-72660959D01*
X114177126Y-72547991D01*
X113887600Y-72490401D01*
X113592402Y-72490401D01*
X113302876Y-72547991D01*
X113030148Y-72660959D01*
X112784699Y-72824962D01*
X112575962Y-73033699D01*
X112470001Y-73192282D01*
X112364040Y-73033699D01*
X112155303Y-72824962D01*
X111909854Y-72660959D01*
X111637126Y-72547991D01*
X111347600Y-72490401D01*
X111052402Y-72490401D01*
X110762876Y-72547991D01*
X110490148Y-72660959D01*
X110244699Y-72824962D01*
X110035962Y-73033699D01*
X109871959Y-73279148D01*
X109810907Y-73426541D01*
X109793111Y-73337076D01*
X109624632Y-72930332D01*
X109380039Y-72564272D01*
X109068730Y-72252963D01*
X108741028Y-72034000D01*
X181476974Y-72034000D01*
X181149272Y-72252963D01*
X180837963Y-72564272D01*
X180593370Y-72930332D01*
X180424891Y-73337076D01*
X180339001Y-73768873D01*
X180339001Y-74209129D01*
X180424891Y-74640926D01*
X180593370Y-75047670D01*
X180837963Y-75413730D01*
X181149272Y-75725039D01*
X181515332Y-75969632D01*
X181922076Y-76138111D01*
X182353873Y-76224001D01*
X182794129Y-76224001D01*
X183225926Y-76138111D01*
X183632670Y-75969632D01*
X183998730Y-75725039D01*
X184310039Y-75413730D01*
X184554632Y-75047670D01*
X184723111Y-74640926D01*
X184809001Y-74209129D01*
X184809001Y-73841402D01*
X184885401Y-73841402D01*
X184885401Y-74136600D01*
X184942991Y-74426126D01*
X185055959Y-74698854D01*
X185219962Y-74944303D01*
X185428699Y-75153040D01*
X185587282Y-75259001D01*
X185428699Y-75364962D01*
X185219962Y-75573699D01*
X185055959Y-75819148D01*
X184942991Y-76091876D01*
X184885401Y-76381402D01*
X184885401Y-76676600D01*
X184942991Y-76966126D01*
X185055959Y-77238854D01*
X185219962Y-77484303D01*
X185428699Y-77693040D01*
X185587282Y-77799001D01*
X185428699Y-77904962D01*
X185219962Y-78113699D01*
X185055959Y-78359148D01*
X184942991Y-78631876D01*
X184885401Y-78921402D01*
X184885401Y-79216600D01*
X184942991Y-79506126D01*
X185055959Y-79778854D01*
X185219962Y-80024303D01*
X185428699Y-80233040D01*
X185587282Y-80339001D01*
X185428699Y-80444962D01*
X185219962Y-80653699D01*
X185055959Y-80899148D01*
X184942991Y-81171876D01*
X184885401Y-81461402D01*
X184885401Y-81756600D01*
X184942991Y-82046126D01*
X185055959Y-82318854D01*
X185219962Y-82564303D01*
X185428699Y-82773040D01*
X185587282Y-82879001D01*
X185428699Y-82984962D01*
X185219962Y-83193699D01*
X185055959Y-83439148D01*
X184942991Y-83711876D01*
X184885401Y-84001402D01*
X184885401Y-84296600D01*
X184942991Y-84586126D01*
X185055959Y-84858854D01*
X185219962Y-85104303D01*
X185428699Y-85313040D01*
X185587282Y-85419001D01*
X185428699Y-85524962D01*
X185219962Y-85733699D01*
X185055959Y-85979148D01*
X184942991Y-86251876D01*
X184885401Y-86541402D01*
X184885401Y-86836600D01*
X184942991Y-87126126D01*
X185055959Y-87398854D01*
X185219962Y-87644303D01*
X185428699Y-87853040D01*
X185587282Y-87959001D01*
X185428699Y-88064962D01*
X185219962Y-88273699D01*
X185055959Y-88519148D01*
X184942991Y-88791876D01*
X184885401Y-89081402D01*
X184885401Y-89376600D01*
X184942991Y-89666126D01*
X185055959Y-89938854D01*
X185219962Y-90184303D01*
X185428699Y-90393040D01*
X185587282Y-90499001D01*
X185428699Y-90604962D01*
X185219962Y-90813699D01*
X185055959Y-91059148D01*
X184942991Y-91331876D01*
X184885401Y-91621402D01*
X184885401Y-91916600D01*
X184942991Y-92206126D01*
X185055959Y-92478854D01*
X185219962Y-92724303D01*
X185428699Y-92933040D01*
X185587282Y-93039001D01*
X185428699Y-93144962D01*
X185219962Y-93353699D01*
X185055959Y-93599148D01*
X184942991Y-93871876D01*
X184885401Y-94161402D01*
X184885401Y-94456600D01*
X184942991Y-94746126D01*
X185055959Y-95018854D01*
X185219962Y-95264303D01*
X185428699Y-95473040D01*
X185587282Y-95579001D01*
X185428699Y-95684962D01*
X185219962Y-95893699D01*
X185055959Y-96139148D01*
X184942991Y-96411876D01*
X184885401Y-96701402D01*
X184885401Y-96996600D01*
X184942991Y-97286126D01*
X185055959Y-97558854D01*
X185219962Y-97804303D01*
X185428699Y-98013040D01*
X185587282Y-98119001D01*
X185428699Y-98224962D01*
X185219962Y-98433699D01*
X185055959Y-98679148D01*
X184942991Y-98951876D01*
X184885401Y-99241402D01*
X184885401Y-99536600D01*
X184942991Y-99826126D01*
X185055959Y-100098854D01*
X185219962Y-100344303D01*
X185428699Y-100553040D01*
X185587282Y-100659001D01*
X185428699Y-100764962D01*
X185219962Y-100973699D01*
X185055959Y-101219148D01*
X184942991Y-101491876D01*
X184885401Y-101781402D01*
X184885401Y-102076600D01*
X184942991Y-102366126D01*
X185055959Y-102638854D01*
X185219962Y-102884303D01*
X185428699Y-103093040D01*
X185587282Y-103199001D01*
X185428699Y-103304962D01*
X185219962Y-103513699D01*
X185055959Y-103759148D01*
X184942991Y-104031876D01*
X184885401Y-104321402D01*
X184885401Y-104616600D01*
X184942991Y-104906126D01*
X185055959Y-105178854D01*
X185219962Y-105424303D01*
X185428699Y-105633040D01*
X185587282Y-105739001D01*
X185428699Y-105844962D01*
X185219962Y-106053699D01*
X185055959Y-106299148D01*
X184942991Y-106571876D01*
X184885401Y-106861402D01*
X184885401Y-107156600D01*
X184942991Y-107446126D01*
X185055959Y-107718854D01*
X185219962Y-107964303D01*
X185428699Y-108173040D01*
X185587282Y-108279001D01*
X185428699Y-108384962D01*
X185219962Y-108593699D01*
X185055959Y-108839148D01*
X184942991Y-109111876D01*
X184885401Y-109401402D01*
X184885401Y-109696600D01*
X184942991Y-109986126D01*
X185055959Y-110258854D01*
X185219962Y-110504303D01*
X185428699Y-110713040D01*
X185587282Y-110819001D01*
X185428699Y-110924962D01*
X185219962Y-111133699D01*
X185055959Y-111379148D01*
X184942991Y-111651876D01*
X184885401Y-111941402D01*
X184885401Y-112236600D01*
X184942991Y-112526126D01*
X185055959Y-112798854D01*
X185219962Y-113044303D01*
X185428699Y-113253040D01*
X185587282Y-113359001D01*
X185428699Y-113464962D01*
X185219962Y-113673699D01*
X185055959Y-113919148D01*
X184942991Y-114191876D01*
X184885401Y-114481402D01*
X184885401Y-114776600D01*
X184942991Y-115066126D01*
X185055959Y-115338854D01*
X185219962Y-115584303D01*
X185428699Y-115793040D01*
X185587282Y-115899001D01*
X185428699Y-116004962D01*
X185219962Y-116213699D01*
X185055959Y-116459148D01*
X184942991Y-116731876D01*
X184885401Y-117021402D01*
X184885401Y-117316600D01*
X184942991Y-117606126D01*
X185055959Y-117878854D01*
X185219962Y-118124303D01*
X185428699Y-118333040D01*
X185674148Y-118497043D01*
X185946876Y-118610011D01*
X186236402Y-118667601D01*
X186531600Y-118667601D01*
X186821126Y-118610011D01*
X187093854Y-118497043D01*
X187339303Y-118333040D01*
X187548040Y-118124303D01*
X187654001Y-117965720D01*
X187759962Y-118124303D01*
X187968699Y-118333040D01*
X188214148Y-118497043D01*
X188486876Y-118610011D01*
X188776402Y-118667601D01*
X189071600Y-118667601D01*
X189361126Y-118610011D01*
X189633854Y-118497043D01*
X189879303Y-118333040D01*
X190088040Y-118124303D01*
X190252043Y-117878854D01*
X190365011Y-117606126D01*
X190422601Y-117316600D01*
X190422601Y-117021402D01*
X190365011Y-116731876D01*
X190252043Y-116459148D01*
X190088040Y-116213699D01*
X189879303Y-116004962D01*
X189720720Y-115899001D01*
X189879303Y-115793040D01*
X190088040Y-115584303D01*
X190252043Y-115338854D01*
X190365011Y-115066126D01*
X190422601Y-114776600D01*
X190422601Y-114481402D01*
X190365011Y-114191876D01*
X190252043Y-113919148D01*
X190088040Y-113673699D01*
X189879303Y-113464962D01*
X189720720Y-113359001D01*
X189879303Y-113253040D01*
X190088040Y-113044303D01*
X190252043Y-112798854D01*
X190365011Y-112526126D01*
X190422601Y-112236600D01*
X190422601Y-111941402D01*
X190365011Y-111651876D01*
X190252043Y-111379148D01*
X190088040Y-111133699D01*
X189879303Y-110924962D01*
X189720720Y-110819001D01*
X189879303Y-110713040D01*
X190088040Y-110504303D01*
X190252043Y-110258854D01*
X190365011Y-109986126D01*
X190422601Y-109696600D01*
X190422601Y-109401402D01*
X190365011Y-109111876D01*
X190252043Y-108839148D01*
X190088040Y-108593699D01*
X189879303Y-108384962D01*
X189720720Y-108279001D01*
X189879303Y-108173040D01*
X190088040Y-107964303D01*
X190252043Y-107718854D01*
X190365011Y-107446126D01*
X190422601Y-107156600D01*
X190422601Y-106861402D01*
X190365011Y-106571876D01*
X190252043Y-106299148D01*
X190088040Y-106053699D01*
X189879303Y-105844962D01*
X189720720Y-105739001D01*
X189879303Y-105633040D01*
X190088040Y-105424303D01*
X190252043Y-105178854D01*
X190365011Y-104906126D01*
X190422601Y-104616600D01*
X190422601Y-104321402D01*
X190365011Y-104031876D01*
X190252043Y-103759148D01*
X190088040Y-103513699D01*
X189879303Y-103304962D01*
X189720720Y-103199001D01*
X189879303Y-103093040D01*
X190088040Y-102884303D01*
X190252043Y-102638854D01*
X190365011Y-102366126D01*
X190422601Y-102076600D01*
X190422601Y-101781402D01*
X190365011Y-101491876D01*
X190252043Y-101219148D01*
X190088040Y-100973699D01*
X189879303Y-100764962D01*
X189720720Y-100659001D01*
X189879303Y-100553040D01*
X190088040Y-100344303D01*
X190252043Y-100098854D01*
X190365011Y-99826126D01*
X190422601Y-99536600D01*
X190422601Y-99241402D01*
X190365011Y-98951876D01*
X190252043Y-98679148D01*
X190088040Y-98433699D01*
X189879303Y-98224962D01*
X189720720Y-98119001D01*
X189879303Y-98013040D01*
X190088040Y-97804303D01*
X190252043Y-97558854D01*
X190365011Y-97286126D01*
X190422601Y-96996600D01*
X190422601Y-96701402D01*
X190365011Y-96411876D01*
X190252043Y-96139148D01*
X190088040Y-95893699D01*
X189879303Y-95684962D01*
X189720720Y-95579001D01*
X189879303Y-95473040D01*
X190088040Y-95264303D01*
X190252043Y-95018854D01*
X190365011Y-94746126D01*
X190422601Y-94456600D01*
X190422601Y-94161402D01*
X190365011Y-93871876D01*
X190252043Y-93599148D01*
X190088040Y-93353699D01*
X189879303Y-93144962D01*
X189720720Y-93039001D01*
X189879303Y-92933040D01*
X190088040Y-92724303D01*
X190252043Y-92478854D01*
X190365011Y-92206126D01*
X190422601Y-91916600D01*
X190422601Y-91621402D01*
X190365011Y-91331876D01*
X190252043Y-91059148D01*
X190088040Y-90813699D01*
X189879303Y-90604962D01*
X189720720Y-90499001D01*
X189879303Y-90393040D01*
X190088040Y-90184303D01*
X190252043Y-89938854D01*
X190365011Y-89666126D01*
X190422601Y-89376600D01*
X190422601Y-89081402D01*
X190365011Y-88791876D01*
X190252043Y-88519148D01*
X190088040Y-88273699D01*
X189879303Y-88064962D01*
X189720720Y-87959001D01*
X189879303Y-87853040D01*
X190088040Y-87644303D01*
X190252043Y-87398854D01*
X190365011Y-87126126D01*
X190422601Y-86836600D01*
X190422601Y-86541402D01*
X190365011Y-86251876D01*
X190252043Y-85979148D01*
X190088040Y-85733699D01*
X189879303Y-85524962D01*
X189720720Y-85419001D01*
X189879303Y-85313040D01*
X190088040Y-85104303D01*
X190252043Y-84858854D01*
X190365011Y-84586126D01*
X190422601Y-84296600D01*
X190422601Y-84001402D01*
X190365011Y-83711876D01*
X190252043Y-83439148D01*
X190088040Y-83193699D01*
X189879303Y-82984962D01*
X189720720Y-82879001D01*
X189879303Y-82773040D01*
X190088040Y-82564303D01*
X190252043Y-82318854D01*
X190365011Y-82046126D01*
X190422601Y-81756600D01*
X190422601Y-81461402D01*
X190365011Y-81171876D01*
X190252043Y-80899148D01*
X190088040Y-80653699D01*
X189879303Y-80444962D01*
X189720720Y-80339001D01*
X189879303Y-80233040D01*
X190088040Y-80024303D01*
X190252043Y-79778854D01*
X190365011Y-79506126D01*
X190422601Y-79216600D01*
X190422601Y-78921402D01*
X190365011Y-78631876D01*
X190252043Y-78359148D01*
X190088040Y-78113699D01*
X189879303Y-77904962D01*
X189720720Y-77799001D01*
X189879303Y-77693040D01*
X190088040Y-77484303D01*
X190252043Y-77238854D01*
X190365011Y-76966126D01*
X190422601Y-76676600D01*
X190422601Y-76381402D01*
X190365011Y-76091876D01*
X190252043Y-75819148D01*
X190088040Y-75573699D01*
X189879303Y-75364962D01*
X189720720Y-75259001D01*
X189879303Y-75153040D01*
X190088040Y-74944303D01*
X190252043Y-74698854D01*
X190365011Y-74426126D01*
X190422601Y-74136600D01*
X190422601Y-73841402D01*
X190365011Y-73551876D01*
X190252043Y-73279148D01*
X190088040Y-73033699D01*
X189879303Y-72824962D01*
X189633854Y-72660959D01*
X189361126Y-72547991D01*
X189071600Y-72490401D01*
X188776402Y-72490401D01*
X188486876Y-72547991D01*
X188214148Y-72660959D01*
X187968699Y-72824962D01*
X187759962Y-73033699D01*
X187654001Y-73192282D01*
X187548040Y-73033699D01*
X187339303Y-72824962D01*
X187093854Y-72660959D01*
X186821126Y-72547991D01*
X186531600Y-72490401D01*
X186236402Y-72490401D01*
X185946876Y-72547991D01*
X185674148Y-72660959D01*
X185428699Y-72824962D01*
X185219962Y-73033699D01*
X185055959Y-73279148D01*
X184942991Y-73551876D01*
X184885401Y-73841402D01*
X184809001Y-73841402D01*
X184809001Y-73768873D01*
X184723111Y-73337076D01*
X184554632Y-72930332D01*
X184310039Y-72564272D01*
X183998730Y-72252963D01*
X183671028Y-72034000D01*
X189468020Y-72034000D01*
X190856000Y-73190650D01*
X190856001Y-84041581D01*
X190852808Y-84074000D01*
X190865551Y-84203382D01*
X190881000Y-84254311D01*
X190881000Y-121154964D01*
X190660039Y-120824272D01*
X190348730Y-120512963D01*
X189982670Y-120268370D01*
X189575926Y-120099891D01*
X189144129Y-120014001D01*
X188703873Y-120014001D01*
X188272076Y-120099891D01*
X187865332Y-120268370D01*
X187499272Y-120512963D01*
X187187963Y-120824272D01*
X186943370Y-121190332D01*
X186774891Y-121597076D01*
X186689001Y-122028873D01*
X186689001Y-122469129D01*
X186774891Y-122900926D01*
X186943370Y-123307670D01*
X187187963Y-123673730D01*
X187499272Y-123985039D01*
X187792549Y-124181000D01*
X107505453Y-124181000D01*
X107798730Y-123985039D01*
X108110039Y-123673730D01*
X108354632Y-123307670D01*
X108523111Y-122900926D01*
X108609001Y-122469129D01*
X108609001Y-122101402D01*
X118845401Y-122101402D01*
X118845401Y-122396600D01*
X118902991Y-122686126D01*
X119015959Y-122958854D01*
X119179962Y-123204303D01*
X119388699Y-123413040D01*
X119634148Y-123577043D01*
X119906876Y-123690011D01*
X120196402Y-123747601D01*
X120491600Y-123747601D01*
X120781126Y-123690011D01*
X121053854Y-123577043D01*
X121299303Y-123413040D01*
X121508040Y-123204303D01*
X121614001Y-123045720D01*
X121719962Y-123204303D01*
X121928699Y-123413040D01*
X122174148Y-123577043D01*
X122446876Y-123690011D01*
X122736402Y-123747601D01*
X123031600Y-123747601D01*
X123321126Y-123690011D01*
X123593854Y-123577043D01*
X123839303Y-123413040D01*
X124048040Y-123204303D01*
X124154001Y-123045720D01*
X124259962Y-123204303D01*
X124468699Y-123413040D01*
X124714148Y-123577043D01*
X124986876Y-123690011D01*
X125276402Y-123747601D01*
X125571600Y-123747601D01*
X125861126Y-123690011D01*
X126133854Y-123577043D01*
X126379303Y-123413040D01*
X126588040Y-123204303D01*
X126694001Y-123045720D01*
X126799962Y-123204303D01*
X127008699Y-123413040D01*
X127254148Y-123577043D01*
X127526876Y-123690011D01*
X127816402Y-123747601D01*
X128111600Y-123747601D01*
X128401126Y-123690011D01*
X128673854Y-123577043D01*
X128919303Y-123413040D01*
X129128040Y-123204303D01*
X129234001Y-123045720D01*
X129339962Y-123204303D01*
X129548699Y-123413040D01*
X129794148Y-123577043D01*
X130066876Y-123690011D01*
X130356402Y-123747601D01*
X130651600Y-123747601D01*
X130941126Y-123690011D01*
X131213854Y-123577043D01*
X131459303Y-123413040D01*
X131668040Y-123204303D01*
X131774001Y-123045720D01*
X131879962Y-123204303D01*
X132088699Y-123413040D01*
X132334148Y-123577043D01*
X132606876Y-123690011D01*
X132896402Y-123747601D01*
X133191600Y-123747601D01*
X133481126Y-123690011D01*
X133753854Y-123577043D01*
X133999303Y-123413040D01*
X134208040Y-123204303D01*
X134314001Y-123045720D01*
X134419962Y-123204303D01*
X134628699Y-123413040D01*
X134874148Y-123577043D01*
X135146876Y-123690011D01*
X135436402Y-123747601D01*
X135731600Y-123747601D01*
X136021126Y-123690011D01*
X136293854Y-123577043D01*
X136539303Y-123413040D01*
X136748040Y-123204303D01*
X136854001Y-123045720D01*
X136959962Y-123204303D01*
X137168699Y-123413040D01*
X137414148Y-123577043D01*
X137686876Y-123690011D01*
X137976402Y-123747601D01*
X138271600Y-123747601D01*
X138561126Y-123690011D01*
X138833854Y-123577043D01*
X139079303Y-123413040D01*
X139288040Y-123204303D01*
X139452043Y-122958854D01*
X139565011Y-122686126D01*
X139622601Y-122396600D01*
X139622601Y-122101402D01*
X141705401Y-122101402D01*
X141705401Y-122396600D01*
X141762991Y-122686126D01*
X141875959Y-122958854D01*
X142039962Y-123204303D01*
X142248699Y-123413040D01*
X142494148Y-123577043D01*
X142766876Y-123690011D01*
X143056402Y-123747601D01*
X143351600Y-123747601D01*
X143641126Y-123690011D01*
X143913854Y-123577043D01*
X144159303Y-123413040D01*
X144368040Y-123204303D01*
X144474001Y-123045720D01*
X144579962Y-123204303D01*
X144788699Y-123413040D01*
X145034148Y-123577043D01*
X145306876Y-123690011D01*
X145596402Y-123747601D01*
X145891600Y-123747601D01*
X146181126Y-123690011D01*
X146453854Y-123577043D01*
X146699303Y-123413040D01*
X146908040Y-123204303D01*
X147014001Y-123045720D01*
X147119962Y-123204303D01*
X147328699Y-123413040D01*
X147574148Y-123577043D01*
X147846876Y-123690011D01*
X148136402Y-123747601D01*
X148431600Y-123747601D01*
X148721126Y-123690011D01*
X148993854Y-123577043D01*
X149239303Y-123413040D01*
X149448040Y-123204303D01*
X149554001Y-123045720D01*
X149659962Y-123204303D01*
X149868699Y-123413040D01*
X150114148Y-123577043D01*
X150386876Y-123690011D01*
X150676402Y-123747601D01*
X150971600Y-123747601D01*
X151261126Y-123690011D01*
X151533854Y-123577043D01*
X151779303Y-123413040D01*
X151988040Y-123204303D01*
X152094001Y-123045720D01*
X152199962Y-123204303D01*
X152408699Y-123413040D01*
X152654148Y-123577043D01*
X152926876Y-123690011D01*
X153216402Y-123747601D01*
X153511600Y-123747601D01*
X153801126Y-123690011D01*
X154073854Y-123577043D01*
X154319303Y-123413040D01*
X154528040Y-123204303D01*
X154634001Y-123045720D01*
X154739962Y-123204303D01*
X154948699Y-123413040D01*
X155194148Y-123577043D01*
X155466876Y-123690011D01*
X155756402Y-123747601D01*
X156051600Y-123747601D01*
X156341126Y-123690011D01*
X156613854Y-123577043D01*
X156859303Y-123413040D01*
X157068040Y-123204303D01*
X157174001Y-123045720D01*
X157279962Y-123204303D01*
X157488699Y-123413040D01*
X157734148Y-123577043D01*
X158006876Y-123690011D01*
X158296402Y-123747601D01*
X158591600Y-123747601D01*
X158881126Y-123690011D01*
X159153854Y-123577043D01*
X159399303Y-123413040D01*
X159608040Y-123204303D01*
X159714001Y-123045720D01*
X159819962Y-123204303D01*
X160028699Y-123413040D01*
X160274148Y-123577043D01*
X160546876Y-123690011D01*
X160836402Y-123747601D01*
X161131600Y-123747601D01*
X161421126Y-123690011D01*
X161693854Y-123577043D01*
X161939303Y-123413040D01*
X162148040Y-123204303D01*
X162312043Y-122958854D01*
X162425011Y-122686126D01*
X162482601Y-122396600D01*
X162482601Y-122101402D01*
X164565401Y-122101402D01*
X164565401Y-122396600D01*
X164622991Y-122686126D01*
X164735959Y-122958854D01*
X164899962Y-123204303D01*
X165108699Y-123413040D01*
X165354148Y-123577043D01*
X165626876Y-123690011D01*
X165916402Y-123747601D01*
X166211600Y-123747601D01*
X166501126Y-123690011D01*
X166773854Y-123577043D01*
X167019303Y-123413040D01*
X167228040Y-123204303D01*
X167334001Y-123045720D01*
X167439962Y-123204303D01*
X167648699Y-123413040D01*
X167894148Y-123577043D01*
X168166876Y-123690011D01*
X168456402Y-123747601D01*
X168751600Y-123747601D01*
X169041126Y-123690011D01*
X169313854Y-123577043D01*
X169559303Y-123413040D01*
X169768040Y-123204303D01*
X169874001Y-123045720D01*
X169979962Y-123204303D01*
X170188699Y-123413040D01*
X170434148Y-123577043D01*
X170706876Y-123690011D01*
X170996402Y-123747601D01*
X171291600Y-123747601D01*
X171581126Y-123690011D01*
X171853854Y-123577043D01*
X172099303Y-123413040D01*
X172308040Y-123204303D01*
X172414001Y-123045720D01*
X172519962Y-123204303D01*
X172728699Y-123413040D01*
X172974148Y-123577043D01*
X173246876Y-123690011D01*
X173536402Y-123747601D01*
X173831600Y-123747601D01*
X174121126Y-123690011D01*
X174393854Y-123577043D01*
X174639303Y-123413040D01*
X174848040Y-123204303D01*
X174954001Y-123045720D01*
X175059962Y-123204303D01*
X175268699Y-123413040D01*
X175514148Y-123577043D01*
X175786876Y-123690011D01*
X176076402Y-123747601D01*
X176371600Y-123747601D01*
X176661126Y-123690011D01*
X176933854Y-123577043D01*
X177179303Y-123413040D01*
X177388040Y-123204303D01*
X177494001Y-123045720D01*
X177599962Y-123204303D01*
X177808699Y-123413040D01*
X178054148Y-123577043D01*
X178326876Y-123690011D01*
X178616402Y-123747601D01*
X178911600Y-123747601D01*
X179201126Y-123690011D01*
X179473854Y-123577043D01*
X179719303Y-123413040D01*
X179928040Y-123204303D01*
X180034001Y-123045720D01*
X180139962Y-123204303D01*
X180348699Y-123413040D01*
X180594148Y-123577043D01*
X180866876Y-123690011D01*
X181156402Y-123747601D01*
X181451600Y-123747601D01*
X181741126Y-123690011D01*
X182013854Y-123577043D01*
X182259303Y-123413040D01*
X182468040Y-123204303D01*
X182574001Y-123045720D01*
X182679962Y-123204303D01*
X182888699Y-123413040D01*
X183134148Y-123577043D01*
X183406876Y-123690011D01*
X183696402Y-123747601D01*
X183991600Y-123747601D01*
X184281126Y-123690011D01*
X184553854Y-123577043D01*
X184799303Y-123413040D01*
X185008040Y-123204303D01*
X185172043Y-122958854D01*
X185285011Y-122686126D01*
X185342601Y-122396600D01*
X185342601Y-122101402D01*
X185285011Y-121811876D01*
X185172043Y-121539148D01*
X185008040Y-121293699D01*
X184799303Y-121084962D01*
X184553854Y-120920959D01*
X184281126Y-120807991D01*
X183991600Y-120750401D01*
X183696402Y-120750401D01*
X183406876Y-120807991D01*
X183134148Y-120920959D01*
X182888699Y-121084962D01*
X182679962Y-121293699D01*
X182574001Y-121452282D01*
X182468040Y-121293699D01*
X182259303Y-121084962D01*
X182013854Y-120920959D01*
X181741126Y-120807991D01*
X181451600Y-120750401D01*
X181156402Y-120750401D01*
X180866876Y-120807991D01*
X180594148Y-120920959D01*
X180348699Y-121084962D01*
X180139962Y-121293699D01*
X180034001Y-121452282D01*
X179928040Y-121293699D01*
X179719303Y-121084962D01*
X179473854Y-120920959D01*
X179201126Y-120807991D01*
X178911600Y-120750401D01*
X178616402Y-120750401D01*
X178326876Y-120807991D01*
X178054148Y-120920959D01*
X177808699Y-121084962D01*
X177599962Y-121293699D01*
X177494001Y-121452282D01*
X177388040Y-121293699D01*
X177179303Y-121084962D01*
X176933854Y-120920959D01*
X176661126Y-120807991D01*
X176371600Y-120750401D01*
X176076402Y-120750401D01*
X175786876Y-120807991D01*
X175514148Y-120920959D01*
X175268699Y-121084962D01*
X175059962Y-121293699D01*
X174954001Y-121452282D01*
X174848040Y-121293699D01*
X174639303Y-121084962D01*
X174393854Y-120920959D01*
X174121126Y-120807991D01*
X173831600Y-120750401D01*
X173536402Y-120750401D01*
X173246876Y-120807991D01*
X172974148Y-120920959D01*
X172728699Y-121084962D01*
X172519962Y-121293699D01*
X172414001Y-121452282D01*
X172308040Y-121293699D01*
X172099303Y-121084962D01*
X171853854Y-120920959D01*
X171581126Y-120807991D01*
X171291600Y-120750401D01*
X170996402Y-120750401D01*
X170706876Y-120807991D01*
X170434148Y-120920959D01*
X170188699Y-121084962D01*
X169979962Y-121293699D01*
X169874001Y-121452282D01*
X169768040Y-121293699D01*
X169559303Y-121084962D01*
X169313854Y-120920959D01*
X169041126Y-120807991D01*
X168751600Y-120750401D01*
X168456402Y-120750401D01*
X168166876Y-120807991D01*
X167894148Y-120920959D01*
X167648699Y-121084962D01*
X167439962Y-121293699D01*
X167334001Y-121452282D01*
X167228040Y-121293699D01*
X167019303Y-121084962D01*
X166773854Y-120920959D01*
X166501126Y-120807991D01*
X166211600Y-120750401D01*
X165916402Y-120750401D01*
X165626876Y-120807991D01*
X165354148Y-120920959D01*
X165108699Y-121084962D01*
X164899962Y-121293699D01*
X164735959Y-121539148D01*
X164622991Y-121811876D01*
X164565401Y-122101402D01*
X162482601Y-122101402D01*
X162425011Y-121811876D01*
X162312043Y-121539148D01*
X162148040Y-121293699D01*
X161939303Y-121084962D01*
X161693854Y-120920959D01*
X161421126Y-120807991D01*
X161131600Y-120750401D01*
X160836402Y-120750401D01*
X160546876Y-120807991D01*
X160274148Y-120920959D01*
X160028699Y-121084962D01*
X159819962Y-121293699D01*
X159714001Y-121452282D01*
X159608040Y-121293699D01*
X159399303Y-121084962D01*
X159153854Y-120920959D01*
X158881126Y-120807991D01*
X158591600Y-120750401D01*
X158296402Y-120750401D01*
X158006876Y-120807991D01*
X157734148Y-120920959D01*
X157488699Y-121084962D01*
X157279962Y-121293699D01*
X157174001Y-121452282D01*
X157068040Y-121293699D01*
X156859303Y-121084962D01*
X156613854Y-120920959D01*
X156341126Y-120807991D01*
X156051600Y-120750401D01*
X155756402Y-120750401D01*
X155466876Y-120807991D01*
X155194148Y-120920959D01*
X154948699Y-121084962D01*
X154739962Y-121293699D01*
X154634001Y-121452282D01*
X154528040Y-121293699D01*
X154319303Y-121084962D01*
X154073854Y-120920959D01*
X153801126Y-120807991D01*
X153511600Y-120750401D01*
X153216402Y-120750401D01*
X152926876Y-120807991D01*
X152654148Y-120920959D01*
X152408699Y-121084962D01*
X152199962Y-121293699D01*
X152094001Y-121452282D01*
X151988040Y-121293699D01*
X151779303Y-121084962D01*
X151533854Y-120920959D01*
X151261126Y-120807991D01*
X150971600Y-120750401D01*
X150676402Y-120750401D01*
X150386876Y-120807991D01*
X150114148Y-120920959D01*
X149868699Y-121084962D01*
X149659962Y-121293699D01*
X149554001Y-121452282D01*
X149448040Y-121293699D01*
X149239303Y-121084962D01*
X148993854Y-120920959D01*
X148721126Y-120807991D01*
X148431600Y-120750401D01*
X148136402Y-120750401D01*
X147846876Y-120807991D01*
X147574148Y-120920959D01*
X147328699Y-121084962D01*
X147119962Y-121293699D01*
X147014001Y-121452282D01*
X146908040Y-121293699D01*
X146699303Y-121084962D01*
X146453854Y-120920959D01*
X146181126Y-120807991D01*
X145891600Y-120750401D01*
X145596402Y-120750401D01*
X145306876Y-120807991D01*
X145034148Y-120920959D01*
X144788699Y-121084962D01*
X144579962Y-121293699D01*
X144474001Y-121452282D01*
X144368040Y-121293699D01*
X144159303Y-121084962D01*
X143913854Y-120920959D01*
X143641126Y-120807991D01*
X143351600Y-120750401D01*
X143056402Y-120750401D01*
X142766876Y-120807991D01*
X142494148Y-120920959D01*
X142248699Y-121084962D01*
X142039962Y-121293699D01*
X141875959Y-121539148D01*
X141762991Y-121811876D01*
X141705401Y-122101402D01*
X139622601Y-122101402D01*
X139565011Y-121811876D01*
X139452043Y-121539148D01*
X139288040Y-121293699D01*
X139079303Y-121084962D01*
X138833854Y-120920959D01*
X138561126Y-120807991D01*
X138271600Y-120750401D01*
X137976402Y-120750401D01*
X137686876Y-120807991D01*
X137414148Y-120920959D01*
X137168699Y-121084962D01*
X136959962Y-121293699D01*
X136854001Y-121452282D01*
X136748040Y-121293699D01*
X136539303Y-121084962D01*
X136293854Y-120920959D01*
X136021126Y-120807991D01*
X135731600Y-120750401D01*
X135436402Y-120750401D01*
X135146876Y-120807991D01*
X134874148Y-120920959D01*
X134628699Y-121084962D01*
X134419962Y-121293699D01*
X134314001Y-121452282D01*
X134208040Y-121293699D01*
X133999303Y-121084962D01*
X133753854Y-120920959D01*
X133481126Y-120807991D01*
X133191600Y-120750401D01*
X132896402Y-120750401D01*
X132606876Y-120807991D01*
X132334148Y-120920959D01*
X132088699Y-121084962D01*
X131879962Y-121293699D01*
X131774001Y-121452282D01*
X131668040Y-121293699D01*
X131459303Y-121084962D01*
X131213854Y-120920959D01*
X130941126Y-120807991D01*
X130651600Y-120750401D01*
X130356402Y-120750401D01*
X130066876Y-120807991D01*
X129794148Y-120920959D01*
X129548699Y-121084962D01*
X129339962Y-121293699D01*
X129234001Y-121452282D01*
X129128040Y-121293699D01*
X128919303Y-121084962D01*
X128673854Y-120920959D01*
X128401126Y-120807991D01*
X128111600Y-120750401D01*
X127816402Y-120750401D01*
X127526876Y-120807991D01*
X127254148Y-120920959D01*
X127008699Y-121084962D01*
X126799962Y-121293699D01*
X126694001Y-121452282D01*
X126588040Y-121293699D01*
X126379303Y-121084962D01*
X126133854Y-120920959D01*
X125861126Y-120807991D01*
X125571600Y-120750401D01*
X125276402Y-120750401D01*
X124986876Y-120807991D01*
X124714148Y-120920959D01*
X124468699Y-121084962D01*
X124259962Y-121293699D01*
X124154001Y-121452282D01*
X124048040Y-121293699D01*
X123839303Y-121084962D01*
X123593854Y-120920959D01*
X123321126Y-120807991D01*
X123031600Y-120750401D01*
X122736402Y-120750401D01*
X122446876Y-120807991D01*
X122174148Y-120920959D01*
X121928699Y-121084962D01*
X121719962Y-121293699D01*
X121614001Y-121452282D01*
X121508040Y-121293699D01*
X121299303Y-121084962D01*
X121053854Y-120920959D01*
X120781126Y-120807991D01*
X120491600Y-120750401D01*
X120196402Y-120750401D01*
X119906876Y-120807991D01*
X119634148Y-120920959D01*
X119388699Y-121084962D01*
X119179962Y-121293699D01*
X119015959Y-121539148D01*
X118902991Y-121811876D01*
X118845401Y-122101402D01*
X108609001Y-122101402D01*
X108609001Y-122028873D01*
X108523111Y-121597076D01*
X108354632Y-121190332D01*
X108110039Y-120824272D01*
X107798730Y-120512963D01*
X107432670Y-120268370D01*
X107025926Y-120099891D01*
X106594129Y-120014001D01*
X106153873Y-120014001D01*
X105722076Y-120099891D01*
X105315332Y-120268370D01*
X104949272Y-120512963D01*
X104637963Y-120824272D01*
X104393370Y-121190332D01*
X104224891Y-121597076D01*
X104139001Y-122028873D01*
X104139001Y-122469129D01*
X104224891Y-122900926D01*
X104393370Y-123307670D01*
X104637963Y-123673730D01*
X104949272Y-123985039D01*
X105242549Y-124181000D01*
X92989000Y-124181000D01*
X92989000Y-115128223D01*
X133109000Y-115128223D01*
X133109000Y-115483777D01*
X133178365Y-115832499D01*
X133314429Y-116160988D01*
X133511965Y-116456621D01*
X133763379Y-116708035D01*
X134059012Y-116905571D01*
X134387501Y-117041635D01*
X134736223Y-117111000D01*
X135091777Y-117111000D01*
X135440499Y-117041635D01*
X135664447Y-116948873D01*
X156209001Y-116948873D01*
X156209001Y-117389129D01*
X156294891Y-117820926D01*
X156463370Y-118227670D01*
X156707963Y-118593730D01*
X157019272Y-118905039D01*
X157385332Y-119149632D01*
X157792076Y-119318111D01*
X158223873Y-119404001D01*
X158664129Y-119404001D01*
X159095926Y-119318111D01*
X159502670Y-119149632D01*
X159868730Y-118905039D01*
X160180039Y-118593730D01*
X160424632Y-118227670D01*
X160593111Y-117820926D01*
X160679001Y-117389129D01*
X160679001Y-116948873D01*
X160593111Y-116517076D01*
X160424632Y-116110332D01*
X160180039Y-115744272D01*
X159868730Y-115432963D01*
X159502670Y-115188370D01*
X159095926Y-115019891D01*
X158664129Y-114934001D01*
X158223873Y-114934001D01*
X157792076Y-115019891D01*
X157385332Y-115188370D01*
X157019272Y-115432963D01*
X156707963Y-115744272D01*
X156463370Y-116110332D01*
X156294891Y-116517076D01*
X156209001Y-116948873D01*
X135664447Y-116948873D01*
X135768988Y-116905571D01*
X136064621Y-116708035D01*
X136316035Y-116456621D01*
X136513571Y-116160988D01*
X136649635Y-115832499D01*
X136719000Y-115483777D01*
X136719000Y-115128223D01*
X136649635Y-114779501D01*
X136513571Y-114451012D01*
X136316035Y-114155379D01*
X136064621Y-113903965D01*
X135768988Y-113706429D01*
X135440499Y-113570365D01*
X135091777Y-113501000D01*
X134736223Y-113501000D01*
X134387501Y-113570365D01*
X134059012Y-113706429D01*
X133763379Y-113903965D01*
X133511965Y-114155379D01*
X133314429Y-114451012D01*
X133178365Y-114779501D01*
X133109000Y-115128223D01*
X92989000Y-115128223D01*
X92989000Y-112762602D01*
X131337003Y-112762602D01*
X131453275Y-113044389D01*
X131771860Y-113202257D01*
X132115122Y-113294938D01*
X132469869Y-113318873D01*
X132822470Y-113273139D01*
X133159373Y-113159495D01*
X133374725Y-113044389D01*
X133490997Y-112762602D01*
X132414000Y-111685605D01*
X131337003Y-112762602D01*
X92989000Y-112762602D01*
X92989000Y-111561869D01*
X130601127Y-111561869D01*
X130646861Y-111914470D01*
X130760505Y-112251373D01*
X130875611Y-112466725D01*
X131157398Y-112582997D01*
X132234395Y-111506000D01*
X132593605Y-111506000D01*
X133670602Y-112582997D01*
X133952389Y-112466725D01*
X134110257Y-112148140D01*
X134202938Y-111804878D01*
X134226873Y-111450131D01*
X134211061Y-111328223D01*
X135609000Y-111328223D01*
X135609000Y-111683777D01*
X135678365Y-112032499D01*
X135814429Y-112360988D01*
X136011965Y-112656621D01*
X136263379Y-112908035D01*
X136559012Y-113105571D01*
X136887501Y-113241635D01*
X137236223Y-113311000D01*
X137591777Y-113311000D01*
X137940499Y-113241635D01*
X138268988Y-113105571D01*
X138564621Y-112908035D01*
X138816035Y-112656621D01*
X139013571Y-112360988D01*
X139149635Y-112032499D01*
X139219000Y-111683777D01*
X139219000Y-111364665D01*
X142329000Y-111364665D01*
X142329000Y-111647335D01*
X142384147Y-111924574D01*
X142492320Y-112185727D01*
X142649363Y-112420759D01*
X142849241Y-112620637D01*
X143084273Y-112777680D01*
X143345426Y-112885853D01*
X143622665Y-112941000D01*
X143905335Y-112941000D01*
X144182574Y-112885853D01*
X144443727Y-112777680D01*
X144678759Y-112620637D01*
X144878637Y-112420759D01*
X145035680Y-112185727D01*
X145143853Y-111924574D01*
X145199000Y-111647335D01*
X145199000Y-111364665D01*
X152489000Y-111364665D01*
X152489000Y-111647335D01*
X152544147Y-111924574D01*
X152652320Y-112185727D01*
X152809363Y-112420759D01*
X153009241Y-112620637D01*
X153244273Y-112777680D01*
X153505426Y-112885853D01*
X153782665Y-112941000D01*
X154065335Y-112941000D01*
X154342574Y-112885853D01*
X154603727Y-112777680D01*
X154838759Y-112620637D01*
X155038637Y-112420759D01*
X155195680Y-112185727D01*
X155303853Y-111924574D01*
X155359000Y-111647335D01*
X155359000Y-111364665D01*
X155303853Y-111087426D01*
X155195680Y-110826273D01*
X155038637Y-110591241D01*
X154838759Y-110391363D01*
X154603727Y-110234320D01*
X154535357Y-110206000D01*
X162145928Y-110206000D01*
X162145928Y-112806000D01*
X162158188Y-112930482D01*
X162194498Y-113050180D01*
X162253463Y-113160494D01*
X162332815Y-113257185D01*
X162429506Y-113336537D01*
X162539820Y-113395502D01*
X162659518Y-113431812D01*
X162784000Y-113444072D01*
X165384000Y-113444072D01*
X165508482Y-113431812D01*
X165628180Y-113395502D01*
X165738494Y-113336537D01*
X165835185Y-113257185D01*
X165914537Y-113160494D01*
X165973502Y-113050180D01*
X166009812Y-112930482D01*
X166022072Y-112806000D01*
X166022072Y-111315419D01*
X177389000Y-111315419D01*
X177389000Y-111696581D01*
X177463361Y-112070419D01*
X177609225Y-112422566D01*
X177820987Y-112739491D01*
X178090509Y-113009013D01*
X178407434Y-113220775D01*
X178759581Y-113366639D01*
X179133419Y-113441000D01*
X179514581Y-113441000D01*
X179888419Y-113366639D01*
X180240566Y-113220775D01*
X180557491Y-113009013D01*
X180827013Y-112739491D01*
X181038775Y-112422566D01*
X181184639Y-112070419D01*
X181259000Y-111696581D01*
X181259000Y-111315419D01*
X181184639Y-110941581D01*
X181038775Y-110589434D01*
X180827013Y-110272509D01*
X180557491Y-110002987D01*
X180240566Y-109791225D01*
X179888419Y-109645361D01*
X179514581Y-109571000D01*
X179133419Y-109571000D01*
X178759581Y-109645361D01*
X178407434Y-109791225D01*
X178090509Y-110002987D01*
X177820987Y-110272509D01*
X177609225Y-110589434D01*
X177463361Y-110941581D01*
X177389000Y-111315419D01*
X166022072Y-111315419D01*
X166022072Y-110206000D01*
X166009812Y-110081518D01*
X165973502Y-109961820D01*
X165914537Y-109851506D01*
X165835185Y-109754815D01*
X165738494Y-109675463D01*
X165628180Y-109616498D01*
X165508482Y-109580188D01*
X165384000Y-109567928D01*
X162784000Y-109567928D01*
X162659518Y-109580188D01*
X162539820Y-109616498D01*
X162429506Y-109675463D01*
X162332815Y-109754815D01*
X162253463Y-109851506D01*
X162194498Y-109961820D01*
X162158188Y-110081518D01*
X162145928Y-110206000D01*
X154535357Y-110206000D01*
X154342574Y-110126147D01*
X154065335Y-110071000D01*
X153782665Y-110071000D01*
X153505426Y-110126147D01*
X153244273Y-110234320D01*
X153009241Y-110391363D01*
X152809363Y-110591241D01*
X152652320Y-110826273D01*
X152544147Y-111087426D01*
X152489000Y-111364665D01*
X145199000Y-111364665D01*
X145143853Y-111087426D01*
X145035680Y-110826273D01*
X144878637Y-110591241D01*
X144678759Y-110391363D01*
X144443727Y-110234320D01*
X144182574Y-110126147D01*
X143905335Y-110071000D01*
X143622665Y-110071000D01*
X143345426Y-110126147D01*
X143084273Y-110234320D01*
X142849241Y-110391363D01*
X142649363Y-110591241D01*
X142492320Y-110826273D01*
X142384147Y-111087426D01*
X142329000Y-111364665D01*
X139219000Y-111364665D01*
X139219000Y-111328223D01*
X139149635Y-110979501D01*
X139013571Y-110651012D01*
X138816035Y-110355379D01*
X138564621Y-110103965D01*
X138268988Y-109906429D01*
X137940499Y-109770365D01*
X137591777Y-109701000D01*
X137236223Y-109701000D01*
X136887501Y-109770365D01*
X136559012Y-109906429D01*
X136263379Y-110103965D01*
X136011965Y-110355379D01*
X135814429Y-110651012D01*
X135678365Y-110979501D01*
X135609000Y-111328223D01*
X134211061Y-111328223D01*
X134181139Y-111097530D01*
X134067495Y-110760627D01*
X133952389Y-110545275D01*
X133670602Y-110429003D01*
X132593605Y-111506000D01*
X132234395Y-111506000D01*
X131157398Y-110429003D01*
X130875611Y-110545275D01*
X130717743Y-110863860D01*
X130625062Y-111207122D01*
X130601127Y-111561869D01*
X92989000Y-111561869D01*
X92989000Y-110249398D01*
X131337003Y-110249398D01*
X132414000Y-111326395D01*
X133490997Y-110249398D01*
X133374725Y-109967611D01*
X133056140Y-109809743D01*
X132712878Y-109717062D01*
X132358131Y-109693127D01*
X132005530Y-109738861D01*
X131668627Y-109852505D01*
X131453275Y-109967611D01*
X131337003Y-110249398D01*
X92989000Y-110249398D01*
X92989000Y-103981039D01*
X133736096Y-103981039D01*
X133776754Y-104115087D01*
X133896963Y-104369420D01*
X134064481Y-104595414D01*
X134272869Y-104784385D01*
X134514119Y-104929070D01*
X134778960Y-105023909D01*
X135001000Y-104902624D01*
X135001000Y-103759000D01*
X135255000Y-103759000D01*
X135255000Y-104902624D01*
X135477040Y-105023909D01*
X135741881Y-104929070D01*
X135983131Y-104784385D01*
X136191519Y-104595414D01*
X136359037Y-104369420D01*
X136479246Y-104115087D01*
X136519904Y-103981039D01*
X136397915Y-103759000D01*
X135255000Y-103759000D01*
X135001000Y-103759000D01*
X133858085Y-103759000D01*
X133736096Y-103981039D01*
X92989000Y-103981039D01*
X92989000Y-95212000D01*
X133689928Y-95212000D01*
X133689928Y-96812000D01*
X133702188Y-96936482D01*
X133738498Y-97056180D01*
X133797463Y-97166494D01*
X133876815Y-97263185D01*
X133973506Y-97342537D01*
X134083820Y-97401502D01*
X134203518Y-97437812D01*
X134211961Y-97438643D01*
X134013363Y-97637241D01*
X133856320Y-97872273D01*
X133748147Y-98133426D01*
X133693000Y-98410665D01*
X133693000Y-98693335D01*
X133748147Y-98970574D01*
X133856320Y-99231727D01*
X134013363Y-99466759D01*
X134213241Y-99666637D01*
X134445759Y-99822000D01*
X134213241Y-99977363D01*
X134013363Y-100177241D01*
X133856320Y-100412273D01*
X133748147Y-100673426D01*
X133693000Y-100950665D01*
X133693000Y-101233335D01*
X133748147Y-101510574D01*
X133856320Y-101771727D01*
X134013363Y-102006759D01*
X134213241Y-102206637D01*
X134448273Y-102363680D01*
X134458865Y-102368067D01*
X134272869Y-102479615D01*
X134064481Y-102668586D01*
X133896963Y-102894580D01*
X133776754Y-103148913D01*
X133736096Y-103282961D01*
X133858085Y-103505000D01*
X135001000Y-103505000D01*
X135001000Y-103485000D01*
X135255000Y-103485000D01*
X135255000Y-103505000D01*
X136397915Y-103505000D01*
X136519904Y-103282961D01*
X136479246Y-103148913D01*
X136359037Y-102894580D01*
X136191519Y-102668586D01*
X135983131Y-102479615D01*
X135797135Y-102368067D01*
X135807727Y-102363680D01*
X136042759Y-102206637D01*
X136242637Y-102006759D01*
X136399680Y-101771727D01*
X136507853Y-101510574D01*
X136563000Y-101233335D01*
X136563000Y-100950665D01*
X136507853Y-100673426D01*
X136399680Y-100412273D01*
X136242637Y-100177241D01*
X136042759Y-99977363D01*
X135810241Y-99822000D01*
X136042759Y-99666637D01*
X136242637Y-99466759D01*
X136399680Y-99231727D01*
X136507853Y-98970574D01*
X136563000Y-98693335D01*
X136563000Y-98410665D01*
X136507853Y-98133426D01*
X136399680Y-97872273D01*
X136242637Y-97637241D01*
X136044039Y-97438643D01*
X136052482Y-97437812D01*
X136172180Y-97401502D01*
X136282494Y-97342537D01*
X136379185Y-97263185D01*
X136458537Y-97166494D01*
X136517502Y-97056180D01*
X136553812Y-96936482D01*
X136566072Y-96812000D01*
X136566072Y-95870665D01*
X141313000Y-95870665D01*
X141313000Y-96153335D01*
X141368147Y-96430574D01*
X141476320Y-96691727D01*
X141633363Y-96926759D01*
X141833241Y-97126637D01*
X142065759Y-97282000D01*
X141833241Y-97437363D01*
X141633363Y-97637241D01*
X141476320Y-97872273D01*
X141368147Y-98133426D01*
X141313000Y-98410665D01*
X141313000Y-98693335D01*
X141368147Y-98970574D01*
X141476320Y-99231727D01*
X141633363Y-99466759D01*
X141833241Y-99666637D01*
X142065759Y-99822000D01*
X141833241Y-99977363D01*
X141633363Y-100177241D01*
X141476320Y-100412273D01*
X141368147Y-100673426D01*
X141313000Y-100950665D01*
X141313000Y-101233335D01*
X141368147Y-101510574D01*
X141476320Y-101771727D01*
X141633363Y-102006759D01*
X141833241Y-102206637D01*
X142065759Y-102362000D01*
X141833241Y-102517363D01*
X141633363Y-102717241D01*
X141476320Y-102952273D01*
X141368147Y-103213426D01*
X141313000Y-103490665D01*
X141313000Y-103773335D01*
X141368147Y-104050574D01*
X141476320Y-104311727D01*
X141633363Y-104546759D01*
X141833241Y-104746637D01*
X142068273Y-104903680D01*
X142329426Y-105011853D01*
X142606665Y-105067000D01*
X142889335Y-105067000D01*
X143166574Y-105011853D01*
X143427727Y-104903680D01*
X143662759Y-104746637D01*
X143862637Y-104546759D01*
X144019680Y-104311727D01*
X144127853Y-104050574D01*
X144183000Y-103773335D01*
X144183000Y-103490665D01*
X144127853Y-103213426D01*
X144019680Y-102952273D01*
X143862637Y-102717241D01*
X143662759Y-102517363D01*
X143430241Y-102362000D01*
X143662759Y-102206637D01*
X143862637Y-102006759D01*
X144019680Y-101771727D01*
X144127853Y-101510574D01*
X144183000Y-101233335D01*
X144183000Y-100950665D01*
X148933000Y-100950665D01*
X148933000Y-101233335D01*
X148988147Y-101510574D01*
X149096320Y-101771727D01*
X149253363Y-102006759D01*
X149453241Y-102206637D01*
X149688273Y-102363680D01*
X149949426Y-102471853D01*
X150226665Y-102527000D01*
X150509335Y-102527000D01*
X150786574Y-102471853D01*
X151047727Y-102363680D01*
X151282759Y-102206637D01*
X151482637Y-102006759D01*
X151639680Y-101771727D01*
X151747853Y-101510574D01*
X151803000Y-101233335D01*
X151803000Y-100950665D01*
X151747853Y-100673426D01*
X151639680Y-100412273D01*
X151482637Y-100177241D01*
X151282759Y-99977363D01*
X151047727Y-99820320D01*
X150786574Y-99712147D01*
X150509335Y-99657000D01*
X150226665Y-99657000D01*
X149949426Y-99712147D01*
X149688273Y-99820320D01*
X149453241Y-99977363D01*
X149253363Y-100177241D01*
X149096320Y-100412273D01*
X148988147Y-100673426D01*
X148933000Y-100950665D01*
X144183000Y-100950665D01*
X144127853Y-100673426D01*
X144019680Y-100412273D01*
X143862637Y-100177241D01*
X143662759Y-99977363D01*
X143430241Y-99822000D01*
X143662759Y-99666637D01*
X143862637Y-99466759D01*
X144019680Y-99231727D01*
X144127853Y-98970574D01*
X144183000Y-98693335D01*
X144183000Y-98410665D01*
X144127853Y-98133426D01*
X144019680Y-97872273D01*
X143862637Y-97637241D01*
X143662759Y-97437363D01*
X143430241Y-97282000D01*
X143662759Y-97126637D01*
X143862637Y-96926759D01*
X144019680Y-96691727D01*
X144127853Y-96430574D01*
X144183000Y-96153335D01*
X144183000Y-95870665D01*
X144127853Y-95593426D01*
X144019680Y-95332273D01*
X143862637Y-95097241D01*
X143662759Y-94897363D01*
X143427727Y-94740320D01*
X143166574Y-94632147D01*
X142889335Y-94577000D01*
X142606665Y-94577000D01*
X142329426Y-94632147D01*
X142068273Y-94740320D01*
X141833241Y-94897363D01*
X141633363Y-95097241D01*
X141476320Y-95332273D01*
X141368147Y-95593426D01*
X141313000Y-95870665D01*
X136566072Y-95870665D01*
X136566072Y-95212000D01*
X136553812Y-95087518D01*
X136517502Y-94967820D01*
X136458537Y-94857506D01*
X136379185Y-94760815D01*
X136282494Y-94681463D01*
X136172180Y-94622498D01*
X136052482Y-94586188D01*
X135928000Y-94573928D01*
X134328000Y-94573928D01*
X134203518Y-94586188D01*
X134083820Y-94622498D01*
X133973506Y-94681463D01*
X133876815Y-94760815D01*
X133797463Y-94857506D01*
X133738498Y-94967820D01*
X133702188Y-95087518D01*
X133689928Y-95212000D01*
X92989000Y-95212000D01*
X92989000Y-94161402D01*
X154532401Y-94161402D01*
X154532401Y-94456600D01*
X154589991Y-94746126D01*
X154702959Y-95018854D01*
X154866962Y-95264303D01*
X155075699Y-95473040D01*
X155234282Y-95579001D01*
X155075699Y-95684962D01*
X154866962Y-95893699D01*
X154702959Y-96139148D01*
X154589991Y-96411876D01*
X154532401Y-96701402D01*
X154532401Y-96996600D01*
X154589991Y-97286126D01*
X154702959Y-97558854D01*
X154866962Y-97804303D01*
X155075699Y-98013040D01*
X155234282Y-98119001D01*
X155075699Y-98224962D01*
X154866962Y-98433699D01*
X154702959Y-98679148D01*
X154589991Y-98951876D01*
X154532401Y-99241402D01*
X154532401Y-99536600D01*
X154589991Y-99826126D01*
X154702959Y-100098854D01*
X154866962Y-100344303D01*
X155075699Y-100553040D01*
X155321148Y-100717043D01*
X155593876Y-100830011D01*
X155883402Y-100887601D01*
X156178600Y-100887601D01*
X156468126Y-100830011D01*
X156740854Y-100717043D01*
X156986303Y-100553040D01*
X157195040Y-100344303D01*
X157301001Y-100185720D01*
X157406962Y-100344303D01*
X157615699Y-100553040D01*
X157861148Y-100717043D01*
X158133876Y-100830011D01*
X158423402Y-100887601D01*
X158718600Y-100887601D01*
X159008126Y-100830011D01*
X159280854Y-100717043D01*
X159526303Y-100553040D01*
X159735040Y-100344303D01*
X159899043Y-100098854D01*
X160012011Y-99826126D01*
X160069601Y-99536600D01*
X160069601Y-99241402D01*
X160012011Y-98951876D01*
X159899043Y-98679148D01*
X159735040Y-98433699D01*
X159526303Y-98224962D01*
X159367720Y-98119001D01*
X159526303Y-98013040D01*
X159735040Y-97804303D01*
X159899043Y-97558854D01*
X160012011Y-97286126D01*
X160069601Y-96996600D01*
X160069601Y-96701402D01*
X160012011Y-96411876D01*
X159899043Y-96139148D01*
X159735040Y-95893699D01*
X159526303Y-95684962D01*
X159367720Y-95579001D01*
X159526303Y-95473040D01*
X159735040Y-95264303D01*
X159899043Y-95018854D01*
X160012011Y-94746126D01*
X160069601Y-94456600D01*
X160069601Y-94161402D01*
X160012011Y-93871876D01*
X159899043Y-93599148D01*
X159735040Y-93353699D01*
X159526303Y-93144962D01*
X159280854Y-92980959D01*
X159008126Y-92867991D01*
X158718600Y-92810401D01*
X158423402Y-92810401D01*
X158133876Y-92867991D01*
X157861148Y-92980959D01*
X157615699Y-93144962D01*
X157406962Y-93353699D01*
X157301001Y-93512282D01*
X157195040Y-93353699D01*
X156986303Y-93144962D01*
X156740854Y-92980959D01*
X156468126Y-92867991D01*
X156178600Y-92810401D01*
X155883402Y-92810401D01*
X155593876Y-92867991D01*
X155321148Y-92980959D01*
X155075699Y-93144962D01*
X154866962Y-93353699D01*
X154702959Y-93599148D01*
X154589991Y-93871876D01*
X154532401Y-94161402D01*
X92989000Y-94161402D01*
X92989000Y-90790665D01*
X148933000Y-90790665D01*
X148933000Y-91073335D01*
X148988147Y-91350574D01*
X149096320Y-91611727D01*
X149253363Y-91846759D01*
X149453241Y-92046637D01*
X149688273Y-92203680D01*
X149949426Y-92311853D01*
X150226665Y-92367000D01*
X150509335Y-92367000D01*
X150786574Y-92311853D01*
X151047727Y-92203680D01*
X151282759Y-92046637D01*
X151482637Y-91846759D01*
X151639680Y-91611727D01*
X151747853Y-91350574D01*
X151803000Y-91073335D01*
X151803000Y-90790665D01*
X151747853Y-90513426D01*
X151639680Y-90252273D01*
X151482637Y-90017241D01*
X151282759Y-89817363D01*
X151047727Y-89660320D01*
X150786574Y-89552147D01*
X150509335Y-89497000D01*
X150226665Y-89497000D01*
X149949426Y-89552147D01*
X149688273Y-89660320D01*
X149453241Y-89817363D01*
X149253363Y-90017241D01*
X149096320Y-90252273D01*
X148988147Y-90513426D01*
X148933000Y-90790665D01*
X92989000Y-90790665D01*
X92989000Y-85867000D01*
X97227928Y-85867000D01*
X97227928Y-87617000D01*
X97257001Y-87912186D01*
X97343104Y-88196028D01*
X97482927Y-88457618D01*
X97671097Y-88686903D01*
X97900382Y-88875073D01*
X98161972Y-89014896D01*
X98445814Y-89100999D01*
X98741000Y-89130072D01*
X100491000Y-89130072D01*
X100786186Y-89100999D01*
X101070028Y-89014896D01*
X101081296Y-89008873D01*
X156209001Y-89008873D01*
X156209001Y-89449129D01*
X156294891Y-89880926D01*
X156463370Y-90287670D01*
X156707963Y-90653730D01*
X157019272Y-90965039D01*
X157385332Y-91209632D01*
X157792076Y-91378111D01*
X158223873Y-91464001D01*
X158664129Y-91464001D01*
X159095926Y-91378111D01*
X159502670Y-91209632D01*
X159868730Y-90965039D01*
X160180039Y-90653730D01*
X160424632Y-90287670D01*
X160593111Y-89880926D01*
X160679001Y-89449129D01*
X160679001Y-89008873D01*
X160593111Y-88577076D01*
X160424632Y-88170332D01*
X160180039Y-87804272D01*
X159868730Y-87492963D01*
X159502670Y-87248370D01*
X159095926Y-87079891D01*
X158664129Y-86994001D01*
X158223873Y-86994001D01*
X157792076Y-87079891D01*
X157385332Y-87248370D01*
X157019272Y-87492963D01*
X156707963Y-87804272D01*
X156463370Y-88170332D01*
X156294891Y-88577076D01*
X156209001Y-89008873D01*
X101081296Y-89008873D01*
X101331618Y-88875073D01*
X101560903Y-88686903D01*
X101749073Y-88457618D01*
X101888896Y-88196028D01*
X101974999Y-87912186D01*
X102004072Y-87617000D01*
X102004072Y-85867000D01*
X101974999Y-85571814D01*
X101934722Y-85439039D01*
X113162096Y-85439039D01*
X113202754Y-85573087D01*
X113322963Y-85827420D01*
X113490481Y-86053414D01*
X113698869Y-86242385D01*
X113940119Y-86387070D01*
X114204960Y-86481909D01*
X114427000Y-86360624D01*
X114427000Y-85217000D01*
X114681000Y-85217000D01*
X114681000Y-86360624D01*
X114903040Y-86481909D01*
X115167881Y-86387070D01*
X115409131Y-86242385D01*
X115617519Y-86053414D01*
X115785037Y-85827420D01*
X115905246Y-85573087D01*
X115945904Y-85439039D01*
X115823915Y-85217000D01*
X114681000Y-85217000D01*
X114427000Y-85217000D01*
X113284085Y-85217000D01*
X113162096Y-85439039D01*
X101934722Y-85439039D01*
X101888896Y-85287972D01*
X101749073Y-85026382D01*
X101560903Y-84797097D01*
X101492502Y-84740961D01*
X113162096Y-84740961D01*
X113284085Y-84963000D01*
X114427000Y-84963000D01*
X114427000Y-83819376D01*
X114681000Y-83819376D01*
X114681000Y-84963000D01*
X115823915Y-84963000D01*
X115831790Y-84948665D01*
X123279000Y-84948665D01*
X123279000Y-85231335D01*
X123334147Y-85508574D01*
X123442320Y-85769727D01*
X123599363Y-86004759D01*
X123799241Y-86204637D01*
X124034273Y-86361680D01*
X124295426Y-86469853D01*
X124572665Y-86525000D01*
X124855335Y-86525000D01*
X125132574Y-86469853D01*
X125393727Y-86361680D01*
X125628759Y-86204637D01*
X125828637Y-86004759D01*
X125985680Y-85769727D01*
X126093853Y-85508574D01*
X126149000Y-85231335D01*
X126149000Y-84948665D01*
X126093853Y-84671426D01*
X125985680Y-84410273D01*
X125828637Y-84175241D01*
X125628759Y-83975363D01*
X125393727Y-83818320D01*
X125132574Y-83710147D01*
X124855335Y-83655000D01*
X124572665Y-83655000D01*
X124295426Y-83710147D01*
X124034273Y-83818320D01*
X123799241Y-83975363D01*
X123599363Y-84175241D01*
X123442320Y-84410273D01*
X123334147Y-84671426D01*
X123279000Y-84948665D01*
X115831790Y-84948665D01*
X115945904Y-84740961D01*
X115905246Y-84606913D01*
X115785037Y-84352580D01*
X115617519Y-84126586D01*
X115409131Y-83937615D01*
X115167881Y-83792930D01*
X114903040Y-83698091D01*
X114681000Y-83819376D01*
X114427000Y-83819376D01*
X114204960Y-83698091D01*
X113940119Y-83792930D01*
X113698869Y-83937615D01*
X113490481Y-84126586D01*
X113322963Y-84352580D01*
X113202754Y-84606913D01*
X113162096Y-84740961D01*
X101492502Y-84740961D01*
X101331618Y-84608927D01*
X101070028Y-84469104D01*
X100941357Y-84430072D01*
X104366000Y-84430072D01*
X104490482Y-84417812D01*
X104610180Y-84381502D01*
X104720494Y-84322537D01*
X104817185Y-84243185D01*
X104896537Y-84146494D01*
X104955502Y-84036180D01*
X104991812Y-83916482D01*
X105004072Y-83792000D01*
X105004072Y-82158000D01*
X134097928Y-82158000D01*
X134097928Y-83958000D01*
X134110188Y-84082482D01*
X134146498Y-84202180D01*
X134205463Y-84312494D01*
X134284815Y-84409185D01*
X134381506Y-84488537D01*
X134491820Y-84547502D01*
X134611518Y-84583812D01*
X134736000Y-84596072D01*
X136536000Y-84596072D01*
X136660482Y-84583812D01*
X136780180Y-84547502D01*
X136890494Y-84488537D01*
X136987185Y-84409185D01*
X137066537Y-84312494D01*
X137125502Y-84202180D01*
X137131056Y-84183873D01*
X137197495Y-84250312D01*
X137448905Y-84418299D01*
X137728257Y-84534011D01*
X138024816Y-84593000D01*
X138327184Y-84593000D01*
X138623743Y-84534011D01*
X138903095Y-84418299D01*
X139154505Y-84250312D01*
X139368312Y-84036505D01*
X139446000Y-83920237D01*
X139523688Y-84036505D01*
X139737495Y-84250312D01*
X139988905Y-84418299D01*
X140268257Y-84534011D01*
X140564816Y-84593000D01*
X140867184Y-84593000D01*
X141163743Y-84534011D01*
X141443095Y-84418299D01*
X141694505Y-84250312D01*
X141908312Y-84036505D01*
X142076299Y-83785095D01*
X142192011Y-83505743D01*
X142251000Y-83209184D01*
X142251000Y-82906816D01*
X142192011Y-82610257D01*
X142076299Y-82330905D01*
X141908312Y-82079495D01*
X141901867Y-82073050D01*
X166449000Y-82073050D01*
X166449000Y-82518949D01*
X166470487Y-82737110D01*
X166555401Y-83017033D01*
X166693294Y-83275013D01*
X166878866Y-83501134D01*
X167104986Y-83686706D01*
X167362966Y-83824599D01*
X167642889Y-83909513D01*
X167934000Y-83938185D01*
X168225110Y-83909513D01*
X168505033Y-83824599D01*
X168763013Y-83686706D01*
X168989134Y-83501134D01*
X169041223Y-83437663D01*
X169095595Y-83539386D01*
X169206038Y-83673962D01*
X169340614Y-83784405D01*
X169494150Y-83866472D01*
X169660746Y-83917008D01*
X169834000Y-83934072D01*
X171034000Y-83934072D01*
X171207254Y-83917008D01*
X171373850Y-83866472D01*
X171527386Y-83784405D01*
X171661962Y-83673962D01*
X171772405Y-83539386D01*
X171854472Y-83385850D01*
X171905008Y-83219254D01*
X171922072Y-83046000D01*
X171922072Y-81546000D01*
X171905008Y-81372746D01*
X171854472Y-81206150D01*
X171772405Y-81052614D01*
X171661962Y-80918038D01*
X171527386Y-80807595D01*
X171373850Y-80725528D01*
X171207254Y-80674992D01*
X171034000Y-80657928D01*
X169834000Y-80657928D01*
X169660746Y-80674992D01*
X169494150Y-80725528D01*
X169340614Y-80807595D01*
X169206038Y-80918038D01*
X169095595Y-81052614D01*
X169041223Y-81154337D01*
X168989134Y-81090866D01*
X168763014Y-80905294D01*
X168505034Y-80767401D01*
X168225111Y-80682487D01*
X167934000Y-80653815D01*
X167642890Y-80682487D01*
X167362967Y-80767401D01*
X167104987Y-80905294D01*
X166878866Y-81090866D01*
X166693294Y-81316986D01*
X166555401Y-81574966D01*
X166470487Y-81854889D01*
X166449000Y-82073050D01*
X141901867Y-82073050D01*
X141694505Y-81865688D01*
X141443095Y-81697701D01*
X141163743Y-81581989D01*
X140867184Y-81523000D01*
X140564816Y-81523000D01*
X140268257Y-81581989D01*
X139988905Y-81697701D01*
X139737495Y-81865688D01*
X139523688Y-82079495D01*
X139446000Y-82195763D01*
X139368312Y-82079495D01*
X139154505Y-81865688D01*
X138903095Y-81697701D01*
X138623743Y-81581989D01*
X138327184Y-81523000D01*
X138024816Y-81523000D01*
X137728257Y-81581989D01*
X137448905Y-81697701D01*
X137197495Y-81865688D01*
X137131056Y-81932127D01*
X137125502Y-81913820D01*
X137066537Y-81803506D01*
X136987185Y-81706815D01*
X136890494Y-81627463D01*
X136780180Y-81568498D01*
X136660482Y-81532188D01*
X136536000Y-81519928D01*
X134736000Y-81519928D01*
X134611518Y-81532188D01*
X134491820Y-81568498D01*
X134381506Y-81627463D01*
X134284815Y-81706815D01*
X134205463Y-81803506D01*
X134146498Y-81913820D01*
X134110188Y-82033518D01*
X134097928Y-82158000D01*
X105004072Y-82158000D01*
X105004072Y-80613039D01*
X113162096Y-80613039D01*
X113202754Y-80747087D01*
X113322963Y-81001420D01*
X113490481Y-81227414D01*
X113698869Y-81416385D01*
X113940119Y-81561070D01*
X114204960Y-81655909D01*
X114427000Y-81534624D01*
X114427000Y-80391000D01*
X114681000Y-80391000D01*
X114681000Y-81534624D01*
X114903040Y-81655909D01*
X115167881Y-81561070D01*
X115409131Y-81416385D01*
X115617519Y-81227414D01*
X115785037Y-81001420D01*
X115905246Y-80747087D01*
X115945904Y-80613039D01*
X115823915Y-80391000D01*
X114681000Y-80391000D01*
X114427000Y-80391000D01*
X113284085Y-80391000D01*
X113162096Y-80613039D01*
X105004072Y-80613039D01*
X105004072Y-80292000D01*
X104991812Y-80167518D01*
X104955502Y-80047820D01*
X104896537Y-79937506D01*
X104878035Y-79914961D01*
X113162096Y-79914961D01*
X113284085Y-80137000D01*
X114427000Y-80137000D01*
X114427000Y-78993376D01*
X114681000Y-78993376D01*
X114681000Y-80137000D01*
X115823915Y-80137000D01*
X115831790Y-80122665D01*
X123279000Y-80122665D01*
X123279000Y-80405335D01*
X123334147Y-80682574D01*
X123442320Y-80943727D01*
X123599363Y-81178759D01*
X123799241Y-81378637D01*
X124034273Y-81535680D01*
X124295426Y-81643853D01*
X124572665Y-81699000D01*
X124855335Y-81699000D01*
X125132574Y-81643853D01*
X125393727Y-81535680D01*
X125628759Y-81378637D01*
X125828637Y-81178759D01*
X125985680Y-80943727D01*
X126093853Y-80682574D01*
X126149000Y-80405335D01*
X126149000Y-80122665D01*
X126093853Y-79845426D01*
X125985680Y-79584273D01*
X125828637Y-79349241D01*
X125628759Y-79149363D01*
X125393727Y-78992320D01*
X125132574Y-78884147D01*
X124855335Y-78829000D01*
X124572665Y-78829000D01*
X124295426Y-78884147D01*
X124034273Y-78992320D01*
X123799241Y-79149363D01*
X123599363Y-79349241D01*
X123442320Y-79584273D01*
X123334147Y-79845426D01*
X123279000Y-80122665D01*
X115831790Y-80122665D01*
X115945904Y-79914961D01*
X115905246Y-79780913D01*
X115785037Y-79526580D01*
X115617519Y-79300586D01*
X115409131Y-79111615D01*
X115167881Y-78966930D01*
X114903040Y-78872091D01*
X114681000Y-78993376D01*
X114427000Y-78993376D01*
X114204960Y-78872091D01*
X113940119Y-78966930D01*
X113698869Y-79111615D01*
X113490481Y-79300586D01*
X113322963Y-79526580D01*
X113202754Y-79780913D01*
X113162096Y-79914961D01*
X104878035Y-79914961D01*
X104817185Y-79840815D01*
X104720494Y-79761463D01*
X104610180Y-79702498D01*
X104490482Y-79666188D01*
X104366000Y-79653928D01*
X100866000Y-79653928D01*
X100741518Y-79666188D01*
X100621820Y-79702498D01*
X100511506Y-79761463D01*
X100414815Y-79840815D01*
X100335463Y-79937506D01*
X100276498Y-80047820D01*
X100240188Y-80167518D01*
X100227928Y-80292000D01*
X100227928Y-83792000D01*
X100240188Y-83916482D01*
X100276498Y-84036180D01*
X100335463Y-84146494D01*
X100414815Y-84243185D01*
X100511506Y-84322537D01*
X100588131Y-84363494D01*
X100491000Y-84353928D01*
X98741000Y-84353928D01*
X98445814Y-84383001D01*
X98161972Y-84469104D01*
X97900382Y-84608927D01*
X97671097Y-84797097D01*
X97482927Y-85026382D01*
X97343104Y-85287972D01*
X97257001Y-85571814D01*
X97227928Y-85867000D01*
X92989000Y-85867000D01*
X92989000Y-83792000D01*
X94477928Y-83792000D01*
X94490188Y-83916482D01*
X94526498Y-84036180D01*
X94585463Y-84146494D01*
X94664815Y-84243185D01*
X94761506Y-84322537D01*
X94871820Y-84381502D01*
X94991518Y-84417812D01*
X95116000Y-84430072D01*
X96330250Y-84427000D01*
X96489000Y-84268250D01*
X96489000Y-82169000D01*
X96743000Y-82169000D01*
X96743000Y-84268250D01*
X96901750Y-84427000D01*
X98116000Y-84430072D01*
X98240482Y-84417812D01*
X98360180Y-84381502D01*
X98470494Y-84322537D01*
X98567185Y-84243185D01*
X98646537Y-84146494D01*
X98705502Y-84036180D01*
X98741812Y-83916482D01*
X98754072Y-83792000D01*
X98751000Y-82327750D01*
X98592250Y-82169000D01*
X96743000Y-82169000D01*
X96489000Y-82169000D01*
X94639750Y-82169000D01*
X94481000Y-82327750D01*
X94477928Y-83792000D01*
X92989000Y-83792000D01*
X92989000Y-80292000D01*
X94477928Y-80292000D01*
X94481000Y-81756250D01*
X94639750Y-81915000D01*
X96489000Y-81915000D01*
X96489000Y-79815750D01*
X96743000Y-79815750D01*
X96743000Y-81915000D01*
X98592250Y-81915000D01*
X98751000Y-81756250D01*
X98754072Y-80292000D01*
X98741812Y-80167518D01*
X98705502Y-80047820D01*
X98646537Y-79937506D01*
X98567185Y-79840815D01*
X98470494Y-79761463D01*
X98360180Y-79702498D01*
X98240482Y-79666188D01*
X98116000Y-79653928D01*
X96901750Y-79657000D01*
X96743000Y-79815750D01*
X96489000Y-79815750D01*
X96330250Y-79657000D01*
X95116000Y-79653928D01*
X94991518Y-79666188D01*
X94871820Y-79702498D01*
X94761506Y-79761463D01*
X94664815Y-79840815D01*
X94585463Y-79937506D01*
X94526498Y-80047820D01*
X94490188Y-80167518D01*
X94477928Y-80292000D01*
X92989000Y-80292000D01*
X92989000Y-72034000D01*
X106546974Y-72034000D01*
X106219272Y-72252963D01*
M02*
